<svg width="56" height="36" viewBox="0 0 56 36" fill="none" xmlns="http://www.w3.org/2000/svg">
<path d="M54.2998 24H0.799805V35.2H54.2998V24Z" fill="#9EAEB7"/>
<path d="M47.8 26.5H39V35.2H47.8V26.5Z" fill="#889DAA"/>
<path d="M53.0997 26.5H48.6997V35.2H53.0997V26.5Z" fill="#889DAA"/>
<path d="M16.7999 26.5H11.8999V35.2H16.7999V26.5Z" fill="#889DAA"/>
<path d="M21.9996 26.5H17.0996V35.2H21.9996V26.5Z" fill="#889DAA"/>
<path d="M9.29968 26.5H3.19971V35.2H9.29968V26.5Z" fill="#C9B68F"/>
<path d="M35.6997 6.19998H24.8996C23.1996 15.5 22.5996 25.2 22.7996 35.2H37.7996C37.5996 25.1 36.9997 15.4 35.6997 6.19998Z" fill="#A7B6C1"/>
<mask id="mask0_164_11149" style="mask-type:luminance" maskUnits="userSpaceOnUse" x="22" y="6" width="16" height="30">
<path d="M35.6997 6.19998H24.8996C23.1996 15.5 22.5996 25.2 22.7996 35.2H37.7996C37.5996 25.1 36.9997 15.4 35.6997 6.19998Z" fill="white"/>
</mask>
<g mask="url(#mask0_164_11149)">
<path d="M24.3997 21.7C30.3091 21.7 35.0997 16.9094 35.0997 11C35.0997 5.09054 30.3091 0.299988 24.3997 0.299988C18.4902 0.299988 13.6997 5.09054 13.6997 11C13.6997 16.9094 18.4902 21.7 24.3997 21.7Z" fill="#B6C8CE"/>
</g>
<mask id="mask1_164_11149" style="mask-type:luminance" maskUnits="userSpaceOnUse" x="22" y="6" width="16" height="30">
<path d="M35.6997 6.19998H24.8996C23.1996 15.5 22.5996 25.2 22.7996 35.2H37.7996C37.5996 25.1 36.9997 15.4 35.6997 6.19998Z" fill="white"/>
</mask>
<g mask="url(#mask1_164_11149)">
<path d="M23.7997 20.8C29.3778 20.8 33.8997 16.2781 33.8997 10.7C33.8997 5.12191 29.3778 0.599991 23.7997 0.599991C18.2216 0.599991 13.6997 5.12191 13.6997 10.7C13.6997 16.2781 18.2216 20.8 23.7997 20.8Z" fill="#BCD3DD"/>
</g>
<path d="M9.8996 25.9H2.59961V26.5H9.8996V25.9Z" fill="#95A5AF"/>
</svg>
