<svg width="52" height="32" viewBox="0 0 52 32" fill="none" xmlns="http://www.w3.org/2000/svg">
<path d="M1.99964 22.9C1.09964 24.3 1.19965 26.6 6.29965 27.7C11.3996 28.7 12.5996 28.6 12.5996 28.6C12.5996 28.6 21.7996 28 23.3996 28.2C24.8996 28.3 33.4996 30.4 34.8996 30.3C36.2996 30.2 52.9996 24 50.3996 19.2C47.5996 14 31.5996 5.29997 24.8996 6.79997C20.8996 7.69997 17.9996 8.79997 16.2996 9.39997C14.2996 10.2 12.4996 11.9 8.79965 14C5.09965 16.1 1.99964 22.9 1.99964 22.9Z" fill="url(#paint0_radial_164_10699)"/>
<path d="M22.1997 20.7C22.1997 20.7 23.3997 21.1 24.4997 21.2C25.0997 21.3 23.5997 21.9 23.5997 23.2C23.6997 24.6 24.6997 26.2 24.9997 26.3C25.2997 26.4 23.5997 27.1 22.9997 27.6C22.3997 28.1 21.8997 28.3 20.9997 28.3C20.0997 28.3 19.1997 28.1 19.1997 28.1L22.1997 20.7Z" fill="#2D2A31"/>
<path d="M18.8998 13.7C18.8998 13.5 18.5998 12.8 19.0998 12.2C19.8998 11.4 19.6998 12.8999 20.7998 12.2999C21.8998 11.6999 23.8998 12.8 24.1998 13.6C24.4998 14.4 22.7998 15.6 22.7998 15.6L18.8998 13.7Z" fill="#2D2A31"/>
<path d="M13.8998 22.2C13.8998 22.2 11.5998 24.5 10.8998 24.5C10.2998 24.5 11.9998 27.4 11.6998 28.1C11.3998 28.8 12.5998 28.5 12.5998 28.5C12.5998 28.5 14.4998 27.4 15.4998 27.4C16.4998 27.4 14.3998 23.6 14.3998 23.6L13.8998 22.2Z" fill="#2D2A31"/>
<path d="M18.5996 13.5L16.1997 15.7C16.0997 15.8 15.9996 16 15.8996 16.1L13.8996 20.9L11.9996 25.5C11.7996 25.9 11.8996 26.4 12.0996 26.7L13.2996 28.4C13.4996 28.7 13.7997 28.9 14.1997 28.9L17.4996 29.3C17.5996 29.3 17.7996 29.3 17.8996 29.3L19.9996 28.9C20.4996 28.8 20.8996 28.5 20.9996 28L21.6997 25.5V25.4C21.7997 25 22.0996 23.2 22.0996 23C22.0996 22.8 22.6996 21.3 22.9996 20.8C23.0996 20.7 23.0997 20.6 23.1997 20.5L24.1997 19.4C24.3997 19.1 24.5996 18.7 24.4996 18.4L23.9996 15.4V15.3L23.7996 14.4C23.6996 13.9 23.1997 13.5 22.6997 13.5L19.6997 13.3C19.1997 13.2 18.8996 13.3 18.5996 13.5Z" fill="#DBD7C1"/>
<defs>
<radialGradient id="paint0_radial_164_10699" cx="0" cy="0" r="1" gradientUnits="userSpaceOnUse" gradientTransform="translate(31.9579 5.34817) scale(28.8067 28.8067)">
<stop stop-color="#C4C658"/>
<stop offset="1" stop-color="#9FBA34"/>
</radialGradient>
</defs>
</svg>
