<svg width="60" height="48" viewBox="0 0 60 48" fill="none" xmlns="http://www.w3.org/2000/svg">
<path d="M24.3999 32.8C24.6999 32.8 26.8999 38.3 30.4999 38.4C34.0999 38.5 32.8999 36.5 41.1999 38C49.4999 39.5 51.6999 38.4 54.1999 37.3C56.6999 36.2 59.7999 34.1 56.7999 33.4C53.7999 32.7 52.6999 31.9 49.4999 30.2C46.2999 28.5 33.4999 26.3 33.4999 26.3L24.3999 32.8Z" fill="url(#paint0_linear_164_10777)"/>
<path d="M2.50006 36.7C3.20006 36.5 6.90006 33.8 8.90006 29C10.9001 24.2 20.3001 29 20.3001 29C20.3001 29 23.0001 36.3 23.8001 37.4C24.5001 38.5 20.4001 38.5 17.4001 38.3C7.00006 37.7 4.60006 38.8 3.20006 38.6C1.90006 38.3 2.50006 36.7 2.50006 36.7Z" fill="url(#paint1_linear_164_10777)"/>
<path d="M16.1003 7.89999L11.2003 9.29999L7.30029 32.3H26.8003L32.5003 9L19.9003 7.60001L16.1003 7.89999Z" fill="url(#paint2_linear_164_10777)"/>
<path d="M10.8999 9C10.8999 9 13.0999 6.5 18.0999 5.5C22.4999 4.6 39.0999 7.5 43.0999 12.5C47.0999 17.5 50.0999 27.5 50.0999 27.5L51.0999 32.5L25.8999 32.9L29.0999 9.5L10.8999 9Z" fill="url(#paint3_linear_164_10777)"/>
<path d="M10.9002 9L6.7002 32.9H25.9002L30.1002 9H10.9002ZM26.5002 23.8H24.0002L26.4002 10H29.0002L26.5002 23.8ZM20.3002 23.8L22.5002 11.5H23.9002L24.2002 10H25.7002L23.3002 23.8H20.3002ZM16.5002 23.8L18.7002 11.5H21.5002L19.3002 23.8H16.5002ZM17.7002 11.5L15.5002 23.8H12.7002L15.1002 10H16.3002L16.0002 11.5H17.7002ZM17.1002 24.9L16.6002 27.8H8.5002L9.0002 24.9H17.1002ZM18.1002 24.9H26.4002L25.9002 27.8H17.6002L18.1002 24.9ZM14.2002 10L11.8002 23.8H9.2002L11.6002 10H14.2002ZM8.3002 28.9H16.4002L15.9002 31.8H7.8002L8.3002 28.9ZM16.8002 31.8L17.3002 28.9H25.6002L25.1002 31.8H16.8002Z" fill="#7C6E55"/>
<defs>
<linearGradient id="paint0_linear_164_10777" x1="45.407" y1="45.0967" x2="41.242" y2="33.6979" gradientUnits="userSpaceOnUse">
<stop stop-color="#C4C658"/>
<stop offset="1" stop-color="#9FBA34"/>
</linearGradient>
<linearGradient id="paint1_linear_164_10777" x1="21.8925" y1="21.2761" x2="13.327" y2="36.9795" gradientUnits="userSpaceOnUse">
<stop stop-color="#C4C658"/>
<stop offset="1" stop-color="#9FBA34"/>
</linearGradient>
<linearGradient id="paint2_linear_164_10777" x1="7.30879" y1="19.9839" x2="32.4907" y2="19.9839" gradientUnits="userSpaceOnUse">
<stop stop-color="#1D1D1F"/>
<stop offset="1" stop-color="#1D1D1F"/>
</linearGradient>
<linearGradient id="paint3_linear_164_10777" x1="30.2109" y1="6.7296" x2="31.8586" y2="36.2844" gradientUnits="userSpaceOnUse">
<stop stop-color="#C4C658"/>
<stop offset="1" stop-color="#9FBA34"/>
</linearGradient>
</defs>
</svg>
