<svg width="36" height="36" viewBox="0 0 36 36" fill="none" xmlns="http://www.w3.org/2000/svg">
<path d="M5.8998 6.20004V7.30002C5.8998 7.40002 5.8998 7.40003 5.8998 7.50003L5.3998 9.80002C5.3998 10 5.3998 10.1 5.3998 10.3L6.1998 13.4C6.2998 13.6 6.19981 13.9 6.09981 14.1L4.7998 16.8C4.6998 17 4.5998 17.1 4.3998 17.2L1.59981 19C1.29981 19.2 1.19981 19.4 1.09981 19.8L0.799805 22.3C0.799805 22.5 0.799796 22.8 0.899796 22.9L1.6998 24.2C1.8998 24.6 2.2998 24.8 2.7998 24.7C4.6998 24.4 9.6998 23.6 9.8998 23.6C10.0998 23.6 14.6998 22.2 15.5998 21.9C15.6998 21.9 15.7998 21.9 15.8998 21.9H24.3998H24.4998L32.7998 23C33.2998 23.1 33.7998 22.7 33.8998 22.2C33.8998 22.1 33.8998 22 33.8998 21.9L33.3998 10.2C33.3998 9.70004 32.9998 9.20004 32.3998 9.20004L23.2998 8.50003L11.6998 7.50003C11.4998 7.50003 11.3998 7.40002 11.1998 7.30002L8.09981 5.40002C7.89981 5.30002 7.6998 5.20004 7.4998 5.20004H6.6998C6.2998 5.20004 5.8998 5.70004 5.8998 6.20004Z" fill="#C2B7BD"/>
<mask id="mask0_164_10486" style="mask-type:luminance" maskUnits="userSpaceOnUse" x="0" y="5" width="34" height="20">
<path d="M5.8998 6.20004V7.30002C5.8998 7.40002 5.8998 7.40003 5.8998 7.50003L5.3998 9.80002C5.3998 10 5.3998 10.1 5.3998 10.3L6.1998 13.4C6.2998 13.6 6.19981 13.9 6.09981 14.1L4.7998 16.8C4.6998 17 4.5998 17.1 4.3998 17.2L1.59981 19C1.29981 19.2 1.19981 19.4 1.09981 19.8L0.799805 22.3C0.799805 22.5 0.799796 22.8 0.899796 22.9L1.6998 24.2C1.8998 24.6 2.2998 24.8 2.7998 24.7C4.6998 24.4 9.6998 23.6 9.8998 23.6C10.0998 23.6 14.6998 22.2 15.5998 21.9C15.6998 21.9 15.7998 21.9 15.8998 21.9H24.3998H24.4998L32.7998 23C33.2998 23.1 33.7998 22.7 33.8998 22.2C33.8998 22.1 33.8998 22 33.8998 21.9L33.3998 10.2C33.3998 9.70004 32.9998 9.20004 32.3998 9.20004L23.2998 8.50003L11.6998 7.50003C11.4998 7.50003 11.3998 7.40002 11.1998 7.30002L8.09981 5.40002C7.89981 5.30002 7.6998 5.20004 7.4998 5.20004H6.6998C6.2998 5.20004 5.8998 5.70004 5.8998 6.20004Z" fill="white"/>
</mask>
<g mask="url(#mask0_164_10486)">
<path d="M0.0996094 23.3C0.0996094 23.3 9.3996 21.6 10.1996 21.6C10.9996 21.6 25.1996 20.7 26.4996 21.1C27.7996 21.5 31.4996 21.9 31.8996 21.9C32.2996 21.9 33.6996 21 33.6996 21L32.9996 12L34.1996 7.70004L36.7996 14.4L34.1996 30.4H1.3996L0.0996094 23.3Z" fill="#7E6C68"/>
</g>
<path d="M10 22.7H7.5V33.9H10V22.7Z" fill="#7E6C68"/>
<path d="M9.09961 22.7H6.59961V33.9H9.09961V22.7Z" fill="#C2B7BD"/>
<path d="M31.4996 22.2H28.0996V33.9H31.4996V22.2Z" fill="#7E6C68"/>
<path d="M29.7999 22.2H26.8999V33.9H29.7999V22.2Z" fill="#C2B7BD"/>
<path d="M8 18.3C8.1 18.3 9.2 19.2 9.2 19.2L11.4 18.9L12.1 18.4L12.2 16.9L11.6 15.9L10.9 15.2L10.1 15.1L8.89999 15.6L8.3 16.6L8.39999 17.4L8 18.3Z" fill="#BA001A"/>
<path d="M8.19991 18.6C8.19991 18.6 7.2999 18.6 6.8999 19.2C6.1999 20.2 5.8999 20.2 5.8999 20.2C5.8999 20.2 7.99991 20.6 8.69991 20.2C9.29991 19.8 9.3999 19.6 9.3999 19.6" fill="#608B00"/>
<path d="M9.69971 19.6C9.69971 19.6 9.8997 20 9.8997 20.2C9.8997 20.4 9.8997 21.6 9.8997 21.6H10.3997V20.3C10.3997 20.3 10.4997 19.6 10.7997 19.4" fill="#79000D"/>
<path d="M9.79973 16.6C9.79973 16.6 9.49973 15.7 10.2997 15.5C11.0997 15.3 11.0997 15.1 11.4997 15.2C11.8997 15.3 12.4997 16.4 11.4997 17.4C11.4997 17.4 11.1997 17.8 10.4997 17.8" fill="#BA001A"/>
<path d="M11.5 18.9C12.3 18.7 12.5 18.2 12.5 17.8C12.5 17.3 12 16.5 12 16.5" fill="#BA001A"/>
<path d="M9.59991 18.1001C9.59991 18.1001 9.4999 17.5001 9.3999 17.2001C9.3999 17.0001 9.89991 16.5001 10.0999 16.6001C10.3999 16.7001 10.5999 16.9001 10.4999 17.2001C10.3999 17.6001 10.3999 18 10.3999 18" fill="#BA8700"/>
<path d="M10.4999 18C10.4999 18 11.4999 17.8 11.6999 18.1C11.8999 18.4 11.4999 19.2 11.0999 19.3C10.6999 19.4 10.0999 19.6 9.89991 19.5C9.79991 19.4 8.99991 19.5001 8.89991 19.2001C8.79991 18.9001 8.49991 18.2 8.89991 18C9.29991 17.8 9.39992 17.8 9.59992 17.9C9.79992 18.1 10.1999 18.1 10.4999 18Z" fill="#BA001A"/>
<path d="M9.79968 16.1C9.79968 16.1 9.59967 16 9.39967 15.9C9.19967 15.8 8.49968 15.7 8.19968 16C7.99968 16.3 7.89968 16.6 7.99968 16.9C8.09968 17.2 8.39968 18 8.79968 18.1" fill="#BA001A"/>
<path d="M8.10015 17.1C8.10015 17.1 7.60015 17.5 7.80015 18C7.90015 18.5 8.30015 19 8.70015 19" fill="#BA001A"/>
<path d="M8.69971 15.7001C8.69971 15.7001 8.99971 14.7 9.99971 14.8C10.9997 14.9 11.0997 15.2001 11.0997 15.2001" fill="#BA001A"/>
<path d="M12.7001 16.2C12.7001 16.1 12.6001 16 12.6001 16C12.6001 15.8 12.6001 15.5 13.0001 15.4C13.5001 15.3 13.5001 15.1 13.8001 15.2C14.0001 15.3 14.5001 15.9 13.8001 16.6C13.6001 16.8 13.2001 16.7 13.0001 16.5L12.7001 16.2Z" fill="#BA001A"/>
<path d="M12.5999 14.6C12.4999 14.5 12.4999 14.4 12.5999 14.3C12.6999 14.2 12.6999 14.2 12.7999 14.2C12.8999 14.2 13.0999 14.3 12.9999 14.6C12.9999 14.7 12.7999 14.7 12.6999 14.7L12.5999 14.6Z" fill="#BA001A"/>
</svg>
