<svg width="32" height="48" viewBox="0 0 32 48" fill="none" xmlns="http://www.w3.org/2000/svg">
<g clip-path="url(#clip0_164_10970)">
<path d="M31.7999 43.8H-0.100098V47.6H31.7999V43.8Z" fill="#A5A9AA"/>
<path d="M29.4999 42.7H2.0999L-0.100098 44H31.6999L29.4999 42.7Z" fill="#DDDEDC"/>
<path d="M15.4998 3.8C14.9998 3.8 14.4998 3.7 13.9998 3.6C12.9998 3.4 8.4998 5.69999 7.9998 7.49999C7.6998 8.79999 7.7998 12.6 7.4998 15.7C7.1998 18.7 6.1998 31 5.9998 33.6C5.7998 36.2 5.9998 42.6 5.8998 42.8C5.7998 42.9 25.2998 42.8 25.2998 42.8C25.2998 42.8 25.7998 41.6 25.2998 39.9C24.7998 38.2 24.3998 29 23.7998 24.2C23.0998 19.4 23.6998 18.3 23.3998 16.5C23.0998 14.8 22.6998 12.3 22.8998 10.7C23.0998 9.19999 23.6998 4.1 15.4998 3.8Z" fill="#DDDEDC"/>
<path d="M16.8997 24.4C17.0997 24.5 17.1997 24.6 17.0997 24.8C16.9997 25 16.8997 24.9 16.6997 24.9C16.3997 24.9 16.0997 24.8 15.8997 24.9C15.7997 24.9 15.5997 25 15.6997 25.2C15.6997 25.6 15.6997 25.9 15.6997 26.3C15.6997 26.5 15.7997 26.6 15.9997 26.6C16.6997 26.6 17.3997 26.6 18.0997 26.7C18.3997 26.7 18.5997 26.8 18.5997 27.1C18.5997 27.2 18.5997 27.4 18.4997 27.5C18.3997 27.6 18.1997 27.6 18.0997 27.5C17.9997 27.3 17.6997 27.3 17.5997 27.3C17.1997 27.3 16.6997 27.2 16.2997 27.2C15.4997 27.3 14.6997 27.2 13.9997 27.4C13.6997 27.5 13.3997 27.5 12.9997 27.4C12.7997 27.3 12.5997 27.6 12.4997 27.3C12.2997 27.1 12.2997 26.9 12.5997 26.8C12.7997 26.7 12.8997 26.8 13.0997 26.8C13.6997 26.9 14.2997 26.9 14.8997 26.8C15.0997 26.8 15.1997 26.7 15.1997 26.5C15.1997 26.2 15.1997 25.9 15.1997 25.6C15.1997 25.3 14.9997 25.3 14.6997 25.3C14.2997 25.4 13.9997 25.7 13.5997 25.1C14.7997 25.1 15.8997 24.5 16.8997 24.4Z" fill="#323332"/>
<path d="M17.0001 20.8C17.3001 20.7 17.6001 20.6 17.8001 20.6C18.2001 20.7 18.6001 20.8 18.8001 21.2C18.8001 21.2 18.9001 21.3 18.8001 21.3C18.6001 21.6 18.3001 21.6 17.9001 21.6C17.8001 21.6 17.8001 21.6 17.7001 21.5C17.7001 21.4 17.7001 21.4 17.8001 21.3C17.9001 21.3 18.0001 21.2 17.9001 21.1C17.8001 21 17.8001 21 17.7001 21C17.3001 21 16.9001 21.2 16.5001 21.3C16.4001 21.4 16.3001 21.4 16.2001 21.4C16.0001 21.5 15.8001 21.7 15.8001 22L15.7001 22.1C15.7001 22.2 15.8001 22.4 15.5001 22.4C15.4001 22.4 15.4001 22.6 15.2001 22.6C15.2001 22.6 15.1001 22.6 15.1001 22.5C15.0001 22.3 15.2001 21.9 15.0001 21.8C14.9001 21.7 14.6001 21.8 14.3001 21.8C14.0001 21.8 13.7001 21.7 13.4001 21.8C13.1001 22 13.3001 22.3 13.1001 22.6C13.0001 22.8 13.0001 22.9 12.8001 23C12.6001 23.1 12.5001 22.9 12.4001 22.7C12.2001 22.4 12.2001 22.1 12.5001 21.8C12.5001 21.7 12.6001 21.6 12.7001 21.5C12.9001 21.2 13.0001 21 13.3001 21.4C13.4001 21.5 13.4001 21.5 13.5001 21.5C13.8001 21.4 14.0001 21.3 14.3001 21.2C14.4001 21.1 14.6001 21.1 14.7001 21.1C14.9001 21.1 14.9001 20.9 14.8001 20.8C14.7001 20.4 15.1001 20.5 15.3001 20.5H15.4001C15.5001 20.6 15.6001 20.7 15.7001 20.7C15.8001 20.8 16.0001 20.8 16.2001 20.8C16.6001 20.9 16.7001 20.8 17.0001 20.8Z" fill="#323332"/>
<path d="M14.2999 34.3C14.0999 34.5 13.7999 34.3 13.4999 34.4C13.2999 34.5 13.0999 34.4 13.1999 34.8V34.9C12.6999 34.8 13.0999 35.1 12.9999 35.2C12.8999 35.3 12.5999 35.3 12.4999 35.5C12.2999 35.6 12.0999 35.6 11.8999 35.5C11.9999 35.1 12.3999 35 12.6999 34.9C12.8999 34.8 12.9999 34.6 12.9999 34.4C12.9999 33.9 12.9999 33.4 12.9999 32.9C12.8999 32.8 12.8999 32.6 12.7999 32.9C12.6999 32.9 12.6999 33 12.5999 33C12.3999 33 12.1999 33.1 12.0999 32.8C11.9999 32.6 12.1999 32.5 12.3999 32.4C12.4999 32.4 12.5999 32.3 12.6999 32.3C13.2999 32.1 13.2999 32.1 13.0999 31.5C13.0999 31.3 12.8999 31 13.2999 31C13.5999 31 13.6999 31.2 13.6999 31.4C13.6999 31.5 13.6999 31.6 13.6999 31.7C13.6999 31.9 13.6999 32.1 13.9999 32C14.0999 32 14.2999 32.1 14.2999 32.2C14.3999 32.4 14.1999 32.5 14.0999 32.6C13.8999 32.6 13.7999 32.4 13.5999 32.5C13.3999 32.5 13.1999 32.5 13.3999 32.8C13.4999 32.9 13.3999 33.1 13.4999 33.2C13.6999 33.3 13.5999 33.6 13.6999 33.7C13.6999 33.8 13.6999 33.9 13.6999 33.9C13.6999 34.4 13.6999 34.4 14.1999 34.2C14.1999 34 14.3999 34 14.2999 34.3Z" fill="#323332"/>
<path d="M16.8998 30.7H16.7998C16.4998 31.2 15.8998 30.9 15.3998 31.1C15.0998 31.2 14.6998 31.3 14.4998 31.5L14.3998 31.6C14.2998 31.6 14.2998 31.5 14.2998 31.4C14.2998 31.2 14.3998 31 14.5998 31C14.8998 30.9 15.1998 30.8 15.4998 30.7C15.7998 30.6 15.8998 30.2 16.2998 30.4C16.0998 30.1 15.8998 30.1 15.5998 30.2C15.4998 30.2 15.3998 30.4 15.1998 30.3C15.0998 30 15.2998 29.7 15.6998 29.8C15.9998 29.8 16.3998 29.9 16.4998 30.3C16.5998 30.5 16.6998 30.6 16.8998 30.5C17.1998 30.5 17.3998 30.4 17.6998 30.5C17.8998 30.5 17.9998 30.7 17.9998 30.9C17.9998 31 17.8998 31.1 17.7998 31.1C17.5998 30.8 17.3998 30.7 16.9998 30.8C16.9998 30.7 16.9998 30.7 16.8998 30.7Z" fill="#323332"/>
<path d="M16.2998 36.4C16.7998 36.1 17.2998 36 17.8998 36.2C18.0998 36.3 18.3998 36.1 18.6998 36.3L18.7998 36.2C18.7998 36.7 18.6998 36.7 18.2998 36.6C17.7998 36.4 17.2998 36.4 16.7998 36.4C16.6998 36.4 16.4998 36.4 16.2998 36.4Z" fill="#323332"/>
<path d="M17.4 35.6C17.2 36 17 35.8 16.8 35.8C16.6 35.5 16.6 35.2 16.9 34.9C17 34.9 17 34.7 17.2 34.7C17.4 34.8 17.3 34.7 17.3 34.6C17.2 34.4 17.4 34.6 17.5 34.6C17.4 34.8 17.4 35.2 17.4 35.6Z" fill="#323332"/>
<path d="M15.2998 22.6C15.6998 22.7 15.3998 22.4 15.4998 22.3C15.5998 22.4 15.6998 22.4 15.6998 22.5C15.7998 22.4 15.3998 22.1 15.7998 22.1C15.8998 22.2 15.8998 22.2 15.8998 22.3C16.0998 22.2 15.9998 22 16.2998 21.9C16.3998 22 16.3998 22.1 16.3998 22.2C16.3998 22.3 16.4998 22.4 16.3998 22.6C15.8998 22.5 15.8998 22.5 15.8998 23C15.7998 23.2 15.6998 23.3 15.4998 23.2C15.2998 23.1 15.2998 23 15.2998 22.8C15.2998 22.8 15.2998 22.7 15.2998 22.6Z" fill="#323332"/>
<path d="M17.4001 31.6C17.6001 31.6 17.8001 31.9 18.1001 31.7C17.9001 32.1 17.9001 32.5 17.8001 33C17.6001 32.9 17.4001 32.9 17.1001 32.9C17.1001 32.7 17.2001 32.5 17.2001 32.2C17.3001 32.2 17.3001 32.3 17.4001 32.3C17.5001 32.1 17.4001 31.9 17.4001 31.6C17.4001 31.7 17.4001 31.7 17.4001 31.6Z" fill="#323332"/>
<path d="M14.4997 22.1C14.5997 22.3 14.8997 22.3 14.8997 22.6C14.8997 22.7 14.5997 23.3 14.4997 23.2C14.1997 23.1 14.1997 22.8 14.1997 22.5C14.2997 22.3 14.2997 22.1 14.4997 22.1Z" fill="#323332"/>
<path d="M15.2998 30.2C15.5998 30.1 15.8998 29.9 16.1998 30.1C16.3998 30.2 16.4998 30.3 16.4998 30.6C16.0998 30.3 15.8998 30.8 15.5998 30.8C15.8998 30.3 15.3998 30.4 15.2998 30.2Z" fill="#323332"/>
<path d="M14.6997 33.1C14.7997 32.9 14.8997 32.7 14.8997 32.5C15.0997 32.5 15.0997 32.7 15.0997 32.8C15.1997 33.1 15.2997 33.4 15.2997 33.7C15.2997 33.8 15.2997 34.1 14.9997 34C14.7997 33.7 14.6997 33.4 14.6997 33.1Z" fill="#323332"/>
<path d="M17.0997 32.9C17.3997 32.7 17.5997 32.7 17.7997 33C17.6997 33.3 17.6997 33.6 17.4997 33.8C17.3997 33.8 17.2997 33.8 17.0997 33.8C17.1997 33.6 17.5997 33.7 17.5997 33.4C17.5997 33.3 17.6997 33.2 17.4997 33.1C17.3997 33.1 17.2997 33.2 17.2997 33.2C17.0997 33.3 16.9997 33.6 16.7997 33.5C16.7997 33.5 16.6997 33.5 16.6997 33.4C16.6997 33.3 16.7997 33.3 16.7997 33.3C16.9997 33.3 17.0997 33.1 17.0997 32.9Z" fill="#323332"/>
<path d="M15.0001 26C14.9001 26.2 14.8001 26.4 14.7001 26.6C14.6001 26.8 14.5001 26.7 14.4001 26.7C14.2001 26.6 14.2001 26.4 14.3001 26.2C14.3001 26.1 14.4001 26 14.6001 26.1C14.6001 26.2 14.8001 26 15.0001 26Z" fill="#323332"/>
<path d="M16 25.2C16.1 25.2 16.3 25.1 16.4 25.1C16.7 25.1 16.9 25.2 16.8 25.6C16.4 25.6 16.2 25.5 16 25.2Z" fill="#323332"/>
<path d="M13.4998 32.3C13.6998 32 13.8998 32.2 13.9998 32.4C13.3998 32.6 13.5998 33.1 13.5998 33.5C13.4998 33.4 13.5998 33.1 13.3998 33C13.2998 32.8 13.1998 32.5 13.4998 32.3Z" fill="#323332"/>
<path d="M16 25.7C16.3 25.7 16.6 25.7 16.7 26C16.7 26.1 16.8 26.2 16.7 26.3C16.6 26.4 16.5 26.4 16.5 26.3C16.3 26 16 26 16 25.7Z" fill="#323332"/>
<path d="M16.8999 30.7C17.0999 30.6 17.1999 30.6 17.3999 30.6C17.6999 30.6 17.8999 30.7 17.8999 31C17.4999 30.8 17.0999 30.9 16.8999 30.7Z" fill="#323332"/>
<path d="M11.8999 35.4C12.0999 35.4 12.2999 35.3 12.4999 35.4C12.7999 35.5 12.5999 35.7 12.5999 35.8C12.1999 35.9 11.9999 35.8 11.8999 35.4Z" fill="#323332"/>
<path d="M15 25.7C15 25.9 14.9 25.9 14.9 25.9C14.7 25.8 14.5 25.9 14.5 25.5C14.5 25.4 14.5 25.3 14.6 25.4C14.8 25.5 14.9 25.6 15 25.7Z" fill="#323332"/>
<path d="M16.4 23.7C16.6 23.7 16.7 23.9 16.7 24C16.8 24.2 16.5 24.2 16.5 24.3C16.3 24.1 16.2 23.9 16.4 23.7Z" fill="#323332"/>
<path d="M15 33.9C15.2 33.9 15.1 33.7 15.2 33.6C15.3 33.6 15.3 33.5 15.4 33.5C15.6 33.6 15.7 33.7 15.4 33.8C15.3 33.9 15.2 34.1 15 33.9Z" fill="#323332"/>
<path d="M12.6001 32.8C12.6001 32.7 12.4001 32.6 12.6001 32.5C12.6001 32.5 12.7001 32.4 12.7001 32.5C12.8001 32.6 12.9001 32.7 12.8001 32.9C12.8001 32.8 12.7001 32.8 12.6001 32.8Z" fill="#323332"/>
<path d="M16.2997 22.3C16.1997 22.2 16.1997 22.1 16.1997 21.9C16.1997 21.6 16.2997 21.5 16.5997 21.6C16.7997 21.7 16.8997 21.9 17.0997 22C17.1997 22.2 17.1997 22.3 17.0997 22.5C16.9997 22.7 16.7997 22.7 16.6997 22.5C16.4997 22.5 16.3997 22.4 16.2997 22.3Z" fill="#323332"/>
<path d="M16.2998 22.3C16.5998 22.2 16.6998 22.4 16.5998 22.6C16.4998 22.7 16.3998 22.7 16.2998 22.6C16.2998 22.5 16.1998 22.4 16.2998 22.3Z" fill="#323332"/>
<path d="M13.8001 16.2C13.7001 16 13.4001 15.9 13.5001 15.6C13.8001 15.6 14.0001 15.9 14.2001 16.1C14.9001 16.8 15.8001 17 16.7001 16.7C17.1001 16.6 17.1001 16.4 16.8001 16.1C16.7001 16 16.6001 16 16.7001 15.9C17.4001 15.8 17.9001 16.4 17.9001 17.1C17.8001 17.2 17.7001 17.3 17.6001 17.2C17.3001 17 17.3001 17.3 17.1001 17.4C17.1001 17.4 17.1001 17.4 17.0001 17.4C16.7001 17.4 16.4001 17.5 16.1001 17.5C16.0001 17.6 15.9001 17.6 15.8001 17.5C15.7001 17.5 15.6001 17.4 15.5001 17.4C15.4001 17.3 15.2001 17.2 15.0001 17.3C14.8001 17.3 14.7001 17.3 14.5001 17.1C14.3001 16.9 14.2001 16.6 14.1001 16.4C14.1001 16.3 14.0001 16.2 13.8001 16.2Z" fill="#323332"/>
<path d="M16.1001 12.5C16.6001 12.4 16.8001 12 16.6001 11.5C16.4001 11 16.7001 11 17.0001 10.8C17.2001 10.7 17.3001 10.9 17.4001 11C17.4001 11.5 17.6001 11.9 18.2001 11.8C18.4001 11.8 18.5001 12 18.5001 12.1C18.5001 12.3 18.5001 12.4 18.3001 12.5C18.2001 12.5 18.1001 12.5 18.1001 12.5C17.4001 12.4 17.3001 12.5 17.3001 13.2C17.2001 13.3 17.4001 13.5 17.1001 13.6C16.9001 13.6 16.8001 13.4 16.8001 13.3C16.8001 13.2 16.7001 13.1 16.6001 13C16.4001 13 16.1001 13 15.9001 13C15.8001 13 15.7001 13 15.6001 12.9C15.6001 12.7 15.7001 12.7 15.8001 12.6C15.9001 12.5 16.1001 12.5 16.1001 12.5Z" fill="#323332"/>
<path d="M13.6997 11.2C13.9997 11.1 14.2997 11 14.5997 10.9C14.9997 10.8 15.2997 11 15.5997 11.3C15.7997 11.5 15.7997 11.7 15.5997 11.9C15.3997 11.9 15.2997 11.9 15.0997 12.1C14.9997 12.2 14.9997 12.2 14.9997 12.3C15.0997 12.4 15.1997 12.4 14.9997 12.5H14.8997C14.8997 12.4 14.8997 12.4 14.8997 12.2C14.7997 12.7 14.3997 12.5 14.1997 12.6C14.0997 12.7 13.7997 12.6 13.7997 12.8C13.7997 12.9 13.6997 13 13.5997 12.9C13.4997 12.9 13.4997 12.8 13.4997 12.7C13.4997 12.5 13.4997 12.3 13.4997 12.1C13.4997 12 13.5997 11.9 13.6997 11.8C13.7997 11.8 13.7997 11.8 13.8997 11.9C13.9997 12.4 14.2997 12.1 14.4997 12C14.6997 11.9 14.7997 11.8 14.7997 11.6C14.7997 11.4 14.4997 11.5 14.3997 11.5C14.4997 11.3 14.5997 11.5 14.7997 11.4C14.4997 11.1 14.2997 11.4 13.9997 11.4C13.6997 11.4 13.4997 11.7 13.1997 11.5C13.3997 11.4 13.4997 11.3 13.6997 11.2Z" fill="#323332"/>
<path d="M17.2997 14.7C17.2997 14.9 17.2997 15 17.2997 15.2C17.6997 15 18.0997 15.1 18.3997 15.4C18.5997 15.5 18.5997 15.8 18.5997 16C18.4997 16.1 18.3997 16 18.3997 15.9C18.1997 15.8 18.0997 15.5 17.7997 15.6C17.4997 15.5 17.2997 15.3 16.9997 15.6C16.7997 15.8 16.1997 15.4 16.1997 15.1C16.1997 15 16.2997 14.7 16.3997 14.8C16.7997 15 16.6997 14.7 16.6997 14.5C16.6997 14.4 16.6997 14.3 16.6997 14.1C16.7997 13.9 16.8997 13.8 16.9997 13.7C17.0997 13.6 17.1997 13.6 17.2997 13.8V13.9C17.1997 14.2 17.1997 14.4 17.2997 14.7Z" fill="#323332"/>
<path d="M14.6998 13.9C14.9998 14.3 14.8998 14.7 14.8998 15.2C14.8998 15.4 14.6998 15.5 14.4998 15.5C14.2998 15.5 14.1998 15.3 14.1998 15.1C14.0998 14.9 14.4998 15 14.3998 14.9C14.3998 14.7 14.4998 14.4 14.2998 14.2C14.2998 13.8 14.4998 13.8 14.6998 13.9Z" fill="#323332"/>
<path d="M14.2998 20.8C14.2998 20.4 14.6998 20.6 14.8998 20.5C14.9998 20.4 15.1998 20.4 15.2998 20.5C15.3998 20.5 15.3998 20.5 15.4998 20.4C15.5998 20.3 15.7998 20.2 15.8998 20.2C16.1998 20.1 16.3998 20.1 16.6998 20.2C16.7998 20.2 16.7998 20.3 16.7998 20.3C16.7998 20.4 16.7998 20.5 16.7998 20.5C16.6998 20.6 16.6998 20.6 16.4998 20.6C15.8998 20.4 15.3998 20.4 14.8998 20.8C14.7998 20.9 14.6998 20.9 14.5998 20.8C14.4998 20.9 14.4998 20.9 14.2998 20.8C14.3998 20.8 14.3998 20.8 14.2998 20.8Z" fill="#323332"/>
<path d="M13.1 16.9C12.9 17 12.8 17.3 12.6 17C12.4 16.8 12.3 16.5 12.6 16.3C12.8 16.1 13 15.9 13.3 15.9C13.3 16 13.2 16.1 13.2 16.2C13.2 16.3 13.1 16.4 13 16.5C13 16.7 13 16.8 13.1 16.9Z" fill="#323332"/>
<path d="M13.6997 14.2C13.5997 14.1 13.6997 14.1 13.6997 14.2C13.5997 14 13.6997 14 13.6997 14C14.0997 13.8 14.5997 13.7 14.9997 13.5C15.0997 13.5 15.1997 13.4 15.2997 13.4C15.4997 13.4 15.5997 13.4 15.5997 13.6C15.5997 13.8 15.3997 13.9 15.2997 13.8C14.8997 13.7 14.4997 13.9 14.1997 14.1C13.9997 14.1 13.8997 14.3 13.6997 14.2Z" fill="#323332"/>
<path d="M14 13.2C14.3 13.1 14.5 13 14.8 12.9C15 12.8 15.1 12.8 15.2 13C15.3 13.3 15.1 13.2 15 13.3C14.8 13.4 14.6 13.4 14.5 13.5C14.2 13.5 14.1 13.5 14 13.2Z" fill="#323332"/>
<path d="M15.2001 16.2C15.1001 16.1 15.0001 16.1 15.0001 16C14.9001 15.8 14.8001 15.6 15.2001 15.6C15.4001 15.6 15.5001 15.4 15.7001 15.4C15.8001 15.4 15.9001 15.3 16.0001 15.5C16.1001 15.6 16.0001 15.7 15.9001 15.8C15.6001 15.8 15.5001 16 15.2001 16.2Z" fill="#323332"/>
<path d="M17.2997 13.8C16.9997 13.7 16.8997 14 16.6997 14.1C16.6997 13.7 16.6997 13.3 16.6997 13C16.8997 13 16.8997 13 16.8997 13.2C16.8997 13.3 16.9997 13.5 17.0997 13.5C17.2997 13.5 17.1997 13.3 17.2997 13.2C17.2997 13.4 17.2997 13.6 17.2997 13.8Z" fill="#323332"/>
<path d="M16.4998 14C16.4998 14.2 16.3998 14.3 16.1998 14.3C15.9998 14.3 15.7998 14.3 15.7998 14C15.7998 13.8 15.9998 13.6 16.0998 13.6C16.2998 13.6 16.4998 13.8 16.4998 14Z" fill="#323332"/>
<path d="M13.6001 15.1C13.4001 14.8 13.5001 14.5 13.8001 14.3C14.0001 14.1 14.0001 14.1 14.1001 14.3C14.0001 14.5 13.9001 14.7 13.9001 14.9C13.9001 15.1 13.8001 15.1 13.6001 15.1Z" fill="#323332"/>
<path d="M15.4 14.8C15.1 14.8 15.2 14.5 15.1 14.3C15 14.2 15.2 14 15.3 14.1C15.6 14.1 15.6 14.4 15.6 14.6C15.7 14.8 15.5 14.8 15.4 14.8Z" fill="#323332"/>
<path d="M15.1001 20.9C14.9001 21 14.8001 21 14.6001 21C14.6001 21 14.6001 21 14.6001 20.9C15.0001 20.7 15.4001 20.5 15.9001 20.4C16.2001 20.4 16.4001 20.4 16.6001 20.6C16.3001 20.6 15.9001 20.5 15.6001 20.6C15.5001 20.7 15.4001 20.7 15.2001 20.7C15.1001 20.8 15.0001 20.8 15.1001 20.9Z" fill="#323332"/>
<path d="M13.7998 16.2C13.8998 16.1 13.9998 16.1 14.0998 16.2C14.2998 16.5 14.4998 16.7 14.5998 17.1C14.4998 17.2 14.3998 17.1 14.2998 17C14.1998 16.9 14.0998 16.7 13.9998 16.6C13.9998 16.4 13.7998 16.4 13.7998 16.2Z" fill="#323332"/>
<path d="M15.1997 16.2C15.2997 15.8 15.5997 15.7 15.8997 15.7C15.7997 15.9 15.6997 16 15.5997 16.2C15.4997 16.4 15.3997 16.4 15.1997 16.2Z" fill="#323332"/>
<path d="M17.7998 15.6C17.7998 15.5 17.7998 15.4 17.8998 15.4C17.9998 15.4 18.1998 15.4 18.1998 15.6C18.2998 15.8 18.4998 15.9 18.5998 16L18.4998 16.1C18.2998 15.9 17.8998 15.9 17.7998 15.6Z" fill="#323332"/>
<path d="M14.0997 14.3C13.9997 14.1 13.8997 14.3 13.7997 14.3C13.7997 14.2 13.6997 14.2 13.6997 14.1C13.9997 14 14.2997 13.9 14.5997 13.8C14.7997 13.7 15.0997 13.7 15.2997 13.8C15.0997 13.9 14.8997 13.7 14.6997 13.9C14.5997 14 14.3997 13.9 14.2997 14.1C14.1997 14.1 14.1997 14.2 14.0997 14.3Z" fill="#323332"/>
<path d="M17.2999 14.7C17.0999 14.4 17.0999 14.2 17.2999 13.9C17.2999 14.2 17.2999 14.4 17.2999 14.7Z" fill="#323332"/>
<path d="M15.1001 17.3C15.3001 17.1 15.5001 17 15.5001 17.4C15.4001 17.4 15.2001 17.3 15.1001 17.3Z" fill="#323332"/>
<path d="M14.1997 36.5C14.6997 36.2 15.0997 36.2 15.5997 36.4C15.2997 36.5 14.8997 36.6 14.5997 36.6C14.3997 36.7 14.2997 36.7 14.1997 36.5Z" fill="#323332"/>
<path d="M17.3999 31.7C17.6999 31.8 17.4999 32.2 17.6999 32.4C17.6999 32.5 17.5999 32.5 17.4999 32.5C17.2999 32.5 17.2999 32.4 17.2999 32.3C17.2999 32.1 17.1999 31.9 17.3999 31.7Z" fill="#323332"/>
<path d="M15.3998 33.8C15.4998 33.7 15.4998 33.6 15.2998 33.5C15.2998 33.4 15.3998 33.4 15.4998 33.4C15.5998 33.4 15.6998 33.2 15.7998 33.2C15.7998 33.5 15.9998 33.2 16.0998 33.3C15.9998 33.7 15.6998 33.8 15.3998 33.8Z" fill="#323332"/>
<path d="M12.9001 14.1C13.1001 14.2 12.9001 14.3 12.9001 14.4C12.8001 14.5 12.7001 14.5 12.7001 14.7C12.6001 14.8 12.6001 14.9 12.5001 14.9C12.4001 14.9 12.2001 14.9 12.1001 14.8C12.3001 14.6 12.6001 14.4 12.9001 14.1Z" fill="#323332"/>
<path d="M12.7998 22.4C12.8998 22.3 12.8998 22.1 12.9998 22C13.0998 21.9 13.1998 21.9 13.2998 22C13.3998 22.1 13.2998 22.2 13.1998 22.2C13.0998 22.2 12.9998 22.3 12.7998 22.4Z" fill="#323332"/>
<path d="M15.6001 20.7H15.7001C15.8001 20.7 15.9001 20.6 15.9001 20.7C15.9001 20.7 15.8001 20.8 15.8001 20.9C15.6001 20.9 15.6001 20.9 15.6001 20.7Z" fill="#323332"/>
<path d="M17.8001 35.8C17.6001 35.8 17.4001 35.8 17.5001 35.5C17.3001 35.5 17.1001 35.7 16.9001 35.6C16.8001 36 16.5001 35.8 16.3001 35.8C16.2001 35.8 15.9001 36 15.9001 35.7C15.9001 35.5 16.1001 35.3 16.4001 35.4C16.5001 35.4 16.6001 35.5 16.7001 35.4V35.3C16.6001 35.2 16.5001 35.2 16.4001 35.2C16.3001 35.2 16.2001 35.3 16.1001 35.3C15.9001 35.4 15.9001 35.2 15.9001 35.1C16.1001 35 16.1001 34.6 16.4001 34.8C16.5001 34.8 16.6001 34.9 16.7001 34.7C16.7001 34.6 16.6001 34.5 16.5001 34.5C16.4001 34.5 16.3001 34.5 16.2001 34.6C16.1001 34.6 16.0001 34.7 15.9001 34.6C15.8001 34.5 15.9001 34.4 16.0001 34.3C16.3001 34.1 16.6001 34.1 16.9001 34.2C17.0001 34.2 17.0001 34.3 17.0001 34.4C16.9001 34.5 17.0001 34.7 17.0001 34.8C17.3001 34.9 17.5001 34.7 17.6001 34.5C17.6001 34.4 17.8001 34.2 17.6001 34.1C17.2001 33.9 16.7001 33.8 16.3001 34.1C16.2001 34.2 16.1001 34.2 15.9001 34.2C15.6001 34.1 15.4001 34.3 15.5001 34.6C15.6001 35 15.6001 35.4 15.6001 35.8C15.6001 36.1 15.5001 36.2 15.2001 36.2C14.9001 36.2 14.7001 36.2 14.4001 36.2C14.3001 36.2 14.1001 36.3 14.1001 36.4C14.1001 36.6 14.2001 36.7 14.3001 36.7C14.8001 36.6 15.2001 36.5 15.7001 36.6C15.9001 36.6 16.2001 36.5 16.4001 36.5C16.7001 36.5 16.9001 36.3 17.2001 36.3C17.7001 36.4 18.2001 36.3 18.7001 36.5C18.9001 36.6 18.9001 36.4 18.9001 36.3C18.6001 35.7 18.2001 35.8 17.8001 35.8Z" fill="#323332"/>
<path d="M13.5001 32.3C13.4001 32.5 13.5001 32.8 13.3001 33C13.1001 32.9 13.1001 32.6 13.0001 32.4C12.9001 32.2 13.2001 32.2 13.5001 32.3Z" fill="#323332"/>
<path d="M13.4997 33.9C13.3997 34 13.3997 34.2 13.2997 34.2C13.1997 34.2 13.1997 34.1 13.1997 34.1C13.1997 34 13.1997 33.8 13.3997 33.8C13.3997 33.8 13.3997 33.8 13.4997 33.9Z" fill="#323332"/>
<path d="M14.8998 23.9C14.8998 23.7 14.6998 23.7 14.4998 23.7C14.2998 23.7 14.1998 23.7 14.0998 23.7C13.3998 23.8 13.2998 24.1 13.6998 24.7C13.7998 24.9 13.9998 24.9 14.1998 24.8C14.2998 24.7 14.4998 24.7 14.5998 24.6C14.8998 24.4 14.8998 24.1 14.8998 23.9ZM14.1998 24.4C13.9998 24.3 13.9998 24.2 13.9998 24.1C13.9998 24 14.0998 24 14.1998 24C14.2998 24 14.3998 24.1 14.3998 24.2C14.2998 24.3 14.2998 24.4 14.1998 24.4Z" fill="#323332"/>
<path d="M15.6999 23.4C15.2999 23.4 14.8999 23.6 14.9999 23.8C15.0999 24.1 14.7999 24.5 15.2999 24.7C15.6999 24.8 16.0999 24.2 16.1999 23.7C16.1999 23.3 15.9999 23.4 15.6999 23.4ZM15.4999 24.1C15.2999 24.1 15.2999 23.9 15.2999 23.8C15.2999 23.6 15.4999 23.7 15.5999 23.6C15.6999 23.6 15.6999 23.6 15.6999 23.7C15.7999 23.9 15.6999 24.1 15.4999 24.1Z" fill="#323332"/>
<path d="M17.4999 23.1H17.3999C17.0999 23.2 16.6999 23.2 16.3999 23.4C16.3999 23.5 16.3999 23.6 16.3999 23.7C16.4999 23.9 16.5999 24.1 16.4999 24.3C16.5999 24.5 16.7999 24.3 16.8999 24.3C16.9999 24.2 17.0999 24.1 17.1999 24.2C17.3999 24.3 17.4999 24.2 17.5999 24C17.5999 23.6 17.7999 23.4 17.4999 23.1ZM17.1999 23.6C17.0999 23.7 16.9999 23.8 16.8999 23.8C16.7999 23.8 16.7999 23.7 16.7999 23.6C16.7999 23.4 16.9999 23.5 17.0999 23.5C17.1999 23.5 17.1999 23.5 17.1999 23.6Z" fill="#323332"/>
<path d="M17.5 11C17.3 11 17.2 10.8 17 10.8C17.3 10.5 17.4 10.9 17.5 11Z" fill="#323332"/>
<path d="M17.7001 31.3C16.7001 31.1 15.7001 31.3 14.8001 31.6C14.6001 31.7 14.6001 31.7 14.6001 31.9C14.6001 32.3 14.6001 32.6 14.7001 33C15.0001 32.9 15.0001 32.6 15.0001 32.3C15.0001 32.2 15.0001 32 15.1001 31.9C15.2001 32 15.2001 32.2 15.3001 32.4C15.4001 32.7 15.3001 33.1 15.5001 33.4C15.7001 33.5 15.7001 33.4 15.8001 33.3C15.9001 33.6 16.0001 33.4 16.2001 33.3C16.3001 33.2 16.6001 33.3 16.4001 33C16.4001 33 16.4001 32.9 16.5001 32.9C16.8001 33.1 16.7001 32.9 16.7001 32.7C16.7001 32.3 16.8001 31.9 16.8001 31.6C16.8001 31.3 16.9001 31.3 17.1001 31.4C17.2001 31.4 17.3001 31.5 17.4001 31.5C17.6001 31.7 17.8001 31.9 18.1001 31.6C18.2001 31.4 17.9001 31.4 17.7001 31.3ZM15.7001 31.8C15.7001 31.6 15.9001 31.6 16.0001 31.6C16.1001 31.6 16.3001 31.6 16.2001 31.8C16.2001 32 16.0001 31.9 15.9001 31.9C15.8001 32 15.7001 31.9 15.7001 31.8ZM16.0001 33.3C15.9001 33.3 15.9001 33.3 15.8001 33.3V33.2C15.8001 33 16.0001 33 16.1001 33C16.2001 33 16.2001 33 16.2001 33.1C16.3001 33.3 16.1001 33.3 16.0001 33.3ZM16.1001 32.6C15.9001 32.7 15.8001 32.6 15.8001 32.5C15.8001 32.3 15.9001 32.3 16.1001 32.3C16.2001 32.3 16.3001 32.3 16.3001 32.5C16.3001 32.6 16.1001 32.6 16.1001 32.6Z" fill="#323332"/>
</g>
<defs>
<clipPath id="clip0_164_10970">
<rect width="32" height="48" fill="white"/>
</clipPath>
</defs>
</svg>
