<svg width="60" height="28" viewBox="0 0 60 28" fill="none" xmlns="http://www.w3.org/2000/svg">
<path d="M0.80032 22.7C1.20032 19.1 7.00031 9.50002 12.7003 7.70002C17.7003 6.10002 23.3003 5.00002 31.4003 8.20002C45.3003 13.7 58.6003 23.2 57.5003 25.1C56.4003 27 32.9003 27 29.7003 27C26.6003 27 18.1003 26.7 4.20031 26.7C-0.699686 26.6 0.40032 25.6 0.80032 22.7Z" fill="url(#paint0_linear_164_10889)"/>
<path d="M5.1001 27H34.2001L26.4001 15L16.4001 14.3L7.90009 18.7L5.1001 27Z" fill="#2A2620"/>
<path d="M2.2002 27C2.2002 27 5.3002 11.9 18.2002 11.9C30.0002 11.9 34.6002 21.5 36.7002 27H30.0002C30.0002 27 29.9002 21.2 26.3002 18.7H20.8002L19.8002 16.1H16.6002L15.6002 18.7H9.90019C9.90019 18.7 6.90019 24.2 6.90019 27H2.2002Z" fill="#7C6E55"/>
<defs>
<linearGradient id="paint0_linear_164_10889" x1="28.2492" y1="13.2853" x2="28.9926" y2="25.3291" gradientUnits="userSpaceOnUse">
<stop stop-color="#C4C658"/>
<stop offset="1" stop-color="#9FBA34"/>
</linearGradient>
</defs>
</svg>
