<svg width="64" height="92" viewBox="0 0 64 92" fill="none" xmlns="http://www.w3.org/2000/svg">
<path d="M6.1999 22.9C5.8999 21.1 6.5999 19.2 7.9999 18C10.9999 15.4 15.9999 11.2 17.2999 11.7C18.8999 12.4 27.8999 17.4 30.1999 18.6C30.5999 18.8 30.8999 19 31.2999 19.1L38.1999 21.1L40.3999 21.6C41.3999 21.8 42.3999 21.8 43.2999 21.5L47.6999 20.2C48.8999 19.9 50.0999 19.9 51.1999 20.3L56.3999 22.3C57.8999 22.9 59.0999 24.1 59.5999 25.7L62.0999 33.2C62.6999 35.1 62.2999 37.2 60.8999 38.6L60.6999 38.8C59.6999 39.9 58.1999 40.6 56.6999 40.6H13.2999C10.2999 40.6 7.7999 38.2 7.7999 35.1C7.7999 34.8 7.7999 34.6 7.6999 34.3L6.1999 22.9Z" fill="#A5A9AA"/>
<mask id="mask0_164_10439" style="mask-type:luminance" maskUnits="userSpaceOnUse" x="6" y="11" width="57" height="30">
<path d="M6.1999 22.9C5.8999 21.1 6.5999 19.2 7.9999 18C10.9999 15.4 15.9999 11.2 17.2999 11.7C18.8999 12.4 27.8999 17.4 30.1999 18.6C30.5999 18.8 30.8999 19 31.2999 19.1L38.1999 21.1L40.3999 21.6C41.3999 21.8 42.3999 21.8 43.2999 21.5L47.6999 20.2C48.8999 19.9 50.0999 19.9 51.1999 20.3L56.3999 22.3C57.8999 22.9 59.0999 24.1 59.5999 25.7L62.0999 33.2C62.6999 35.1 62.2999 37.2 60.8999 38.6L60.6999 38.8C59.6999 39.9 58.1999 40.6 56.6999 40.6H13.2999C10.2999 40.6 7.7999 38.2 7.7999 35.1C7.7999 34.8 7.7999 34.6 7.6999 34.3L6.1999 22.9Z" fill="white"/>
</mask>
<g mask="url(#mask0_164_10439)">
<path opacity="0.7" d="M36.2999 45.7C44.8051 45.7 51.6999 40.9095 51.6999 35C51.6999 29.0906 44.8051 24.3 36.2999 24.3C27.7947 24.3 20.8999 29.0906 20.8999 35C20.8999 40.9095 27.7947 45.7 36.2999 45.7Z" fill="#8D9091"/>
</g>
<mask id="mask1_164_10439" style="mask-type:luminance" maskUnits="userSpaceOnUse" x="6" y="11" width="57" height="30">
<path d="M6.1999 22.9C5.8999 21.1 6.5999 19.2 7.9999 18C10.9999 15.4 15.9999 11.2 17.2999 11.7C18.8999 12.4 27.8999 17.4 30.1999 18.6C30.5999 18.8 30.8999 19 31.2999 19.1L38.1999 21.1L40.3999 21.6C41.3999 21.8 42.3999 21.8 43.2999 21.5L47.6999 20.2C48.8999 19.9 50.0999 19.9 51.1999 20.3L56.3999 22.3C57.8999 22.9 59.0999 24.1 59.5999 25.7L62.0999 33.2C62.6999 35.1 62.2999 37.2 60.8999 38.6L60.6999 38.8C59.6999 39.9 58.1999 40.6 56.6999 40.6H13.2999C10.2999 40.6 7.7999 38.2 7.7999 35.1C7.7999 34.8 7.7999 34.6 7.6999 34.3L6.1999 22.9Z" fill="white"/>
</mask>
<g mask="url(#mask1_164_10439)">
<path opacity="0.7" d="M36.2998 43C42.6511 43 47.7998 39.4183 47.7998 35C47.7998 30.5818 42.6511 27 36.2998 27C29.9485 27 24.7998 30.5818 24.7998 35C24.7998 39.4183 29.9485 43 36.2998 43Z" fill="#727475"/>
</g>
<path d="M18.3997 10.7C18.4997 10.7 18.4997 10.7 18.5997 10.7C21.4997 10.7 19.6997 8.90002 24.3997 12.5L28.9997 16.1C29.0997 16.2 29.1997 16.2 29.2997 16.3L34.7997 19.4C35.1997 19.6 35.5997 19.7 35.9997 19.7L42.0997 19.3L46.6997 19.1C46.7997 19.1 46.8997 19.1 46.9997 19.1L55.8997 19.8C56.3997 19.8 56.7997 20 57.1997 20.4L58.5997 21.7C58.6997 21.8 58.6997 21.8 58.7997 21.9C59.6997 23 59.2997 24.7 57.9997 25.3L57.4997 25.5C56.9997 25.7 56.2997 25.7 55.7997 25.5C54.0997 24.7 50.1997 23.1 49.9997 23.1C49.7997 23.1 44.5997 24.5 42.8997 24.9C42.4997 25 42.1997 25 41.7997 24.9L28.9997 21.6C28.7997 21.6 28.6997 21.5 28.4997 21.4L20.7997 17.3C20.7997 17.3 20.6997 17.3 20.6997 17.2C20.1997 17 15.5997 14.9 15.2997 14.8C15.1997 14.8 15.0997 14.4 14.9997 14.1C14.7997 13.4 15.0997 12.6 15.5997 12.1L16.2997 11.5C16.5997 11.2 17.0997 11 17.5997 10.9L18.3997 10.7Z" fill="#5B6D01"/>
<path d="M21.5999 46.5C25.8999 46.7 26.4999 49.3 30.0999 50.4C33.2999 51.4 39.3999 48.3 47.9999 45.6C51.3999 44.5 56.7999 45.7 60.4999 44.5C61.3999 44.5 62.3999 43.6 62.4999 42.7C62.5999 41.4 62.5999 41.4 60.0999 39.7C59.5999 39.3 55.9999 38 55.3999 37.8H55.2999C54.4999 37.6 47.6999 36.3 47.0999 36.3C46.6999 36.3 44.0999 36.7 42.3999 37C42.2999 32.7 42.8999 24.5 42.9999 22.3C43.1999 19.5 44.1999 18.4 42.2999 18.5C41.4999 18.5 40.7999 18.6 40.1999 18.6C39.0999 18.7 37.7999 18.1 37.2999 19C37.1999 19.2 37.0999 19.3 37.0999 19.4C36.9999 19.8 37.3999 30.1 37.5999 35.9L37.3999 35.8C36.8999 34.3 36.4999 32.6 36.4999 30.6C36.5999 25.9 36.4999 20.4 36.4999 19.5C36.4999 19.4 36.4999 19.3 36.4999 19.3C36.5999 19 36.7999 18.1 34.6999 17.7C33.6999 17.5 33.0999 17.5 32.5999 17.5C32.0999 17.5 31.8999 18 32.0999 18.4C32.4999 19.2 33.0999 20.8 33.1999 22.9C33.3999 26.2 33.1999 34.3 33.1999 34.8L33.0999 35.6L24.4999 36C24.3999 36 24.3999 36 24.2999 36C24.2999 36 19.5999 35.7 13.6999 38.3C7.7999 41.1 9.19991 45.8 21.5999 46.5Z" fill="#2D79B2"/>
<path d="M27.4997 89.1C28.1997 89.1 28.6997 88.5 28.5997 87.9C28.0997 81.2 28.7997 51.3 28.7997 48.1C28.7997 46.5 30.1997 44.9 31.6997 43.7C33.0997 42.5 32.8997 40.3 31.2997 39.4L30.3997 38.9C29.7997 38.6 29.1997 38.5 28.5997 38.7L23.8997 39.9C22.1997 40.3 21.3997 42.3 22.3997 43.8C23.3997 45.4 24.0997 47.4 24.0997 49.4V87.9C24.0997 88.5 24.5997 89 25.1997 89H27.4997V89.1Z" fill="url(#paint0_linear_164_10439)"/>
<defs>
<linearGradient id="paint0_linear_164_10439" x1="27.3329" y1="50.6541" x2="27.3329" y2="78.6997" gradientUnits="userSpaceOnUse">
<stop stop-color="#2D79B2"/>
<stop offset="1" stop-color="#FB624D"/>
</linearGradient>
</defs>
</svg>
