<svg width="44" height="36" viewBox="0 0 44 36" fill="none" xmlns="http://www.w3.org/2000/svg">
<path d="M44 16.3C44.1 8.49998 3.6 8.49998 3.5 16.3L8.2 30.1H39.2L44 16.3Z" fill="#397C81"/>
<mask id="mask0_164_11083" style="mask-type:luminance" maskUnits="userSpaceOnUse" x="3" y="10" width="41" height="21">
<path d="M43.5 16.3C43.6 8.49998 3.1 8.49998 3 16.3L7.7 30.1H38.7L43.5 16.3Z" fill="white"/>
</mask>
<g mask="url(#mask0_164_11083)">
<path d="M66.3998 21.6C66.3998 33 57.1999 42.2 45.7999 42.2C34.3999 42.2 20.3998 31.9 25.1998 21.6C29.6998 11.9 31.7999 -1.10002 45.7999 0.999979C56.9999 2.69998 66.3998 10.2 66.3998 21.6Z" fill="#389193"/>
</g>
<path d="M28.8997 18.2C25.5997 17.9 22.0997 17.9 18.3997 18.2C17.8997 18.2 17.4997 17.9 17.3997 17.3L16.8997 13.1C16.7997 12.6 17.1997 12.1 17.6997 12C22.0997 11.4 26.1997 11.4 29.4997 12C29.9997 12.1 30.2997 12.6 30.2997 13.1L29.7997 17.3C29.7997 17.9 29.3997 18.3 28.8997 18.2Z" fill="#343E40"/>
<path d="M36.1997 19.9C34.7997 19.4 33.2997 19 31.7997 18.7C31.2997 18.6 30.9997 18.1 31.0997 17.6L31.7997 13.5C31.8997 13 32.2997 12.7 32.7997 12.7C34.7997 12.9 36.5997 13.4 38.0997 14.1C38.4997 14.3 38.6997 14.8 38.5997 15.3L37.3997 19.3C37.1997 19.8 36.6997 20.1 36.1997 19.9Z" fill="#343E40"/>
<path d="M39.2996 21.5C39.0996 21.4 38.7996 21.2 38.5996 21.1C38.0996 20.9 37.8995 20.3 38.1995 19.8L39.8995 15.9C40.0995 15.5 40.4995 15.2 40.9995 15.4C41.4995 15.5 41.9996 15.8 42.2996 16C42.6996 16.3 42.7996 16.8 42.5996 17.3L40.6995 21.1C40.2995 21.6 39.7996 21.7 39.2996 21.5Z" fill="#343E40"/>
<path d="M11.1999 19.9C12.5999 19.4 14.0999 19 15.5999 18.7C16.0999 18.6 16.3999 18.1 16.2999 17.6L15.5999 13.5C15.4999 13 15.0999 12.7 14.5999 12.7C12.5999 12.9 10.7999 13.4 9.2999 14.1C8.8999 14.3 8.6999 14.8 8.7999 15.3L9.99989 19.3C10.1999 19.8 10.6999 20.1 11.1999 19.9Z" fill="#343E40"/>
<path d="M8.09971 21.5C8.29971 21.4 8.59971 21.2 8.79971 21.1C9.29971 20.9 9.4997 20.3 9.1997 19.8L7.4997 15.9C7.2997 15.5 6.8997 15.2 6.3997 15.4C5.8997 15.5 5.39971 15.8 5.09971 16C4.69971 16.3 4.59971 16.8 4.79971 17.3L6.6997 21.1C7.0997 21.6 7.59971 21.7 8.09971 21.5Z" fill="#343E40"/>
<path d="M42.5998 22.2C28.8998 24.4 14.8998 24.2 0.799805 22.2V33.3C15.0998 35.9 29.0998 36 42.5998 33.3V22.2Z" fill="#745B54"/>
<mask id="mask1_164_11083" style="mask-type:luminance" maskUnits="userSpaceOnUse" x="0" y="22" width="43" height="14">
<path d="M42.5998 22.2C28.8998 24.4 14.8998 24.2 0.799805 22.2V33.3C15.0998 35.9 29.0998 36 42.5998 33.3V22.2Z" fill="white"/>
</mask>
<g mask="url(#mask1_164_11083)">
<path d="M11 32.2C19.2843 32.2 26 25.4843 26 17.2C26 8.91571 19.2843 2.19998 11 2.19998C2.71573 2.19998 -4 8.91571 -4 17.2C-4 25.4843 2.71573 32.2 11 32.2Z" fill="#936E65"/>
</g>
<mask id="mask2_164_11083" style="mask-type:luminance" maskUnits="userSpaceOnUse" x="0" y="22" width="43" height="14">
<path d="M42.5998 22.2C28.8998 24.4 14.8998 24.2 0.799805 22.2V33.3C15.0998 35.9 29.0998 36 42.5998 33.3V22.2Z" fill="white"/>
</mask>
<g mask="url(#mask2_164_11083)">
<path d="M39.1999 27.7H12.3999V30.2H13.5999V35.6H37.9999V30.2H39.1999V27.7Z" fill="#C2B7BD"/>
</g>
<mask id="mask3_164_11083" style="mask-type:luminance" maskUnits="userSpaceOnUse" x="0" y="22" width="43" height="14">
<path d="M42.5998 22.2C28.8998 24.4 14.8998 24.2 0.799805 22.2V33.3C15.0998 35.9 29.0998 36 42.5998 33.3V22.2Z" fill="white"/>
</mask>
<g mask="url(#mask3_164_11083)">
<path d="M36.4998 30.2H15.2998V36.8H36.4998V30.2Z" fill="#3D3736"/>
</g>
<path d="M27.0999 24.4C27.0999 24.5 27.0999 24.5 27.0999 24.6C26.8999 25.1 26.2999 25.4 25.8999 25.7C25.7999 25.8 25.5999 25.9 25.3999 26.1H25.2999C24.8999 25.1 25.9999 24.4 26.8999 24.5H26.9999H27.0999V24.4Z" fill="#396C65"/>
<path d="M27.0999 24.9C27.0999 25 27.0999 25 27.0999 25.1C26.8999 25.6 26.2999 25.9 25.8999 26.2C25.7999 26.3 25.5999 26.4 25.3999 26.6H25.2999C24.8999 25.6 25.9999 24.9 26.8999 25H26.9999H27.0999V24.9Z" fill="#A18B00"/>
<path d="M27.0999 25.4C27.0999 25.5 27.0999 25.5 27.0999 25.6C26.8999 26.1 26.2999 26.4 25.8999 26.7C25.7999 26.8 25.5999 26.9 25.3999 27.1H25.2999C24.8999 26.1 25.9999 25.4 26.8999 25.5H26.9999H27.0999V25.4Z" fill="#8F1B00"/>
</svg>
