<svg width="48" height="32" viewBox="0 0 48 32" fill="none" xmlns="http://www.w3.org/2000/svg">
<path d="M20.8002 10.2999C22.6002 10.5999 24.9002 11.4 26.6002 12.1C27.1002 12.3 27.5002 12.5 27.9002 12.7C27.9002 12.7 28.3002 12.7999 28.6002 12.8999C29.0002 13.0999 29.5002 13.5 29.9002 13.5C30.2002 13.7 30.2002 13.6999 30.4002 13.8999C31.0002 13.7999 31.5002 14.5 32.0002 14.6C32.6002 15.4 33.0002 15.1999 33.5002 15.3999C33.6002 15.3999 34.1002 15.9 34.4002 16C33.8002 16.4 32.3002 17.7999 31.7002 18.3999C31.7002 18.3999 31.4002 18.6 31.2002 18.7C27.6002 21.7 24.1002 24.7 20.5002 27.7C20.4002 27.7 20.4002 27.7 20.4002 27.7C20.6002 27.1 20.8002 26.0999 20.7002 25.3999C20.8002 25.1999 20.8002 25.2 20.8002 25C20.8002 24.2 20.8002 24.1999 20.8002 23.2999C20.5002 22.3999 20.4002 21.5 20.2002 20.6C19.9002 19.9 19.3002 19.8 19.3002 18.7C18.2002 17.8 18.2002 17.3 16.7002 16.1C15.6002 15.3 15.0002 15.1999 13.8002 14.3999C12.6002 14.3999 11.9002 14 11.8002 14C11.2002 13.9 10.2002 13.9999 9.60019 14.2999C9.30019 14.2999 9.0002 14.2999 8.7002 14.3999C8.7002 14.2999 8.9002 14.2 8.9002 14.1C9.6002 13.5 12.4002 11.8999 13.1002 11.2999C15.7002 9.69994 18.0002 9.99994 20.8002 10.2999Z" fill="#FAF0E1"/>
<path d="M38.4002 11.9999L37.9002 12.7999C37.7002 13.0999 37.3002 13.4 37.0002 13.7C36.5002 13.2 35.9002 13.4 35.5002 13.2C34.9002 12.8 35.3002 12.5999 35.0002 12.3999C34.9002 12.3999 34.4002 11.7999 34.0002 11.7999C33.6002 11.3999 33.6002 11.3999 33.3002 10.9999C32.4002 10.7999 31.9002 10.1999 31.5002 9.89994H31.4002C31.3002 9.79994 31.3002 9.79993 31.3002 9.79993C31.3002 9.79993 31.2002 9.79995 31.2002 9.69995C31.2002 9.69995 31.1002 9.69995 31.1002 9.59995C31.0002 9.59995 31.0002 9.49994 30.9002 9.49994C30.9002 9.49994 30.8002 9.49994 30.7002 9.39994C27.7002 7.59994 23.7002 6.69993 20.2002 6.79993C20.9002 6.19993 24.4002 3.99995 25.5002 3.19995C28.9002 1.09995 34.2002 1.69993 36.7002 4.79993C37.9002 6.29993 38.8002 8.69995 38.6002 10.5999C38.7002 10.7999 38.5002 11.8999 38.4002 11.9999Z" fill="#FAF0E1"/>
<path d="M44.5001 14.8999C43.8001 14.8999 36.1001 13.5999 35.9001 12.4999C35.8001 11.7999 35.3001 12.5999 35.1001 12.4999C35.0001 12.4999 34.5001 11.8999 34.1001 11.8999C33.7001 11.4999 33.7001 11.5 33.4001 11.1C32.5001 10.9 32.0001 10.2999 31.6001 9.99994H31.5001C31.4001 9.89994 31.4001 9.89994 31.4001 9.89994C31.4001 9.89994 31.3001 9.89993 31.3001 9.79993C31.3001 9.79993 31.2001 9.79996 31.2001 9.69996C31.1001 9.69996 31.1001 9.59995 31.0001 9.59995C31.0001 9.59995 30.9001 9.59994 30.8001 9.49994C27.8001 7.69994 23.8001 6.79994 20.3001 6.89994C20.3001 6.89994 20.3001 6.89994 20.3001 6.99994C20.2001 6.99994 20.1001 7.09994 20.0001 6.99994C19.9001 7.09994 19.9001 7.09995 19.8001 7.09995C19.6001 7.09995 19.5001 7.29994 19.3001 7.39994C19.3001 7.39994 19.2001 7.39994 19.2001 7.49994C19.2001 7.49994 19.1001 7.49995 19.1001 7.59995C19.1001 7.59995 19.0001 7.59996 19.0001 7.69996C18.9001 7.79996 18.8001 7.79994 18.7001 7.89994L18.6001 7.99994C18.6001 7.99994 18.5001 7.99995 18.5001 8.09995C18.5001 8.09995 18.4001 8.09996 18.4001 8.19996C18.3001 8.19996 18.3001 8.29993 18.2001 8.29993C18.2001 8.29993 18.1001 8.29994 18.1001 8.39994C18.1001 8.39994 18.0001 8.39994 18.0001 8.49994C18.0001 8.49994 17.9001 8.49995 17.9001 8.59995C17.8001 8.59995 17.8001 8.69996 17.7001 8.69996C17.7001 8.69996 17.6001 8.69993 17.6001 8.79993C17.5001 8.79993 17.5001 8.89994 17.4001 8.89994C17.2001 8.99994 17.0001 9.09993 16.9001 9.29993C16.8001 9.29993 16.8001 9.39994 16.7001 9.39994C16.1001 9.79994 14.4001 10.8 14.0001 11.1C13.9001 11.2 13.8001 11.4 13.6001 11.6C16.0001 9.79995 18.2001 10.1999 21.0001 10.4999C22.8001 10.7999 25.1001 11.5999 26.8001 12.2999C27.3001 12.4999 27.7001 12.6999 28.1001 12.8999C28.1001 12.8999 28.5001 13 28.8001 13.1C29.2001 13.3 29.7001 13.7 30.1001 13.7C30.4001 13.9 30.4001 13.9 30.6001 14.1C31.2001 14 31.7001 14.6999 32.2001 14.7999C33.6001 16.5999 41.3001 17.3 41.2001 16.7C41.2001 16.6 41.8001 17.1999 42.1001 17.2999C42.1001 17.2999 42.2001 17.2 42.3001 17.2C42.6001 17.1 42.9001 17.3 43.3001 17.2C44.5001 17.1 45.2001 16.1999 46.2001 15.7999C45.4001 15.5999 45.1001 14.8999 44.5001 14.8999Z" fill="#F5DBB5"/>
<path d="M9.10003 14.2999C9.00003 14.3999 8.90003 14.4999 8.90003 14.5999C8.40003 14.9999 6.70003 15.8999 6.40003 16.3999C6.30003 16.5999 6.10003 17.2999 5.50003 17.8999C5.40003 18.2999 5.30003 18.6999 5.10003 19.0999C5.00003 20.1999 4.70003 21.3999 5.20003 22.4999C4.90003 23.7999 6.50003 26.0999 6.50003 26.2999C6.60003 26.7999 5.60003 27.9 5.20003 28.2C5.20003 28.2 5.30003 28.1999 5.30003 28.2999C5.30003 28.2999 5.30003 28.2999 5.30003 28.3999C5.30003 28.3999 5.20003 28.4 5.20003 28.2C5.50003 27.9 6.50003 26.7999 6.40003 26.3999C4.90003 24.1999 4.30003 20.1999 5.40003 17.8999C5.60003 17.4999 6.00003 16.9999 6.20003 16.4999C7.10003 15.4999 8.10003 14.8999 9.10003 14.2999Z" fill="#1D222F"/>
<path d="M20.3999 27.6999C20.0999 28.4999 19.3999 29.3999 18.7999 29.9999C16.4999 31.8999 14.3999 30.9999 11.7999 30.4999C10.1999 29.6999 8.59991 28.8999 6.79991 28.3999C6.39991 28.2999 5.69991 28.1999 5.49991 28.1999C5.49991 28.1999 5.39991 28.1999 5.39991 28.0999C5.79991 27.7999 6.69991 26.6999 6.69991 26.1999C6.69991 25.9999 5.09991 23.6999 5.39991 22.3999C4.89991 21.2999 5.19991 20.0999 5.29991 18.9999C5.49991 18.5999 5.59991 18.1999 5.69991 17.7999C6.29991 17.1999 6.4999 16.4999 6.5999 16.2999C6.8999 15.7999 8.4999 14.8999 9.0999 14.4999C9.3999 14.2999 9.69991 14.3999 9.99991 14.3999C10.5999 14.1999 11.5999 13.9999 12.1999 14.0999C12.2999 14.0999 12.8999 14.4999 14.1999 14.4999C15.2999 15.2999 15.9999 15.3999 17.0999 16.1999C18.5999 17.2999 18.6999 17.8999 19.6999 18.7999C19.6999 19.8999 20.2999 19.9999 20.5999 20.6999C20.7999 21.5999 20.9999 22.4999 21.1999 23.3999C21.1999 24.1999 21.1999 24.1999 21.1999 25.0999C21.0999 25.2999 21.0999 25.2999 21.0999 25.4999C20.7999 26.0999 20.5999 27.0999 20.3999 27.6999Z" fill="#F5DBB5"/>
<path d="M11.3001 14.8999C12.7001 14.7999 14.1001 15.3999 15.4001 16.0999C18.2001 17.6999 20.7001 21.2999 20.3001 24.6999C20.0001 25.9999 20.3001 26.6999 19.4001 28.0999C18.6001 29.1999 17.3001 30.0999 15.9001 30.2999C14.1001 30.5999 12.9001 30.1999 11.4001 29.4999C10.0001 28.8999 8.40012 27.6999 7.60012 26.3999C7.40012 26.0999 6.00012 22.9999 5.90012 22.5999C5.40012 21.1999 5.60012 19.9999 6.00012 18.5999C6.30012 17.5999 6.50012 17.0999 7.30012 16.3999C8.30012 15.4999 9.80012 14.8999 11.3001 14.8999Z" fill="#1A1C2F"/>
<path d="M10.8999 15.2C13.0999 15 13.7999 15.5999 15.5999 16.3999C16.0999 16.7999 16.5999 17.2 17.0999 17.6C17.8999 18.4 18.9999 20.2 19.5999 21.2C20.3999 23.5 19.9999 23.7 19.8999 25.7C19.8999 25.7 19.9999 26.3 19.8999 26.6C18.8999 29.2 16.2999 30.5 13.5999 30.1C11.7999 29.8 9.0999 28.2 7.9999 26.7C7.4999 26 5.9999 23.0999 5.8999 22.3999C5.8999 21.3999 5.8999 21.3999 5.8999 20.4999C6.2999 19.4999 6.1999 18.7999 6.7999 17.7999C7.4999 16.2999 9.2999 15.3 10.8999 15.2Z" fill="#F5DBB5"/>
<path d="M11.5 16.8999C12.7 16.9999 14.2 17.3999 15.2 18.0999C16 18.7999 17.4 20.8999 17.8 21.7999C17.9 22.0999 18.3 23.3999 18.3 23.5999C18.4 24.2999 17.9 26.1 17.5 26.7C17.2 27.3 16 28.0999 17.2 26.9999C18 25.2999 18.4 24.4999 17.9 22.5999C17.6 21.2999 15.9 18.6999 14.8 17.8999C13.5 16.9999 11.3 16.6999 9.80003 17.3999C9.50003 17.5999 8.50003 18.4999 8.30003 18.7999C7.70003 19.6999 7.90003 20.7999 7.70003 21.7999C8.20003 24.0999 9.10003 26 11.2 27.2C12.4 27.9 14.9 28.8999 16.2 27.8999C15.1 29.0999 13 28.3 11.7 27.7C9.90004 26.9 8.70003 25.3999 8.00003 23.5999C7.60003 22.3999 7.50003 21.3999 7.60003 20.0999C7.80003 18.7999 8.50004 18.3999 9.40004 17.4999C10.5 17.0999 10.5 17.0999 11.5 16.8999Z" fill="#1A1C2F"/>
<path d="M11.6 15.7999C12.5 15.7999 13.4 16.1999 14.2 16.5999C13.8 16.5999 13.5 16.3 12.9 16.2C11.7 16 10.4 15.9999 9.4 16.5999C8.9 16.8999 7.7 18.0999 7.4 18.4999C6.9 19.4999 6.7 22.1 6.9 23.2C7.2 24 7.4 24.4999 7.9 25.2999C10.6 29.2999 18 31.6999 19.1 25.0999C19.1 26.8999 18.5 27.8 17 28.7C15.6 29.6 14.9 29.6 13.3 29.2C10.8 28.5 8.7 27.0999 7.5 24.7999C6.2 22.3999 6.6 21.4999 7.1 18.9999C7.6 17.3999 9 16.3999 10.5 15.7999C10.8 15.9999 11.2 15.7999 11.6 15.7999Z" fill="#1A1C2F"/>
<path d="M14.6001 16.7999C17.3001 18.4999 19.5001 20.8999 19.1001 24.2999C19.0001 23.6999 19.0001 22.9999 18.9001 22.3999C18.3001 19.6999 16.6001 18.3999 14.6001 16.7999Z" fill="#1A1C2F"/>
<path d="M11.3998 17.8999C14.1998 17.6999 16.9998 20.9999 17.2998 23.5999C17.3998 24.7999 16.8998 26.4 15.7998 27.0999C14.6998 27.7999 14.1998 27.7 13.0998 27.2C11.7998 26.6 10.3998 25.4 9.69981 24.2C9.09981 23.2 9.0998 22.4999 8.7998 21.3999C8.7998 20.4999 8.89981 19.8 9.49981 19.1C9.89981 18.5 10.6998 17.8999 11.3998 17.8999Z" fill="#1A1C2F"/>
<path d="M11.2997 17.9999C12.9997 17.7999 14.8997 19.1999 15.7997 20.5999C16.1997 21.1999 16.9997 22.8999 17.0997 23.5999C17.2997 24.9999 16.4997 26.6999 14.9997 27.1999C12.9997 27.7999 9.89974 25.0999 9.19974 23.2999C8.89974 21.9999 8.49973 20.9999 9.09973 19.6999C9.39973 18.9999 10.5997 18.0999 11.2997 17.9999Z" fill="#F5DBB5"/>
</svg>
