<svg width="48" height="32" viewBox="0 0 48 32" fill="none" xmlns="http://www.w3.org/2000/svg">
<path d="M44.5 31.5H15.9C14.8 31.5 14 30.6 14 29.6V14.4C14 13.3 14.9 12.5 15.9 12.5H44.5C45.6 12.5 46.4 13.4 46.4 14.4V29.6C46.4 30.7 45.6 31.5 44.5 31.5Z" fill="#625B53"/>
<path d="M29.0001 11.4C29.1001 11.1 28.9001 10.8 28.6001 10.6L19.4001 6.2C19.3001 6.1 19.1001 6.10001 18.9001 6.10001L17.1001 6.39999H17.0001L10.0001 9C9.8001 9.1 9.70011 9.2 9.60011 9.3C9.30011 9.9 8.30009 11.5 8.30009 11.7C8.30009 11.9 4.30011 26.7 3.20011 30.5C3.10011 30.9 3.50009 31.3 3.90009 31.3H13.1001C13.5001 31.3 13.8001 31 13.8001 30.7L13.3001 12.7C13.3001 12.4 13.6001 12.1 14.0001 12.1L28.1001 11.8C28.6001 11.9 28.9001 11.7 29.0001 11.4Z" fill="#889DAA"/>
<path d="M30.0001 12.3C30.1001 12 29.9001 11.7 29.6001 11.5L20.4001 6.3C20.3001 6.2 20.1001 6.2 19.9001 6.2L18.1001 6.5H18.0001L11.0001 9.10001C10.8001 9.20001 10.7001 9.29999 10.6001 9.39999C10.3001 9.99999 9.30009 11.6 9.30009 11.8C9.30009 12 5.30011 26.8 4.20011 30.6C4.10011 31 4.50009 31.4 4.90009 31.4H14.1001C14.5001 31.4 14.8001 31.1 14.8001 30.8L14.3001 13.7C14.3001 13.4 14.6001 13.1 15.0001 13.1L29.1001 12.8C29.6001 12.8 29.9001 12.6 30.0001 12.3Z" fill="#DDDEDC"/>
<mask id="mask0_164_10653" style="mask-type:luminance" maskUnits="userSpaceOnUse" x="14" y="12" width="33" height="20">
<path d="M44.5 31.5H15.9C14.8 31.5 14 30.6 14 29.6V14.4C14 13.3 14.9 12.5 15.9 12.5H44.5C45.6 12.5 46.4 13.4 46.4 14.4V29.6C46.4 30.7 45.6 31.5 44.5 31.5Z" fill="white"/>
</mask>
<g mask="url(#mask0_164_10653)">
<path d="M44.7999 12.4C44.7999 12.4 43.5999 18.9 41.6999 21.1C39.7999 23.2 39.3999 27.8 39.3999 27.8L46.4999 27V23C46.4999 23 43.9999 24.6 43.5999 25.3C43.5999 25.3 44.3999 22.9 46.4999 21.8L46.5999 18.9C46.5999 18.9 44.5999 20.4 43.3999 21.7C43.3999 21.7 45.4999 19.2 46.2999 17.9C47.0999 16.7 47.3999 15.1 47.3999 15.1V11.4L44.7999 12.4Z" fill="#6C7C62"/>
</g>
<path d="M44.5 24.5H36.6V24C36.6 22.9 35.7 22.1 34.7 22.1H15.9C14.8 22.1 14 23 14 24V26.5V27.2V29.7C14 30.8 14.9 31.6 15.9 31.6H44.5C45.6 31.6 46.4 30.7 46.4 29.7V26.5C46.4 25.3 45.6 24.5 44.5 24.5Z" fill="#A7B6C1"/>
<path d="M38.6 18.1C38.6 18 38.7 18 38.7 17.9V17.8C38.7 17.6 38.8 17.5 38.9 17.3C39.1 16.9 38.6 17.2 38.6 17C38.3 16.7 38 17 37.8 17.2C37.6 17.3 37.4 17.2 37.3 17.3C37.3 17.5 37.6 17.2 37.6 17.4C37.4 17.6 37.2 17.9 37 18.1C37.1 18.4 37.1 18.4 37.4 18C37.5 18.1 37.4 18.2 37.5 18.2C37.5 18.5 37.7 18.5 37.9 18.4C38.3 18.2 38.3 18.3 38.3 18.7C38.3 18.9 38.3 19.1 38.5 19.2C38.5 19 38.5 18.8 38.5 18.6C38.5 18.3 38.6 18.2 38.9 18.3C39 18.3 39.1 18.4 39.2 18.2C39.1 18 38.8 18.2 38.6 18.1Z" fill="#BDBCAD"/>
<path d="M31.7999 17.6C31.6999 17.6 31.6999 17.5 31.5999 17.5C31.4999 17.5 31.4999 17.4 31.4999 17.3C31.4999 17.2 31.6999 17.1 31.5999 17H31.4999C31.3999 17 31.3999 17.1 31.3999 17.2C31.2999 17.2 31.1999 17.2 31.1999 17C31.1999 16.9 31.0999 16.8 31.0999 16.9C30.9999 17.1 30.7999 17.2 30.7999 17.5C30.9999 17.7 30.6999 17.7 30.5999 17.8C30.4999 17.9 30.2999 17.8 30.2999 18.1C30.3999 18.2 30.1999 18.3 30.2999 18.4C30.2999 18.4 30.2999 18.5 30.3999 18.5C30.4999 18.6 30.5999 18.6 30.6999 18.7C30.6999 18.7 30.6999 18.8 30.7999 18.8C30.7999 18.9 30.7999 19 30.8999 19C31.0999 19 31.2999 18.8 31.4999 19C31.5999 19.1 31.6999 19 31.6999 18.8C31.7999 18.5 31.7999 18.3 31.7999 18C31.5999 17.7 31.3999 18 31.1999 17.9V17.8C31.3999 17.7 31.5999 17.7 31.8999 17.7C31.9999 17.7 31.9999 17.7 31.9999 17.6C31.8999 17.7 31.8999 17.6 31.7999 17.6Z" fill="#BDBCAD"/>
<path d="M34.4001 18.3C34.0001 18.3 34.1001 17.9 34.1001 17.7C34.0001 17.6 34.4001 17.5 34.2001 17.3C34.1001 17.2 34.1001 17.1 34.2001 17C34.2001 16.9 34.3001 16.8 34.1001 16.8C34.0001 16.8 33.9001 16.8 33.9001 17C33.9001 17.1 33.9001 17.2 33.8001 17.3C33.7001 17.3 33.6001 17.3 33.5001 17.3C33.5001 17.2 33.7001 17.1 33.7001 17C33.7001 16.9 33.6001 17 33.5001 17C33.2001 16.9 33.1001 17.1 33.1001 17.3C33.0001 17.4 33.0001 17.5 32.9001 17.7C32.9001 17.7 32.9001 17.7 32.8001 17.7C32.8001 17.9 32.6001 18 32.6001 18.2C33.0001 18 33.1001 18 33.1001 18.3C32.8001 18.4 32.6001 18.5 32.6001 18.8L32.7001 18.9H32.8001C32.9001 18.6 33.1001 18.6 33.4001 18.8C33.7001 19.1 34.0001 19.1 34.2001 18.8C34.1001 18.6 34.0001 18.4 33.8001 18.3C33.7001 18.3 33.6001 18.3 33.6001 18.3C33.6001 18.3 33.5001 18.3 33.5001 18.4C33.5001 18.5 33.5001 18.5 33.6001 18.6C33.6001 18.7 33.7001 18.7 33.7001 18.6C33.7001 18.5 33.8001 18.5 33.8001 18.5C33.8001 18.6 34.0001 18.7 33.8001 18.8C33.6001 18.9 33.3001 18.6 33.3001 18.4C33.4001 18.4 33.4001 18.3 33.5001 18.3C33.7001 18.1 33.9001 18.1 34.0001 18.3C34.1001 18.4 34.2001 18.4 34.4001 18.5C34.5001 18.5 34.5001 18.5 34.6001 18.5C34.4001 18.4 34.4001 18.3 34.4001 18.3Z" fill="#BDBCAD"/>
<path d="M36.4999 17.3C36.3999 17.2 36.2999 17.3 36.2999 17.4C36.1999 17.2 35.9999 17.4 35.8999 17.3C35.8999 17.2 36.0999 17.2 35.9999 17C35.8999 16.9 35.7999 16.9 35.6999 17C35.5999 17 35.3999 17 35.5999 17.2C35.6999 17.4 35.5999 17.4 35.4999 17.4C35.3999 17.4 35.2999 17.3 35.1999 17.5C35.0999 17.6 35.0999 17.8 35.0999 18C35.2999 18.1 35.0999 18.4 35.3999 18.4L35.4999 18.5C35.4999 18.7 35.1999 18.8 35.3999 19C35.2999 19 35.1999 19 35.1999 19C34.9999 19 35.0999 19.1 35.1999 19.2C35.3999 19.2 35.4999 19.2 35.5999 19.1C35.8999 19.1 36.1999 19.2 36.4999 19.2C36.5999 19.1 36.5999 19 36.3999 19C36.1999 19 35.9999 19 35.8999 19C35.8999 18.9 35.9999 18.9 35.9999 18.8C36.1999 18.8 36.2999 18.8 36.1999 18.6C36.0999 18.5 36.0999 18.4 36.0999 18.3C36.0999 18.3 36.0999 18.3 36.0999 18.2C36.0999 18.2 36.0999 18.2 36.0999 18.1C36.2999 18.1 36.3999 18 36.4999 17.9C36.5999 17.8 36.5999 17.7 36.3999 17.7C36.2999 17.7 36.1999 17.7 36.0999 17.8C35.9999 17.8 35.9999 17.8 35.8999 17.8C35.8999 17.6 36.1999 17.7 36.1999 17.5C36.2999 17.5 36.3999 17.5 36.3999 17.5C36.4999 17.5 36.5999 17.5 36.5999 17.4C36.5999 17.3 36.5999 17.3 36.4999 17.3Z" fill="#BDBCAD"/>
<path d="M26.6001 18.8C26.5001 18.8 26.5001 18.8 26.4001 18.7C26.2001 18.5 26.4001 18.2 26.4001 18C26.4001 17.8 26.4001 17.8 26.3001 17.8C26.2001 17.8 26.1001 17.9 26.0001 17.7C26.0001 17.6 26.2001 17.6 26.2001 17.5C26.1001 17.4 25.9001 17.4 25.9001 17.2C25.9001 17.1 25.9001 17.1 25.8001 17.1C25.8001 16.9 26.0001 16.9 26.1001 16.8C26.0001 16.6 26.0001 16.6 25.6001 16.7C25.5001 16.7 25.4001 16.5 25.2001 16.6C25.1001 16.7 25.2001 16.7 25.2001 16.8C25.2001 16.9 25.1001 17.1 25.1001 17.2C25.1001 17.3 25.0001 17.3 24.9001 17.3C24.8001 17.3 24.8001 17.2 24.8001 17.1C24.8001 17 24.8001 17 24.8001 16.9C24.8001 16.8 24.8001 16.8 24.7001 16.8C24.6001 16.8 24.6001 16.9 24.6001 16.9C24.6001 17.1 24.6001 17.2 24.5001 17.4C24.1001 17.2 24.2001 17.6 24.1001 17.7C24.1001 18.1 24.3001 17.8 24.4001 17.8C24.4001 18 24.0001 18.1 24.2001 18.3C24.3001 18.4 24.5001 18.6 24.6001 18.7C24.7001 18.6 24.6001 18.4 24.7001 18.3C24.7001 18.4 24.8001 18.5 24.8001 18.6C24.9001 18.7 25.0001 19 25.2001 19C25.4001 19 25.3001 18.7 25.4001 18.6C25.4001 18.6 25.4001 18.6 25.5001 18.6C25.6001 18.7 25.5001 18.9 25.7001 18.8C26.0001 18.7 26.0001 18.9 26.1001 19.1C26.2001 19.1 26.4001 19.4 26.5001 19.1V19C26.9001 18.7 26.9001 18.7 26.6001 18.8Z" fill="#BDBCAD"/>
<path d="M19.9 15.7C20 15.7 20 15.5 20.1 15.4C20.3 15.4 20.3 15.5 20.3 15.6C20.3 15.8 20.3 15.9 20.5 15.8C20.5 15.7 20.6 15.7 20.7 15.7C20.7 15.8 20.6 15.9 20.8 15.9C20.9 15.9 21 15.8 20.9 15.7C20.9 15.6 20.9 15.4 20.9 15.3C20.8 15.1 20.9 15.1 21.1 15.1V15C20.7 14.4 20.7 14.4 20.3 14.9C20.2 15 20.2 15 20.1 15.1L20 15.2C19.8 15.4 19.7 15.5 19.9 15.7Z" fill="#BDBCAD"/>
<path d="M19.0001 18.6C18.6001 18.9 18.6001 18.5 18.5001 18.4C18.5001 18.3 18.6001 18.3 18.6001 18.2C18.7001 18.1 18.7001 18 18.6001 17.9C18.4001 17.8 18.4001 18 18.4001 18.1C18.4001 18 18.3001 18 18.3001 17.9C18.2001 17.6 18.5001 17.6 18.6001 17.4C18.8001 17.2 18.5001 17.2 18.4001 17.2C18.4001 17.2 18.4001 17.2 18.4001 17.1C18.5001 17 18.4001 17 18.4001 16.9C18.3001 16.9 18.2001 16.9 18.1001 16.9L18.0001 16.8L17.9001 16.7C17.7001 16.7 17.6001 16.8 17.7001 17C17.7001 17 17.7001 17 17.8001 17C17.8001 17 17.8001 17 17.7001 17C17.6001 17.2 17.5001 17.1 17.3001 17.2C17.2001 17.1 17.1001 17.1 17.0001 17.1C16.9001 17.3 16.5001 17.4 16.6001 17.7C16.5001 17.8 16.6001 17.8 16.6001 17.9C16.7001 17.9 16.8001 17.9 16.9001 17.9C16.9001 18 17.0001 18.1 17.0001 18.2C16.8001 18.3 16.5001 18.4 16.6001 18.7C16.7001 18.8 16.8001 18.8 16.9001 18.7C17.1001 18.5 17.3001 18.4 17.5001 18.7C17.6001 18.5 17.5001 18.4 17.5001 18.2H17.6001C17.6001 18.5 17.7001 18.5 17.7001 18.6C17.7001 18.6 17.7001 18.7 17.8001 18.7C17.9001 19 18.3001 18.9 18.5001 19C18.5001 19 18.5001 19.1 18.6001 19.1C18.5001 19.4 18.6001 19.5 19.0001 19.6C19.0001 19.5 19.1001 19.4 19.1001 19.3C19.1001 19.2 19.2001 19.1 19.2001 19C19.1001 18.8 19.1001 18.5 19.0001 18.6Z" fill="#BDBCAD"/>
<path d="M24.2001 15.3C24.0001 15.2 24.1001 15 24.0001 14.8C24.0001 14.7 24.0001 14.6 23.9001 14.6C23.8001 14.6 23.8001 14.7 23.7001 14.7C23.6001 14.8 23.6001 15 23.5001 15.1C23.3001 15.3 23.4001 15.4 23.6001 15.4C23.8001 15.4 23.8001 15.5 23.8001 15.6C23.8001 15.7 23.8001 15.8 23.8001 15.9H23.9001C24.0001 15.7 23.8001 15.4 24.0001 15.3C24.2001 15.4 24.2001 15.4 24.2001 15.3Z" fill="#BDBCAD"/>
<path d="M25.5003 15.9C25.6003 15.7 25.6003 15.5 25.5003 15.4C25.4003 15.3 25.4003 15.2 25.5003 15.1C25.6003 15 25.6003 14.9 25.4003 14.9C25.2003 14.9 25.1003 14.9 24.9003 15C25.0003 15.2 25.1003 15.1 25.3003 15.2C25.2003 15.3 25.1003 15.3 25.0003 15.4C24.9003 15.5 24.9003 15.6 25.1003 15.6C25.3003 15.6 25.3003 15.7 25.3003 15.8C25.3003 16 25.2003 16 25.0003 15.9C24.9003 15.8 24.8003 15.9 24.8003 16C25.1003 16 25.3003 16.1 25.5003 15.9Z" fill="#BDBCAD"/>
<path d="M22.3999 15.4C22.3999 15.4 22.3999 15.6 22.4999 15.5C22.5999 15.5 22.5999 15.4 22.5999 15.3C22.5999 15.2 22.6999 14.9 22.3999 15.1C22.2999 15.1 22.0999 15.2 21.9999 15.1C21.8999 14.9 21.7999 15 21.5999 15C21.4999 15.1 21.4999 15.1 21.5999 15.2C21.7999 15.3 21.6999 15.5 21.7999 15.6C21.8999 15.5 21.8999 15.3 21.9999 15.2C22.0999 15.4 22.2999 15.3 22.3999 15.4Z" fill="#BDBCAD"/>
<path d="M20.7002 17.7C20.6002 17.6 20.6002 17.5 20.4002 17.6C20.2002 17.5 20.0002 17.6 19.8002 17.9C19.8002 18 19.7002 18.1 19.7002 18.2C19.8002 18.3 19.8002 18.3 19.9002 18.4C20.2002 18.4 20.5002 18.3 20.8002 18.3C21.1002 18.3 21.1002 18.3 21.0002 18.1C21.0002 18 21.1002 18 21.1002 17.9C21.0002 17.8 20.9002 17.8 20.7002 17.7Z" fill="#BDBCAD"/>
<path d="M25.5999 16.2C25.3999 16.1 25.1999 16.1 24.8999 16.1C25.0999 16.2 25.2999 16.2 25.2999 16.4C25.2999 16.5 25.3999 16.5 25.4999 16.5C25.5999 16.5 25.5999 16.5 25.6999 16.4C25.6999 16.3 25.5999 16.3 25.5999 16.2Z" fill="#BDBCAD"/>
<path d="M29.5 18.7C29.3 18.7 29.3 18.6 29.4 18.5C29.5 18.4 29.5 18.3 29.4 18.2C29.3 18.1 29.2 17.9 29.2 17.7C29.3 17.7 29.3 17.6 29.4 17.6C29.5 17.6 29.6 17.6 29.6 17.4C29.6 17.3 29.5 17.3 29.4 17.3C29.4 17.3 29.2999 17.3 29.2999 17.4C29.2999 17.3 29.1999 17.2 29.2999 17C29.3999 16.7 29.3 16.7 29.1 16.7C29.1 16.7 29.1 16.8 29 16.8C28.9 16.8 28.8 16.9 28.7 17C28.7 17 28.7 17 28.6 17H28.5C28.5 17.2 28.5 17.4 28.5 17.6H28.4V17.5C28.4 17.4 28.4 17.3 28.2 17.3C28 17.3 28.1 17.4 28.1 17.5C28.1 17.6 28.1 17.7 28.1 17.7C28 17.7 28.1 17.5 27.9 17.5C27.8 17.5 27.7999 17.7 27.7999 17.8V17.9C27.7999 18 27.8 18.1 27.9 18.2C28 18.3 28 18.3 27.9 18.4C27.9 18.4 27.8 18.5 27.7 18.5C27.6 18.6 27.5999 18.7 27.7999 18.8C27.8999 18.8 28 18.9 28.1 19H28.2C28.3 19 28.2999 18.9 28.2999 18.9V18.8C28.4999 18.9 28.8 18.9 29.1 18.9C29.2 18.8 29.3 18.9 29.4 18.9C29.5 18.9 29.6 18.9 29.6 18.8C29.6 18.7 29.5 18.7 29.5 18.7ZM28.7 18.8C28.6 18.8 28.4999 18.8 28.2999 18.8C28.3999 18.6 28.5 18.5 28.6 18.4C28.7 18.3 28.7999 18.2 28.7999 18H28.9C28.8 18.1 28.8 18.2 28.9 18.4C29.1 18.6 29 18.8 28.7 18.8Z" fill="#BDBCAD"/>
<path d="M23.3001 18.1C23.3001 18.1 23.3001 18 23.2001 18C23.2001 17.9 23.4001 17.7 23.2001 17.6L23.1001 17.7C23.1001 17.7 23.1001 17.7 23.0001 17.7C22.9001 17.7 22.8001 17.7 22.7001 17.6H22.8001C22.9001 17.6 23.0001 17.6 22.9001 17.4C22.8001 17.3 22.8001 17.3 22.8001 17.1C22.8001 17 23.0001 16.9 22.9001 16.8C22.7001 16.6 22.5001 16.9 22.3001 16.9C22.2001 16.9 22.2001 16.9 22.2001 17C22.2001 17.2 22.2001 17.3 22.2001 17.5C21.8001 17.8 21.7001 18.2 22.0001 18.6C22.2001 18.9 22.5001 19 22.8001 18.8C22.9001 18.7 23.2001 18.6 23.2001 18.6C23.4001 18.8 23.4001 18.6 23.4001 18.5C23.7001 18.4 23.7001 18.2 23.3001 18.1Z" fill="#BDBCAD"/>
</svg>
