<svg width="44" height="48" viewBox="0 0 44 48" fill="none" xmlns="http://www.w3.org/2000/svg">
<path d="M16.2998 1.89998C16.1998 1.89998 14.9998 5.4 14.4998 6.7C14.3998 7.1 14.3998 7.39998 14.3998 7.79998L15.5998 14.6L16.0998 17.3C16.1998 17.8 16.3998 18.2 16.7998 18.5L17.2998 18.9C17.8998 19.5 18.0998 20.3 17.8998 21.1C17.3998 23.3 16.2998 27.5 16.1998 27.6C16.0998 27.7 15.3998 28.8 15.0998 29.3C14.9998 29.5 14.8998 29.7 14.7998 29.9L13.5998 34C13.4998 34.5 13.1998 34.9 12.7998 35.2L12.2998 35.6C11.7998 36 11.3998 36.6 11.3998 37.2L11.1998 39.2C11.1998 39.3 11.1998 39.3 11.1998 39.4V42.8C11.1998 43 11.1998 43.2 11.0998 43.3C10.8998 44.2 11.2998 45.2 12.0998 45.7L12.7998 46.1C13.1998 46.3 13.5998 46.4 13.9998 46.4H32.3998C33.0998 46.4 33.6998 46.1 34.0998 45.6L36.8998 42.2C37.0998 41.9 37.2998 41.6 37.3998 41.3L38.8998 35C38.8998 34.9 38.8998 34.8 38.9998 34.7L40.8998 29.5C40.8998 29.4 40.9998 29.3 40.9998 29.1L41.3998 27C41.4998 26.5 41.6998 26.1 42.0998 25.7C42.8998 24.9 43.0998 23.6 42.3998 22.7L40.5998 20.3C40.4998 20.2 40.4998 20.1 40.3998 20L39.3998 18.2C39.3998 18.2 39.3998 18.1 39.2998 18.1L37.3998 14.1C37.1998 13.8 37.1998 13.4 37.1998 13.1V12.5C37.1998 11.8 36.8998 11.1 36.3998 10.7L32.3998 7.59999C32.3998 7.59999 29.3998 5.09999 29.1998 5.09999C28.9998 5.09999 23.6998 2.3 22.4998 1.7C22.2998 1.6 22.1998 1.59999 21.9998 1.49999L20.3998 1.09999C20.0998 0.999994 19.7998 0.999994 19.5998 1.09999L16.2998 1.89998Z" fill="#8C8068"/>
<path d="M26.6997 41.1H24.3997C22.8997 41.1 21.6997 39.9 21.6997 38.4V11C21.6997 9.5 22.8997 8.29999 24.3997 8.29999H26.6997C28.1997 8.29999 29.3997 9.5 29.3997 11V38.3C29.3997 39.8 28.1997 41.1 26.6997 41.1Z" fill="#494B48"/>
<path d="M27.0999 11.7C26.9999 11.7 26.7999 11.7 26.6999 11.5C26.6999 11.4 26.5999 11.3 26.6999 11.2C26.8999 11 26.8999 10.7 26.7999 10.4C26.6999 10.3 26.7999 10.2 26.7999 10.1C26.7999 10 26.6999 10 26.6999 9.9C26.6999 9.9 26.5999 9.80002 26.5999 9.70002C26.5999 9.70002 26.5999 9.70002 26.5999 9.60002C26.7999 9.60002 26.8999 9.6 26.8999 9.3C26.7999 9.3 26.7999 9.30002 26.6999 9.20002C26.4999 9.20002 26.3999 9.10002 26.1999 9.10002C25.7999 9.10002 25.4999 9.00002 25.0999 9.10002C25.1999 9.10002 25.1999 9.20002 25.2999 9.20002C25.2999 9.20002 25.2999 9.20002 25.1999 9.20002C24.9999 9.20002 24.8999 9.2 24.6999 9.3C24.6999 9.3 24.6999 9.3 24.5999 9.3C24.4999 9.3 24.4999 9.3 24.3999 9.4C24.2999 9.6 24.4999 9.7 24.5999 9.8C24.4999 9.9 24.5999 10 24.5999 10C24.6999 10.2 24.6999 10.4 24.3999 10.4C23.9999 10.5 23.9999 10.7 24.0999 11C24.1999 11.4 24.1999 11.5 23.6999 11.6C23.5999 11.6 23.4999 11.6 23.4999 11.7C23.3999 11.9 23.4999 12.1 23.5999 12.2C23.9999 12.2 24.4999 12.1 24.8999 12.1C25.0999 12.3 25.2999 12.3 25.5999 12.2C25.7999 12.1 25.9999 12.1 26.1999 12.1C26.2999 12.1 26.3999 12.1 26.3999 12.1C26.6999 12.1 26.9999 12.2 27.1999 11.9C27.4999 11.9 27.3999 11.7 27.0999 11.7ZM25.4999 9.9C25.4999 9.9 25.5999 9.90001 25.5999 10C25.6999 10.1 25.7999 10.1 25.6999 10.2C25.6999 10.2 25.6999 10.2 25.5999 10.2L25.4999 10.1C25.4999 10.1 25.4999 10 25.4999 9.9ZM25.7999 11.7C25.4999 11.6 25.3999 11.3 25.1999 11.1C25.1999 11.1 25.0999 11.1 25.0999 11.2C25.2999 11 25.3999 11 25.5999 11.1C25.8999 11.3 25.8999 11.5 25.7999 11.7Z" fill="#BD9400"/>
<path d="M26.7997 39.5C26.6997 39.5 26.5997 39.5 26.4997 39.5H26.3997C26.2997 39.4 26.0997 39.4 25.9997 39.3V39.2C25.9997 39 25.7997 39 25.6997 39C25.6997 38.9 25.5997 38.9 25.5997 38.8C25.1997 38.8 25.0997 38.8 25.2997 39.2C25.5997 39.8 25.9997 40.3 26.7997 40.2H26.8997C27.0997 40.2 27.1997 40.1 27.1997 39.9C27.0997 39.6 26.9997 39.5 26.7997 39.5Z" fill="#BD9400"/>
<path d="M25.2001 13.3C25.0001 13.2 24.8001 13.1 24.7001 13.4C24.7001 13.7 24.5001 13.9 24.3001 14.1C24.1001 14.3 23.8001 14.4 23.6001 14.6C23.6001 14.7 23.6001 14.7 23.6001 14.8C23.8001 15 24.0001 14.9 24.2001 14.9L24.3001 14.8L24.4001 14.9C24.5001 14.9 24.5001 14.9 24.6001 15C24.7001 15.1 24.7001 15.2 24.7001 15.4C24.6001 15.7 24.7001 15.9 25.0001 16C25.5001 16.9 25.6001 17 26.6001 16.7H26.7001C26.8001 16.2 26.5001 16.4 26.3001 16.4C25.7001 16.5 25.6001 16.5 25.4001 15.9C25.4001 15.8 25.3001 15.8 25.3001 15.7C25.3001 15.1 25.1001 14.4 25.2001 13.8C25.3001 13.5 25.2001 13.4 25.2001 13.3Z" fill="#BD9400"/>
<path d="M23.9998 19.4C23.9998 19.5 24.0998 19.6 24.0998 19.8C24.1998 19.9 24.1998 19.9 24.2998 20C24.5998 20.3 24.9998 20.3 25.2998 20.1C25.5998 19.8 25.5998 19.5 25.2998 19.3C25.2998 19.2 25.0998 19.1 25.2998 18.9C25.2998 18.8 25.2998 18.7 25.3998 18.6C25.3998 18.4 25.2998 18.4 25.1998 18.3C25.1998 18.2 25.1998 18.1 25.1998 18C25.0998 18 24.9998 18 24.9998 18C24.4998 17.8 24.3998 18.2 24.2998 18.5C24.2998 18.5 24.2998 18.5 24.1998 18.5C23.9998 18.6 23.8998 18.7 23.7998 18.9C23.7998 19 23.9998 19.1 23.9998 19.4Z" fill="#BD9400"/>
<path d="M26.3 33.2C26.5 33.2 26.5 33.4 26.6 33.6C26.6 34 26.7 34.4 26.7 34.7C26.7 34.8 26.7 35 26.9 35C27.1 35 27.1 34.8 27.1 34.6C27.1 34.1 27.1 33.7 27.1 33.2C27.1 33 27 32.7 27.1 32.5C27.1 32.3 27.1 32.1 27.1 32C27 31.9 27.1 31.8 27.1 31.7C27.1 31.4 26.8 31.1 26.4 31.2C26 31.3 26.2 31.5 26.2 31.8V31.9C26 31.8 26 31.5 25.8 31.5C25.7 31.5 25.5 31.5 25.5 31.7C25.6 32.3 25.8 32.9 25.8 33.6C25.8 33.8 25.7 34.2 25.9 34.2C26.2 34.2 26.1 33.8 26.1 33.6C26.1 33.5 26.1 33.2 26.3 33.2Z" fill="#BD9400"/>
<path d="M24.6998 34.2C24.9998 34.3 25.2998 34.2 25.3998 33.9C25.5998 33.6 25.4998 33.2 25.1998 33C25.1998 32.9 25.1998 32.9 25.1998 32.8C25.2998 32.7 25.3998 32.7 25.2998 32.5C25.1998 32.4 25.1998 32.3 25.0998 32.3C24.8998 31.9 24.4998 31.8 24.1998 32.2H24.2998C24.1998 32.3 24.1998 32.3 24.0998 32.4C23.9998 32.5 23.7998 32.6 23.8998 32.8C23.9998 32.9 24.0998 33 24.0998 33C24.0998 33.1 24.0998 33.2 24.0998 33.4C24.0998 33.4 24.0998 33.4 24.1998 33.4C24.0998 33.8 24.2998 34.1 24.6998 34.2Z" fill="#BD9400"/>
<path d="M27.0998 36.4C27.0998 36.4 27.0998 36.3 26.9998 36.3C26.8998 36.2 26.7998 36 26.5998 36.1C26.3998 36.2 26.5998 36.4 26.5998 36.5C26.5998 36.6 26.5998 36.8 26.4998 36.9C26.2998 37 26.1998 36.9 25.9998 36.8C25.6998 36.5 25.5998 36.5 25.4998 37H25.5998C25.5998 37.3 25.5998 37.7 25.5998 38C25.4998 38 25.4998 38 25.3998 38C25.1998 38 25.0998 38 24.9998 37.8C24.9998 37.6 25.0998 37.6 25.1998 37.5C25.2998 37.4 25.2998 37.3 25.1998 37.3C24.9998 37.2 24.8998 37.1 24.6998 36.9C24.5998 36.8 24.4998 36.8 24.3998 36.9C24.2998 36.9 24.2998 37 24.2998 37.1C24.4998 37.5 24.4998 37.9 24.4998 38.2C24.4998 38.4 24.6998 38.5 24.8998 38.5C25.4998 38.4 26.0998 38.2 26.6998 38.4V38.5C26.6998 38.7 26.6998 38.9 26.6998 39.1C26.8998 39.1 26.9998 39 26.9998 38.8C27.1998 37.9 27.2998 37.1 27.0998 36.4ZM26.3998 37.7C26.2998 37.7 26.2998 37.7 26.3998 37.7C26.2998 37.7 26.2998 37.6 26.1998 37.6C26.1998 37.6 26.1998 37.6 26.2998 37.6C26.3998 37.6 26.4998 37.6 26.4998 37.7C26.3998 37.7 26.3998 37.7 26.3998 37.7Z" fill="#BD9400"/>
<path d="M26.3 26.4C26.1 26.4 26 26.5 26 26.7C26.3 26.9 26.3 27.3 26.3 27.6C26.3 28.3 26.4 29.1 26.4 29.8C26.4 30 26.4 30.2 26.6 30.2C26.9 30.2 26.9 30 26.9 29.8C26.9 28.9 26.9 28 26.9 27C26.9 26.9 26.9 26.7 26.8 26.6C26.7 26.5 26.5 26.4 26.3 26.4Z" fill="#BD9400"/>
<path d="M25.5001 29.5H25.6001C25.6001 29.4 25.6001 29.3 25.6001 29.2C25.6001 29.1 25.7001 28.9 25.6001 28.8C25.6001 28.5 25.4001 28.4 25.2001 28.3C25.2001 28.1 25.3001 28.1 25.5001 28C25.6001 28 25.7001 27.8 25.7001 27.7V27.6C25.1001 27.5 24.6001 27.7 24.1001 27.7C24.0001 27.7 24.0001 27.8 23.9001 27.9C24.0001 28.1 24.1001 28.1 24.2001 28.1C24.6001 28.1 24.5001 28.3 24.4001 28.6C24.3001 28.8 24.1001 28.9 23.9001 29C23.8001 29.1 23.6001 29.2 23.6001 29.4C23.8001 29.7 24.0001 29.5 24.2001 29.5C24.7001 29.2 25.1001 28.9 25.5001 29.5Z" fill="#BD9400"/>
<path d="M25.9001 29.8C26.0001 29.7 26.1001 29.7 26.1001 29.5C25.9001 29.5 25.8001 29.5 25.6001 29.5C25.6001 29.6 25.7001 29.7 25.9001 29.8Z" fill="#BD9400"/>
<path d="M25.5998 24.5C25.6998 24.3 25.8998 24.1 25.8998 23.9C25.8998 23.6 26.0998 23.4 25.9998 23.1C25.9998 23 25.8998 22.8 25.7998 22.7C25.4998 22.3 25.1998 22.3 25.0998 22.7C24.8998 23.2 24.8998 23.2 24.3998 22.9C24.2998 22.8 24.0998 22.8 23.9998 22.8C23.8998 22.9 23.7998 23 23.7998 23.1C23.8998 23.4 23.8998 23.8 23.9998 24.1C24.0998 24.2 23.9998 24.3 23.9998 24.4C23.9998 24.6 23.9998 24.6 24.1998 24.6C24.1998 24.6 24.2998 24.6 24.2998 24.5C24.2998 24.6 24.2998 24.6 24.2998 24.7C24.3998 24.8 24.4998 24.8 24.5998 24.7C24.7998 24.6 25.0998 24.5 25.3998 24.6C25.3998 24.8 25.4998 24.7 25.5998 24.5Z" fill="#BD9400"/>
<path d="M24.9 27C24.7 27 24.5 27 24.5 27.3C24.5 27.5 24.7 27.5 24.9 27.5C25.1 27.5 25.3 27.5 25.3 27.3C25.3 27 25.1 27 24.9 27Z" fill="#BD9400"/>
<path d="M25.9 13.7C25.7 13.8 25.6 13.8 25.5 14H25.6C25.8 14.4 26.2 14.2 26.4 14.3C26.4 14.6 26.4 14.9 26.4 15.2C26.4 15.3 26.3 15.6 26.5 15.6C26.7 15.6 26.7 15.4 26.7 15.3C26.9 14.8 26.9 14.2 26.8 13.6C26.8 13.5 26.8 13.4 26.9 13.3C26.9 12.7 26.5 12.5 25.9 12.6C25.8 12.8 26 12.9 26 13.1C26.4 13.4 26.3 13.6 25.9 13.7Z" fill="#BD9400"/>
<path d="M26 17.9C25.9 17.7 25.7 17.7 25.5 17.7V17.8H25.6C25.6 18.2 25.7 18.7 25.6 19.1C25.6 19.2 25.6 19.3 25.6 19.4C25.6 19.6 25.5 20 25.8 20.1C26.1 20.1 26 19.7 26.1 19.5C26.1 19.3 26.2 19.1 26.3 19.1C26.5 19.1 26.5 19.3 26.5 19.5C26.5 19.6 26.5 19.6 26.5 19.7C26.5 20.1 26.5 20.5 26.5 20.9C26.5 21 26.5 21.1 26.6 21.2C26.7 21.2 26.8 21.1 26.9 21C26.9 20.9 27 20.8 27 20.7C27.1 19.8 27.1 19 27 18.1C27 18 27 17.9 26.9 17.8C26.8 17.6 26.6 17.6 26.5 17.6C26.3 17.7 26.4 17.8 26.4 18C26.4 18.2 26.5 18.4 26.5 18.5C26.5 18.6 26.5 18.8 26.3 18.8C26.1 18.8 26.1 18.6 26.1 18.5C26 18.2 26 18.1 26 17.9Z" fill="#BD9400"/>
<path d="M26.5998 22C26.4998 22 26.3998 21.9 26.2998 22C26.1998 22.1 26.2998 22.2 26.2998 22.2C26.4998 22.4 26.3998 22.7 26.3998 23C26.2998 23.9 26.3998 24.8 26.3998 25.7C26.5998 25.5 26.6998 25.2 26.7998 24.9C26.7998 24.1 26.8998 23.3 26.8998 22.5C26.8998 22.3 26.7998 22.1 26.5998 22Z" fill="#BD9400"/>
</svg>
