<svg width="48" height="60" viewBox="0 0 48 60" fill="none" xmlns="http://www.w3.org/2000/svg">
<path d="M41.6998 45.4H18.2998L19.2998 42.3C19.5998 41.3 20.5998 40.6 21.5998 40.6H38.3998C39.3998 40.6 40.3998 41.3 40.6998 42.3L41.6998 45.4Z" fill="#4F4D41"/>
<path d="M20.6998 59.1H39.2998C40.5998 59.1 41.6998 58 41.6998 56.7V45.3H18.2998V56.7C18.2998 58.1 19.3998 59.1 20.6998 59.1Z" fill="#8C8068"/>
<path d="M35.2997 19.4C31.7997 17.2 28.1997 17.6 24.6997 19.4V43.4H35.2997V19.4Z" fill="#2A2620"/>
<path d="M42.9999 16.8C42.9999 16.4 42.6999 16 42.1999 16H38.0999V14.8H35.8999V16H24.0999V14.8H21.8999V16H17.6999C17.2999 16 16.8999 16.3 16.8999 16.8V17.2C16.8999 17.6 17.1999 18 17.6999 18H21.0999C21.4999 18 21.8999 18.3 21.8999 18.8V43.2C21.8999 43.6 22.1999 44 22.6999 44H23.2999C23.6999 44 24.0999 43.7 24.0999 43.2V18.8C24.0999 18.4 24.3999 18 24.8999 18H35.1999C35.5999 18 35.9999 18.3 35.9999 18.8V43.2C35.9999 43.6 36.2999 44 36.7999 44H37.3999C37.7999 44 38.1999 43.7 38.1999 43.2V18.8C38.1999 18.4 38.4999 18 38.9999 18H42.3999C42.7999 18 43.1999 17.7 43.1999 17.2V16.8H42.9999Z" fill="#494B48"/>
<path d="M17.5 14.5L26.9 11.9H34.5L42.5 14.9V16H17.5V14.5Z" fill="#8C8068"/>
<path d="M17.1001 13.7C17.1001 13.3 17.5001 12.9 17.9001 12.9C20.1001 12.8 24.0001 12.4 25.4001 10.7L25.7001 10.3H35.3001L35.6001 10.8C35.7001 10.9 37.5001 13.8 41.6001 13.1C42.0001 13 42.4001 13.3 42.5001 13.7L42.6001 14.2C42.7001 14.7 42.4001 15.1 41.9001 15.2C41.3001 15.3 40.8001 15.3 40.3001 15.3C37.4001 15.3 35.4001 13.9 34.3001 12.6C34.1001 12.4 33.9001 12.3 33.7001 12.3H27.0001C26.8001 12.3 26.6001 12.4 26.5001 12.5C24.2001 14.5 19.9001 14.9 18.0001 14.9C17.5001 14.9 17.2001 14.5 17.2001 14.1L17.1001 13.7Z" fill="#494B48"/>
</svg>
