<svg width="56" height="36" viewBox="0 0 56 36" fill="none" xmlns="http://www.w3.org/2000/svg">
<g clip-path="url(#clip0_164_11118)">
<path d="M54.2998 24H0.799805V35.2H54.2998V24Z" fill="#9EAEB7"/>
<path d="M47.8 26.5H39V35.2H47.8V26.5Z" fill="#889DAA"/>
<path d="M53.0997 26.5H48.6997V35.2H53.0997V26.5Z" fill="#889DAA"/>
<path d="M16.7999 26.5H11.8999V35.2H16.7999V26.5Z" fill="#889DAA"/>
<path d="M21.9996 26.5H17.0996V35.2H21.9996V26.5Z" fill="#889DAA"/>
<path d="M9.29968 26.5H3.19971V35.2H9.29968V26.5Z" fill="#C9B68F"/>
<path d="M35.6997 6.19998H24.8996C23.1996 15.5 22.5996 25.2 22.7996 35.2H37.7996C37.5996 25.1 36.9997 15.4 35.6997 6.19998Z" fill="#A7B6C1"/>
<mask id="mask0_164_11118" style="mask-type:luminance" maskUnits="userSpaceOnUse" x="22" y="6" width="16" height="30">
<path d="M35.6997 6.19998H24.8996C23.1996 15.5 22.5996 25.2 22.7996 35.2H37.7996C37.5996 25.1 36.9997 15.4 35.6997 6.19998Z" fill="white"/>
</mask>
<g mask="url(#mask0_164_11118)">
<path d="M24.3997 21.7C30.3091 21.7 35.0997 16.9094 35.0997 11C35.0997 5.09054 30.3091 0.299988 24.3997 0.299988C18.4902 0.299988 13.6997 5.09054 13.6997 11C13.6997 16.9094 18.4902 21.7 24.3997 21.7Z" fill="#B6C8CE"/>
</g>
<mask id="mask1_164_11118" style="mask-type:luminance" maskUnits="userSpaceOnUse" x="22" y="6" width="16" height="30">
<path d="M35.6997 6.19998H24.8996C23.1996 15.5 22.5996 25.2 22.7996 35.2H37.7996C37.5996 25.1 36.9997 15.4 35.6997 6.19998Z" fill="white"/>
</mask>
<g mask="url(#mask1_164_11118)">
<path d="M23.7997 20.8C29.3778 20.8 33.8997 16.2781 33.8997 10.7C33.8997 5.12191 29.3778 0.599991 23.7997 0.599991C18.2216 0.599991 13.6997 5.12191 13.6997 10.7C13.6997 16.2781 18.2216 20.8 23.7997 20.8Z" fill="#BCD3DD"/>
</g>
<path d="M9.8996 25.9H2.59961V26.5H9.8996V25.9Z" fill="#95A5AF"/>
<path d="M27.9001 6.19998C27.9001 6.19998 26.7001 5.09998 26.8001 3.99998C27.0001 1.89998 26.6001 1.69998 26.6001 1.69998C26.6001 1.69998 29.7001 3.59998 30.2001 4.69998C30.6001 5.89998 30.5001 6.19998 30.5001 6.19998H27.9001Z" fill="#608B00"/>
<path d="M36.5001 7.09999C36.5001 7.09999 37.9001 7.89998 38.0001 8.99998C38.3001 11.1 38.7001 11.2 38.7001 11.2C38.7001 11.2 35.3001 10.1 34.6001 8.99998C33.9001 7.99998 34.0001 7.59999 34.0001 7.59999L36.5001 7.09999Z" fill="#608B00"/>
<path d="M37.7001 5.29999C37.7001 5.29999 38.3 4.89998 37.8 3.19998C37.5 1.99998 36.5 1.59998 35.9 1.49998L35.6001 1.39998C35.4001 1.39998 35.3001 1.29999 35.2001 1.09999C35.1001 0.99999 35 0.899978 34.9 0.899978C34.3 0.599978 33.6001 0.699984 33.2001 0.999984C33.0001 1.19998 32.7 1.19999 32.4 1.09999C32 0.99999 31.4 0.89999 30.9 1.09999C30.1 1.59999 29.4001 2.49999 29.7001 3.29999C29.5001 3.49999 29.3001 3.59998 29.1001 3.69998C28.7001 4.09998 29.3001 5.39998 29.2001 5.69998C29.1001 5.99998 29.8 7.09999 30.3 7.59999C30.5 7.79999 30.8001 7.99999 31.1001 8.09999C31.3001 8.19999 31.5001 8.29998 31.6001 8.39998C32.3001 9.49998 33.3 9.49999 34 9.29999C34.7 9.09999 35.5 8.29998 35.9 7.99998C36 7.89998 36.2 7.79999 36.3 7.79999C37.4 7.59999 38.1 6.59999 38.1 6.09999C38.1 5.59999 38.1001 5.69998 37.7001 5.19998V5.29999Z" fill="url(#paint0_radial_164_11118)"/>
<path d="M32.8003 4.99998C32.8003 4.99998 33.2003 3.99999 33.3003 3.59999C33.4003 3.19999 34.6003 2.89998 34.9003 3.39998C35.2003 3.79998 35.4003 4.29998 34.9003 4.69998C34.4003 5.09998 34.0003 5.69998 34.0003 5.69998C33.4003 6.19998 32.9003 5.99998 32.8003 4.99998Z" fill="#CFA740"/>
<path d="M50.2999 23.9C50.2999 23.9 50.4999 23.5 49.7999 22.6C49.2999 21.9 48.4999 22 48.1999 22.1H47.9999C47.8999 22.1 47.7999 22.1 47.6999 22.1C47.5999 22.1 47.5999 22.1 47.4999 22.1C47.0999 22.1 46.6999 22.4 46.4999 22.7C46.3999 22.9 46.1999 23 45.9999 23C45.6999 23 45.2999 23.2 45.0999 23.5C44.7999 24 44.5999 24.8 44.9999 25.2C44.8999 25.4 44.7999 25.5 44.7999 25.6C44.6999 26 45.3999 26.5 45.4999 26.8C45.4999 27 46.2999 27.4 46.6999 27.6C46.8999 27.7 47.0999 27.7 47.2999 27.7C47.3999 27.7 47.5999 27.7 47.6999 27.8C48.4999 28.2 49.0999 28 49.3999 27.7C49.7999 27.4 49.9999 26.7 50.0999 26.3C50.0999 26.2 50.1999 26.1 50.2999 26C50.8999 25.5 50.9999 24.8 50.8999 24.5C50.6999 24.1 50.6999 24.1 50.2999 23.9Z" fill="url(#paint1_radial_164_11118)"/>
<path d="M47.2997 25.2C47.2997 25.2 47.1997 24.5 47.1997 24.2C47.1997 23.9 47.7997 23.4 48.0997 23.6C48.3997 23.8 48.6997 24 48.4997 24.4C48.2997 24.8 48.2997 25.3 48.2997 25.3C47.9997 25.7 47.6997 25.7 47.2997 25.2Z" fill="#CFA740"/>
<path d="M4 24.1C4 24.1 4.89999 23.9 5.89999 23.6C6.89999 23.3 8.89999 23.4 8.29999 24.1C7.69999 24.8 5.60001 25.4 5.10001 25.1C4.60001 24.7 4 24.1 4 24.1Z" fill="url(#paint2_radial_164_11118)"/>
<path d="M21.0999 19.5C21.0999 19.5 20.4999 19.9 19.6999 20.3C18.8999 20.7 17.7999 21.9 18.4999 22C19.2999 22.1 20.8999 21.2 20.9999 20.7C21.0999 20.2 21.0999 19.5 21.0999 19.5Z" fill="url(#paint3_radial_164_11118)"/>
</g>
<defs>
<radialGradient id="paint0_radial_164_11118" cx="0" cy="0" r="1" gradientUnits="userSpaceOnUse" gradientTransform="translate(21.1481 13.7295) scale(30.5851 30.5851)">
<stop stop-color="#FB624D"/>
<stop offset="1" stop-color="#BA001A"/>
</radialGradient>
<radialGradient id="paint1_radial_164_11118" cx="0" cy="0" r="1" gradientUnits="userSpaceOnUse" gradientTransform="translate(42.4029 28.1104) scale(23.3819 23.3819)">
<stop stop-color="#FB624D"/>
<stop offset="1" stop-color="#BA001A"/>
</radialGradient>
<radialGradient id="paint2_radial_164_11118" cx="0" cy="0" r="1" gradientUnits="userSpaceOnUse" gradientTransform="translate(5.68738 21.0601) scale(9.03226 9.2181)">
<stop stop-color="#FB624D"/>
<stop offset="1" stop-color="#BA001A"/>
</radialGradient>
<radialGradient id="paint3_radial_164_11118" cx="0" cy="0" r="1" gradientUnits="userSpaceOnUse" gradientTransform="translate(20.635 21.1616) rotate(135.766) scale(8.38385 8.8584)">
<stop stop-color="#FB624D"/>
<stop offset="1" stop-color="#BA001A"/>
</radialGradient>
<clipPath id="clip0_164_11118">
<rect width="56" height="36" fill="white"/>
</clipPath>
</defs>
</svg>
