<svg width="60" height="48" viewBox="0 0 60 48" fill="none" xmlns="http://www.w3.org/2000/svg">
<path d="M24.3999 32.8C24.6999 32.8 26.8999 38.3 30.4999 38.4C34.0999 38.5 32.8999 36.5 41.1999 38C49.4999 39.5 51.6999 38.4 54.1999 37.3C56.6999 36.2 59.7999 34.1 56.7999 33.4C53.7999 32.7 52.6999 31.9 49.4999 30.2C46.2999 28.5 33.4999 26.3 33.4999 26.3L24.3999 32.8Z" fill="url(#paint0_linear_164_10762)"/>
<path d="M2.50006 36.7C3.20006 36.5 6.90006 33.8 8.90006 29C10.9001 24.2 20.3001 29 20.3001 29C20.3001 29 23.0001 36.3 23.8001 37.4C24.5001 38.5 20.4001 38.5 17.4001 38.3C7.00006 37.7 4.60006 38.8 3.20006 38.6C1.90006 38.3 2.50006 36.7 2.50006 36.7Z" fill="url(#paint1_linear_164_10762)"/>
<path d="M16.1003 7.89999L11.2003 9.29999L7.30029 32.3H26.8003L32.5003 9L19.9003 7.60001L16.1003 7.89999Z" fill="url(#paint2_linear_164_10762)"/>
<path d="M10.8999 9C10.8999 9 13.0999 6.5 18.0999 5.5C22.4999 4.6 39.0999 7.5 43.0999 12.5C47.0999 17.5 50.0999 27.5 50.0999 27.5L51.0999 32.5L25.8999 32.9L29.0999 9.5L10.8999 9Z" fill="url(#paint3_linear_164_10762)"/>
<path d="M10.9002 9L6.7002 32.9H25.9002L30.1002 9H10.9002ZM26.5002 23.8H24.0002L26.4002 10H29.0002L26.5002 23.8ZM20.3002 23.8L22.5002 11.5H23.9002L24.2002 10H25.7002L23.3002 23.8H20.3002ZM16.5002 23.8L18.7002 11.5H21.5002L19.3002 23.8H16.5002ZM17.7002 11.5L15.5002 23.8H12.7002L15.1002 10H16.3002L16.0002 11.5H17.7002ZM17.1002 24.9L16.6002 27.8H8.5002L9.0002 24.9H17.1002ZM18.1002 24.9H26.4002L25.9002 27.8H17.6002L18.1002 24.9ZM14.2002 10L11.8002 23.8H9.2002L11.6002 10H14.2002ZM8.3002 28.9H16.4002L15.9002 31.8H7.8002L8.3002 28.9ZM16.8002 31.8L17.3002 28.9H25.6002L25.1002 31.8H16.8002Z" fill="#7C6E55"/>
<path d="M14.1 8.29999C14.1 8.29999 14.8 6 13.8 4.7C11.9 2.2 12.2 1.60001 12.2 1.60001C12.2 1.60001 9.69999 6.39999 10.1 8.29999C10.4 10.1 10.9 10.4 10.9 10.4L14.1 8.29999Z" fill="#608B00"/>
<path d="M12.2002 7.20001C12.2002 7.20001 12.4002 6.19999 10.0002 4.89999C8.30018 3.99999 6.90018 4.79998 6.20018 5.29998L5.90019 5.5C5.70019 5.6 5.40018 5.70001 5.20018 5.70001C5.00018 5.70001 4.80018 5.69998 4.70018 5.79998C3.80018 6.19998 3.20018 6.99999 3.10018 7.89999C3.00018 8.29999 2.80019 8.69999 2.40019 8.89999C1.80019 9.19999 1.10018 9.8 1.00018 10.6C0.800184 12 1.00018 13.7 2.20018 14.1C2.10018 14.5 2.10018 14.9 2.10018 15.2C2.10018 16.1 4.20019 16.6 4.40019 17C4.60019 17.4 6.50018 17.7 7.60018 17.7C8.00018 17.7 8.50019 17.6 8.90019 17.3C9.20019 17.2 9.50019 17.1 9.80019 17.1C11.8002 17.4 12.8002 16.3 13.2002 15.4C13.7002 14.4 13.6002 12.8 13.6002 12C13.6002 11.7 13.6002 11.5 13.8002 11.3C14.7002 9.79998 14.3002 8.20001 13.7002 7.70001C13.1002 7.20001 13.2002 7.30001 12.4002 7.20001H12.2002Z" fill="url(#paint4_radial_164_10762)"/>
<path d="M7.00001 12.4C7.00001 12.4 6.20001 10.9 6.00001 10.4C5.70001 9.89999 6.60001 8.29999 7.40001 8.39999C8.20001 8.49999 8.90001 8.70001 8.90001 9.70001C8.90001 10.6 9.1 11.7 9.1 11.7C8.9 13 8.30001 13.2 7.00001 12.4Z" fill="#CFA740"/>
<path d="M25.1001 39.1C25.1001 39.1 28.1001 38.5 31.5001 37.4C34.9001 36.3 41.6001 36.6 39.6001 39.1C37.6001 41.6 30.7001 43.5 28.9001 42.4C27.2001 41.3 25.1001 39.1 25.1001 39.1Z" fill="url(#paint5_radial_164_10762)"/>
<path d="M50.3002 30.9C50.3002 30.9 49.0002 31.1 47.5002 31.1C46.0002 31.1 43.4002 32.2 44.5002 32.9C45.7002 33.6 48.6002 33.4 49.2002 32.7C49.8002 32 50.3002 30.9 50.3002 30.9Z" fill="url(#paint6_radial_164_10762)"/>
<defs>
<linearGradient id="paint0_linear_164_10762" x1="45.407" y1="45.0967" x2="41.242" y2="33.6979" gradientUnits="userSpaceOnUse">
<stop stop-color="#C4C658"/>
<stop offset="1" stop-color="#9FBA34"/>
</linearGradient>
<linearGradient id="paint1_linear_164_10762" x1="21.8925" y1="21.2761" x2="13.327" y2="36.9795" gradientUnits="userSpaceOnUse">
<stop stop-color="#C4C658"/>
<stop offset="1" stop-color="#9FBA34"/>
</linearGradient>
<linearGradient id="paint2_linear_164_10762" x1="7.30879" y1="19.9839" x2="32.4907" y2="19.9839" gradientUnits="userSpaceOnUse">
<stop stop-color="#1D1D1F"/>
<stop offset="1" stop-color="#1D1D1F"/>
</linearGradient>
<linearGradient id="paint3_linear_164_10762" x1="30.2109" y1="6.7296" x2="31.8586" y2="36.2844" gradientUnits="userSpaceOnUse">
<stop stop-color="#C4C658"/>
<stop offset="1" stop-color="#9FBA34"/>
</linearGradient>
<radialGradient id="paint4_radial_164_10762" cx="0" cy="0" r="1" gradientUnits="userSpaceOnUse" gradientTransform="translate(7.97989 21.5911) rotate(-52.823) scale(11.5326 11.5326)">
<stop stop-color="#FB624D"/>
<stop offset="1" stop-color="#BA001A"/>
</radialGradient>
<radialGradient id="paint5_radial_164_10762" cx="0" cy="0" r="1" gradientUnits="userSpaceOnUse" gradientTransform="translate(30.7955 29.1637) scale(30.463 30.463)">
<stop stop-color="#FB624D"/>
<stop offset="1" stop-color="#BA001A"/>
</radialGradient>
<radialGradient id="paint6_radial_164_10762" cx="0" cy="0" r="1" gradientUnits="userSpaceOnUse" gradientTransform="translate(48.4902 33.1362) rotate(160.574) scale(14.1048 14.6695)">
<stop stop-color="#FB624D"/>
<stop offset="1" stop-color="#BA001A"/>
</radialGradient>
</defs>
</svg>
