<svg width="76" height="54" viewBox="0 0 76 54" fill="none" xmlns="http://www.w3.org/2000/svg">
<g clip-path="url(#clip0_164_10134)">
<path d="M36.1001 38.4C36.1001 33 36.1001 27.6 36.1001 22.2C36.7001 21.6 37.4001 21.4 38.3001 21.6C38.9001 21.7 39.4001 21.6 40.0001 21.6C40.4001 21.6 40.5001 21.2 40.9001 21.1C41.6001 20.8 42.1001 21.1 42.5001 21.5C43.0001 21.9 43.4001 22.3 43.9001 22.6C44.6001 23 45.2001 22.9 45.6001 22.2C45.8001 21.5 46.3001 21.6 46.9001 21.8C47.8001 22.2 48.4001 22 48.6001 21.3C48.7001 21.1 48.9001 21 49.1001 20.9C49.2001 20.9 49.3001 21 49.4001 21.1C49.4001 28.9 49.4001 36.8 49.4001 44.6C48.5001 45.1 48.5001 44.4 48.5001 44C48.5001 43.3 48.3001 42.7 48.1001 42.1C47.6001 40.6 46.9001 40.2 45.2001 40.6C45.0001 40.6 44.8001 40.8 44.5001 40.7C44.0001 40.7 43.6001 40.6 43.2001 40.4C42.9001 40.3 42.7001 40.2 42.4001 40.4C42.1001 40.5 41.8001 40.5 41.4001 40.5C41.1001 39.9 40.6001 39.7 39.9001 39.6C38.9001 39.5 37.9001 39.1 36.8001 39.3C36.5001 39.1 36.4001 38.6 36.1001 38.4Z" fill="#222629"/>
<path d="M36.1001 38.4C37.8001 38.4 39.4001 38.6 41.0001 38.9C41.8001 39.1 42.1001 39.3 41.7001 40V40.1C41.5001 40.6 40.5001 40.3 40.5001 41.1C40.5001 41.2 40.5001 41.3 40.5001 41.4C40.4001 41.5 40.3001 41.7 40.4001 41.9C40.5001 42 40.7001 42 40.9001 42C41.4001 42.1 41.8001 42.2 42.3001 42.1C42.9001 42 43.3001 42.3 43.2001 42.9C43.2001 43.1 43.4001 43 43.2001 43C43.0001 42.1 43.7001 42.3 44.2001 42.2L44.3001 42.1C44.0001 41.8 43.8001 41.4 43.9001 41C44.1001 40.6 44.3001 40.3 44.8001 40.1C44.7001 39.9 44.5001 39.7 44.9001 39.6C46.8001 39 48.4001 39.8 49.0001 41.5C49.3001 42.4 49.5001 43.4 49.8001 44.4C49.8001 45.4 49.8001 46.5 49.8001 47.5C49.8001 48 49.7001 48.2 49.1001 48.2C45.1001 48.2 41.1001 48.2 37.1001 48.2C36.5001 48.2 36.3001 48.1 36.3001 47.5C36.1001 44.4 36.1001 41.4 36.1001 38.4Z" fill="#202123"/>
<path d="M49.6002 20.9C49.5002 20.9 49.4002 20.9 49.3002 20.9C48.9002 21.1 48.6002 20.8 48.2002 20.8C48.6002 20.9 49.0002 21 49.1002 21.3C49.2002 22.2 48.4002 22.1 47.7002 22.3C47.1002 22.4 46.6002 21.9 46.1002 22.2C46.0002 22.2 46.0002 22.3 45.9002 22.3C45.1002 22.4 44.6002 22 44.1002 21.6C44.0002 21.2 43.8002 20.8 43.9002 20.4C43.9002 20.3 43.9002 20.1 43.9002 20C44.3002 19 43.7002 18.9 42.8002 19C42.4002 18.8 42.0002 18.5 41.5002 18.5C40.9002 18.3 40.7002 18.6 40.7002 19.1C40.4002 19.6 40.6002 20.1 40.7002 20.6C40.7002 20.7 40.7002 20.8 40.7002 20.9C40.5002 21.3 40.5002 21.7 40.4002 22.1C39.8002 22.5 39.2002 22.3 38.6002 22.3C37.8002 22.2 37.0002 22.3 36.2002 22.4C36.2002 20.2 36.2002 18 36.2002 15.9C36.2002 15.5 36.3002 15.4 36.8002 15.4C40.9002 15.4 45.0002 15.4 49.1002 15.4C49.6002 15.4 49.7002 15.5 49.7002 15.9C49.6002 17.4 49.6002 19.1 49.6002 20.9Z" fill="#171A1F"/>
<path d="M41.3 17.9C42 17.9 42.5 18 42.9 18.6C42.9 19 43.3 18.8 43.5 18.9C44.2 19.6 43.7 19.8 43 20C42.3 20.2 42.1 20.4 42.8 20.8C43 20.9 43.2 21 43.3 21.2C44.1 21.8 44.9 22.3 46.1 22.2C46.1 23 44.9 23.4 44 23C43.5 22.8 43.2 22.4 42.8 22.1C42.3 21.7 41.8 21.2 41 21.4C40.9 21.4 40.8 21.3 40.7 21.3C40.5 21 40.8 20.5 40.5 20.2C39.9 19.4 40.6 19 41 18.5C41.3 18.3 41.3 18.1 41.3 17.9Z" fill="#686C6F"/>
<path d="M40.5001 31.3C40.4001 31.3 40.4001 31.3 40.4001 31.3C39.7001 30.5 40.4001 29.9001 40.8001 29.2001C41.2001 29.1001 41.5001 29 41.9001 29.1C42.4001 29.2 42.2001 29.8 42.6001 29.9C43.6001 30.3 43.5001 31.3 44.1001 31.9C44.1001 32.1 43.9001 32.2 43.7001 32.3C43.5001 32.7 43.3001 32.8 42.9001 32.6C42.4001 32.5 42.2001 32.1 41.8001 32C41.1001 32.1 40.7001 31.8 40.5001 31.3Z" fill="#858784"/>
<path d="M49.1001 21.3C48.6001 21.3 48.0001 21.3 47.5001 21.4C47.0001 21.5 46.6001 21.5 46.6001 21C46.6001 20.5 46.6001 20 47.4001 19.9C48.3001 19.8 49.0001 20.1 49.3001 20.9C49.3001 21.1 49.2001 21.2 49.1001 21.3Z" fill="#45494C"/>
<path d="M41.9003 29.4C41.5003 29.5 41.1003 29.5 40.8003 29.6C40.7003 29.9 40.5003 30.1 40.1003 30.1C39.9003 30 39.9003 29.8 39.8003 29.6C41.0003 28.1 42.7003 28.6 44.3003 28.8C44.2003 29.2 45.4003 29.6 44.2003 29.9C43.8003 29.9 43.3003 29.9 42.8003 29.9C42.3003 30.1 42.2003 29.6 41.9003 29.4Z" fill="#777979"/>
<path d="M47.5 36.9C46.3 37.1 47.3 35.9 46.6 35.7C46.5 35.7 46.6 35.1 46.9 35C47.4 34.9 47.9 34.6 48.3 35C48.9 35.5 48.9 35.9 48.1 36.3C48 36.5 47.7 36.6 47.5 36.9Z" fill="#5A5E61"/>
<path d="M42.7001 29.7C43.2001 29.7 43.6001 29.7 44.1001 29.7C44.4001 30 45.0001 30.2 44.6001 30.7C44.2001 31 44.3001 31.5 44.0001 31.9C42.8001 31.9 42.6001 31.1 42.4001 30.3C42.5001 30.1 42.1001 29.7 42.7001 29.7Z" fill="#656967"/>
<path d="M48.1999 32.1C48.4999 33 47.6999 32.8 47.0999 32.8C46.7999 32.8 46.4999 32.8 46.3999 32.5C47.0999 32.4 46.3999 31.2 47.4999 31.4C47.8999 31.5 48.4999 31.4 48.1999 32.1Z" fill="#6A6C70"/>
<path d="M44.7 40.1C44.6 40.4 44.4 40.8 44.3 41.1C44 41.4 44 41.8 43.4 41.9C43.1 42 42.8 42.3 42.4 42.1C42.1 41.9 42.1 41.6 42 41.3C42 41.1 42.2 40.9 42.3 40.7C42.6 40.4 42.7 39.9 43.3 39.9C43.8 39.9 44.2 40 44.7 40.1Z" fill="#727374"/>
<path d="M47.8003 27.5C48.4003 27.4 48.7003 27.7 48.8003 28.1C48.9003 28.4 48.8003 28.7 48.4003 28.8C48.0003 28.9 47.7003 28.8 47.7003 28.4C47.2003 28.1 47.3003 27.8 47.8003 27.5Z" fill="#717576"/>
<path d="M41.9 32.9C41.3 33 40.7 32.9 40.1 33.1C39.9 33.2 39.5 33.3 39.4 33C39.3 32.7 39.6 32.6 39.9 32.6C40.1 32.6 40.4 32.6 40.5 32.4C40.9 32 41.4 31.9 41.9 32.3C42.1 32.5 42.1 32.7 41.9 32.9Z" fill="#84888B"/>
<path d="M47.8002 27.5C47.7002 27.8 47.7002 28.1 47.6002 28.5C47.4002 28.6 47.2002 28.9 47.0002 28.7C46.7002 28.4 46.9002 28 47.0002 27.7C47.2002 27.3 47.5002 27.4 47.8002 27.5Z" fill="#7C8081"/>
<path d="M44 32.6C44.2 32.6 44.5 32.6 44.7 32.6C44.9 32.6 45.2 32.6 45.2 32.9C45.2 33.2 44.9 33.3 44.6 33.2C44.1 33.2 43.5 33.2 43 33C43.2 32.5 43.8 32.9 44 32.6Z" fill="#696D6E"/>
<path d="M41.7 32.6C41.4 32.4 41 32.4 40.6 32.4C40.6 32.1 40.5 31.7 40.5 31.4C40.9 31.7 41.4 31.8 42 31.8C42.3 32.1 42.6 32.5 41.7 32.6Z" fill="#777976"/>
<path d="M44.6001 30.7C44.5001 30.3 44.0001 30.1 44.1001 29.7C44.7001 29.5 44.1001 29.1 44.3001 28.8C44.6001 29 44.9001 29.2 45.2001 29.4C45.0001 29.7 45.3001 30.2 45.0001 30.5C44.8001 30.6 44.7001 30.7 44.6001 30.7Z" fill="#303435"/>
<path d="M43.3 39.8C43 40.1 43.4 40.6 42.8 40.8C42.3 40.5 42.3 40.2 42.5 39.7C42.5 39.5 42.5 39.2 42.8 39.2C43.2 39.3 43.3 39.6 43.3 39.8Z" fill="#B1B3B2"/>
<path d="M41.7002 32.6C41.9002 32.4 41.9002 32.1 41.9002 31.8C42.3002 31.9 42.5002 32.1 42.6002 32.5C42.9002 32.8 42.9002 32.8 42.3002 33C42.2002 33 42.0002 33 41.9002 33C41.9002 32.8 41.8002 32.7 41.7002 32.6Z" fill="#AFB2B0"/>
<path d="M42.5999 39.8C42.6999 40.2 42.7999 40.5 42.8999 40.9C42.7999 41 42.5999 41.1 42.4999 41.2C42.1999 41.2 41.7999 41.3 41.4999 41.1C41.0999 40.7 41.3999 40.5 41.7999 40.2V40.1C41.9999 40 42.2999 39.9 42.5999 39.8Z" fill="#8F9191"/>
<path d="M47.3003 24.5C47.7003 24.2 48.2003 24.2 48.7003 24.5C48.1003 24.8 47.7003 24.6 47.3003 24.5Z" fill="#54585B"/>
<path d="M41.0003 21.1C41.0003 21.2 41.0003 21.2 41.0003 21.3C40.8003 21.5 40.7003 21.9 40.3003 22C39.9003 21.6 40.1003 21.2 40.3003 20.8C40.9003 20.3 40.8003 20.8 41.0003 21.1Z" fill="#5C6063"/>
<path d="M47.5002 36.9C47.4002 36.6 47.2002 36.4 47.5002 36.2C47.7002 36.1 48.0002 36.1 48.2002 36.3C48.3002 36.8 48.1002 37 47.5002 36.9Z" fill="#797D80"/>
<path d="M40.1 29.9C40.3 29.8 40.6 29.7 40.8 29.6C41 30.2 40 30.6 40.4 31.3C40.2 31.2 40.1 31 39.9 30.9C39.6 30.5 39.7 30.2 40.1 29.9Z" fill="#3F413F"/>
<path d="M42.3999 32.9C42.4999 32.7 42.5999 32.5 42.6999 32.4C42.9999 32.4 43.2999 32.4 43.6999 32.4C43.7999 32.5 43.9999 32.5 44.0999 32.6C43.8999 32.9 43.4999 33 43.0999 33C42.7999 33 42.5999 33 42.3999 32.9Z" fill="#84888B"/>
<path d="M40.1001 29.9C40.1001 30.3 40.1001 30.6 39.9001 30.9C39.1001 30.5 39.7001 30 39.8001 29.6C39.9001 29.7 40.0001 29.8 40.1001 29.9Z" fill="#808281"/>
<path d="M45 30.6C44.9 30.2 44.7 29.8 45.2 29.5C45.3 29.9 45.8 30.3 45 30.6Z" fill="#777979"/>
<path d="M42.8999 41.4C43.1999 41.2 43.2999 41.3001 43.3999 41.6001C43.4999 41.7001 43.5999 41.8 43.7999 41.8C43.9999 42.1 44.8999 41.8 44.4999 42.5C43.6999 42.4 43.2999 42.7 43.3999 43.5C43.3999 43.8 43.5999 44.3001 43.0999 44.6001C42.6999 44.2001 42.8999 43.8 42.8999 43.4C42.8999 42.8 42.7999 42.5 41.9999 42.5C41.4999 42.5 40.9999 42.4 40.5999 42.3C40.0999 42.2 40.1999 41.8001 40.2999 41.6001C40.3999 41.5001 40.6999 41.3 40.9999 41.4C41.2999 41.6 41.5999 41.4 41.7999 41.4C42.1999 41.3 42.4999 41.9 42.8999 41.4Z" fill="#8F9191"/>
<path d="M41.6999 40.1C41.7999 40.3 41.7999 40.6 41.8999 40.8C42.0999 40.9 42.0999 41.1 42.0999 41.3C41.3999 41.7 40.6999 41.5 40.0999 41.1C39.7999 40.7 39.5999 40.3 40.4999 40.2C40.8999 40.2 41.2999 40.2 41.6999 40.1Z" fill="#757776"/>
<path d="M40.1002 41.1C40.7002 41.2 41.3002 41.2 41.9002 41.3C42.1002 41.4 42.1002 41.5 42.0002 41.6C41.6002 42 40.8002 41.7 40.5002 42.3C40.4002 42.5 40.2002 42.5 40.1002 42.4C39.3002 42 39.7002 41.6 40.0002 41.2L40.1002 41.1Z" fill="#989A99"/>
<path d="M44.4999 42.5C44.0999 42.3 43.5999 42.3 43.3999 41.8C44.1999 41.5 44.9999 41.7001 45.7999 41.7001C45.8999 42.8001 45.0999 42.5 44.4999 42.5Z" fill="#727374"/>
<path d="M39.9999 41.2C39.7999 41.6 39.7999 42 40.0999 42.4C39.8999 42.4 39.6999 42.4 39.4999 42.4C39.1999 42.4 38.8999 42.4 38.7999 42.1C38.6999 41.8 38.9999 41.8 39.2999 41.6C39.4999 41.6 39.7999 41.4 39.9999 41.2Z" fill="#585A5A"/>
<path d="M45.7003 41.8C44.9003 42.1 44.1003 41.9 43.3003 41.9C43.3003 41.8 43.3003 41.7 43.3003 41.6C43.7003 41.6 43.9003 41.4 44.2003 41.1C44.5003 41.8 45.4003 41.3 45.7003 41.8Z" fill="#222629"/>
<path d="M47.7003 16.2C48.0003 16.4 48.7003 16 48.7003 16.7C48.7003 17.2 48.4003 17.6 47.7003 17.6C47.0003 17.6 46.9003 17.3 46.8003 16.8C46.9003 16.1 47.4003 16.3 47.7003 16.2Z" fill="#505358"/>
<path d="M43.3002 19C43.1002 18.9 42.8002 18.8 42.9002 18.5C43.0002 18.5 43.2002 18.6 43.2002 18.5C44.0002 18 44.6002 18.1 45.3002 18.8C44.4002 18.9 44.3002 19.6 44.2002 20.2C43.6002 20.9 43.4002 20.9 43.0002 20.2C43.1002 19.8 44.2002 19.6 43.3002 19Z" fill="#75797C"/>
<path d="M46.1002 22.2C44.9002 22.6 44.2002 22.4 43.1002 21.4C43.0002 21.2 42.9002 20.9 43.3002 20.8C43.5002 20.7 43.8002 20.6 44.0002 20.9C44.1002 21.2 44.5002 21.2 44.7002 21.3C45.0002 21.8 45.6002 22 46.1002 22.2Z" fill="#222629"/>
<path d="M41.6003 18.6C41.7003 18.6 41.8003 18.5 41.8003 18.5C42.2003 18.6 41.8003 18.7 41.8003 18.7C41.2003 18.9 40.5003 19 40.8003 19.8C41.0003 20 41.1003 20.2 40.8003 20.4C40.6003 20.5 40.5003 20.5 40.3003 20.3C40.1003 19.9 39.6003 20.3 39.3003 20C39.8003 19.7 40.0003 19.2 40.3003 18.7C40.6003 18.3 41.1003 18.2 41.6003 18.6Z" fill="#6D7174"/>
<path d="M44.7003 21.3C44.2003 21.5 43.7003 20.8 43.2003 21.3C43.0003 21.2 42.8003 21.2 42.7003 21.1C42.3003 20.9 42.1003 20.5 42.4003 20.3C42.7003 20.1 43.1003 19.6 43.6003 20.1C43.6003 20.7 44.0003 20.4 44.3003 20.3C44.4003 20.6 44.5003 21 44.7003 21.3Z" fill="#515558"/>
<path d="M41.6003 18.6C41.1003 18.6 40.7003 18.7 40.3003 18.9C40.3003 18.3 40.6003 18 41.3003 18C41.4003 18.1 41.5003 18.4 41.6003 18.6Z" fill="#43474A"/>
<path d="M40.3003 20.4C40.7003 20.4 40.8003 20.1 40.8003 19.9C41.4003 20.2 41.0003 20.7 41.0003 21.1C40.8003 20.9 40.7003 20.7 40.3003 20.7C40.3003 20.6 40.3003 20.5 40.3003 20.4Z" fill="#222629"/>
<path d="M43.6001 20.1C43.1001 20.3 42.6001 20.5 42.7001 21.1C42.3001 21 41.6001 21 41.7001 20.5C41.8001 20 42.2001 19.7 42.8001 19.7C43.3001 19.7 43.6001 19.6 43.4001 19.1C44.2001 19.2 43.9001 19.7 43.6001 20.1Z" fill="#222629"/>
<path d="M42.6999 29.7C42.7999 30 43.1999 29.8 43.2999 30.2C42.9999 30.3 42.6999 30.3 42.3999 30.4C41.8999 30.2 41.8999 29.9 41.8999 29.5C42.4999 28.7 42.5999 29.2 42.6999 29.7Z" fill="#A8AAA5"/>
<path d="M41.9999 41.6C41.9999 41.5 41.9999 41.4 41.8999 41.3C41.8999 41.2 41.8999 41 41.8999 40.9C42.2999 40.6 42.2999 41 42.3999 41.1C42.3999 41.3 42.5999 41.4 42.7999 41.4C42.5999 41.6 42.2999 41.7 41.9999 41.6Z" fill="#AFB1B0"/>
<path d="M48.9999 50.4H36.6999C35.9999 50.4 35.3999 50 35.3999 49.5V48.2C35.3999 47.7 35.9999 47.3 36.6999 47.3H48.9999C49.6999 47.3 50.2999 47.7 50.2999 48.2V49.5C50.2999 50 49.6999 50.4 48.9999 50.4Z" fill="#C4C7AD"/>
<path d="M51.9 52H33.8C33.1 52 32.5 51.6 32.5 51.1V50.4C32.5 49.9 33.1 49.5 33.8 49.5H52C52.7 49.5 53.3 49.9 53.3 50.4V51.1C53.3 51.6 52.7 52 51.9 52Z" fill="#A1A38E"/>
<path d="M50.5001 15.1H35.2001C34.3001 15.1 33.6001 14.4 33.6001 13.5C33.6001 12.6 34.3001 11.9 35.2001 11.9H50.4001C51.3001 11.9 52.0001 12.6 52.0001 13.5C52.1001 14.4 51.4001 15.1 50.5001 15.1Z" fill="#818183"/>
<path d="M50.5001 13.9H35.2001C34.3001 13.9 33.6001 13.2 33.6001 12.3V2.10004C33.6001 1.20004 34.3001 0.500031 35.2001 0.500031H50.4001C51.3001 0.500031 52.0001 1.20004 52.0001 2.10004V12.3C52.1001 13.2 51.4001 13.9 50.5001 13.9Z" fill="#F7FADA"/>
<path d="M47.0135 2.6436L46.5977 2.9212L48.3743 5.58265L48.7902 5.30505L47.0135 2.6436Z" fill="#231815"/>
<path d="M48.4006 5.50003L46.6006 2.80002L47.1006 2.50003L48.9006 5.20004L48.4006 5.50003ZM46.6006 2.90002L48.3006 5.50003L48.7006 5.20004L47.0006 2.60004L46.6006 2.90002Z" fill="#231815"/>
<path d="M48.6498 3.59541L48.2339 3.87296L49.011 5.03747L49.4269 4.75992L48.6498 3.59541Z" fill="#231815"/>
<path d="M49.0002 5.10004L48.2002 3.90002L48.7002 3.60004L49.5002 4.80002L49.0002 5.10004ZM48.3002 3.90002L49.0002 5.00003L49.4002 4.70004L48.6002 3.50003L48.3002 3.90002Z" fill="#231815"/>
<path d="M47.6961 2.17968L47.2803 2.45728L48.0576 3.62165L48.4734 3.34405L47.6961 2.17968Z" fill="#231815"/>
<path d="M48.1008 3.60004L47.3008 2.40002L47.8008 2.10004L48.6008 3.30002L48.1008 3.60004ZM47.3008 2.40002L48.1008 3.60004L48.5008 3.30002L47.7008 2.10004L47.3008 2.40002Z" fill="#231815"/>
<path d="M47.3554 4.48123L46.9395 4.75878L47.7166 5.9233L48.1325 5.64575L47.3554 4.48123Z" fill="#231815"/>
<path d="M47.7004 6.00002L46.9004 4.80001L47.4004 4.50002L48.2004 5.70004L47.7004 6.00002ZM46.9004 4.80001L47.7004 6.00002L48.1004 5.70004L47.3004 4.50002L46.9004 4.80001Z" fill="#231815"/>
<path d="M46.3422 2.99933L45.9263 3.27688L46.7034 4.44139L47.1193 4.16384L46.3422 2.99933Z" fill="#231815"/>
<path d="M46.7004 4.50002L45.9004 3.30001L46.4004 3.00002L47.2004 4.20004L46.7004 4.50002ZM46.0004 3.30001L46.8004 4.50002L47.2004 4.20004L46.4004 3.00002L46.0004 3.30001Z" fill="#231815"/>
<path d="M37.9931 8.63417L37.5771 8.91162L39.3528 11.5737L39.7688 11.2963L37.9931 8.63417Z" fill="#231815"/>
<path d="M39.3 11.5L37.5 8.80002L38 8.50003L39.8 11.2L39.3 11.5ZM37.6 8.90002L39.3 11.5L39.7 11.2L38 8.60004L37.6 8.90002Z" fill="#231815"/>
<path d="M36.6908 9.527L36.2749 9.8046L38.0515 12.466L38.4674 12.1884L36.6908 9.527Z" fill="#231815"/>
<path d="M38.0002 12.4L36.2002 9.70004L36.7002 9.40002L38.5002 12.1L38.0002 12.4ZM36.3002 9.80002L38.0002 12.4L38.4002 12.1L36.7002 9.50003L36.3002 9.80002Z" fill="#231815"/>
<path d="M39.3336 2.96719L37.5576 5.62895L37.9735 5.90645L39.7495 3.24469L39.3336 2.96719Z" fill="#231815"/>
<path d="M38 6.00002L37.5 5.70003L39.3 3.10002L39.8 3.40001L38 6.00002ZM37.6 5.60002L38 5.90001L39.7 3.30001L39.3 3.00002L37.6 5.60002Z" fill="#231815"/>
<path d="M38.0114 2.0545L36.2354 4.71626L36.6513 4.99376L38.4273 2.332L38.0114 2.0545Z" fill="#231815"/>
<path d="M36.7002 5.10002L36.2002 4.80001L38.0002 2.20003L38.5002 2.50002L36.7002 5.10002ZM36.3002 4.80001L36.7002 5.10002L38.4002 2.50002L38.0002 2.20003L36.3002 4.80001Z" fill="#231815"/>
<path d="M38.6946 2.5824L36.9189 5.24447L37.3349 5.52192L39.1106 2.85985L38.6946 2.5824Z" fill="#231815"/>
<path d="M37.4004 5.50003L36.9004 5.20004L38.7004 2.60004L39.2004 2.90002L37.4004 5.50003ZM36.9004 5.20004L37.3004 5.50003L39.0004 2.90002L38.6004 2.60004L36.9004 5.20004Z" fill="#231815"/>
<path d="M37.3758 9.06194L36.96 9.33954L37.7372 10.5039L38.1531 10.2263L37.3758 9.06194Z" fill="#231815"/>
<path d="M37.7004 10.5L36.9004 9.30002L37.4004 9.00003L38.2004 10.2L37.7004 10.5ZM36.9004 9.30002L37.7004 10.5L38.1004 10.2L37.3004 9.00003L36.9004 9.30002Z" fill="#231815"/>
<path d="M38.2719 10.5081L37.856 10.7856L38.6331 11.9501L39.049 11.6726L38.2719 10.5081Z" fill="#231815"/>
<path d="M38.7004 12L37.9004 10.8L38.4004 10.5L39.2004 11.7L38.7004 12ZM37.9004 10.8L38.7004 12L39.1004 11.7L38.3004 10.5L37.9004 10.8Z" fill="#231815"/>
<path d="M49.0114 9.54672L48.2344 10.7112L48.6503 10.9887L49.4273 9.82422L49.0114 9.54672Z" fill="#231815"/>
<path d="M48.7002 11L48.2002 10.7L49.0002 9.50003L49.5002 9.80002L48.7002 11ZM48.3002 10.7L48.7002 11L49.5002 9.80002L49.1002 9.50003L48.3002 10.7Z" fill="#231815"/>
<path d="M48.0785 10.9272L47.2998 12.0907L47.7154 12.3688L48.494 11.2053L48.0785 10.9272Z" fill="#231815"/>
<path d="M47.7002 12.4L47.2002 12.1L48.0002 10.9L48.5002 11.2L47.7002 12.4ZM47.3002 12.1L47.7002 12.4L48.5002 11.2L48.1002 10.9L47.3002 12.1Z" fill="#231815"/>
<path d="M46.6955 10.1055L45.9185 11.2702L46.3344 11.5477L47.1114 10.383L46.6955 10.1055Z" fill="#231815"/>
<path d="M46.4004 11.5L45.9004 11.2L46.7004 10L47.2004 10.3L46.4004 11.5ZM46.0004 11.2L46.4004 11.5L47.2004 10.3L46.8004 10L46.0004 11.2Z" fill="#231815"/>
<path d="M47.6973 8.63564L46.9204 9.80029L47.3364 10.0777L48.1132 8.91309L47.6973 8.63564Z" fill="#231815"/>
<path d="M47.3003 10.1L46.8003 9.80002L47.6003 8.60004L48.1003 8.90002L47.3003 10.1ZM46.9003 9.80002L47.3003 10.1L48.1003 8.90002L47.7003 8.60004L46.9003 9.80002Z" fill="#231815"/>
<path d="M47.4261 10.5216L46.6494 11.6864L47.0654 11.9638L47.8421 10.799L47.4261 10.5216Z" fill="#231815"/>
<path d="M47.0005 12L46.5005 11.7L47.3005 10.5L47.8005 10.8L47.0005 12ZM46.6005 11.7L47.0005 12L47.8005 10.8L47.4005 10.5L46.6005 11.7Z" fill="#231815"/>
<path d="M48.3475 9.04105L47.5703 10.2056L47.9862 10.4831L48.7634 9.3186L48.3475 9.04105Z" fill="#231815"/>
<path d="M48.0005 10.5L47.5005 10.2L48.3005 9.00003L48.8005 9.30002L48.0005 10.5ZM47.6005 10.2L48.0005 10.5L48.8005 9.30002L48.4005 9.00003L47.6005 10.2Z" fill="#231815"/>
<path d="M40.3004 7.20004C40.3004 7.20004 40.6004 7.70002 41.2004 7.90002C41.2004 7.90002 41.6004 8.00002 42.0004 7.90002C42.0004 7.90002 42.4004 7.80003 42.7004 7.50003C42.7004 7.50003 42.7004 7.50002 42.9004 7.30002C42.9004 7.30002 43.0004 7.10004 43.1004 7.10004C43.1004 7.10004 43.4004 6.80004 43.7004 6.70004C43.7004 6.70004 44.0004 6.60004 44.4004 6.70004C44.4004 6.70004 44.8004 6.80003 45.1004 7.00003C45.1004 7.00003 45.4004 7.30004 45.6004 7.70004C45.6004 7.70004 45.7004 8.10002 45.7004 8.40002C45.7004 8.40002 45.7004 8.70003 45.5004 9.00003C45.5004 9.00003 45.5004 9.10004 45.4004 9.10004C45.8004 8.60004 46.0004 8.00002 46.0004 7.30002C46.0004 5.60002 44.6004 4.10004 42.8004 4.10004C41.7004 4.10004 40.8004 4.60003 40.2004 5.50003C40.1004 5.60003 39.9004 6.00002 39.9004 6.40002C40.0004 6.40002 40.0004 6.80004 40.3004 7.20004Z" fill="#E50012"/>
<path d="M45.4003 9.10004C45.5003 9.00004 45.5003 9.00003 45.5003 9.00003C45.7003 8.70003 45.7003 8.40002 45.7003 8.40002C45.8003 8.00002 45.6003 7.70004 45.6003 7.70004C45.5003 7.30004 45.1003 7.00003 45.1003 7.00003C44.8003 6.70003 44.4003 6.70004 44.4003 6.70004C44.0003 6.60004 43.7003 6.70004 43.7003 6.70004C43.3003 6.80004 43.1003 7.10004 43.1003 7.10004C43.0003 7.20004 42.9003 7.30002 42.9003 7.30002C42.8003 7.50002 42.7003 7.50003 42.7003 7.50003C42.4003 7.80003 42.0003 7.90002 42.0003 7.90002C41.5003 8.00002 41.2003 7.90002 41.2003 7.90002C40.6003 7.80002 40.3003 7.20004 40.3003 7.20004C40.0003 6.80004 40.0003 6.40002 40.0003 6.40002C40.0003 5.90002 40.2003 5.60003 40.3003 5.50003C40.0003 6.00003 39.8003 6.60002 39.8003 7.30002C39.8003 9.00002 41.2003 10.5 43.0003 10.5C43.9003 10.4 44.8003 9.90004 45.4003 9.10004Z" fill="#1D2087"/>
<path d="M60.5001 29.1C60.5001 29.1 60.6001 27.4 56.3001 25.6C53.3001 24.4 51.0001 25.9 50.0001 27L49.5001 27.4C49.2001 27.7 48.7001 27.8 48.3001 27.9C48.0001 27.9 47.7001 28 47.5001 28.1C46.0001 29 45.2001 30.4 45.2001 31.9C45.2001 32.6 44.8001 33.3 44.2001 33.8C43.2001 34.5 42.2001 35.6 42.1001 36.9C42.0001 39.3 42.7001 42.1 44.8001 42.6C44.8001 43.3 44.8001 44 44.9001 44.4C45.1001 45.9 48.7001 46.5 49.1001 47.1C49.5001 47.7 52.8001 47.9 54.7001 47.8C55.3001 47.8 56.1001 47.4 56.8001 46.9C57.2001 46.6 57.7001 46.4 58.2001 46.4C61.6001 46.5 63.1001 44.5 63.6001 42.9C64.2001 41.1 63.9001 38.4 63.6001 37.1C63.5001 36.7 63.6001 36.2 63.7001 35.8C64.9001 33.1 64.0001 30.4 62.9001 29.7C61.8001 29 62.0001 29.1 60.6001 29.2L60.5001 29.1Z" fill="#BA001A"/>
<path d="M50.8003 38.5C50.8003 38.5 51.9003 35.7 52.3003 34.6C52.7003 33.6 55.7003 32.9 56.4003 34.2C57.1003 35.5 57.6003 36.8 56.3003 37.8C55.0003 38.8 53.9003 40.5 53.9003 40.5C52.6003 40.5 51.6003 39.7 50.8003 38.5Z" fill="#CFAF5D"/>
<path d="M68 32.7C68 32.3 68.1 32 68.2 31.7C68.5 31 69.1 30.2 71 29.9C72.9 29.6 73 30.8 73.7 31.5C74.4 32.3 74.4 35.5 70.7 36.4C70.7 36.4 70.6 36.4 70.4 36.5C69.1 36.7 68 35.7 68 34.4V32.7Z" fill="url(#paint0_radial_164_10134)"/>
<path d="M14.4999 43.7C14.4999 43.7 9.0999 43.8 6.9999 46.9C2.8999 52.8 1.3999 52.5 1.3999 52.5C1.3999 52.5 13.5999 54.5 17.2999 52.5C20.9999 50.5 21.2999 49.3 21.2999 49.3" fill="#608B00"/>
<path d="M30.5999 24.8C30.5999 24.8 30.0999 22.8 24.3999 22.4C20.4999 22.1 18.4999 24.8 17.6999 26.4L17.2999 27.1C16.9999 27.6 16.5999 27.9 16.0999 28.1C15.7999 28.2 15.4999 28.4 15.1999 28.7C13.8999 30.2 13.3999 32.2 13.9999 33.9C14.2999 34.8 14.0999 35.7 13.5999 36.4C12.7999 37.6 11.8999 39.2 12.3999 40.7C13.1999 43.5 14.9999 46.5 17.6999 46.3C17.8999 47.1 18.1999 47.9 18.4999 48.3C19.2999 49.9 23.5999 49.2 24.3999 49.8C25.1999 50.4 28.9999 49.3 31.0999 48.4C31.7999 48.1 32.5999 47.4 33.1999 46.5C33.5999 46 34.0999 45.6 34.6999 45.4C38.5999 44.2 39.5999 41.3 39.5999 39.3C39.5999 37 38.1999 34 37.3999 32.6C37.1999 32.1 36.9999 31.6 37.0999 31.1C37.3999 27.5 35.2999 24.8 33.8999 24.4C32.3999 24 32.5999 24 30.9999 24.7L30.5999 24.8Z" fill="url(#paint1_radial_164_10134)"/>
<path d="M23.5999 39.3C23.5999 39.3 21.5999 36.1 20.8999 35C20.1999 33.9 21.8999 30 23.6999 30.2C25.4999 30.4 27.1999 30.7 27.2999 32.8C27.3999 34.9 28.1999 37.4 28.1999 37.4C28.0999 40.3 26.7999 41 23.5999 39.3Z" fill="#CFAF5D"/>
<path d="M22.9997 18.2C22.6997 17.8 22.4997 17.3 22.4997 16.8C22.3997 15.8 22.5997 14.1 24.4997 13.6C27.3997 12.7 27.4997 12.2 28.8997 12.5C30.2997 12.9 32.6997 16.7 28.9997 20.6C28.9997 20.6 28.8997 20.7 28.6997 20.9C27.3997 22.1 25.2997 21.8 24.2997 20.3L22.9997 18.2Z" fill="#FB624D"/>
<path d="M18.9997 11.7C18.8997 11.6 18.6997 11.5 18.6997 11.3C18.5997 11 18.3997 10.5 18.8997 10.1C19.6997 9.50004 19.6997 9.30004 20.0997 9.20004C20.5997 9.20004 21.7997 10 21.0997 11.7C21.0997 11.7 21.0997 11.7 20.9997 11.8C20.6997 12.3 19.9997 12.5 19.5997 12.1L18.9997 11.7Z" fill="#FB624D"/>
</g>
<defs>
<radialGradient id="paint0_radial_164_10134" cx="0" cy="0" r="1" gradientUnits="userSpaceOnUse" gradientTransform="translate(70.7893 42.1609) scale(28.7834 28.7834)">
<stop stop-color="#FB624D"/>
<stop offset="1" stop-color="#BA001A"/>
</radialGradient>
<radialGradient id="paint1_radial_164_10134" cx="0" cy="0" r="1" gradientUnits="userSpaceOnUse" gradientTransform="translate(28.8804 32.4035) scale(23.6309 23.6309)">
<stop stop-color="#FB624D"/>
<stop offset="1" stop-color="#BA001A"/>
</radialGradient>
<clipPath id="clip0_164_10134">
<rect width="76" height="54" fill="white"/>
</clipPath>
</defs>
</svg>
