<svg width="44" height="36" viewBox="0 0 44 36" fill="none" xmlns="http://www.w3.org/2000/svg">
<g clip-path="url(#clip0_164_11036)">
<path d="M44 16.3C44.1 8.50001 3.6 8.50001 3.5 16.3L8.2 30.1H39.2L44 16.3Z" fill="#397C81"/>
<mask id="mask0_164_11036" style="mask-type:luminance" maskUnits="userSpaceOnUse" x="3" y="10" width="41" height="21">
<path d="M43.5 16.3C43.6 8.50001 3.1 8.50001 3 16.3L7.7 30.1H38.7L43.5 16.3Z" fill="white"/>
</mask>
<g mask="url(#mask0_164_11036)">
<path d="M66.3998 21.6C66.3998 33 57.1999 42.2 45.7999 42.2C34.3999 42.2 20.3998 31.9 25.1998 21.6C29.6998 11.9 31.7999 -1.09999 45.7999 1.00001C56.9999 2.70001 66.3998 10.2 66.3998 21.6Z" fill="#389193"/>
</g>
<path d="M28.8997 18.2C25.5997 17.9 22.0997 17.9 18.3997 18.2C17.8997 18.2 17.4997 17.9 17.3997 17.3L16.8997 13.1C16.7997 12.6 17.1997 12.1 17.6997 12C22.0997 11.4 26.1997 11.4 29.4997 12C29.9997 12.1 30.2997 12.6 30.2997 13.1L29.7997 17.3C29.7997 17.9 29.3997 18.3 28.8997 18.2Z" fill="#343E40"/>
<path d="M36.1997 19.9C34.7997 19.4 33.2997 19 31.7997 18.7C31.2997 18.6 30.9997 18.1 31.0997 17.6L31.7997 13.5C31.8997 13 32.2997 12.7 32.7997 12.7C34.7997 12.9 36.5997 13.4 38.0997 14.1C38.4997 14.3 38.6997 14.8 38.5997 15.3L37.3997 19.3C37.1997 19.8 36.6997 20.1 36.1997 19.9Z" fill="#343E40"/>
<path d="M39.2996 21.5C39.0996 21.4 38.7996 21.2 38.5996 21.1C38.0996 20.9 37.8995 20.3 38.1995 19.8L39.8995 15.9C40.0995 15.5 40.4995 15.2 40.9995 15.4C41.4995 15.5 41.9996 15.8 42.2996 16C42.6996 16.3 42.7996 16.8 42.5996 17.3L40.6995 21.1C40.2995 21.6 39.7996 21.7 39.2996 21.5Z" fill="#343E40"/>
<path d="M11.1999 19.9C12.5999 19.4 14.0999 19 15.5999 18.7C16.0999 18.6 16.3999 18.1 16.2999 17.6L15.5999 13.5C15.4999 13 15.0999 12.7 14.5999 12.7C12.5999 12.9 10.7999 13.4 9.2999 14.1C8.8999 14.3 8.6999 14.8 8.7999 15.3L9.99989 19.3C10.1999 19.8 10.6999 20.1 11.1999 19.9Z" fill="#343E40"/>
<path d="M8.09971 21.5C8.29971 21.4 8.59971 21.2 8.79971 21.1C9.29971 20.9 9.4997 20.3 9.1997 19.8L7.4997 15.9C7.2997 15.5 6.8997 15.2 6.3997 15.4C5.8997 15.5 5.39971 15.8 5.09971 16C4.69971 16.3 4.59971 16.8 4.79971 17.3L6.6997 21.1C7.0997 21.6 7.59971 21.7 8.09971 21.5Z" fill="#343E40"/>
<path d="M42.5998 22.2C28.8998 24.4 14.8998 24.2 0.799805 22.2V33.3C15.0998 35.9 29.0998 36 42.5998 33.3V22.2Z" fill="#745B54"/>
<mask id="mask1_164_11036" style="mask-type:luminance" maskUnits="userSpaceOnUse" x="0" y="22" width="43" height="14">
<path d="M42.5998 22.2C28.8998 24.4 14.8998 24.2 0.799805 22.2V33.3C15.0998 35.9 29.0998 36 42.5998 33.3V22.2Z" fill="white"/>
</mask>
<g mask="url(#mask1_164_11036)">
<path d="M11 32.2C19.2843 32.2 26 25.4843 26 17.2C26 8.91574 19.2843 2.20001 11 2.20001C2.71573 2.20001 -4 8.91574 -4 17.2C-4 25.4843 2.71573 32.2 11 32.2Z" fill="#936E65"/>
</g>
<mask id="mask2_164_11036" style="mask-type:luminance" maskUnits="userSpaceOnUse" x="0" y="22" width="43" height="14">
<path d="M42.5998 22.2C28.8998 24.4 14.8998 24.2 0.799805 22.2V33.3C15.0998 35.9 29.0998 36 42.5998 33.3V22.2Z" fill="white"/>
</mask>
<g mask="url(#mask2_164_11036)">
<path d="M39.1999 27.7H12.3999V30.2H13.5999V35.6H37.9999V30.2H39.1999V27.7Z" fill="#C2B7BD"/>
</g>
<mask id="mask3_164_11036" style="mask-type:luminance" maskUnits="userSpaceOnUse" x="0" y="22" width="43" height="14">
<path d="M42.5998 22.2C28.8998 24.4 14.8998 24.2 0.799805 22.2V33.3C15.0998 35.9 29.0998 36 42.5998 33.3V22.2Z" fill="white"/>
</mask>
<g mask="url(#mask3_164_11036)">
<path d="M36.4998 30.2H15.2998V36.8H36.4998V30.2Z" fill="#3D3736"/>
</g>
<path d="M27.0999 24.4C27.0999 24.5 27.0999 24.5 27.0999 24.6C26.8999 25.1 26.2999 25.4 25.8999 25.7C25.7999 25.8 25.5999 25.9 25.3999 26.1H25.2999C24.8999 25.1 25.9999 24.4 26.8999 24.5H26.9999H27.0999V24.4Z" fill="#396C65"/>
<path d="M27.0999 24.9C27.0999 25 27.0999 25 27.0999 25.1C26.8999 25.6 26.2999 25.9 25.8999 26.2C25.7999 26.3 25.5999 26.4 25.3999 26.6H25.2999C24.8999 25.6 25.9999 24.9 26.8999 25H26.9999H27.0999V24.9Z" fill="#A18B00"/>
<path d="M27.0999 25.4C27.0999 25.5 27.0999 25.5 27.0999 25.6C26.8999 26.1 26.2999 26.4 25.8999 26.7C25.7999 26.8 25.5999 26.9 25.3999 27.1H25.2999C24.8999 26.1 25.9999 25.4 26.8999 25.5H26.9999H27.0999V25.4Z" fill="#8F1B00"/>
<path d="M20.4998 8.00002C20.4998 8.00002 21.3998 6.20001 20.6998 4.90001C19.4998 2.50001 19.7998 2.10002 19.7998 2.10002C19.7998 2.10002 16.9998 5.80001 17.0998 7.40001C17.0998 9.00001 17.4998 9.30002 17.4998 9.30002L20.4998 8.00002Z" fill="#608B00"/>
<path d="M9.8 13.7C9.8 13.7 7.9 14.3 6.7 13.5C4.5 11.9 4 12.2 4 12.2C4 12.2 8.10001 10 9.60001 10.3C11.2 10.6 11.4 11 11.4 11L9.8 13.7Z" fill="#608B00"/>
<path d="M17.4999 11.2C17.4999 11.2 18.1999 10.9 17.8998 8.80001C17.6999 7.40001 16.5999 6.90001 15.9999 6.70001L15.6999 6.60002C15.4999 6.50002 15.3999 6.40001 15.2999 6.20001C15.1999 6.10001 15.0999 6 14.9999 5.9C14.3999 5.5 13.5999 5.50001 13.0999 5.80001C12.7999 5.90001 12.4999 6.00001 12.1999 5.80001C11.6999 5.60001 11.0999 5.40001 10.5999 5.70001C9.69986 6.20001 8.69986 7.00001 8.99986 8.00001C8.69986 8.10001 8.49986 8.3 8.29986 8.4C7.79986 8.8 8.29985 10.3 8.19985 10.6C8.09985 10.9 8.69986 12.2 9.09986 12.9C9.19986 13.1 9.59985 13.4 9.89985 13.5C10.0999 13.6 10.2999 13.7 10.3999 14C11.0999 15.3 12.1999 15.5 12.8998 15.3C13.6999 15.1 14.6999 14.4 15.0999 14.1C15.1999 14 15.3999 13.9 15.5999 13.9C16.8999 13.8 17.6999 12.8 17.7999 12.3C17.7999 11.7 17.7999 11.8 17.4999 11.3V11.2Z" fill="url(#paint0_radial_164_11036)"/>
<path d="M13.4999 11.4C13.4999 11.4 12.5999 10.6 12.1999 10.3C11.8999 10 12 8.60002 12.6 8.50002C13.2 8.40002 13.6999 8.30001 13.9999 8.90001C14.1999 9.60001 14.6999 10.2 14.6999 10.2C14.9999 11.2 14.5999 11.6 13.4999 11.4Z" fill="#CFA740"/>
<path d="M36.2 11.7C36.2 11.7 38.6 10.9 39.1 9.20001C40.1 6.00001 40.8 5.90001 40.8 5.90001C40.8 5.90001 35.1 6.70001 33.7 8.20001C32.3 9.60001 32.4 10.2 32.4 10.2L36.2 11.7Z" fill="#608B00"/>
<path d="M33.1001 14.8C33.1001 14.8 34.0001 15.1 35.6001 13.1C36.7001 11.7 36.2001 10.3 35.8001 9.50002L35.6001 9.20002C35.5001 9.00002 35.5001 8.70002 35.5001 8.50002C35.5001 8.30002 35.5001 8.20002 35.5001 8.00002C35.3001 7.10002 34.6001 6.40002 33.8001 6.20002C33.4001 6.10002 33.1001 5.80002 33.0001 5.40002C32.8001 4.80002 32.4001 4.10002 31.7001 3.80002C30.4001 3.40002 28.9001 3.30002 28.2001 4.40002C27.8001 4.30002 27.5001 4.20002 27.2001 4.20002C26.4001 4.10002 25.5001 5.90003 25.1001 6.10003C24.7001 6.30003 24.1001 8.00002 23.9001 9.00002C23.8001 9.30002 23.9001 9.80002 24.1001 10.3C24.2001 10.6 24.2001 10.9 24.1001 11.1C23.5001 12.9 24.4001 14 25.1001 14.5C26.0001 15.1 27.5001 15.3 28.2001 15.4C28.4001 15.4 28.7001 15.5 28.9001 15.7C30.2001 16.7 31.7001 16.6 32.3001 16.2C32.8001 15.7 32.8001 15.8 32.9001 15L33.1001 14.8Z" fill="url(#paint1_radial_164_11036)"/>
<path d="M29.1002 9.10003C29.1002 9.10003 30.6002 8.60001 31.1002 8.40001C31.6002 8.20001 33.0002 9.30002 32.8002 10C32.6002 10.7 32.3002 11.4 31.4002 11.2C30.5002 11 29.5002 11.1 29.5002 11.1C28.3002 10.8 28.1002 10.2 29.1002 9.10003Z" fill="#CFA740"/>
<path d="M26.4999 3.40001C26.4999 3.40001 26.7999 2.50001 24.7999 0.900014C23.3999 -0.199986 21.8999 0.300017 21.1999 0.700017L20.8999 0.900014C20.6999 1.00001 20.3999 1.00002 20.1999 1.00002C19.9999 1.00002 19.8999 1.00002 19.6999 1.00002C18.7999 1.20002 18.1999 1.90002 17.8999 2.70002C17.7999 3.10002 17.4999 3.40003 17.0999 3.60003C16.4999 3.80003 15.7999 4.20001 15.4999 4.90001C15.0999 6.20001 15.0999 7.80001 16.0999 8.40001C15.9999 8.80001 15.8999 9.10001 15.8999 9.40001C15.7999 10.2 17.5999 11 17.7999 11.4C17.9999 11.8 19.6999 12.3 20.6999 12.6C20.9999 12.7 21.4999 12.6 21.9999 12.4C22.2999 12.3 22.5999 12.3 22.7999 12.4C24.5999 12.9 25.6999 12.1 26.1999 11.3C26.7999 10.4 26.9999 8.90002 27.0999 8.20002C27.0999 8.00002 27.1999 7.70002 27.3999 7.50002C28.3999 6.20002 28.2999 4.70003 27.8999 4.10003C27.3999 3.60003 27.4999 3.60002 26.6999 3.50002L26.4999 3.40001Z" fill="url(#paint2_radial_164_11036)"/>
<path d="M20.9002 7.50002C20.9002 7.50002 20.4002 6.00002 20.2002 5.50002C20.0002 5.00002 21.1002 3.60002 21.8002 3.80002C22.5002 4.00002 23.2002 4.30001 23.0002 5.20001C22.8002 6.10001 22.9002 7.10002 22.9002 7.10002C22.6002 8.30002 22.0002 8.40002 20.9002 7.50002Z" fill="#CFA740"/>
</g>
<defs>
<radialGradient id="paint0_radial_164_11036" cx="0" cy="0" r="1" gradientUnits="userSpaceOnUse" gradientTransform="translate(13.8718 18.8975) rotate(49.262) scale(26.1806 26.1806)">
<stop stop-color="#FB624D"/>
<stop offset="1" stop-color="#BA001A"/>
</radialGradient>
<radialGradient id="paint1_radial_164_11036" cx="0" cy="0" r="1" gradientUnits="userSpaceOnUse" gradientTransform="translate(23.0429 18.4332) rotate(94.0787) scale(32.9441 32.9441)">
<stop stop-color="#FB624D"/>
<stop offset="1" stop-color="#BA001A"/>
</radialGradient>
<radialGradient id="paint2_radial_164_11036" cx="0" cy="0" r="1" gradientUnits="userSpaceOnUse" gradientTransform="translate(30.281 13.4) rotate(3.45151) scale(32.9434 32.9435)">
<stop stop-color="#FB624D"/>
<stop offset="1" stop-color="#BA001A"/>
</radialGradient>
<clipPath id="clip0_164_11036">
<rect width="44" height="36" fill="white"/>
</clipPath>
</defs>
</svg>
