<svg width="44" height="48" viewBox="0 0 44 48" fill="none" xmlns="http://www.w3.org/2000/svg">
<path d="M16.3003 1.89998C16.2003 1.89998 15.0003 5.4 14.5003 6.7C14.4003 7.1 14.4003 7.39998 14.4003 7.79998L15.6003 14.6L16.1003 17.3C16.2003 17.8 16.4003 18.2 16.8003 18.5L17.3003 18.9C17.9003 19.5 18.1003 20.3 17.9003 21.1C17.4003 23.3 16.3003 27.5 16.2003 27.6C16.1003 27.7 15.4003 28.8 15.1003 29.3C15.0003 29.5 14.9003 29.7 14.8003 29.9L13.6003 34C13.5003 34.5 13.2003 34.9 12.8003 35.2L12.3003 35.6C11.8003 36 11.4003 36.6 11.4003 37.2L11.2003 39.2C11.2003 39.3 11.2003 39.3 11.2003 39.4V42.8C11.2003 43 11.2003 43.2 11.1003 43.3C10.9003 44.2 11.3003 45.2 12.1003 45.7L12.8003 46.1C13.2003 46.3 13.6003 46.4 14.0003 46.4H32.4003C33.1003 46.4 33.7003 46.1 34.1003 45.6L36.9003 42.2C37.1003 41.9 37.3003 41.6 37.4003 41.3L38.9003 35C38.9003 34.9 38.9003 34.8 39.0003 34.7L40.9003 29.5C40.9003 29.4 41.0003 29.3 41.0003 29.1L41.4003 27C41.5003 26.5 41.7003 26.1 42.1003 25.7C42.9003 24.9 43.1003 23.6 42.4003 22.7L40.6003 20.3C40.5003 20.2 40.5003 20.1 40.4003 20L39.4003 18.2C39.4003 18.2 39.4003 18.1 39.3003 18.1L37.4003 14.1C37.2003 13.8 37.2003 13.4 37.2003 13.1V12.5C37.2003 11.8 36.9003 11.1 36.4003 10.7L32.4003 7.59999C32.4003 7.59999 29.4003 5.09999 29.2003 5.09999C29.0003 5.09999 23.7003 2.3 22.5003 1.7C22.3003 1.6 22.2003 1.59999 22.0003 1.49999L20.4003 1.09999C20.1003 0.999994 19.8003 0.999994 19.6003 1.09999L16.3003 1.89998Z" fill="#8C8068"/>
<path d="M26.7002 41.1H24.4002C22.9002 41.1 21.7002 39.9 21.7002 38.4V11C21.7002 9.5 22.9002 8.29999 24.4002 8.29999H26.7002C28.2002 8.29999 29.4002 9.5 29.4002 11V38.3C29.4002 39.8 28.2002 41.1 26.7002 41.1Z" fill="#494B48"/>
<path d="M27.1004 11.7C27.0004 11.7 26.8004 11.7 26.7004 11.5C26.7004 11.4 26.6004 11.3 26.7004 11.2C26.9004 11 26.9004 10.7 26.8004 10.4C26.7004 10.3 26.8004 10.2 26.8004 10.1C26.8004 10 26.7004 10 26.7004 9.9C26.7004 9.9 26.6004 9.80002 26.6004 9.70002C26.6004 9.70002 26.6004 9.70002 26.6004 9.60002C26.8004 9.60002 26.9004 9.6 26.9004 9.3C26.8004 9.3 26.8004 9.30002 26.7004 9.20002C26.5004 9.20002 26.4004 9.10002 26.2004 9.10002C25.8004 9.10002 25.5004 9.00002 25.1004 9.10002C25.2004 9.10002 25.2004 9.20002 25.3004 9.20002C25.3004 9.20002 25.3004 9.20002 25.2004 9.20002C25.0004 9.20002 24.9004 9.2 24.7004 9.3C24.7004 9.3 24.7004 9.3 24.6004 9.3C24.5004 9.3 24.5004 9.3 24.4004 9.4C24.3004 9.6 24.5004 9.7 24.6004 9.8C24.5004 9.9 24.6004 10 24.6004 10C24.7004 10.2 24.7004 10.4 24.4004 10.4C24.0004 10.5 24.0004 10.7 24.1004 11C24.2004 11.4 24.2004 11.5 23.7004 11.6C23.6004 11.6 23.5004 11.6 23.5004 11.7C23.4004 11.9 23.5004 12.1 23.6004 12.2C24.0004 12.2 24.5004 12.1 24.9004 12.1C25.1004 12.3 25.3004 12.3 25.6004 12.2C25.8004 12.1 26.0004 12.1 26.2004 12.1C26.3004 12.1 26.4004 12.1 26.4004 12.1C26.7004 12.1 27.0004 12.2 27.2004 11.9C27.5004 11.9 27.4004 11.7 27.1004 11.7ZM25.5004 9.9C25.5004 9.9 25.6004 9.90001 25.6004 10C25.7004 10.1 25.8004 10.1 25.7004 10.2C25.7004 10.2 25.7004 10.2 25.6004 10.2L25.5004 10.1C25.5004 10.1 25.5004 10 25.5004 9.9ZM25.8004 11.7C25.5004 11.6 25.4004 11.3 25.2004 11.1C25.2004 11.1 25.1004 11.1 25.1004 11.2C25.3004 11 25.4004 11 25.6004 11.1C25.9004 11.3 25.9004 11.5 25.8004 11.7Z" fill="#BD9400"/>
<path d="M26.8002 39.5C26.7002 39.5 26.6002 39.5 26.5002 39.5H26.4002C26.3002 39.4 26.1002 39.4 26.0002 39.3V39.2C26.0002 39 25.8002 39 25.7002 39C25.7002 38.9 25.6002 38.9 25.6002 38.8C25.2002 38.8 25.1002 38.8 25.3002 39.2C25.6002 39.8 26.0002 40.3 26.8002 40.2H26.9002C27.1002 40.2 27.2002 40.1 27.2002 39.9C27.1002 39.6 27.0002 39.5 26.8002 39.5Z" fill="#BD9400"/>
<path d="M25.2006 13.3C25.0006 13.2 24.8006 13.1 24.7006 13.4C24.7006 13.7 24.5006 13.9 24.3006 14.1C24.1006 14.3 23.8006 14.4 23.6006 14.6C23.6006 14.7 23.6006 14.7 23.6006 14.8C23.8006 15 24.0006 14.9 24.2006 14.9L24.3006 14.8L24.4006 14.9C24.5006 14.9 24.5006 14.9 24.6006 15C24.7006 15.1 24.7006 15.2 24.7006 15.4C24.6006 15.7 24.7006 15.9 25.0006 16C25.5006 16.9 25.6006 17 26.6006 16.7H26.7006C26.8006 16.2 26.5006 16.4 26.3006 16.4C25.7006 16.5 25.6006 16.5 25.4006 15.9C25.4006 15.8 25.3006 15.8 25.3006 15.7C25.3006 15.1 25.1006 14.4 25.2006 13.8C25.3006 13.5 25.2006 13.4 25.2006 13.3Z" fill="#BD9400"/>
<path d="M24.0003 19.4C24.0003 19.5 24.1003 19.6 24.1003 19.8C24.2003 19.9 24.2003 19.9 24.3003 20C24.6003 20.3 25.0003 20.3 25.3003 20.1C25.6003 19.8 25.6003 19.5 25.3003 19.3C25.3003 19.2 25.1003 19.1 25.3003 18.9C25.3003 18.8 25.3003 18.7 25.4003 18.6C25.4003 18.4 25.3003 18.4 25.2003 18.3C25.2003 18.2 25.2003 18.1 25.2003 18C25.1003 18 25.0003 18 25.0003 18C24.5003 17.8 24.4003 18.2 24.3003 18.5C24.3003 18.5 24.3003 18.5 24.2003 18.5C24.0003 18.6 23.9003 18.7 23.8003 18.9C23.8003 19 24.0003 19.1 24.0003 19.4Z" fill="#BD9400"/>
<path d="M26.3005 33.2C26.5005 33.2 26.5005 33.4 26.6005 33.6C26.6005 34 26.7005 34.4 26.7005 34.7C26.7005 34.8 26.7005 35 26.9005 35C27.1005 35 27.1005 34.8 27.1005 34.6C27.1005 34.1 27.1005 33.7 27.1005 33.2C27.1005 33 27.0005 32.7 27.1005 32.5C27.1005 32.3 27.1005 32.1 27.1005 32C27.0005 31.9 27.1005 31.8 27.1005 31.7C27.1005 31.4 26.8005 31.1 26.4005 31.2C26.0005 31.3 26.2005 31.5 26.2005 31.8V31.9C26.0005 31.8 26.0005 31.5 25.8005 31.5C25.7005 31.5 25.5005 31.5 25.5005 31.7C25.6005 32.3 25.8005 32.9 25.8005 33.6C25.8005 33.8 25.7005 34.2 25.9005 34.2C26.2005 34.2 26.1005 33.8 26.1005 33.6C26.1005 33.5 26.1005 33.2 26.3005 33.2Z" fill="#BD9400"/>
<path d="M24.7003 34.2C25.0003 34.3 25.3003 34.2 25.4003 33.9C25.6003 33.6 25.5003 33.2 25.2003 33C25.2003 32.9 25.2003 32.9 25.2003 32.8C25.3003 32.7 25.4003 32.7 25.3003 32.5C25.2003 32.4 25.2003 32.3 25.1003 32.3C24.9003 31.9 24.5003 31.8 24.2003 32.2H24.3003C24.2003 32.3 24.2003 32.3 24.1003 32.4C24.0003 32.5 23.8003 32.6 23.9003 32.8C24.0003 32.9 24.1003 33 24.1003 33C24.1003 33.1 24.1003 33.2 24.1003 33.4C24.1003 33.4 24.1003 33.4 24.2003 33.4C24.1003 33.8 24.3003 34.1 24.7003 34.2Z" fill="#BD9400"/>
<path d="M27.1003 36.4C27.1003 36.4 27.1003 36.3 27.0003 36.3C26.9003 36.2 26.8003 36 26.6003 36.1C26.4003 36.2 26.6003 36.4 26.6003 36.5C26.6003 36.6 26.6003 36.8 26.5003 36.9C26.3003 37 26.2003 36.9 26.0003 36.8C25.7003 36.5 25.6003 36.5 25.5003 37H25.6003C25.6003 37.3 25.6003 37.7 25.6003 38C25.5003 38 25.5003 38 25.4003 38C25.2003 38 25.1003 38 25.0003 37.8C25.0003 37.6 25.1003 37.6 25.2003 37.5C25.3003 37.4 25.3003 37.3 25.2003 37.3C25.0003 37.2 24.9003 37.1 24.7003 36.9C24.6003 36.8 24.5003 36.8 24.4003 36.9C24.3003 36.9 24.3003 37 24.3003 37.1C24.5003 37.5 24.5003 37.9 24.5003 38.2C24.5003 38.4 24.7003 38.5 24.9003 38.5C25.5003 38.4 26.1003 38.2 26.7003 38.4V38.5C26.7003 38.7 26.7003 38.9 26.7003 39.1C26.9003 39.1 27.0003 39 27.0003 38.8C27.2003 37.9 27.3003 37.1 27.1003 36.4ZM26.4003 37.7C26.3003 37.7 26.3003 37.7 26.4003 37.7C26.3003 37.7 26.3003 37.6 26.2003 37.6C26.2003 37.6 26.2003 37.6 26.3003 37.6C26.4003 37.6 26.5003 37.6 26.5003 37.7C26.4003 37.7 26.4003 37.7 26.4003 37.7Z" fill="#BD9400"/>
<path d="M26.3005 26.4C26.1005 26.4 26.0005 26.5 26.0005 26.7C26.3005 26.9 26.3005 27.3 26.3005 27.6C26.3005 28.3 26.4005 29.1 26.4005 29.8C26.4005 30 26.4005 30.2 26.6005 30.2C26.9005 30.2 26.9005 30 26.9005 29.8C26.9005 28.9 26.9005 28 26.9005 27C26.9005 26.9 26.9005 26.7 26.8005 26.6C26.7005 26.5 26.5005 26.4 26.3005 26.4Z" fill="#BD9400"/>
<path d="M25.5006 29.5H25.6006C25.6006 29.4 25.6006 29.3 25.6006 29.2C25.6006 29.1 25.7006 28.9 25.6006 28.8C25.6006 28.5 25.4006 28.4 25.2006 28.3C25.2006 28.1 25.3006 28.1 25.5006 28C25.6006 28 25.7006 27.8 25.7006 27.7V27.6C25.1006 27.5 24.6006 27.7 24.1006 27.7C24.0006 27.7 24.0006 27.8 23.9006 27.9C24.0006 28.1 24.1006 28.1 24.2006 28.1C24.6006 28.1 24.5006 28.3 24.4006 28.6C24.3006 28.8 24.1006 28.9 23.9006 29C23.8006 29.1 23.6006 29.2 23.6006 29.4C23.8006 29.7 24.0006 29.5 24.2006 29.5C24.7006 29.2 25.1006 28.9 25.5006 29.5Z" fill="#BD9400"/>
<path d="M25.9006 29.8C26.0006 29.7 26.1006 29.7 26.1006 29.5C25.9006 29.5 25.8006 29.5 25.6006 29.5C25.6006 29.6 25.7006 29.7 25.9006 29.8Z" fill="#BD9400"/>
<path d="M25.6003 24.5C25.7003 24.3 25.9003 24.1 25.9003 23.9C25.9003 23.6 26.1003 23.4 26.0003 23.1C26.0003 23 25.9003 22.8 25.8003 22.7C25.5003 22.3 25.2003 22.3 25.1003 22.7C24.9003 23.2 24.9003 23.2 24.4003 22.9C24.3003 22.8 24.1003 22.8 24.0003 22.8C23.9003 22.9 23.8003 23 23.8003 23.1C23.9003 23.4 23.9003 23.8 24.0003 24.1C24.1003 24.2 24.0003 24.3 24.0003 24.4C24.0003 24.6 24.0003 24.6 24.2003 24.6C24.2003 24.6 24.3003 24.6 24.3003 24.5C24.3003 24.6 24.3003 24.6 24.3003 24.7C24.4003 24.8 24.5003 24.8 24.6003 24.7C24.8003 24.6 25.1003 24.5 25.4003 24.6C25.4003 24.8 25.5003 24.7 25.6003 24.5Z" fill="#BD9400"/>
<path d="M24.9005 27C24.7005 27 24.5005 27 24.5005 27.3C24.5005 27.5 24.7005 27.5 24.9005 27.5C25.1005 27.5 25.3005 27.5 25.3005 27.3C25.3005 27 25.1005 27 24.9005 27Z" fill="#BD9400"/>
<path d="M25.9005 13.7C25.7005 13.8 25.6005 13.8 25.5005 14H25.6005C25.8005 14.4 26.2005 14.2 26.4005 14.3C26.4005 14.6 26.4005 14.9 26.4005 15.2C26.4005 15.3 26.3005 15.6 26.5005 15.6C26.7005 15.6 26.7005 15.4 26.7005 15.3C26.9005 14.8 26.9005 14.2 26.8005 13.6C26.8005 13.5 26.8005 13.4 26.9005 13.3C26.9005 12.7 26.5005 12.5 25.9005 12.6C25.8005 12.8 26.0005 12.9 26.0005 13.1C26.4005 13.4 26.3005 13.6 25.9005 13.7Z" fill="#BD9400"/>
<path d="M26.0005 17.9C25.9005 17.7 25.7005 17.7 25.5005 17.7V17.8H25.6005C25.6005 18.2 25.7005 18.7 25.6005 19.1C25.6005 19.2 25.6005 19.3 25.6005 19.4C25.6005 19.6 25.5005 20 25.8005 20.1C26.1005 20.1 26.0005 19.7 26.1005 19.5C26.1005 19.3 26.2005 19.1 26.3005 19.1C26.5005 19.1 26.5005 19.3 26.5005 19.5C26.5005 19.6 26.5005 19.6 26.5005 19.7C26.5005 20.1 26.5005 20.5 26.5005 20.9C26.5005 21 26.5005 21.1 26.6005 21.2C26.7005 21.2 26.8005 21.1 26.9005 21C26.9005 20.9 27.0005 20.8 27.0005 20.7C27.1005 19.8 27.1005 19 27.0005 18.1C27.0005 18 27.0005 17.9 26.9005 17.8C26.8005 17.6 26.6005 17.6 26.5005 17.6C26.3005 17.7 26.4005 17.8 26.4005 18C26.4005 18.2 26.5005 18.4 26.5005 18.5C26.5005 18.6 26.5005 18.8 26.3005 18.8C26.1005 18.8 26.1005 18.6 26.1005 18.5C26.0005 18.2 26.0005 18.1 26.0005 17.9Z" fill="#BD9400"/>
<path d="M26.6003 22C26.5003 22 26.4003 21.9 26.3003 22C26.2003 22.1 26.3003 22.2 26.3003 22.2C26.5003 22.4 26.4003 22.7 26.4003 23C26.3003 23.9 26.4003 24.8 26.4003 25.7C26.6003 25.5 26.7003 25.2 26.8003 24.9C26.8003 24.1 26.9003 23.3 26.9003 22.5C26.9003 22.3 26.8003 22.1 26.6003 22Z" fill="#BD9400"/>
<path d="M20.2001 28.6C20.2001 28.6 20.9001 27.1 17.6001 24.1C15.3001 22 12.8001 22.7 11.5001 23.2L10.9001 23.4C10.5001 23.5 10.1001 23.5 9.70009 23.4C9.40009 23.3 9.10007 23.3 8.90007 23.3C7.30007 23.6 6.10008 24.6 5.60008 25.9C5.30008 26.5 4.80008 27 4.10008 27.2C3.00008 27.5 1.70009 28.1 1.20009 29.2C0.300085 31.3 8.52346e-05 34 1.70009 35.2C1.40009 35.8 1.30009 36.4 1.20009 36.8C0.900085 38.2 3.80008 39.9 4.10008 40.6C4.40008 41.3 7.10007 42.5 8.90007 43.1C9.50007 43.3 10.3001 43.2 11.1001 43C11.6001 42.9 12.1001 42.9 12.5001 43.1C15.4001 44.3 17.5001 43 18.5001 41.8C19.6001 40.4 20.2001 37.9 20.5001 36.6C20.6001 36.2 20.8001 35.8 21.1001 35.5C23.1001 33.5 23.1001 30.8 22.4001 29.8C21.7001 28.8 21.8001 29 20.5001 28.6H20.2001Z" fill="url(#paint0_radial_164_10090)"/>
<defs>
<radialGradient id="paint0_radial_164_10090" cx="0" cy="0" r="1" gradientUnits="userSpaceOnUse" gradientTransform="translate(4.03332 53.5413) rotate(-48.8152) scale(28.6783)">
<stop stop-color="#FB624D"/>
<stop offset="1" stop-color="#BA001A"/>
</radialGradient>
</defs>
</svg>
