<svg width="375" height="667" viewBox="0 0 375 667" fill="none" xmlns="http://www.w3.org/2000/svg">
<path d="M55.2002 218.4C55.2002 218.4 52.5002 216 49.9002 216.4C44.8002 217 44.2002 216.2 44.2002 216.2C44.2002 216.2 49.0002 222.5 51.9002 223.3C54.7002 224.1 55.5002 223.8 55.5002 223.8L55.2002 218.4Z" fill="#608B00"/>
<path d="M71.2001 215.7C71.2001 215.7 73.6001 213.1 72.9001 210.9C71.6001 206.6 72.5001 206 72.5001 206C72.5001 206 65.8001 210.9 65.2001 213.4C64.6001 215.9 65.1001 216.5 65.1001 216.5L71.2001 215.7Z" fill="#608B00"/>
<path d="M69.1003 213.3C69.1003 213.3 70.0003 212.1 67.2003 209.1C65.3003 207 62.7003 207.3 61.3003 207.6L60.7003 207.7C60.3003 207.8 59.9003 207.7 59.5003 207.6C59.2003 207.5 59.0003 207.4 58.7003 207.4C57.1003 207.4 55.8003 208.1 55.0003 209.2C54.6003 209.7 54.1003 210.1 53.4003 210.2C52.3003 210.3 50.9003 210.7 50.3003 211.6C49.1003 213.3 48.4003 215.5 49.9003 216.8C49.6003 217.3 49.3003 217.8 49.1003 218.1C48.6003 219.2 51.3003 221.1 51.4003 221.7C51.5003 222.3 54.1003 223.7 55.8003 224.4C56.3003 224.6 57.2003 224.7 58.0003 224.6C58.5003 224.5 59.0003 224.6 59.4003 224.8C62.1003 226.2 64.4003 225.4 65.5003 224.5C66.8003 223.5 67.8003 221.4 68.2003 220.3C68.3003 220 68.6003 219.7 68.9003 219.4C71.1003 217.9 71.6003 215.6 71.0003 214.7C70.4003 213.8 70.5003 213.9 69.3003 213.4L69.1003 213.3Z" fill="#FB624D"/>
<path d="M57.3003 216.5C57.3003 216.5 58.0003 214.3 58.2003 213.5C58.4003 212.7 61.3003 211.9 62.1003 212.7C62.9003 213.5 63.5003 214.5 62.5003 215.4C61.4003 216.3 60.5003 217.7 60.5003 217.7C59.1003 218.9 58.0003 218.6 57.3003 216.5Z" fill="#CFAF5D"/>
<path d="M135.1 191.2C135.1 191.2 136.3 190.8 136.4 187.8C136.4 185.7 134.7 184.7 133.6 184.3L133.1 184.1C132.8 184 132.6 183.7 132.4 183.5C132.3 183.3 132.2 183.2 132 183.1C131 182.4 129.7 182.3 128.7 182.6C128.2 182.8 127.6 182.7 127.1 182.5C126.3 182.1 125.3 181.7 124.3 182C122.6 182.5 120.8 183.6 121 185.1C120.5 185.3 120 185.4 119.7 185.6C118.7 186.1 119.3 188.4 119 188.8C118.7 189.3 119.5 191.3 120.1 192.4C120.3 192.8 120.8 193.2 121.4 193.5C121.7 193.7 122 193.9 122.1 194.3C123 196.4 124.8 196.8 126.1 196.8C127.5 196.7 129.4 195.9 130.2 195.4C130.5 195.3 130.8 195.2 131.1 195.2C133.4 195.3 135 194 135.2 193.2C135.4 192.4 135.4 192.5 134.9 191.7L135.1 191.2Z" fill="#FF958A"/>
<path d="M125.9 187.9C125.9 187.9 127.6 186.8 128.3 186.4C128.9 186 131.2 186.7 131.1 187.6C131 188.5 130.9 189.3 129.7 189.4C128.5 189.5 127.1 189.9 127.1 189.9C125.5 190.2 125.1 189.5 125.9 187.9Z" fill="#F5E0A9"/>
<path d="M92.1002 476.2C92.1002 476.2 94.0002 475.7 94.0002 471.1C94.1002 467.9 91.4002 466.4 89.9002 465.8L89.2002 465.5C88.8002 465.3 88.4002 465 88.2002 464.6C88.0002 464.3 87.8002 464.1 87.6002 463.9C86.1002 462.9 84.2002 462.6 82.6002 463.1C81.8002 463.3 80.9002 463.3 80.2002 462.9C79.1002 462.3 77.5002 461.7 76.1002 462.1C73.5002 462.9 70.8002 464.5 71.2002 466.7C70.5002 466.9 69.8002 467.2 69.3002 467.4C67.8002 468.1 68.7002 471.6 68.2002 472.2C67.7002 472.9 68.9002 475.9 69.8002 477.6C70.1002 478.2 70.8002 478.7 71.7002 479.2C72.2002 479.5 72.6002 479.9 72.8002 480.3C74.1002 483.4 76.9002 484.1 78.7002 484C80.8002 483.9 83.6002 482.6 84.9002 481.9C85.3002 481.7 85.8002 481.6 86.3002 481.6C89.7002 481.7 92.1002 479.9 92.4002 478.7C92.7002 477.5 92.7002 477.7 92.0002 476.4L92.1002 476.2Z" fill="#FF9E94"/>
<path d="M235.7 517.7C235.7 517.7 233.5 514.9 230.9 514.7C225.8 514.4 225.4 513.5 225.4 513.5C225.4 513.5 229 520.6 231.6 521.9C234.2 523.2 235.1 523 235.1 523L235.7 517.7Z" fill="#94AB60"/>
<path d="M251.9 517.9C251.9 517.9 254.7 515.8 254.5 513.5C254 509.1 255 508.6 255 508.6C255 508.6 247.5 512.2 246.4 514.5C245.3 516.9 245.7 517.6 245.7 517.6L251.9 517.9Z" fill="#94AB60"/>
<path d="M250.3 515.2C250.3 515.2 251.4 514.2 249.2 510.8C247.7 508.4 245.1 508.2 243.7 508.3H243.1C242.7 508.3 242.3 508.2 241.9 507.9C241.7 507.8 241.4 507.6 241.1 507.6C239.5 507.3 238.1 507.8 237.2 508.7C236.8 509.1 236.1 509.4 235.4 509.3C234.3 509.2 232.9 509.3 232.1 510.1C230.6 511.5 229.5 513.6 230.8 515.1C230.4 515.5 230 515.9 229.8 516.3C229.1 517.3 231.4 519.6 231.4 520.3C231.4 521 233.7 522.8 235.2 523.7C235.7 524 236.5 524.2 237.3 524.3C237.8 524.3 238.3 524.5 238.6 524.8C241 526.7 243.4 526.3 244.7 525.6C246.2 524.8 247.5 522.9 248.1 522C248.3 521.7 248.6 521.4 248.9 521.3C251.4 520.3 252.2 518.1 251.9 517.1C251.5 516.1 251.6 516.2 250.5 515.5L250.3 515.2Z" fill="#FF8C80"/>
<path d="M238.1 516.2C238.1 516.2 239.2 514.1 239.6 513.4C240 512.7 242.9 512.4 243.5 513.3C244.1 514.3 244.6 515.3 243.4 516C242.2 516.7 241.1 517.9 241.1 517.9C239.4 518.9 238.4 518.4 238.1 516.2Z" fill="#E3CC91"/>
<path d="M345.8 451.4C345.8 451.4 348.9 450.5 349 442.9C349.1 437.6 344.7 435.1 342.1 434.1L341 433.6C340.3 433.3 339.7 432.7 339.4 432.1C339.1 431.6 338.8 431.3 338.4 431C335.9 429.3 332.7 428.9 330.1 429.7C328.8 430.1 327.3 430 326.2 429.4C324.3 428.4 321.7 427.4 319.3 428.1C315 429.4 310.5 432.1 311.1 435.7C309.9 436.1 308.7 436.5 308 436.9C305.6 438.1 307 443.9 306.2 445C305.4 446.1 307.4 451.1 309 454C309.5 455 310.7 455.9 312.1 456.7C312.9 457.2 313.6 457.8 313.9 458.6C316.1 463.8 320.7 465 323.8 464.8C327.4 464.6 331.9 462.5 334.1 461.3C334.8 460.9 335.6 460.7 336.4 460.8C342 461 346.1 457.9 346.6 455.9C347.1 453.8 347.1 454.2 345.9 452L345.8 451.4Z" fill="#FFADA4"/>
<path d="M322.9 443.3C322.9 443.3 327.2 440.6 328.8 439.7C330.4 438.7 335.9 440.6 335.9 442.7C335.9 444.9 335.5 447 332.5 447.3C329.5 447.6 326.1 448.7 326.1 448.7C322 449 320.9 447.3 322.9 443.3Z" fill="#FFE399"/>
<path d="M135.3 306.2C135.3 306.2 137.6 304.8 136 298.7C134.9 294.4 130.9 293.4 128.5 293.2L127.5 293C126.8 292.9 126.3 292.6 125.8 292.1C125.5 291.8 125.1 291.6 124.7 291.4C122.3 290.6 119.7 291 117.8 292.2C116.8 292.8 115.7 293.1 114.6 292.8C112.9 292.4 110.5 292.2 108.8 293.3C105.6 295.3 102.7 298.4 103.9 301.2C103 301.8 102.2 302.4 101.7 302.9C100 304.4 102.4 308.7 102.1 309.8C101.8 310.9 104.5 314.4 106.3 316.4C106.9 317.1 108.1 317.6 109.4 317.9C110.2 318.1 110.8 318.5 111.3 319C114.2 322.7 118.2 322.6 120.6 321.8C123.4 320.9 126.6 318.1 128.1 316.7C128.6 316.3 129.2 315.9 129.9 315.7C134.5 314.6 137.1 311.3 137 309.5C136.9 307.7 137 308 135.6 306.6L135.3 306.2Z" fill="#FB624D"/>
<path d="M122.4 309.2C122.4 309.2 118.6 307.3 117.2 306.7C115.8 306 114.6 301.3 116.2 300.4C117.8 299.5 119.4 298.8 120.9 300.8C122.4 302.8 124.7 304.7 124.7 304.7C126.7 307.3 126.1 308.9 122.4 309.2Z" fill="#FFE399"/>
</svg>
