<svg width="100%" height="100%" viewBox="0 0 375 285" fill="none" xmlns="http://www.w3.org/2000/svg">
<path d="M375 0H0V285H375V0Z" fill="#020202"/>
<g opacity="0.4">
<path d="M50.47 102.29C50.13 117.78 42.65 129.54 28.01 137.57L24.43 133.2C30.07 130.62 34.67 126.95 38.23 122.17C41.79 117.39 43.82 112.33 44.31 106.99H27.34V102.29H50.47ZM65.76 146.92H60.05V97.02H65.76V146.92Z" fill="white"/>
<path d="M95.41 103.02C97.89 105.3 99.13 108.17 99.13 111.64C99.13 115.11 97.91 117.94 95.46 120.12C93.01 122.3 89.96 123.4 86.3 123.4C82.64 123.4 79.74 122.3 77.26 120.1C74.78 117.9 73.54 115.08 73.54 111.64C73.54 108.2 74.78 105.34 77.26 103.04C79.74 100.74 82.76 99.6 86.3 99.6C89.84 99.6 92.92 100.74 95.4 103.02H95.41ZM93.54 111.59C93.54 109.54 92.89 107.81 91.58 106.41C90.27 105.01 88.52 104.31 86.32 104.31C84.27 104.31 82.57 105.03 81.22 106.47C79.88 107.91 79.2 109.62 79.2 111.59C79.2 113.68 79.87 115.43 81.22 116.83C82.56 118.23 84.26 118.93 86.32 118.93C88.38 118.93 90.18 118.23 91.53 116.83C92.88 115.43 93.55 113.69 93.55 111.59H93.54ZM80.6 128.78H114.26V146.98H108.49V133.26H80.6V128.78ZM114.2 126.15H108.43V113.77H101.09V108.95H108.43V97.02H114.2V126.14V126.15Z" fill="white"/>
<path d="M69.74 180.69H24.66V176.04H69.74V180.69ZM64.47 202.31H30.43V185.29H63.97V189.88H36.14V197.66H64.48V202.31H64.47ZM64.47 171.4H30.59V154.32H63.97V158.97H36.36V166.81H64.47V171.4Z" fill="white"/>
<path d="M98.91 158.29C98.57 173.78 91.09 185.54 76.45 193.57L72.87 189.2C78.51 186.62 83.11 182.95 86.67 178.17C90.23 173.39 92.26 168.33 92.75 162.99H75.78V158.29H98.91ZM114.2 202.92H108.49V153.02H114.2V202.92Z" fill="white"/>
</g>
<mask id="mask0_38_4946" style="mask-type:luminance" maskUnits="userSpaceOnUse" x="0" y="0" width="375" height="285">
<path d="M375 0H0V285H375V0Z" fill="white"/>
</mask>
<g mask="url(#mask0_38_4946)">
<path d="M119.2 148.96C118.98 149.27 118.65 149.57 118.21 149.82C116.44 150.85 113.56 150.84 111.77 149.82C111.32 149.56 110.98 149.26 110.76 148.94C110.1 147.99 110.42 146.86 111.75 146.1C113.52 145.07 116.4 145.07 118.18 146.1C119.53 146.88 119.86 148.02 119.19 148.97L119.2 148.96Z" fill="#6E7EA0"/>
<path d="M119.2 148.96C118.98 149.27 118.65 149.57 118.21 149.82C116.44 150.85 113.56 150.84 111.77 149.82C111.32 149.56 110.98 149.26 110.76 148.94C110.97 148.62 111.31 148.33 111.75 148.08C113.52 147.05 116.4 147.05 118.18 148.08C118.63 148.34 118.97 148.64 119.19 148.96H119.2Z" fill="#4C5C73"/>
<path d="M263.25 65.24C263.03 65.55 262.7 65.85 262.26 66.1C260.49 67.13 257.61 67.12 255.82 66.1C255.37 65.84 255.03 65.54 254.81 65.22C254.15 64.27 254.47 63.14 255.8 62.38C257.57 61.35 260.45 61.35 262.23 62.38C263.58 63.16 263.91 64.3 263.24 65.25L263.25 65.24Z" fill="#6E7EA0"/>
<path d="M263.25 65.24C263.03 65.55 262.7 65.85 262.26 66.1C260.49 67.13 257.61 67.12 255.82 66.1C255.37 65.84 255.03 65.54 254.81 65.22C255.02 64.9 255.36 64.61 255.8 64.36C257.57 63.33 260.45 63.33 262.23 64.36C262.68 64.62 263.02 64.92 263.24 65.24H263.25Z" fill="#4C5C73"/>
<path d="M357.01 286.23C356.79 286.54 356.46 286.84 356.02 287.09C354.25 288.12 351.37 288.11 349.58 287.09C349.13 286.83 348.79 286.53 348.57 286.21C347.91 285.26 348.23 284.13 349.56 283.37C351.33 282.34 354.21 282.34 355.99 283.37C357.34 284.15 357.67 285.29 357 286.24L357.01 286.23Z" fill="#6E7EA0"/>
<path d="M357.01 286.23C356.79 286.54 356.46 286.84 356.02 287.09C354.25 288.12 351.37 288.11 349.58 287.09C349.13 286.83 348.79 286.53 348.57 286.21C348.78 285.89 349.12 285.6 349.56 285.35C351.33 284.32 354.21 284.32 355.99 285.35C356.44 285.61 356.78 285.91 357 286.23H357.01Z" fill="#4C5C73"/>
<path d="M339.06 158.53L338.99 181.03L309.49 164L309.56 141.51L339.06 158.53Z" fill="#010101"/>
<path d="M364.33 173.11L364.26 195.61L357.77 191.88L357.83 169.38L364.33 173.11Z" fill="#010101"/>
<path d="M364.32 173.12L364.25 195.62L307.85 163.05L307.92 140.56L364.32 173.12Z" fill="#4F4340"/>
<path d="M307.92 140.56L307.85 163.05L277.36 180.77L277.43 158.28L307.92 140.56Z" fill="#4F4340"/>
<path d="M307.92 140.56L307.85 163.05L277.37 180.78L277.43 158.28L307.92 140.56Z" fill="#504A58"/>
<path d="M326.41 168.41C320.95 171.58 314.84 174.15 308.32 176.11L308.26 198.61C314.78 196.65 320.89 194.09 326.35 190.91C331.5 187.92 335.72 184.58 338.99 181.04L339.05 158.54C335.77 162.08 331.56 165.42 326.41 168.41Z" fill="#151F1B"/>
<path d="M364.31 173.12L364.25 195.62L333.78 213.33L333.84 190.83L364.31 173.12Z" fill="#131E1A"/>
<path d="M333.84 190.83L333.78 213.33L327.84 209.91L327.91 187.41L333.84 190.83Z" fill="#131E1A"/>
<path d="M294.15 139.37C293.82 141.64 292.33 143.85 289.67 145.69L287.2 144.26L284.72 145.7L287.19 147.12C286.21 147.6 285.18 148.02 284.09 148.36C281.63 147.75 278.97 147.37 276.17 147.28C275.69 147.26 275.22 147.25 274.73 147.25C274.03 147.25 273.34 147.26 272.67 147.3C270.01 147.42 267.48 147.81 265.15 148.4C264 148.04 262.9 147.61 261.87 147.11L264.33 145.68L261.83 144.24L259.37 145.67C256.69 143.83 255.17 141.61 254.81 139.35H258.3V137.31H254.8C255.12 135.05 256.62 132.83 259.28 131L261.76 132.43L264.24 130.99L261.76 129.56C264.93 128.01 268.74 127.14 272.65 126.94V128.97H276.17V126.94C280.07 127.14 283.89 128.02 287.08 129.56L284.63 130.99L287.11 132.43L289.57 131C292.25 132.84 293.76 135.06 294.13 137.32H290.64V139.35H294.14L294.15 139.37Z" fill="#333940"/>
<path d="M276.17 128.99V147.45C275.86 147.35 275.15 147.37 274.42 147.37C273.54 147.37 272.82 147.38 272.67 147.47V128.99H276.17Z" fill="#4F4340"/>
<path d="M291.61 148.26C282.35 153.64 267.31 153.64 257.99 148.26C253.3 145.55 250.96 142 250.97 138.45L250.91 160.95C250.91 164.5 253.24 168.05 257.93 170.76C267.25 176.14 282.3 176.13 291.55 170.76C296.14 168.09 298.44 164.6 298.45 161.1L298.51 138.6C298.5 142.1 296.2 145.59 291.61 148.26Z" fill="#333940"/>
<path d="M287.15 147.1V147.16C286.35 147.55 285.52 147.89 284.65 148.19V131.02L287.13 132.46V144.33L284.73 145.72L287.15 147.11V147.1Z" fill="#4F4340"/>
<path d="M289.58 131.02V145.64L287.2 144.26L287.11 144.32V132.45L289.58 131.02Z" fill="#322A28"/>
<path d="M294.15 139.37C293.86 141.34 292.7 143.26 290.67 144.94V139.37H294.15Z" fill="#322A28"/>
<path d="M258.32 139.38V144.89C256.3 143.23 255.14 141.32 254.83 139.38H258.32Z" fill="#322A28"/>
<path d="M261.77 132.46V144.31L261.84 144.27L264.25 145.65V131.02L261.77 132.46Z" fill="#4F4340"/>
<path d="M259.3 131.03V145.65L259.39 145.7L261.77 144.31V132.46L259.3 131.03Z" fill="#322A28"/>
<path d="M287.2 147.13L287.12 147.17C286.36 147.54 285.56 147.87 284.73 148.16V145.71L287.2 147.13Z" fill="#322A28"/>
<path d="M291.49 128.79C282.17 123.42 267.12 123.42 257.88 128.79C252.52 131.91 250.28 136.28 251.17 140.46C251.8 143.49 254.07 146.41 257.99 148.68C267.31 154.06 282.36 154.01 291.62 148.62C295.59 146.31 297.84 143.32 298.38 140.23C298.39 140.19 298.4 140.15 298.41 140.1C299.07 136.04 296.75 131.83 291.5 128.79H291.49ZM290.67 144.95C290.36 145.21 290.03 145.45 289.68 145.7L287.21 144.27L287.12 144.32L284.73 145.71L287.2 147.13L287.12 147.17C286.36 147.54 285.56 147.87 284.73 148.16C284.7 148.16 284.67 148.18 284.65 148.19C284.47 148.26 284.28 148.31 284.1 148.38C281.67 149.17 279.02 149.62 276.32 149.76V147.74H272.8V149.76C270.16 149.63 267.56 149.19 265.16 148.44C264.88 148.36 264.61 148.26 264.35 148.17C263.49 147.87 262.67 147.53 261.89 147.15L264.35 145.72L261.85 144.28L259.39 145.71C259.01 145.45 258.65 145.18 258.32 144.9C256.3 143.24 255.14 141.33 254.83 139.39H258.32V137.35H254.82C255.14 135.09 256.64 132.87 259.3 131.04L261.78 132.47L264.26 131.03L261.78 129.6C264.95 128.05 268.76 127.18 272.67 126.98V129.01H276.19V126.98C280.09 127.18 283.91 128.06 287.1 129.6L284.65 131.03L287.13 132.47L289.59 131.04C292.27 132.88 293.78 135.1 294.15 137.36H290.66V139.39H294.16C293.87 141.36 292.71 143.28 290.68 144.96L290.67 144.95Z" fill="#D4B6B0"/>
<path d="M264.34 145.7V148.15C263.48 147.85 262.66 147.51 261.88 147.13L264.34 145.7Z" fill="#322A28"/>
<path d="M387.6 193.34C387.27 195.61 385.78 197.82 383.12 199.66L380.65 198.23L378.17 199.67L380.64 201.09C379.66 201.57 378.63 201.99 377.54 202.33C375.08 201.72 372.42 201.34 369.62 201.25C369.14 201.23 368.67 201.22 368.18 201.22C367.48 201.22 366.79 201.23 366.12 201.27C363.46 201.39 360.93 201.78 358.6 202.37C357.45 202.01 356.35 201.58 355.32 201.08L357.78 199.65L355.28 198.21L352.82 199.64C350.14 197.8 348.62 195.58 348.26 193.32H351.75V191.28H348.25C348.57 189.02 350.07 186.8 352.73 184.97L355.21 186.4L357.69 184.96L355.21 183.53C358.38 181.98 362.19 181.11 366.1 180.91V182.94H369.62V180.91C373.52 181.11 377.34 181.99 380.53 183.53L378.08 184.96L380.56 186.4L383.02 184.97C385.7 186.81 387.21 189.03 387.58 191.29H384.09V193.32H387.59L387.6 193.34Z" fill="#333940"/>
<path d="M369.62 182.97V201.43C369.31 201.33 368.6 201.35 367.87 201.35C366.99 201.35 366.27 201.36 366.12 201.45V182.97H369.62Z" fill="#4F4340"/>
<path d="M385.06 202.24C375.8 207.62 360.76 207.62 351.44 202.24C346.75 199.53 344.41 195.98 344.42 192.43L344.36 214.93C344.36 218.48 346.69 222.03 351.38 224.74C360.7 230.12 375.75 230.11 385 224.74C389.59 222.07 391.89 218.58 391.9 215.08L391.96 192.58C391.95 196.08 389.65 199.57 385.06 202.24Z" fill="#333940"/>
<path d="M351.77 193.35V198.86C349.75 197.2 348.59 195.29 348.28 193.35H351.77Z" fill="#322A28"/>
<path d="M355.23 186.43V198.29L355.29 198.24L357.7 199.62V184.99L355.23 186.43Z" fill="#4F4340"/>
<path d="M352.75 185V199.62L352.84 199.67L355.23 198.29V186.43L352.75 185Z" fill="#322A28"/>
<path d="M384.94 182.77C375.62 177.4 360.57 177.4 351.33 182.77C345.97 185.89 343.73 190.26 344.62 194.44C345.25 197.47 347.52 200.39 351.44 202.66C360.76 208.04 375.81 207.99 385.07 202.6C389.04 200.29 391.29 197.3 391.83 194.21C391.84 194.17 391.85 194.13 391.86 194.08C392.52 190.02 390.2 185.81 384.95 182.77H384.94ZM384.12 198.92C383.81 199.18 383.48 199.42 383.13 199.67L380.66 198.24L380.57 198.29L378.18 199.68L380.65 201.1L380.57 201.14C379.81 201.51 379.01 201.84 378.18 202.13C378.15 202.13 378.12 202.15 378.1 202.16C377.92 202.23 377.73 202.28 377.55 202.35C375.12 203.14 372.47 203.59 369.77 203.73V201.71H366.25V203.73C363.61 203.6 361.01 203.16 358.61 202.41C358.33 202.33 358.06 202.23 357.8 202.14C356.94 201.84 356.12 201.5 355.34 201.12L357.8 199.69L355.3 198.25L352.84 199.68C352.46 199.42 352.1 199.15 351.77 198.87C349.75 197.21 348.59 195.3 348.28 193.36H351.77V191.32H348.27C348.59 189.06 350.09 186.84 352.75 185.01L355.23 186.44L357.71 185L355.23 183.57C358.4 182.02 362.21 181.15 366.12 180.95V182.98H369.64V180.95C373.54 181.15 377.36 182.03 380.55 183.57L378.1 185L380.58 186.44L383.04 185.01C385.72 186.85 387.23 189.07 387.6 191.33H384.11V193.36H387.61C387.32 195.33 386.16 197.25 384.13 198.93L384.12 198.92Z" fill="#D4B6B0"/>
<path d="M357.79 199.68V202.13C356.93 201.83 356.11 201.49 355.33 201.11L357.79 199.68Z" fill="#322A28"/>
<path d="M339.05 158.54C335.77 162.09 331.56 165.42 326.41 168.41C320.95 171.58 314.84 174.15 308.32 176.11L277.43 158.29L307.92 140.57L339.06 158.55L339.05 158.54Z" fill="#322A28"/>
<path d="M364.31 173.12L333.84 190.83L327.91 187.41C329.52 183.05 333.23 178.9 339.07 175.5C344.4 172.4 350.83 170.32 357.64 169.26L364.31 173.11V173.12Z" fill="#322A28"/>
<path d="M308.32 176.1L308.26 198.6L277.37 180.78L277.43 158.28L308.32 176.1Z" fill="#151F1B"/>
<path d="M196.37 132.91C196.51 133 196.64 133.09 196.79 133.18L340.68 216.25L375.79 236.52C380.21 239.07 387.37 239.07 391.76 236.52L419.03 220.67L446.3 204.82C450.69 202.27 450.67 198.12 446.25 195.57L267.25 92.23C265.63 91.3 263.64 90.71 261.56 90.46C261.48 90.46 261.4 90.44 261.31 90.43C260.65 90.36 259.98 90.32 259.31 90.32C259.29 90.32 259.27 90.32 259.25 90.32C258.17 90.32 257.08 90.41 256.03 90.59C254.28 90.89 252.64 91.44 251.27 92.23L196.73 123.93C195.08 124.89 194.06 126.07 193.65 127.31C193.51 127.72 193.45 128.14 193.45 128.56C193.45 130.12 194.44 131.68 196.36 132.92L196.37 132.91ZM239.82 135.72L269.66 118.37C272.24 116.87 276.43 116.87 279.03 118.37L402.73 189.76C405.32 191.26 405.34 193.69 402.76 195.19L372.92 212.53C370.34 214.03 366.14 214.03 363.55 212.53L239.85 141.15C237.25 139.65 237.24 137.22 239.82 135.72Z" fill="#F5E4E0"/>
<path d="M105.91 147.81C105.92 147.88 105.94 147.96 105.96 148.03C105.96 148.03 105.96 148.05 105.96 148.06C105.98 148.13 106.01 148.2 106.05 148.27C106.05 148.28 106.05 148.29 106.07 148.31C106.1 148.37 106.14 148.43 106.18 148.5C106.19 148.52 106.2 148.54 106.21 148.56C106.25 148.61 106.29 148.67 106.34 148.72C106.36 148.74 106.38 148.77 106.4 148.79C106.44 148.83 106.49 148.88 106.53 148.92C106.56 148.95 106.59 148.98 106.62 149.01C106.78 149.15 106.97 149.29 107.19 149.41L349.79 289.42C351.53 290.42 354.32 290.42 356.04 289.42L505.73 202.39C505.84 202.33 505.94 202.26 506.03 202.2C506.1 202.15 506.17 202.1 506.23 202.04C506.25 202.02 506.27 202.01 506.29 201.99C506.35 201.94 506.39 201.89 506.44 201.84C506.46 201.82 506.49 201.79 506.51 201.77C506.54 201.74 506.56 201.71 506.58 201.68C506.65 201.6 506.71 201.51 506.76 201.43C506.76 201.43 506.76 201.42 506.77 201.41C506.82 201.33 506.85 201.25 506.89 201.18C506.89 201.16 506.9 201.15 506.91 201.13C506.94 201.06 506.96 200.99 506.97 200.92C506.97 200.9 506.98 200.88 506.99 200.85C507 200.78 507.01 200.7 507.01 200.63C507.03 199.96 506.6 199.28 505.71 198.76L263.12 58.75C261.39 57.75 258.58 57.75 256.87 58.75L107.17 145.78C106.31 146.28 105.89 146.93 105.89 147.58C105.89 147.62 105.89 147.66 105.89 147.7C105.89 147.74 105.89 147.77 105.89 147.81H105.91ZM355.56 286.82C354.04 287.7 351.58 287.71 350.05 286.82C348.52 285.93 348.51 284.51 350.03 283.63C351.55 282.75 354.01 282.75 355.54 283.63C357.06 284.51 357.07 285.94 355.55 286.82H355.56ZM494.08 199.89C495.6 199.01 498.06 199.01 499.59 199.89C501.12 200.77 501.13 202.2 499.61 203.08C498.09 203.96 495.63 203.96 494.1 203.08C492.57 202.2 492.56 200.77 494.08 199.89ZM256.27 62.64C257.78 61.76 260.25 61.76 261.78 62.64C263.3 63.52 263.31 64.94 261.8 65.83C260.29 66.71 257.82 66.71 256.29 65.83C254.76 64.95 254.76 63.52 256.28 62.64H256.27ZM176.45 127.76C176.78 125.67 178.32 123.63 181.08 122.03L248.73 82.7C255.03 79.04 265.26 79.04 271.6 82.7L393.82 153.23L464.35 193.93C467.08 195.5 468.63 197.5 469.02 199.55C469.08 199.84 469.11 200.14 469.12 200.43C469.12 200.47 469.13 200.51 469.13 200.55C469.13 200.62 469.12 200.69 469.11 200.75C469.04 203.08 467.49 205.39 464.43 207.17L439.56 221.63L396.78 246.5C390.49 250.16 380.25 250.16 373.91 246.5L181.16 135.27C177.6 133.21 176.03 130.44 176.46 127.75L176.45 127.76ZM112.22 146.39C113.73 145.51 116.21 145.51 117.73 146.39C119.25 147.27 119.26 148.7 117.74 149.58C116.23 150.46 113.76 150.46 112.23 149.58C110.7 148.7 110.69 147.27 112.21 146.39H112.22Z" fill="#82A2C3"/>
<path d="M507.03 200.32V200.36L506.99 213.82L506.96 222.81C506.96 222.89 506.96 222.98 506.94 223.06C506.85 223.63 506.43 224.18 505.68 224.61L355.99 311.64C355.11 312.15 353.95 312.41 352.8 312.39C351.69 312.39 350.59 312.13 349.74 311.64L107.13 171.64C106.7 171.38 106.37 171.09 106.15 170.78C106.07 170.66 106.01 170.53 105.95 170.4C105.87 170.21 105.83 170.01 105.83 169.81L105.86 158.67L105.89 147.32C105.89 147.32 105.89 147.4 105.9 147.44C105.9 147.47 105.9 147.5 105.9 147.54C105.91 147.62 105.93 147.69 105.96 147.77C105.96 147.77 105.96 147.79 105.96 147.8C105.98 147.87 106.01 147.94 106.04 148.01C106.04 148.02 106.04 148.04 106.05 148.05C106.08 148.11 106.13 148.17 106.16 148.24C106.17 148.26 106.19 148.27 106.19 148.3C106.23 148.36 106.27 148.4 106.32 148.46C106.34 148.48 106.35 148.51 106.37 148.53C106.37 148.53 106.45 148.61 106.5 148.66C106.53 148.69 106.56 148.72 106.59 148.74C106.75 148.88 106.94 149.02 107.16 149.15L349.77 289.16C350.6 289.64 351.68 289.89 352.77 289.9C353.94 289.93 355.13 289.67 356.02 289.16L505.71 202.13C505.82 202.07 505.92 202.01 506.01 201.94C506.08 201.89 506.14 201.84 506.21 201.79C506.22 201.77 506.24 201.76 506.27 201.74C506.33 201.69 506.37 201.64 506.42 201.59C506.44 201.57 506.47 201.55 506.48 201.53C506.48 201.53 506.483 201.53 506.49 201.53C506.49 201.53 506.54 201.47 506.56 201.44C506.63 201.36 506.69 201.27 506.74 201.18C506.74 201.18 506.74 201.17 506.75 201.17C506.8 201.09 506.83 201.01 506.87 200.94C506.87 200.92 506.88 200.91 506.88 200.89C506.91 200.82 506.93 200.75 506.95 200.68C506.95 200.65 506.95 200.63 506.96 200.61C506.97 200.53 506.98 200.47 506.98 200.39C506.98 200.38 506.98 200.36 506.98 200.35L507.03 200.32Z" fill="#56627E"/>
<path d="M181.16 135.28L373.91 246.51C380.24 250.17 390.48 250.17 396.78 246.51L439.56 221.64L464.43 207.18C467.49 205.4 469.04 203.09 469.11 200.76C469.11 200.69 469.13 200.62 469.13 200.56C469.13 200.52 469.13 200.48 469.12 200.44C469.12 200.15 469.08 199.85 469.02 199.56C468.63 197.51 467.08 195.51 464.35 193.94L393.82 153.24L271.6 82.71C265.26 79.06 255.03 79.05 248.73 82.71L181.08 122.04C178.33 123.64 176.79 125.68 176.45 127.77C176.02 130.46 177.59 133.23 181.15 135.29L181.16 135.28ZM195.71 123.34L247.54 93.22L250.25 91.64C250.87 91.28 251.54 90.97 252.24 90.7C254.35 89.89 256.8 89.49 259.25 89.49C262.51 89.49 265.78 90.21 268.27 91.65L447.27 194.99C450.02 196.58 451.26 198.72 450.98 200.81C450.95 201.02 450.91 201.23 450.85 201.44C450.44 202.9 449.27 204.3 447.33 205.43L411.59 226.2L392.79 237.13C390.01 238.74 386.25 239.45 382.6 239.26C382.56 239.26 382.51 239.26 382.47 239.26C379.66 239.09 376.93 238.39 374.77 237.15L195.77 133.81C190.78 130.93 190.76 126.25 195.71 123.37V123.34Z" fill="#F5E4E0"/>
<path d="M195.77 133.78L374.77 237.12C376.92 238.36 379.66 239.07 382.47 239.23C382.51 239.23 382.56 239.23 382.6 239.23C386.25 239.43 390.01 238.72 392.79 237.1L411.59 226.17L447.33 205.4C449.27 204.27 450.44 202.87 450.85 201.41C450.91 201.2 450.95 200.99 450.98 200.78C451.26 198.7 450.03 196.56 447.27 194.96L268.27 91.62C265.78 90.18 262.51 89.46 259.25 89.46C256.8 89.46 254.36 89.86 252.24 90.67C251.54 90.94 250.87 91.25 250.25 91.61L247.54 93.19L195.71 123.31C190.76 126.19 190.78 130.87 195.77 133.75V133.78ZM193.66 127.31C194.07 126.07 195.09 124.89 196.74 123.93L251.28 92.23C252.65 91.43 254.29 90.88 256.04 90.59C257.09 90.41 258.17 90.32 259.26 90.32C259.28 90.32 259.3 90.32 259.32 90.32C259.99 90.32 260.66 90.36 261.32 90.43C261.4 90.43 261.48 90.45 261.57 90.46C263.65 90.71 265.64 91.3 267.26 92.23L446.26 195.57C450.68 198.12 450.7 202.27 446.31 204.82L419.04 220.67L391.77 236.52C387.38 239.07 380.22 239.07 375.8 236.52L340.69 216.25L196.8 133.18C196.65 133.09 196.52 133 196.38 132.91C194.46 131.67 193.48 130.11 193.47 128.55C193.47 128.13 193.53 127.71 193.67 127.3L193.66 127.31Z" fill="#6A5B57"/>
<path d="M402.73 189.76L279.03 118.37C276.43 116.87 272.23 116.87 269.66 118.37L239.82 135.72C237.24 137.22 237.25 139.65 239.85 141.15L363.55 212.53C366.14 214.03 370.34 214.03 372.92 212.53L402.76 195.19C405.34 193.69 405.32 191.26 402.73 189.76ZM257.94 148.31C248.62 142.93 248.57 134.21 257.83 128.83C267.08 123.46 282.13 123.46 291.45 128.83C300.76 134.21 300.81 142.92 291.57 148.3C282.31 153.68 267.27 153.68 257.95 148.3L257.94 148.31ZM327.91 187.41L308.32 176.11L277.43 158.28L307.92 140.56L364.32 173.12L333.84 190.83L327.91 187.41ZM385.03 202.24C375.77 207.62 360.72 207.62 351.4 202.24C342.09 196.86 342.04 188.15 351.29 182.77C360.54 177.39 375.58 177.39 384.91 182.77C394.22 188.15 394.27 196.86 385.03 202.24Z" fill="#4C5C73"/>
<path d="M208.66 174.39C208.7 174.34 208.75 174.28 208.79 174.23C208.75 174.28 208.71 174.34 208.66 174.39Z" fill="#524543"/>
<path d="M208.31 170.72C208.31 170.72 208.29 170.7 208.28 170.69C208.29 170.7 208.3 170.71 208.31 170.72Z" fill="#524543"/>
<path d="M166.34 172.97C166.34 172.97 166.34 172.97 166.34 172.98C166.38 173.05 166.42 173.11 166.46 173.18C166.41 173.11 166.37 173.04 166.33 172.97H166.34Z" fill="#524543"/>
<path d="M165.92 172C165.94 172.07 165.95 172.15 165.98 172.22C165.96 172.15 165.94 172.07 165.92 172Z" fill="#524543"/>
<path d="M166.09 172.49C166.12 172.56 166.15 172.63 166.18 172.7C166.14 172.63 166.12 172.55 166.09 172.48V172.49Z" fill="#524543"/>
<path d="M165.84 171.51C165.84 171.59 165.84 171.66 165.86 171.74C165.85 171.66 165.85 171.59 165.84 171.51Z" fill="#524543"/>
<path d="M167.48 174.23C167.55 174.29 167.62 174.35 167.7 174.4C167.68 174.38 167.66 174.37 167.63 174.35C167.58 174.31 167.53 174.27 167.48 174.23Z" fill="#171621"/>
<path d="M167.08 173.87C167.08 173.87 167.12 173.91 167.14 173.93C167.13 173.92 167.12 173.91 167.11 173.9L167.09 173.88L167.08 173.87Z" fill="#171621"/>
<path d="M166.47 173.18C166.54 173.27 166.62 173.36 166.69 173.46C166.69 173.46 166.68 173.45 166.67 173.44C166.6 173.36 166.53 173.27 166.47 173.19V173.18Z" fill="#171621"/>
<path d="M165.81 171.26C165.81 171.34 165.82 171.43 165.83 171.51C165.83 171.43 165.81 171.34 165.81 171.26Z" fill="#171621"/>
<path d="M166.18 172.71C166.23 172.8 166.29 172.89 166.34 172.98C166.34 172.98 166.34 172.98 166.34 172.97C166.29 172.88 166.23 172.8 166.18 172.71Z" fill="#171621"/>
<path d="M165.98 172.23C166.01 172.32 166.05 172.41 166.09 172.5C166.05 172.41 166.01 172.33 165.98 172.24V172.23Z" fill="#171621"/>
<path d="M209.08 171.79C209.08 171.79 209.06 171.73 209.04 171.7C209.04 171.7 209.07 171.76 209.08 171.79Z" fill="#524543"/>
<path d="M208.92 174.01C208.95 173.96 208.99 173.9 209.02 173.85C208.99 173.9 208.96 173.96 208.92 174.01Z" fill="#524543"/>
<path d="M208.78 174.24C208.78 174.24 208.8 174.22 208.8 174.21C208.8 174.21 208.78 174.23 208.78 174.24Z" fill="#524543"/>
<path d="M209.28 172.95C209.28 172.88 209.3 172.82 209.3 172.75C209.3 172.82 209.3 172.88 209.28 172.95Z" fill="#524543"/>
<path d="M208.2 174.88C208.25 174.83 208.3 174.78 208.35 174.73C208.35 174.73 208.35 174.73 208.34 174.74C208.29 174.78 208.25 174.83 208.21 174.87L208.2 174.88Z" fill="#171621"/>
<path d="M207.89 175.12C207.89 175.12 207.94 175.08 207.97 175.06C207.96 175.07 207.94 175.08 207.93 175.09C207.92 175.1 207.9 175.11 207.89 175.12Z" fill="#171621"/>
<path d="M203.05 176.62C204.61 176.56 206.15 176.19 207.34 175.49C207.4 175.45 207.45 175.41 207.51 175.38C207.45 175.42 207.4 175.46 207.34 175.49C206.15 176.18 204.61 176.56 203.05 176.62Z" fill="#171621"/>
<path d="M208.81 174.2C208.81 174.2 208.86 174.12 208.88 174.09C208.86 174.13 208.84 174.17 208.81 174.2Z" fill="#171621"/>
<path d="M209.02 173.85C209.05 173.8 209.07 173.74 209.09 173.68C209.07 173.73 209.05 173.79 209.02 173.84V173.85Z" fill="#171621"/>
<path d="M209.26 173.12C209.26 173.06 209.26 173.01 209.27 172.95C209.27 173.01 209.27 173.06 209.26 173.12Z" fill="#171621"/>
<path d="M294.69 231.28C294.77 231.35 294.87 231.42 294.96 231.49C294.87 231.42 294.78 231.35 294.7 231.28H294.69Z" fill="#171621"/>
<path d="M305.93 231.28C305.98 231.24 306.02 231.19 306.07 231.14C306.02 231.19 305.98 231.23 305.93 231.28Z" fill="#171621"/>
<path d="M305.65 231.51C305.65 231.51 305.69 231.48 305.7 231.47C305.68 231.48 305.67 231.5 305.65 231.51Z" fill="#171621"/>
<path d="M311.53 246.53C311.53 246.53 311.55 246.49 311.56 246.47C311.58 246.41 311.61 246.36 311.63 246.3C311.6 246.38 311.57 246.46 311.53 246.54V246.53Z" fill="#524543"/>
<path d="M311.77 245.56C311.77 245.56 311.77 245.48 311.78 245.44C311.78 245.4 311.78 245.36 311.78 245.32C311.78 245.4 311.77 245.49 311.76 245.57L311.77 245.56Z" fill="#524543"/>
<path d="M309.96 242.21C309.9 242.17 309.85 242.12 309.79 242.08C309.77 242.07 309.76 242.06 309.74 242.05C309.82 242.11 309.89 242.16 309.97 242.22C309.97 242.22 309.97 242.22 309.96 242.22V242.21Z" fill="#524543"/>
<path d="M310.77 242.93C310.77 242.93 310.7 242.86 310.66 242.82C310.73 242.9 310.8 242.97 310.87 243.05C310.84 243.01 310.81 242.97 310.77 242.93Z" fill="#524543"/>
<path d="M311.72 244.74C311.72 244.74 311.71 244.69 311.7 244.67C311.7 244.63 311.68 244.6 311.67 244.56C311.65 244.48 311.64 244.41 311.61 244.33C311.59 244.27 311.56 244.22 311.54 244.16C311.53 244.13 311.51 244.1 311.5 244.07C311.5 244.05 311.48 244.03 311.47 244.01C311.58 244.26 311.67 244.51 311.71 244.76C311.71 244.75 311.71 244.74 311.71 244.73L311.72 244.74Z" fill="#524543"/>
<path d="M310.32 242.5C310.32 242.5 310.26 242.46 310.24 242.43C310.32 242.5 310.39 242.57 310.46 242.63C310.41 242.58 310.37 242.54 310.32 242.49V242.5Z" fill="#524543"/>
<path d="M311.14 243.39C311.1 243.34 311.06 243.29 311.02 243.24C311.08 243.32 311.15 243.41 311.2 243.49C311.18 243.46 311.16 243.42 311.14 243.39Z" fill="#524543"/>
<path d="M311.42 243.86C311.38 243.79 311.34 243.72 311.29 243.65C311.35 243.74 311.4 243.84 311.45 243.93C311.45 243.91 311.43 243.88 311.42 243.86Z" fill="#524543"/>
<path d="M309.19 241.69C309.21 241.69 309.22 241.71 309.23 241.72C309.22 241.72 309.2 241.7 309.19 241.7V241.69Z" fill="#524543"/>
<path d="M311.77 245.16C311.77 245.16 311.77 245.13 311.77 245.11C311.77 245.09 311.77 245.07 311.77 245.06C311.77 244.98 311.77 244.91 311.75 244.83C311.77 244.95 311.78 245.08 311.78 245.2C311.78 245.19 311.78 245.18 311.78 245.17L311.77 245.16Z" fill="#524543"/>
<path d="M311.1 247.29C311.1 247.29 311.13 247.25 311.15 247.23C311.14 247.25 311.12 247.27 311.1 247.29Z" fill="#524543"/>
<path d="M311.3 246.98C311.3 246.98 311.3 246.98 311.3 246.97C311.34 246.9 311.38 246.84 311.42 246.77C311.38 246.84 311.34 246.91 311.29 246.98H311.3Z" fill="#524543"/>
<path d="M311.68 246.06C311.68 246.06 311.7 245.99 311.71 245.95C311.72 245.9 311.74 245.86 311.74 245.81C311.73 245.9 311.7 245.98 311.68 246.07V246.06Z" fill="#524543"/>
<path d="M296.12 248.53C296.31 248.66 296.51 248.8 296.73 248.92C296.51 248.79 296.31 248.66 296.12 248.53Z" fill="#171621"/>
<path d="M310.88 247.57C310.88 247.57 310.94 247.5 310.97 247.46C310.96 247.47 310.95 247.49 310.94 247.5C310.92 247.52 310.9 247.55 310.88 247.57Z" fill="#171621"/>
<path d="M309.82 248.53C309.9 248.48 309.96 248.42 310.03 248.36C310.02 248.36 310.01 248.38 309.99 248.39C309.93 248.44 309.88 248.48 309.82 248.53Z" fill="#171621"/>
<path d="M295.59 248.12C295.66 248.18 295.74 248.24 295.81 248.29C295.73 248.23 295.66 248.18 295.59 248.12Z" fill="#171621"/>
<path d="M311.75 245.81C311.75 245.81 311.75 245.72 311.76 245.68C311.76 245.72 311.76 245.76 311.75 245.8V245.81Z" fill="#171621"/>
<path d="M311.63 246.29C311.67 246.18 311.69 246.06 311.72 245.95C311.72 245.99 311.7 246.02 311.69 246.06C311.67 246.14 311.66 246.21 311.63 246.29Z" fill="#171621"/>
<path d="M311.15 247.24C311.15 247.24 311.16 247.22 311.17 247.21C311.17 247.21 311.16 247.23 311.15 247.24Z" fill="#171621"/>
<path d="M311.43 246.77C311.43 246.77 311.47 246.68 311.49 246.64C311.47 246.68 311.46 246.73 311.43 246.77Z" fill="#171621"/>
<path d="M142.3 165.71L312.65 264.02L142.3 165.71Z" fill="#544644"/>
<path d="M347.97 234.48L194.25 145.77L139.68 164.21L316.34 266.17L347.96 234.49L347.97 234.48ZM142.3 165.71L168.13 157.1L193.95 148.5L302.42 211.1L342.16 234.04L312.64 264.02L142.29 165.72L142.3 165.71Z" fill="#ECCCC4"/>
<path d="M209.29 172.75C209.29 172.82 209.28 172.88 209.27 172.95C209.27 173.01 209.27 173.07 209.26 173.12C209.26 173.18 209.23 173.25 209.21 173.32C209.2 173.38 209.19 173.43 209.17 173.49C209.15 173.56 209.11 173.63 209.09 173.69C209.07 173.75 209.05 173.8 209.02 173.86C209.02 173.88 209 173.89 208.99 173.92C208.98 173.95 208.95 174 208.93 174.03C208.93 174.03 208.92 174.05 208.91 174.06C208.91 174.07 208.89 174.09 208.88 174.11C208.86 174.15 208.84 174.19 208.81 174.23C208.81 174.23 208.8 174.25 208.79 174.26C208.75 174.31 208.71 174.37 208.66 174.42C208.62 174.48 208.58 174.52 208.54 174.58C208.49 174.63 208.43 174.69 208.37 174.75C208.36 174.75 208.35 174.77 208.34 174.78C208.3 174.83 208.26 174.87 208.21 174.91C208.13 174.99 208.04 175.05 207.94 175.12C207.93 175.12 207.92 175.14 207.91 175.15C207.88 175.18 207.85 175.21 207.81 175.23C207.76 175.26 207.71 175.3 207.64 175.33C207.55 175.4 207.45 175.46 207.35 175.52C206.16 176.21 204.62 176.58 203.06 176.64C202.12 176.67 201.17 176.6 200.27 176.41C199.79 176.31 199.32 176.19 198.88 176.02C198.51 175.88 198.16 175.72 197.82 175.52C197.49 175.33 197.2 175.13 196.95 174.91C196.59 174.6 196.32 174.26 196.14 173.91C196.06 173.78 196.01 173.65 195.96 173.51C195.94 173.45 195.93 173.39 195.92 173.34C195.9 173.27 195.88 173.2 195.87 173.13C195.87 173.13 195.87 173.12 195.87 173.11C195.7 172.01 196.34 170.86 197.79 170.01C199.7 168.9 202.47 168.61 204.86 169.11C205.05 169.15 205.24 169.21 205.43 169.25C205.91 169.39 206.37 169.56 206.8 169.76C206.97 169.84 207.14 169.91 207.3 170C207.3 170 207.31 170 207.32 170.01C207.36 170.03 207.4 170.06 207.44 170.09C207.58 170.18 207.72 170.27 207.85 170.37C208.01 170.48 208.15 170.6 208.28 170.72C208.29 170.73 208.3 170.74 208.31 170.75C208.37 170.81 208.44 170.87 208.5 170.93C208.67 171.12 208.8 171.32 208.92 171.52C208.95 171.58 209 171.65 209.03 171.72C209.04 171.75 209.06 171.78 209.07 171.81C209.13 171.95 209.17 172.09 209.21 172.23C209.22 172.27 209.23 172.31 209.24 172.35C209.27 172.48 209.29 172.62 209.29 172.76V172.75Z" fill="black"/>
<path d="M342.17 234.04L302.43 211.1L193.96 148.5L168.14 157.1L142.31 165.71L312.66 264.02L342.18 234.04H342.17ZM183.48 171.27C183.48 171.27 183.48 171.29 183.48 171.3C183.48 172.27 183 173.23 182.05 174.07C182.02 174.1 181.98 174.13 181.94 174.15C181.64 174.4 181.31 174.64 180.92 174.87C180.81 174.94 180.69 174.99 180.57 175.05C180.13 175.28 179.66 175.48 179.17 175.65C178.94 175.73 178.7 175.8 178.45 175.87C175.18 176.77 171.15 176.44 168.43 174.87C168.21 174.74 168.01 174.61 167.82 174.48C167.78 174.45 167.75 174.42 167.71 174.39C167.63 174.33 167.56 174.27 167.49 174.22C167.42 174.17 167.35 174.12 167.29 174.06C167.29 174.06 167.29 174.06 167.28 174.05C167.23 174.01 167.19 173.96 167.15 173.92C167.13 173.9 167.11 173.88 167.09 173.86C167.01 173.78 166.92 173.7 166.85 173.62C166.82 173.59 166.8 173.56 166.78 173.53C166.76 173.5 166.73 173.47 166.71 173.44C166.63 173.35 166.55 173.26 166.49 173.16C166.44 173.09 166.41 173.03 166.37 172.96C166.31 172.87 166.25 172.78 166.21 172.69C166.17 172.62 166.15 172.55 166.12 172.48C166.08 172.39 166.04 172.3 166.01 172.21C165.99 172.14 165.97 172.06 165.95 171.99C165.93 171.9 165.9 171.82 165.88 171.73C165.87 171.65 165.87 171.58 165.86 171.5C165.86 171.42 165.84 171.33 165.84 171.25C165.84 169.94 166.69 168.63 168.41 167.63C171.84 165.63 177.44 165.63 180.9 167.63C182.63 168.63 183.5 169.94 183.51 171.25C183.51 171.25 183.51 171.25 183.51 171.26L183.48 171.27ZM209.28 172.94C209.28 173 209.28 173.06 209.27 173.11C209.26 173.18 209.24 173.24 209.22 173.31C209.21 173.37 209.2 173.42 209.18 173.48C209.16 173.55 209.13 173.61 209.1 173.68C209.08 173.74 209.06 173.79 209.03 173.85C209 173.91 208.97 173.96 208.93 174.01C208.93 174.02 208.92 174.03 208.91 174.04C208.91 174.06 208.89 174.07 208.88 174.09C208.86 174.13 208.84 174.17 208.81 174.2C208.81 174.21 208.79 174.22 208.79 174.23C208.75 174.28 208.71 174.34 208.66 174.39C208.62 174.44 208.58 174.49 208.54 174.54C208.49 174.6 208.43 174.65 208.37 174.71L208.35 174.73C208.35 174.73 208.26 174.83 208.2 174.88C208.13 174.94 208.05 175 207.97 175.06C207.94 175.08 207.92 175.1 207.89 175.12C207.86 175.14 207.83 175.17 207.8 175.19C207.75 175.23 207.69 175.26 207.64 175.3C207.6 175.32 207.56 175.35 207.52 175.38C207.46 175.42 207.41 175.46 207.35 175.49C206.16 176.18 204.62 176.56 203.06 176.62C202.12 176.66 201.17 176.58 200.27 176.39C199.79 176.29 199.32 176.16 198.88 176C198.51 175.86 198.15 175.69 197.82 175.5C197.49 175.31 197.2 175.1 196.95 174.89C196.45 174.46 196.12 173.98 195.96 173.49C195.94 173.43 195.93 173.38 195.92 173.32C195.9 173.25 195.88 173.19 195.87 173.12C195.87 173.12 195.87 173.11 195.87 173.1C195.7 171.99 196.34 170.85 197.8 170C199.71 168.89 202.48 168.6 204.87 169.1C205.06 169.14 205.25 169.19 205.44 169.24C205.93 169.37 206.38 169.55 206.82 169.75C206.99 169.83 207.16 169.9 207.32 169.99C207.32 169.99 207.33 169.99 207.34 170C207.38 170.03 207.42 170.05 207.46 170.08C207.6 170.17 207.74 170.26 207.87 170.35C208.02 170.47 208.17 170.58 208.3 170.71C208.3 170.71 208.32 170.73 208.33 170.74C208.4 170.8 208.47 170.86 208.52 170.93C208.69 171.12 208.82 171.31 208.94 171.51C208.98 171.58 209.02 171.64 209.05 171.71C209.05 171.71 209.07 171.77 209.09 171.8C209.15 171.94 209.19 172.08 209.23 172.22C209.24 172.26 209.25 172.3 209.25 172.34C209.28 172.48 209.3 172.61 209.3 172.75C209.3 172.82 209.3 172.88 209.28 172.95V172.94ZM295.53 226.39C298.14 224.87 302.4 224.87 305.04 226.39C306.97 227.5 307.48 229.12 306.61 230.5C306.58 230.54 306.56 230.58 306.54 230.62C306.49 230.69 306.44 230.75 306.38 230.82C306.36 230.84 306.35 230.86 306.34 230.88C306.32 230.91 306.3 230.94 306.27 230.97C306.22 231.03 306.16 231.08 306.1 231.14L306.08 231.16C306.03 231.21 305.99 231.25 305.94 231.3C305.87 231.36 305.79 231.42 305.71 231.48C305.69 231.49 305.67 231.51 305.66 231.52C305.62 231.55 305.59 231.58 305.55 231.61C305.41 231.71 305.26 231.81 305.09 231.9C302.47 233.43 298.21 233.43 295.57 231.9C295.41 231.8 295.25 231.71 295.11 231.6C295.06 231.57 295.02 231.53 294.98 231.5C294.89 231.43 294.79 231.36 294.71 231.29C294.66 231.25 294.62 231.2 294.57 231.16C294.5 231.09 294.43 231.03 294.37 230.96C293.03 229.49 293.42 227.63 295.55 226.39H295.53ZM311.78 245.44C311.78 245.44 311.78 245.52 311.77 245.56C311.77 245.56 311.77 245.56 311.77 245.57C311.77 245.61 311.77 245.64 311.77 245.68C311.77 245.72 311.77 245.77 311.76 245.81C311.76 245.86 311.74 245.9 311.73 245.95C311.71 246.06 311.68 246.18 311.64 246.29C311.62 246.35 311.59 246.4 311.57 246.46C311.57 246.48 311.55 246.5 311.54 246.52C311.54 246.52 311.54 246.53 311.54 246.54C311.53 246.57 311.51 246.6 311.5 246.63C311.48 246.67 311.47 246.72 311.44 246.76C311.41 246.83 311.36 246.89 311.32 246.96C311.32 246.96 311.32 246.96 311.32 246.97C311.32 246.99 311.3 247 311.29 247.02C311.25 247.08 311.22 247.14 311.18 247.2C311.18 247.2 311.17 247.22 311.16 247.23C311.15 247.25 311.13 247.27 311.11 247.29C311.07 247.34 311.02 247.4 310.98 247.45C310.95 247.49 310.92 247.52 310.89 247.56C310.86 247.6 310.83 247.64 310.79 247.68C310.79 247.68 310.79 247.68 310.78 247.69C310.71 247.77 310.62 247.85 310.54 247.93C310.48 247.99 310.42 248.05 310.36 248.11C310.26 248.19 310.15 248.27 310.05 248.36C309.98 248.42 309.92 248.47 309.84 248.53C309.69 248.63 309.53 248.73 309.37 248.83C309.36 248.83 309.34 248.85 309.33 248.85C309.3 248.87 309.27 248.89 309.23 248.91C309.01 249.03 308.79 249.15 308.56 249.26C305.1 250.9 299.98 250.78 296.74 248.91C296.52 248.78 296.32 248.65 296.13 248.52C296.09 248.49 296.06 248.46 296.02 248.44C296 248.43 295.99 248.41 295.97 248.4C295.92 248.36 295.87 248.32 295.82 248.28C295.74 248.22 295.67 248.17 295.6 248.11C295.54 248.06 295.49 248 295.43 247.94C295.34 247.85 295.24 247.77 295.16 247.68C295.13 247.64 295.1 247.61 295.07 247.57C295.04 247.54 295.02 247.51 294.99 247.48C294.92 247.39 294.84 247.31 294.78 247.22C294.74 247.17 294.71 247.11 294.68 247.06C293.53 245.25 294.18 243.14 296.69 241.69C300.13 239.69 305.72 239.69 309.19 241.69C309.2 241.69 309.22 241.71 309.23 241.71C309.41 241.82 309.59 241.93 309.75 242.04C309.77 242.05 309.78 242.06 309.8 242.07C309.86 242.11 309.91 242.16 309.97 242.2C309.97 242.2 309.97 242.2 309.98 242.2C310.07 242.27 310.16 242.34 310.25 242.41C310.28 242.43 310.31 242.45 310.33 242.48C310.38 242.53 310.43 242.57 310.47 242.62C310.54 242.68 310.6 242.75 310.67 242.81C310.71 242.85 310.75 242.88 310.78 242.92C310.82 242.96 310.85 243 310.88 243.04C310.93 243.1 310.98 243.16 311.02 243.22C311.06 243.27 311.11 243.32 311.14 243.37C311.16 243.4 311.18 243.43 311.2 243.47C311.24 243.52 311.27 243.58 311.3 243.63C311.34 243.7 311.39 243.77 311.43 243.84C311.44 243.86 311.45 243.89 311.46 243.91C311.47 243.94 311.48 243.97 311.5 244C311.5 244.02 311.52 244.04 311.53 244.06C311.57 244.15 311.61 244.23 311.64 244.32C311.66 244.39 311.68 244.47 311.7 244.55C311.72 244.61 311.73 244.67 311.74 244.72C311.74 244.73 311.74 244.74 311.74 244.75C311.74 244.76 311.74 244.78 311.75 244.79C311.76 244.87 311.76 244.94 311.77 245.02C311.77 245.05 311.77 245.09 311.77 245.12C311.77 245.13 311.77 245.14 311.77 245.15C311.77 245.15 311.77 245.16 311.77 245.17C311.77 245.2 311.77 245.24 311.77 245.27C311.77 245.31 311.77 245.35 311.77 245.39L311.78 245.44Z" fill="#6E7EA0"/>
<path d="M183.48 171.25V171.29C183.48 171.67 183.4 172.05 183.25 172.41C183.02 172.99 182.62 173.54 182.04 174.05C182.04 174.05 182.04 174.05 182.04 174.06C182.01 174.09 181.96 174.12 181.93 174.14C181.63 174.39 181.3 174.63 180.92 174.86C180.8 174.92 180.69 174.98 180.57 175.04C180.13 175.27 179.66 175.47 179.17 175.64C178.94 175.72 178.7 175.79 178.45 175.86C175.18 176.76 171.16 176.43 168.43 174.86C168.22 174.74 168.01 174.6 167.82 174.47C167.76 174.43 167.7 174.38 167.64 174.33C167.58 174.29 167.54 174.25 167.49 174.21C167.42 174.15 167.35 174.11 167.29 174.05C167.29 174.05 167.29 174.05 167.28 174.04C167.23 173.99 167.17 173.94 167.11 173.88C167.11 173.88 167.1 173.86 167.08 173.85C167 173.77 166.91 173.69 166.84 173.62C166.81 173.59 166.79 173.56 166.76 173.52C166.73 173.48 166.7 173.45 166.68 173.42C166.6 173.33 166.54 173.25 166.47 173.16C166.42 173.09 166.38 173.02 166.34 172.95C166.29 172.87 166.23 172.78 166.18 172.69C166.15 172.62 166.12 172.55 166.09 172.48C166.08 172.45 166.06 172.41 166.04 172.38C166.02 172.32 165.99 172.28 165.98 172.22C165.95 172.14 165.94 172.07 165.92 171.99C165.9 171.9 165.87 171.82 165.86 171.73C165.85 171.65 165.85 171.58 165.84 171.5C165.84 171.42 165.82 171.34 165.82 171.26C165.82 169.95 166.66 168.64 168.39 167.64C171.82 165.65 177.42 165.65 180.88 167.64C182.61 168.64 183.48 169.94 183.49 171.26L183.48 171.25Z" fill="black"/>
<path d="M208.98 173.9C208.98 173.9 208.94 173.98 208.92 174.01C208.92 174.01 208.91 174.03 208.9 174.04C208.9 174.05 208.88 174.07 208.87 174.09C208.85 174.13 208.83 174.17 208.8 174.21C208.8 174.21 208.79 174.23 208.78 174.24C208.74 174.29 208.7 174.35 208.65 174.4C208.61 174.46 208.57 174.5 208.53 174.56C208.48 174.61 208.42 174.67 208.36 174.73C208.35 174.73 208.34 174.75 208.33 174.76C208.29 174.81 208.25 174.85 208.2 174.89C208.12 174.97 208.03 175.03 207.93 175.1C207.92 175.1 207.91 175.12 207.9 175.13C207.87 175.16 207.84 175.19 207.8 175.21C207.75 175.24 207.7 175.28 207.63 175.31C207.54 175.38 207.44 175.44 207.34 175.5C206.15 176.19 204.61 176.56 203.05 176.62C202.11 176.65 201.16 176.58 200.26 176.39C199.78 176.29 199.31 176.17 198.87 176C198.5 175.86 198.15 175.7 197.81 175.5C197.48 175.31 197.19 175.11 196.94 174.89C196.58 174.58 196.31 174.24 196.13 173.89C196.43 173.3 196.99 172.75 197.78 172.29C199.69 171.19 202.46 170.89 204.85 171.39C205.04 171.43 205.23 171.49 205.42 171.53C205.9 171.67 206.36 171.84 206.79 172.05C206.96 172.13 207.13 172.19 207.29 172.28C207.29 172.28 207.3 172.28 207.31 172.28C207.35 172.31 207.39 172.34 207.43 172.36C207.57 172.45 207.71 172.54 207.84 172.64C208 172.75 208.14 172.87 208.27 172.99C208.28 173 208.29 173.01 208.3 173.02C208.36 173.08 208.43 173.14 208.49 173.2C208.49 173.2 208.49 173.2 208.49 173.21C208.66 173.4 208.79 173.59 208.91 173.79C208.92 173.82 208.95 173.86 208.96 173.89L208.98 173.9Z" fill="#322A28"/>
<path d="M183.25 172.42C183.02 173 182.62 173.55 182.04 174.06C182.04 174.06 182.04 174.06 182.04 174.07C182.01 174.1 181.96 174.13 181.93 174.15C181.63 174.4 181.3 174.64 180.92 174.87C180.8 174.93 180.69 174.99 180.57 175.05C180.13 175.28 179.66 175.48 179.17 175.65C178.94 175.73 178.7 175.8 178.45 175.87C175.18 176.77 171.16 176.44 168.43 174.87C168.22 174.75 168.01 174.61 167.82 174.48C167.76 174.44 167.7 174.39 167.64 174.34C167.58 174.3 167.54 174.26 167.49 174.22C167.42 174.16 167.35 174.12 167.29 174.06C167.29 174.06 167.29 174.06 167.28 174.05C167.23 174 167.17 173.95 167.11 173.89C167.11 173.89 167.1 173.87 167.08 173.86C167 173.78 166.91 173.7 166.84 173.63C166.81 173.6 166.79 173.57 166.76 173.53C166.73 173.49 166.7 173.46 166.68 173.43C166.6 173.34 166.54 173.26 166.47 173.17C166.42 173.1 166.38 173.03 166.34 172.96C166.29 172.88 166.23 172.79 166.18 172.7C166.15 172.63 166.12 172.56 166.09 172.49C166.08 172.46 166.06 172.42 166.04 172.39C166.39 171.49 167.17 170.64 168.38 169.94C171.81 167.95 177.41 167.95 180.87 169.94C182.1 170.65 182.89 171.51 183.25 172.42Z" fill="#322A28"/>
<path d="M306.71 230.32C306.69 230.38 306.65 230.43 306.62 230.49C306.6 230.53 306.58 230.57 306.55 230.61C306.5 230.68 306.45 230.74 306.39 230.8C306.38 230.82 306.36 230.84 306.35 230.86C306.32 230.89 306.3 230.92 306.27 230.94C306.21 231 306.15 231.06 306.1 231.12C306.1 231.12 306.09 231.13 306.07 231.14C306.03 231.19 305.99 231.23 305.93 231.28C305.86 231.34 305.77 231.4 305.7 231.47C305.68 231.48 305.67 231.5 305.65 231.51C305.62 231.54 305.57 231.57 305.54 231.59C305.4 231.69 305.24 231.79 305.08 231.89C302.47 233.41 298.19 233.41 295.56 231.89C295.39 231.8 295.24 231.7 295.1 231.59C295.05 231.56 295.01 231.52 294.96 231.49C294.87 231.42 294.77 231.35 294.7 231.28C294.65 231.23 294.61 231.19 294.56 231.14C294.49 231.08 294.42 231.02 294.36 230.95C294.17 230.74 294.02 230.53 293.9 230.31C293.17 228.97 293.71 227.45 295.54 226.38C298.15 224.86 302.41 224.86 305.05 226.38C306.9 227.45 307.46 228.98 306.71 230.32Z" fill="black"/>
<path d="M311.79 245.31C311.79 245.39 311.78 245.48 311.77 245.56C311.77 245.56 311.77 245.65 311.76 245.68C311.76 245.72 311.76 245.76 311.76 245.8C311.75 245.88 311.72 245.97 311.7 246.06C311.68 246.14 311.67 246.21 311.64 246.29C311.62 246.36 311.58 246.43 311.56 246.5C311.56 246.5 311.56 246.52 311.55 246.53C311.55 246.53 311.55 246.54 311.55 246.55C311.54 246.58 311.52 246.61 311.51 246.64C311.5 246.69 311.48 246.73 311.45 246.77C311.42 246.85 311.37 246.91 311.33 246.98C311.33 246.99 311.31 247.01 311.3 247.03C311.27 247.09 311.23 247.15 311.19 247.21C311.19 247.21 311.19 247.22 311.18 247.24C311.17 247.26 311.15 247.27 311.13 247.3C311.08 247.37 311.03 247.44 310.97 247.5C310.95 247.53 310.93 247.55 310.91 247.58C310.88 247.62 310.85 247.66 310.81 247.7C310.81 247.7 310.81 247.7 310.8 247.7C310.73 247.78 310.64 247.86 310.57 247.94C310.51 248 310.45 248.06 310.38 248.12C310.27 248.22 310.15 248.31 310.03 248.4C309.97 248.45 309.92 248.5 309.86 248.54C309.7 248.65 309.53 248.76 309.36 248.86C309.33 248.88 309.3 248.9 309.26 248.92C309.05 249.04 308.83 249.16 308.59 249.27C305.13 250.91 300.01 250.79 296.76 248.93C296.55 248.8 296.34 248.67 296.15 248.54C296.11 248.51 296.08 248.48 296.05 248.46C296.03 248.45 296.02 248.43 295.99 248.42C295.94 248.39 295.89 248.34 295.84 248.3C295.76 248.24 295.69 248.18 295.62 248.13C295.56 248.07 295.51 248.01 295.45 247.96C295.35 247.87 295.26 247.79 295.18 247.7C295.15 247.67 295.12 247.63 295.09 247.59C295.06 247.56 295.04 247.53 295.01 247.5C294.94 247.41 294.86 247.33 294.8 247.24C294.76 247.18 294.73 247.13 294.7 247.08C294.58 246.88 294.47 246.68 294.39 246.47C293.71 244.81 294.49 242.99 296.71 241.7C300.15 239.7 305.75 239.7 309.2 241.7C309.2 241.7 309.23 241.72 309.24 241.73C309.43 241.84 309.6 241.95 309.76 242.06C309.84 242.12 309.91 242.18 309.99 242.23C310.08 242.3 310.17 242.37 310.26 242.44C310.34 242.51 310.41 242.58 310.48 242.65C310.55 242.71 310.62 242.77 310.68 242.84C310.75 242.92 310.82 242.99 310.89 243.07C310.94 243.13 310.99 243.19 311.03 243.25C311.09 243.33 311.15 243.42 311.21 243.5C311.24 243.56 311.27 243.61 311.31 243.67C311.37 243.76 311.42 243.86 311.47 243.95C311.48 243.98 311.49 244.01 311.5 244.04C311.62 244.29 311.7 244.54 311.75 244.79C311.75 244.79 311.75 244.82 311.75 244.84C311.77 244.96 311.78 245.09 311.78 245.22C311.78 245.22 311.78 245.3 311.79 245.34V245.31Z" fill="black"/>
<path d="M306.71 230.32C306.69 230.38 306.65 230.43 306.62 230.49C306.6 230.53 306.58 230.57 306.55 230.61C306.5 230.68 306.45 230.74 306.39 230.8C306.38 230.82 306.36 230.84 306.35 230.86C306.32 230.89 306.3 230.92 306.27 230.94C306.21 231 306.15 231.06 306.1 231.12C306.1 231.12 306.09 231.13 306.07 231.14C306.03 231.19 305.99 231.23 305.93 231.28C305.86 231.34 305.77 231.4 305.7 231.47C305.68 231.48 305.67 231.5 305.65 231.51C305.62 231.54 305.57 231.57 305.54 231.59C305.4 231.69 305.24 231.79 305.08 231.89C302.47 233.41 298.19 233.41 295.56 231.89C295.39 231.8 295.24 231.7 295.1 231.59C295.05 231.56 295.01 231.52 294.96 231.49C294.87 231.42 294.77 231.35 294.7 231.28C294.65 231.23 294.61 231.19 294.56 231.14C294.49 231.08 294.42 231.02 294.36 230.95C294.17 230.74 294.02 230.53 293.9 230.31C294.21 229.73 294.76 229.19 295.54 228.74C298.15 227.22 302.41 227.22 305.05 228.74C305.84 229.2 306.4 229.74 306.71 230.32Z" fill="#322A28"/>
<path d="M311.54 246.5C311.54 246.5 311.54 246.52 311.53 246.53C311.53 246.53 311.53 246.54 311.53 246.55C311.52 246.58 311.5 246.61 311.49 246.64C311.48 246.69 311.46 246.73 311.43 246.77C311.4 246.85 311.35 246.91 311.31 246.98C311.31 246.99 311.29 247.01 311.28 247.03C311.25 247.09 311.21 247.15 311.17 247.21C311.17 247.21 311.17 247.22 311.16 247.24C311.15 247.26 311.13 247.27 311.11 247.3C311.06 247.37 311.01 247.44 310.95 247.5C310.93 247.53 310.91 247.55 310.89 247.58C310.86 247.62 310.83 247.66 310.79 247.7C310.79 247.7 310.79 247.7 310.78 247.7C310.71 247.78 310.62 247.86 310.55 247.94C310.49 248 310.43 248.06 310.36 248.12C310.25 248.22 310.13 248.31 310.01 248.4C309.95 248.45 309.9 248.5 309.84 248.54C309.68 248.65 309.51 248.76 309.34 248.86C309.31 248.88 309.28 248.9 309.24 248.92C309.03 249.04 308.81 249.16 308.57 249.27C305.11 250.91 299.99 250.79 296.74 248.93C296.53 248.8 296.32 248.67 296.13 248.54C296.09 248.51 296.06 248.48 296.03 248.46C296.01 248.45 296 248.43 295.97 248.42C295.92 248.39 295.87 248.34 295.82 248.3C295.74 248.24 295.67 248.18 295.6 248.13C295.54 248.07 295.49 248.01 295.43 247.96C295.33 247.87 295.24 247.79 295.16 247.7C295.13 247.67 295.1 247.63 295.07 247.59C295.04 247.56 295.02 247.53 294.99 247.5C294.92 247.41 294.84 247.33 294.78 247.24C294.74 247.18 294.71 247.13 294.68 247.08C294.56 246.88 294.45 246.68 294.37 246.47C294.73 245.59 295.5 244.75 296.69 244.06C300.13 242.06 305.73 242.06 309.18 244.06C309.18 244.06 309.21 244.08 309.22 244.09C309.41 244.2 309.58 244.31 309.74 244.43C309.82 244.49 309.89 244.54 309.97 244.6C310.06 244.67 310.15 244.74 310.24 244.81C310.32 244.87 310.39 244.94 310.46 245.01C310.53 245.08 310.6 245.14 310.66 245.2C310.73 245.28 310.8 245.35 310.87 245.43C310.92 245.49 310.97 245.55 311.01 245.61C311.07 245.69 311.13 245.78 311.19 245.87C311.22 245.92 311.25 245.97 311.29 246.03C311.35 246.12 311.4 246.22 311.45 246.31C311.46 246.34 311.47 246.37 311.48 246.4C311.5 246.44 311.52 246.48 311.54 246.53V246.5Z" fill="#322A28"/>
<path d="M139.68 164.2L139.67 168.14L316.33 270.1L316.35 266.16L139.68 164.2Z" fill="#806D69"/>
<path d="M316.35 266.16L316.33 270.1L347.96 238.42L347.97 234.48L316.35 266.16Z" fill="#BAA09A"/>
<path d="M148.79 172.22L173.84 186.68L173.78 206.99L148.74 192.54L148.79 172.22Z" fill="#806D69"/>
<path d="M187.48 197.98L196.32 203.09L196.28 216.56L187.44 211.46L187.48 197.98Z" fill="#806D69"/>
<path d="M209.98 207.55L245.02 227.78L244.96 248.09L209.92 227.86L209.98 207.55Z" fill="#806D69"/>
<path d="M258.65 239.08L267.5 244.19L267.46 257.66L258.62 252.55L258.65 239.08Z" fill="#806D69"/>
<path d="M306.2 263.11L306.14 283.42L281.1 268.96L281.16 248.65L306.2 263.11Z" fill="#806D69"/>
<path d="M245.02 227.78L244.96 248.09L209.92 227.86L209.98 207.55L245.02 227.78Z" fill="#131313"/>
<path d="M306.2 263.11L306.14 283.42L281.1 268.96L281.16 248.65L306.2 263.11Z" fill="#131313"/>
<path d="M267.5 244.19L267.46 257.66L258.62 252.55L258.65 239.08L267.5 244.19Z" fill="#131313"/>
<path d="M173.84 186.68L173.78 206.99L148.74 192.54L148.79 172.22L173.84 186.68Z" fill="#131313"/>
<path d="M196.32 203.09L196.28 216.56L187.44 211.46L187.48 197.98L196.32 203.09Z" fill="#131313"/>
<path d="M306.18 269.52L306.16 277L148.75 186.12L148.77 178.64L306.18 269.52Z" fill="#322A28"/>
<path d="M139.68 164.2V190.67L316.34 292.63V265.99L139.68 164.21V164.2ZM173.78 206.99L148.74 192.54L148.8 172.22L173.84 186.68L173.79 206.99H173.78ZM196.28 216.56L187.44 211.46L187.47 197.99L196.32 203.1L196.28 216.57V216.56ZM244.96 248.09L209.92 227.86L209.98 207.55L245.01 227.78L244.95 248.09H244.96ZM267.46 257.66L258.62 252.55L258.65 239.08L267.5 244.19L267.46 257.66ZM306.14 283.42L281.1 268.96L281.16 248.65L306.2 263.11L306.14 283.42Z" fill="#56627E"/>
<path d="M507.03 200.36L506.99 213.82L506.96 222.81C506.96 222.89 506.96 222.98 506.94 223.06C506.85 223.63 506.43 224.18 505.68 224.61L355.99 311.64C355.11 312.15 353.95 312.41 352.8 312.39V289.9C353.97 289.92 355.16 289.67 356.05 289.15L505.74 202.12C505.85 202.06 505.95 202 506.04 201.93C506.11 201.88 506.17 201.83 506.24 201.78C506.25 201.76 506.27 201.75 506.3 201.73C506.36 201.68 506.4 201.63 506.45 201.58C506.47 201.56 506.5 201.54 506.51 201.52C506.51 201.52 506.513 201.52 506.52 201.52C506.52 201.52 506.57 201.46 506.59 201.43C506.66 201.35 506.72 201.26 506.77 201.17C506.77 201.17 506.77 201.16 506.78 201.16C506.83 201.08 506.86 201 506.9 200.93C506.9 200.91 506.91 200.9 506.91 200.88C506.94 200.81 506.96 200.74 506.98 200.67C506.98 200.64 506.98 200.62 506.99 200.6C507 200.52 507.01 200.46 507.01 200.38L507.03 200.36Z" fill="#4C5C73"/>
<g filter="url(#filter0_d_38_4946)">
<path d="M220.2 133.55L214.98 138.26L197.61 137.51L181.09 144.19L166.25 144.89L161.83 150.06L333.49 248.94L338.25 243.2L364.31 245.87L371.53 240.01L392.57 239.79L398.26 236.12L407.79 237.75L230.38 135.56L220.2 133.55Z" fill="#FFD06D"/>
</g>
</g>
<defs>
<filter id="filter0_d_38_4946" x="154.83" y="126.55" width="265.96" height="135.39" filterUnits="userSpaceOnUse" color-interpolation-filters="sRGB">
<feFlood flood-opacity="0" result="BackgroundImageFix"/>
<feColorMatrix in="SourceAlpha" type="matrix" values="0 0 0 0 0 0 0 0 0 0 0 0 0 0 0 0 0 0 127 0" result="hardAlpha"/>
<feOffset dx="3" dy="3"/>
<feGaussianBlur stdDeviation="5"/>
<feColorMatrix type="matrix" values="0 0 0 0 0 0 0 0 0 0 0 0 0 0 0 0 0 0 0.24 0"/>
<feBlend mode="normal" in2="BackgroundImageFix" result="effect1_dropShadow_38_4946"/>
<feBlend mode="normal" in="SourceGraphic" in2="effect1_dropShadow_38_4946" result="shape"/>
</filter>
</defs>
</svg>
