<svg width="100" height="64" viewBox="0 0 100 64" fill="none" xmlns="http://www.w3.org/2000/svg">
<path d="M31.6415 11.2237C31.6071 11.8317 31.5899 12.5438 31.5727 13.3603C31.5554 14.1767 31.5554 15.0104 31.5554 15.8616C31.5554 16.7128 31.5554 17.5465 31.5554 18.3629C31.5554 19.1794 31.5554 19.9089 31.5554 20.5516C32.5027 20.4127 33.5877 20.239 34.7933 20.0653C35.9989 19.8915 37.0323 19.6831 37.8934 19.4573C38.6168 19.2836 39.5813 18.9883 40.7696 18.554C41.9752 18.1371 43.2153 17.6508 44.5242 17.0949C43.8525 18.2066 43.0431 19.2836 42.0786 20.3606C41.1141 21.4202 40.098 22.2713 39.0301 22.914C37.6351 23.5046 36.0678 24.0084 34.3111 24.46C32.5544 24.9116 30.7632 25.2938 28.9376 25.6238C28.1281 25.398 27.3875 24.9637 26.733 24.3384C26.0614 23.7131 25.5963 23.053 25.3036 22.3408L25.0452 11.849C24.9246 11.5364 24.7696 11.1889 24.563 10.8415C24.3563 10.4941 24.1496 10.1641 23.9085 9.83405C23.8224 9.4519 23.8224 9.10449 23.9085 8.79182C24.1324 8.65285 24.408 8.54863 24.6835 8.47915C24.9763 8.42704 25.2691 8.37493 25.5447 8.34019C26.4058 8.3923 27.3014 8.54863 28.2142 8.77445C29.127 9.00026 30.0226 9.29556 30.9182 9.64297C31.1249 9.86879 31.2799 10.1293 31.4004 10.3899C31.4865 10.6678 31.5727 10.9284 31.6415 11.2237ZM5.20452 34.7607C4.65339 34.2569 4.2056 33.6837 3.86114 33.0063C3.51668 32.3288 3.2239 31.5992 3 30.7828C7.77072 31.6687 27.0431 29.5495 36.24 26.0581C37.8934 26.7355 39.0646 27.8299 39.7879 29.3758C39.7363 30.4875 39.6502 31.6861 39.564 32.9889C39.4779 34.2917 39.409 35.6292 39.3401 37.0362C39.1335 37.8526 38.8924 38.6517 38.5996 39.416C38.3068 40.1803 37.9451 40.8924 37.5145 41.5352C37.1012 41.761 36.6189 41.9347 36.0678 42.0215C35.4995 42.1084 34.9828 42.1258 34.535 42.0736C34.3283 41.4309 34.2077 40.7535 34.1389 40.0587C34.0872 39.3638 34.0355 38.669 34.0011 38.009L34.0527 30.9218C33.6738 30.9565 33.2433 31.0086 32.7783 31.0781C24.8902 32.9889 16.8644 34.3612 7.5296 34.9691C7.03014 34.9865 6.42734 35.0733 5.20452 34.7607ZM45.3337 3.58068C45.2476 3.19853 45.2476 2.85112 45.3337 2.53845C45.5576 2.39948 45.8504 2.27789 46.1776 2.19104C46.5048 2.10419 46.7976 2.05207 47.0215 2.01733C47.366 2.10419 47.7793 2.22578 48.2271 2.38211C48.6921 2.53845 49.1572 2.74689 49.6394 2.99008C50.1216 3.23327 50.5866 3.51119 51.0517 3.80649C51.5167 4.10179 51.93 4.39709 52.3089 4.67502C52.6189 5.14402 52.8084 5.69987 52.8773 6.34258C52.8256 6.77684 52.7739 7.28059 52.7223 7.85381C52.6706 8.42704 52.6534 8.93078 52.6534 9.36504C52.6534 10.0599 52.6362 10.9631 52.6017 12.0401C52.5673 13.1171 52.55 14.2114 52.5156 15.3405C52.4812 16.4696 52.4467 17.5292 52.4123 18.5367C52.3606 19.5441 52.3262 20.3084 52.2573 20.8296C52.2056 21.2464 52.0506 21.7154 51.8095 22.2713C51.5683 22.8272 51.2583 23.3309 50.8794 23.7999C50.5005 24.3036 50.0872 24.7032 49.6222 25.0506C49.1572 25.3806 48.7438 25.6238 48.3649 25.7801C48.3305 25.8149 48.2788 25.8322 48.1927 25.8322C49.1227 26.2144 49.9494 26.6313 50.6728 27.1003C51.0517 27.6909 51.2067 28.3162 51.155 28.9763C50.8105 29.7406 50.4316 30.4875 50.0355 31.2345C49.6222 31.9814 49.2088 32.7283 48.7783 33.4926C49.8116 33.84 50.845 34.2743 51.8611 34.8128C52.8773 35.3339 53.7556 35.9245 54.5135 36.5672C54.7373 37.0709 54.9268 37.5921 55.0818 38.1653C55.2196 38.7385 55.3057 39.3117 55.3057 39.885C55.2196 40.2324 55.0818 40.5277 54.8751 40.7361C54.6685 40.9619 54.4618 41.1704 54.2207 41.3788C53.704 41.4309 53.1528 41.4483 52.6017 41.3962C52.0334 41.3441 51.5167 41.2399 51.0172 41.0662C50.2939 40.3019 49.6222 39.4854 49.0021 38.5648C48.3821 37.6615 47.831 36.7062 47.3832 35.716C46.7115 36.7062 46.057 37.6442 45.4026 38.5127C44.7481 39.3812 44.0936 40.1803 43.422 40.8751C42.8364 41.2572 42.2336 41.5699 41.5963 41.8131C40.9591 42.0563 40.3563 42.2126 39.7707 42.2647C39.2713 41.9694 38.944 41.6046 38.7718 41.1704C38.8924 40.8577 39.0474 40.4756 39.2196 40.0413C39.409 39.607 39.6157 39.2075 39.8568 38.8601C41.0624 37.1752 42.113 35.4034 43.0086 33.5447C43.887 31.6861 44.5759 29.8969 45.0753 28.1425C44.9548 27.8472 44.7998 27.5693 44.6276 27.3087C44.4381 27.0482 44.2659 26.805 44.0936 26.5618C44.0075 26.2491 44.0248 25.8844 44.1453 25.5196C44.6448 25.2938 45.1959 25.1374 45.8331 25.0853L46.2293 25.1722C46.3671 24.0431 46.4704 22.8272 46.5393 21.5591C46.591 20.2911 46.6254 19.0057 46.6254 17.6855V14.5588C44.9203 14.6978 43.3875 14.9583 42.0441 15.3231C40.7007 15.6879 39.5296 16.0874 38.5135 16.5217C37.3251 15.3579 36.5328 13.8466 36.1367 12.0227L46.591 11.1021V5.57828C46.2809 4.88346 45.8848 4.22338 45.3337 3.58068Z" fill="white"/>
<path d="M66.759 50.9499C63.9344 51.2973 61.3165 51.8185 58.8881 52.5133C56.4597 53.2081 54.238 53.955 52.2401 54.7888C51.6029 54.3893 51.0862 53.8334 50.6728 53.1212C50.2595 52.4091 49.9323 51.6795 49.7256 50.9152C52.9118 50.064 56.0808 49.3171 59.2326 48.6397C62.3844 47.9622 65.5017 47.4064 68.6362 46.9721C69.8763 46.781 71.1508 46.6247 72.4597 46.5031C73.7686 46.3815 75.112 46.2947 76.4554 46.2425C77.041 46.3989 77.6265 46.6942 78.2293 47.1111C78.8321 47.528 79.3316 47.9101 79.7277 48.2575C79.8655 48.7439 79.8655 49.2129 79.7277 49.6645C79.4522 50.064 79.0905 50.4288 78.6427 50.7589C78.1949 51.0889 77.8677 51.2279 77.6265 51.1758C75.887 50.8457 74.0442 50.672 72.1325 50.672C70.2035 50.6546 68.4123 50.7415 66.759 50.9499ZM60.6793 45.5998C60.0076 45.4088 59.422 45.0961 58.9398 44.6445C58.4576 44.1928 58.0959 43.6891 57.8892 43.0985L59.3531 38.0263C59.0948 37.8005 58.8192 37.4705 58.5092 37.0709C58.1992 36.6714 57.9581 36.2545 57.7342 35.8376C57.7342 35.6466 57.7514 35.4555 57.7686 35.247C57.7859 35.0386 57.8548 34.8301 57.9409 34.6564C58.8192 33.9964 59.7837 33.371 60.7826 32.7631C61.7988 32.1725 62.8322 31.6166 63.8827 31.1302C64.9333 30.6439 65.9667 30.2096 67.0173 29.8274C68.0507 29.4453 69.0324 29.1326 69.928 28.8721C70.5824 29.2021 71.2024 29.6016 71.8225 30.088C72.4253 30.5744 72.9419 31.0434 73.3553 31.5124C73.4931 32.0509 73.4931 32.5546 73.3553 32.9889C73.2347 33.1799 73.0797 33.371 72.9075 33.5621C72.718 33.7705 72.5114 33.9442 72.3047 34.118C72.0808 34.2917 71.8741 34.448 71.6675 34.5522C71.4608 34.6738 71.3058 34.7433 71.2024 34.7607C69.9452 34.9691 68.6018 35.2991 67.1551 35.7508C65.7084 36.2024 64.365 36.6888 63.1077 37.2273C63.2627 37.3489 63.4005 37.5226 63.4866 37.7484C63.5727 37.9916 63.6072 38.2174 63.5555 38.4606L63.2455 41.0314C64.2961 40.4929 65.5189 39.9892 66.9312 39.5375C68.3435 39.0859 69.7385 38.7559 71.0991 38.5648C71.5641 38.7211 72.0291 38.9817 72.4942 39.3117C72.9592 39.6418 73.3897 39.9892 73.7859 40.3366C73.872 40.7882 73.872 41.2051 73.7859 41.6046C73.717 41.761 73.5964 41.952 73.4414 42.1257C73.2864 42.3168 73.1142 42.4905 72.9419 42.6469C72.7697 42.8032 72.5975 42.9422 72.4425 43.0464C72.2875 43.1506 72.1325 43.2027 72.0291 43.2027C71.2369 43.2722 70.3413 43.3764 69.3596 43.498C68.3779 43.6196 67.3618 43.7933 66.3456 43.9844C65.3122 44.1928 64.3133 44.4186 63.3488 44.6966C62.3155 45.0092 61.4543 45.3045 60.6793 45.5998Z" fill="white"/>
<path d="M87.1162 34.448C87.4434 34.3612 87.9084 34.118 88.5112 33.7532C89.114 33.3884 89.6652 33.0236 90.1474 32.6415C90.6296 32.242 91.1463 31.8251 91.663 31.3908C92.1797 30.9565 92.6619 30.5223 93.0753 30.1054C92.5242 31.8598 91.8697 33.3537 91.1119 34.5522C90.733 35.1602 90.3024 35.7855 89.7857 36.3935C89.269 37.0188 88.8385 37.4531 88.4596 37.6789C87.9084 37.9916 87.2712 38.2695 86.5823 38.5648C85.8934 38.8427 85.1872 39.1033 84.4466 39.3638C83.7061 39.607 82.9655 39.8328 82.2077 40.0413C81.4499 40.2497 80.7265 40.4061 80.0204 40.545C79.4176 40.354 78.8492 40.0239 78.3325 39.5549C77.8159 39.0859 77.4025 38.5474 77.0925 37.9395L77.0581 31.8077C76.9892 31.5471 76.8858 31.3039 76.7481 31.0434C76.6103 30.7828 76.4553 30.5744 76.3003 30.3486C76.2314 30.0706 76.2314 29.7927 76.3003 29.4974C76.4897 29.4106 76.7136 29.3237 77.0064 29.2369C77.282 29.15 77.5231 29.1153 77.7125 29.1153C78.4531 29.1153 79.2454 29.15 80.0548 29.2195C80.761 29.011 81.4499 28.82 82.1732 28.6463C82.8794 28.4726 83.5683 28.2989 84.2572 28.1425C84.3089 28.1425 84.3433 28.1252 84.395 28.1078L84.6361 25.3285C83.5166 25.6585 82.4144 25.9712 81.3121 26.2491C80.2098 26.5271 79.142 26.7355 78.0914 26.8918C77.2992 26.6313 76.6447 26.1275 76.1453 25.3806C75.6458 24.6337 75.2669 23.7999 75.0085 22.914C76.6792 22.306 78.4187 21.8023 80.1926 21.4201C81.9666 21.038 83.7922 20.7601 85.6522 20.5864C86.5306 20.9859 87.3745 21.507 88.1496 22.1671C88.9246 22.8272 89.5618 23.5567 90.0613 24.3905C90.1474 24.7205 90.1991 25.0679 90.1991 25.4154C90.1991 25.7628 90.1474 26.0928 90.0613 26.3707C89.8546 26.7181 89.5963 27.0829 89.2863 27.4303C88.9763 27.7777 88.6835 28.1252 88.3735 28.4378C88.0634 28.7505 87.7879 29.0284 87.4951 29.2716C87.2195 29.5148 86.9784 29.6885 86.789 29.7927C86.7373 30.0012 86.7028 30.2096 86.6684 30.4007C86.6339 30.6091 86.5995 30.8002 86.5478 30.9739C86.4789 31.0955 86.3756 31.1997 86.255 31.3039C86.1345 31.4082 85.9967 31.5124 85.8934 31.5992C85.2561 31.8424 84.6017 32.0509 83.8955 32.2593C83.1894 32.4678 82.466 32.6241 81.691 32.7631L81.6566 35.8724C82.5349 35.6813 83.4822 35.4729 84.4639 35.2123C85.4972 34.9517 86.3756 34.7086 87.1162 34.448ZM93.9364 18.5367C93.747 17.7376 93.437 16.9733 92.9892 16.2437C92.9203 15.8095 92.9203 15.41 92.9892 15.0452C93.1786 14.8715 93.4025 14.7499 93.6781 14.6457C93.9536 14.5414 94.1775 14.472 94.367 14.4546C94.6426 14.5588 94.9698 14.6978 95.3315 14.8715C95.6931 15.0626 96.0548 15.2884 96.4337 15.5663C96.8126 15.8442 97.1743 16.1569 97.5532 16.4869C97.9321 16.817 98.2594 17.147 98.5694 17.4771C98.8277 18.0155 98.9827 18.6409 99.0172 19.3704C98.9655 19.8742 98.931 20.4474 98.8966 21.0901C98.8621 21.7328 98.8449 22.306 98.8449 22.8098L98.7416 39.3812C98.7416 40.0413 98.7416 40.7535 98.7244 41.5004C98.7071 42.2473 98.6899 42.9943 98.6727 43.7586C98.6555 44.5229 98.621 45.2698 98.6038 45.9994C98.5866 46.7289 98.5521 47.389 98.5349 47.997C98.5349 48.327 98.5177 48.7439 98.466 49.265C98.4144 49.7861 98.3627 50.342 98.2938 50.9326C98.2249 51.5232 98.1388 52.1485 98.0355 52.7738C97.9321 53.3992 97.8116 54.0072 97.7082 54.563C97.4499 55.5879 97.1571 56.5085 96.8299 57.3249C96.5026 58.1413 96.1926 58.6972 95.917 58.9925C95.6587 59.253 95.2798 59.4788 94.7976 59.6352C94.3153 59.8089 93.8331 59.9131 93.3681 59.9826C93.437 59.2183 93.5231 58.3498 93.6092 57.377C93.6953 56.4043 93.7642 55.4836 93.8159 54.6151C93.8675 53.6945 93.902 52.5828 93.9364 51.3321C93.9709 50.0641 93.9881 48.8655 93.9881 47.7017L93.9364 18.5367Z" fill="white"/>
</svg>
