<svg width="375" height="667" viewBox="0 0 375 667" fill="none" xmlns="http://www.w3.org/2000/svg">
<g clip-path="url(#clip0_176_13854)">
<mask id="mask0_176_13854" style="mask-type:luminance" maskUnits="userSpaceOnUse" x="0" y="0" width="375" height="667">
<path d="M375 0H0V667H375V0Z" fill="white"/>
</mask>
<g mask="url(#mask0_176_13854)">
<path d="M476 -6.5H-96V250.5H476V-6.5Z" fill="url(#paint0_radial_176_13854)"/>
</g>
<mask id="mask1_176_13854" style="mask-type:luminance" maskUnits="userSpaceOnUse" x="0" y="0" width="375" height="667">
<path d="M375 0H0V667H375V0Z" fill="white"/>
</mask>
<g mask="url(#mask1_176_13854)">
<path d="M351 -20.5C333.2 -26.7 325.1 1.60003 327 15.5C328.1 23.7 331.3 39.7 316 45C300.7 50.3 300.8 50.6 286 66.5C271.2 82.4 256.6 94.9 240.5 90.8C224.4 86.7 219.3 83.8 214.7 90C210.2 96.2 198.2 97 198.2 97C198.2 97 249 99.5 271 101.3C293.1 103 354.2 82 357.8 76.3C361.4 70.7 350.4 75.7 365.7 66.5C380.9 57.3 408.2 30.1 412.1 19.3C415.9 8.50003 394.8 -18 394.8 -18L351 -20.5Z" fill="url(#paint1_linear_176_13854)"/>
</g>
<mask id="mask2_176_13854" style="mask-type:luminance" maskUnits="userSpaceOnUse" x="0" y="0" width="375" height="667">
<path d="M375 0H0V667H375V0Z" fill="white"/>
</mask>
<g mask="url(#mask2_176_13854)">
<path d="M198.1 107.7C200 107.5 264 99.5 293 80.5C322 61.5 340 74.5 353 69.5C366 64.5 385 43.5 385 43.5L386 131.5L254.1 138.1L198.1 107.7Z" fill="url(#paint2_linear_176_13854)"/>
</g>
<mask id="mask3_176_13854" style="mask-type:luminance" maskUnits="userSpaceOnUse" x="0" y="0" width="375" height="667">
<path d="M375 0H0V667H375V0Z" fill="white"/>
</mask>
<g mask="url(#mask3_176_13854)">
<path d="M260.9 108.6C260.8 108.5 260.7 108.5 260.7 108.5C262.8 107.7 265.8 105.6 267.7 104.5L275 100C284.9 94.2 294.7 88.2 305.5 84.2C311 82.4 316.6 81.2 322.2 80.1C338.5 76.6 357.2 76.1 369.7 63.8C373.7 59.8 376.5 54.7 378.4 49.4L379.3 49.8C377.1 55.1 374.2 60.2 370.1 64.3C362 72.6 350.4 76.3 339.4 79.1C328.3 81.8 317.2 84.1 306 86.4C294.9 88.8 284.8 94.6 275.2 100.6C270.7 103.4 266.2 106.6 261.6 109.3C261.1 109.5 260.5 109.9 260 109.5C260.1 109.4 260.9 108.6 260.9 108.6Z" fill="#E4EDF4"/>
</g>
<mask id="mask4_176_13854" style="mask-type:luminance" maskUnits="userSpaceOnUse" x="0" y="0" width="375" height="667">
<path d="M375 0H0V667H375V0Z" fill="white"/>
</mask>
<g mask="url(#mask4_176_13854)">
<path d="M-4 2.50005C-4 2.50005 37.2 -19.5 64 14.5C91.1 48.9 82.7 45.2 108 47.5C130 49.5 128.8 73.3 149 72.5C173 71.5 227.2 75.2 245 91.5C270 114.5 245.9 111.2 245.9 111.2L-45 118.5L-4 2.50005Z" fill="url(#paint3_linear_176_13854)"/>
</g>
<mask id="mask5_176_13854" style="mask-type:luminance" maskUnits="userSpaceOnUse" x="0" y="0" width="375" height="667">
<path d="M375 0H0V667H375V0Z" fill="white"/>
</mask>
<g mask="url(#mask5_176_13854)">
<path d="M-46.2 58.2999C-2.99995 43.4999 -18 6.49994 27 9.49994C72 12.4999 61.5 50.8999 75.8 54.6999C90.1001 58.4999 101 41.4999 121 55.4999C141 69.4999 127.3 79.4999 155.2 81.4999C183.1 83.4999 174.4 77.5999 201.7 81.4999C249.7 88.2999 290.5 116.8 299.9 122C320.2 133.2 -20.1 168.1 -20.1 168.1L-70.7 116.9L-46.2 58.2999Z" fill="url(#paint4_linear_176_13854)"/>
</g>
<mask id="mask6_176_13854" style="mask-type:luminance" maskUnits="userSpaceOnUse" x="0" y="0" width="375" height="667">
<path d="M375 0H0V667H375V0Z" fill="white"/>
</mask>
<g mask="url(#mask6_176_13854)">
<g opacity="0.5">
<path d="M-35 69.0001C-21.3 65.4001 -7 65.0001 7 65.5001C24.5 66.4001 41.9 68.9001 59.1 72.4001C69.4 74.5001 79.6 77.1001 89.7 79.8001C116.6 86.8001 142.6 97.3001 170 102.4C183.5 104.9 197.2 106.5 210.8 105.3C217.7 104.8 224.5 103.3 231.5 102.8C242.3 101.9 253 104.4 263 108.1C271.2 111.3 279.5 115.9 284.6 123.4C285.6 124.9 286.4 126.5 286.8 128.4L285.8 128.6C285.3 127.1 284.3 125.7 283.2 124.4C280 120.5 275.7 117.7 271.1 115.4C265 112.4 258.4 110.5 251.8 109.1C245.1 107.6 238.5 107 231.8 107.7C225.1 108.3 218.2 109.8 211.1 110.3C197 111.4 182.8 109.2 169.1 106.2C155.4 103.2 142 99.3001 128.7 95.3001C102.2 87.2001 74.8 82.8001 47.3 79.6001C26.9 77.0001 6.3 75.7001 -14.2 73.2001C-21.1 72.3001 -28 71.3001 -35 70.0001V69.0001Z" fill="#E4EDF4"/>
</g>
</g>
<mask id="mask7_176_13854" style="mask-type:luminance" maskUnits="userSpaceOnUse" x="0" y="0" width="375" height="667">
<path d="M375 0H0V667H375V0Z" fill="white"/>
</mask>
<g mask="url(#mask7_176_13854)">
<path d="M-47.8 36.7C-46.7 34.2 -40 33.5 -37.5 33C-19.4 30.9 -1.10005 33.2 16.7 36.7C52.2999 43.9 86.3 58.2 117.2 77C129.7 84.2 142.6 90.8 156.1 95.5C169.6 100.2 184 102.5 198.2 100C205.2 98.9 212.3 96.8 219.8 96.9C227.2 96.8 234.3 99.3 241.2 101.8C254.8 106.9 268.2 112.9 279.7 121.9L279.4 122.3C267.6 114 254.1 108.4 240.6 103.7C222.6 97 216.7 99 198.7 102.5C184.2 105.2 169.2 102.7 155.5 97.6C128.1 87.9 104.8 69.7 78 58.8C44.8 44.6 9.29995 35.5 -26.6 34.3C-32 34.2 -37.4001 34.2 -42.7001 35.1C-44.0001 35.3 -45.3 35.6 -46.5 36.2C-46.9 36.4 -47.2 36.6 -47.3 36.9C-47.4 36.9 -47.8 36.7 -47.8 36.7Z" fill="#E4EDF4"/>
</g>
<mask id="mask8_176_13854" style="mask-type:luminance" maskUnits="userSpaceOnUse" x="0" y="0" width="375" height="667">
<path d="M375 0H0V667H375V0Z" fill="white"/>
</mask>
<g mask="url(#mask8_176_13854)">
<path d="M217 115.5C220.2 115.6 280 121.5 302 105.5C324 89.5 339 79.5 355 79.5C371 79.5 383 57.5 383 57.5L394 129.5C394 129.5 235 140.5 223 134.5C211 128.5 175 122.5 175 122.5C175 122.5 187 114.5 217 115.5Z" fill="url(#paint5_linear_176_13854)"/>
</g>
<mask id="mask9_176_13854" style="mask-type:luminance" maskUnits="userSpaceOnUse" x="0" y="0" width="375" height="667">
<path d="M375 0H0V667H375V0Z" fill="white"/>
</mask>
<g mask="url(#mask9_176_13854)">
<path d="M202 120.5C205 120.5 283.6 130.8 314 111.5C347 90.4999 362.5 85.6999 375.1 82.6999C386.2 80.0999 390 134.5 390 134.5L234 145.5L202 120.5Z" fill="url(#paint6_linear_176_13854)"/>
</g>
<mask id="mask10_176_13854" style="mask-type:luminance" maskUnits="userSpaceOnUse" x="0" y="0" width="375" height="667">
<path d="M375 0H0V667H375V0Z" fill="white"/>
</mask>
<g mask="url(#mask10_176_13854)">
<path d="M-0.400049 113.1C-0.400049 113.1 77.6 95 206.8 114.9C336 134.8 372.4 121.7 386.7 110.2C401 98.7 391 695.7 391 695.7H-19.3L-0.400049 113.1Z" fill="url(#paint7_linear_176_13854)"/>
</g>
<mask id="mask11_176_13854" style="mask-type:luminance" maskUnits="userSpaceOnUse" x="0" y="0" width="375" height="667">
<path d="M375 0H0V667H375V0Z" fill="white"/>
</mask>
<g mask="url(#mask11_176_13854)">
<path d="M17.1001 382.9V759.4H360V328.4H65.4001L17.1001 382.9Z" fill="url(#paint8_linear_176_13854)"/>
</g>
<mask id="mask12_176_13854" style="mask-type:luminance" maskUnits="userSpaceOnUse" x="0" y="0" width="375" height="667">
<path d="M375 0H0V667H375V0Z" fill="white"/>
</mask>
<g mask="url(#mask12_176_13854)">
<path d="M17.1001 382.9C10.2001 390.2 37.6001 411 70.0001 445.4C99.4001 476.6 65.5001 481.6 67.0001 498.4C71.0001 544.4 133 519.4 149 563.4C165 607.4 70.0001 615.4 105 656.4C140 697.4 251 677.4 278 728.4C305 779.4 320 736.4 320 736.4C320 736.4 286 659.4 232 639.4C178 619.4 228 599.4 247 581.4C266 563.4 266 524.4 242 504.4C218 484.4 199.9 466.6 266 444.4C340.3 419.4 367.8 359.6 365 344.4C362.6 331.6 359 328.4 359 328.4L261 324.4L61.0001 347.4L17.1001 382.9Z" fill="url(#paint9_linear_176_13854)"/>
</g>
<mask id="mask13_176_13854" style="mask-type:luminance" maskUnits="userSpaceOnUse" x="0" y="0" width="375" height="667">
<path d="M375 0H0V667H375V0Z" fill="white"/>
</mask>
<g mask="url(#mask13_176_13854)">
<path opacity="0.3" d="M177.2 348.3H123.2V668H177.2V348.3Z" fill="url(#paint10_linear_176_13854)"/>
</g>
<mask id="mask14_176_13854" style="mask-type:luminance" maskUnits="userSpaceOnUse" x="0" y="0" width="375" height="667">
<path d="M375 0H0V667H375V0Z" fill="white"/>
</mask>
<g mask="url(#mask14_176_13854)">
<path opacity="0.2" d="M324.8 330.7H305.9V715.9H324.8V330.7Z" fill="url(#paint11_linear_176_13854)"/>
</g>
<mask id="mask15_176_13854" style="mask-type:luminance" maskUnits="userSpaceOnUse" x="0" y="0" width="375" height="667">
<path d="M375 0H0V667H375V0Z" fill="white"/>
</mask>
<g mask="url(#mask15_176_13854)">
<path opacity="0.5" d="M219.1 126.2C219.2 125.2 220.2 124.6 221.2 124.8C227.5 126.1 252.2 129.5 266 129.5C281 129.5 276.8 132.4 268.9 135.5C261 138.5 257 135.5 260 140.5C263 145.5 264 142.5 263 153.5C262 164.5 266 219.6 266 219.6L224 221.6C224 221.6 228 153.5 229 149.5C230 145.5 217 145.5 220 139.5C223 133.5 237 134.5 233 132.5C229 130.5 222 130.5 220 128.5C219.2 127.7 219 126.9 219.1 126.2Z" fill="url(#paint12_linear_176_13854)"/>
</g>
<mask id="mask16_176_13854" style="mask-type:luminance" maskUnits="userSpaceOnUse" x="0" y="0" width="375" height="667">
<path d="M375 0H0V667H375V0Z" fill="white"/>
</mask>
<g mask="url(#mask16_176_13854)">
<path opacity="0.7" d="M224.8 129.1C223.6 127.9 224.8 125.9 226.4 126.2C232.4 127.4 251.7 129.9 262.7 129.9C275 129.9 271.6 132.3 265.1 134.8C258.6 137.3 255.3 134.8 257.8 139C260.3 143.1 261.1 140.6 260.3 149.7C259.5 158.8 262.8 212.7 262.8 212.7L228.2 214.3C228.2 214.3 231.5 149.7 232.3 146.4C233.1 143.1 222.4 143.1 224.9 138.2C227.4 133.3 238.9 134.1 235.6 132.4C232.3 130.8 226.5 130.8 224.8 129.1Z" fill="url(#paint13_linear_176_13854)"/>
</g>
<mask id="mask17_176_13854" style="mask-type:luminance" maskUnits="userSpaceOnUse" x="0" y="0" width="375" height="667">
<path d="M375 0H0V667H375V0Z" fill="white"/>
</mask>
<g mask="url(#mask17_176_13854)">
<path opacity="0.5" d="M243.5 64.5C254.27 64.5 263 55.7696 263 45C263 34.2304 254.27 25.5 243.5 25.5C232.73 25.5 224 34.2304 224 45C224 55.7696 232.73 64.5 243.5 64.5Z" fill="url(#paint14_linear_176_13854)"/>
</g>
<mask id="mask18_176_13854" style="mask-type:luminance" maskUnits="userSpaceOnUse" x="0" y="0" width="375" height="667">
<path d="M375 0H0V667H375V0Z" fill="white"/>
</mask>
<g mask="url(#mask18_176_13854)">
<path opacity="0.2" d="M237.5 59.5C248.27 59.5 257 50.7696 257 40C257 29.2304 248.27 20.5 237.5 20.5C226.73 20.5 218 29.2304 218 40C218 50.7696 226.73 59.5 237.5 59.5Z" fill="url(#paint15_linear_176_13854)"/>
</g>
<mask id="mask19_176_13854" style="mask-type:luminance" maskUnits="userSpaceOnUse" x="0" y="0" width="375" height="667">
<path d="M375 0H0V667H375V0Z" fill="white"/>
</mask>
<g mask="url(#mask19_176_13854)">
<path d="M241.5 60.5C250.06 60.5 257 53.5604 257 45C257 36.4396 250.06 29.5 241.5 29.5C232.94 29.5 226 36.4396 226 45C226 53.5604 232.94 60.5 241.5 60.5Z" fill="#FB624D"/>
</g>
<mask id="mask20_176_13854" style="mask-type:luminance" maskUnits="userSpaceOnUse" x="0" y="0" width="375" height="667">
<path d="M375 0H0V667H375V0Z" fill="white"/>
</mask>
<g mask="url(#mask20_176_13854)">
<path opacity="0.5" d="M280.5 63.5C282.985 63.5 285 61.4853 285 59C285 56.5147 282.985 54.5 280.5 54.5C278.015 54.5 276 56.5147 276 59C276 61.4853 278.015 63.5 280.5 63.5Z" fill="#FB624D"/>
</g>
<mask id="mask21_176_13854" style="mask-type:luminance" maskUnits="userSpaceOnUse" x="0" y="0" width="375" height="667">
<path d="M375 0H0V667H375V0Z" fill="white"/>
</mask>
<g mask="url(#mask21_176_13854)">
<path d="M278.7 61.7001C280.191 61.7001 281.4 60.4912 281.4 59C281.4 57.5089 280.191 56.3 278.7 56.3C277.209 56.3 276 57.5089 276 59C276 60.4912 277.209 61.7001 278.7 61.7001Z" fill="#FB624D"/>
</g>
<mask id="mask22_176_13854" style="mask-type:luminance" maskUnits="userSpaceOnUse" x="0" y="0" width="375" height="667">
<path d="M375 0H0V667H375V0Z" fill="white"/>
</mask>
<g mask="url(#mask22_176_13854)">
<path opacity="0.5" d="M293 53.5C294.105 53.5 295 52.6046 295 51.5C295 50.3954 294.105 49.5 293 49.5C291.895 49.5 291 50.3954 291 51.5C291 52.6046 291.895 53.5 293 53.5Z" fill="#FB977A"/>
</g>
<mask id="mask23_176_13854" style="mask-type:luminance" maskUnits="userSpaceOnUse" x="0" y="0" width="375" height="667">
<path d="M375 0H0V667H375V0Z" fill="white"/>
</mask>
<g mask="url(#mask23_176_13854)">
<path d="M292.9 52.7001C293.563 52.7001 294.1 52.1628 294.1 51.5C294.1 50.8373 293.563 50.3 292.9 50.3C292.237 50.3 291.7 50.8373 291.7 51.5C291.7 52.1628 292.237 52.7001 292.9 52.7001Z" fill="#FB977A"/>
</g>
<mask id="mask24_176_13854" style="mask-type:luminance" maskUnits="userSpaceOnUse" x="0" y="0" width="375" height="667">
<path d="M375 0H0V667H375V0Z" fill="white"/>
</mask>
<g mask="url(#mask24_176_13854)">
<path opacity="0.5" d="M191.5 32.5C192.881 32.5 194 31.3807 194 30C194 28.6193 192.881 27.5 191.5 27.5C190.119 27.5 189 28.6193 189 30C189 31.3807 190.119 32.5 191.5 32.5Z" fill="#FB624D"/>
</g>
<mask id="mask25_176_13854" style="mask-type:luminance" maskUnits="userSpaceOnUse" x="0" y="0" width="375" height="667">
<path d="M375 0H0V667H375V0Z" fill="white"/>
</mask>
<g mask="url(#mask25_176_13854)">
<path opacity="0.5" d="M192.5 34.5C194.433 34.5 196 32.933 196 31C196 29.067 194.433 27.5 192.5 27.5C190.567 27.5 189 29.067 189 31C189 32.933 190.567 34.5 192.5 34.5Z" fill="#FB624D"/>
</g>
<mask id="mask26_176_13854" style="mask-type:luminance" maskUnits="userSpaceOnUse" x="0" y="0" width="375" height="667">
<path d="M375 0H0V667H375V0Z" fill="white"/>
</mask>
<g mask="url(#mask26_176_13854)">
<path d="M192.1 32.3C192.929 32.3 193.6 31.6285 193.6 30.8C193.6 29.9716 192.929 29.3 192.1 29.3C191.272 29.3 190.6 29.9716 190.6 30.8C190.6 31.6285 191.272 32.3 192.1 32.3Z" fill="#FB624D"/>
</g>
<mask id="mask27_176_13854" style="mask-type:luminance" maskUnits="userSpaceOnUse" x="0" y="0" width="375" height="667">
<path d="M375 0H0V667H375V0Z" fill="white"/>
</mask>
<g mask="url(#mask27_176_13854)">
<path opacity="0.5" d="M176 22.7C177.105 22.7 178 21.8045 178 20.7C178 19.5954 177.105 18.7 176 18.7C174.895 18.7 174 19.5954 174 20.7C174 21.8045 174.895 22.7 176 22.7Z" fill="#FB977A"/>
</g>
<mask id="mask28_176_13854" style="mask-type:luminance" maskUnits="userSpaceOnUse" x="0" y="0" width="375" height="667">
<path d="M375 0H0V667H375V0Z" fill="white"/>
</mask>
<g mask="url(#mask28_176_13854)">
<path d="M175.9 21.9C176.563 21.9 177.1 21.3627 177.1 20.7C177.1 20.0373 176.563 19.5 175.9 19.5C175.237 19.5 174.7 20.0373 174.7 20.7C174.7 21.3627 175.237 21.9 175.9 21.9Z" fill="#FB977A"/>
</g>
<mask id="mask29_176_13854" style="mask-type:luminance" maskUnits="userSpaceOnUse" x="0" y="0" width="375" height="667">
<path d="M375 0H0V667H375V0Z" fill="white"/>
</mask>
<g mask="url(#mask29_176_13854)">
<path opacity="0.5" d="M143.5 57.7C144.328 57.7 145 57.0284 145 56.2C145 55.3715 144.328 54.7 143.5 54.7C142.672 54.7 142 55.3715 142 56.2C142 57.0284 142.672 57.7 143.5 57.7Z" fill="#FBC99D"/>
</g>
<mask id="mask30_176_13854" style="mask-type:luminance" maskUnits="userSpaceOnUse" x="0" y="0" width="375" height="667">
<path d="M375 0H0V667H375V0Z" fill="white"/>
</mask>
<g mask="url(#mask30_176_13854)">
<path d="M143.5 57.1C143.997 57.1 144.4 56.6971 144.4 56.2001C144.4 55.703 143.997 55.3 143.5 55.3C143.003 55.3 142.6 55.703 142.6 56.2001C142.6 56.6971 143.003 57.1 143.5 57.1Z" fill="#FBC99D"/>
</g>
<mask id="mask31_176_13854" style="mask-type:luminance" maskUnits="userSpaceOnUse" x="0" y="0" width="375" height="667">
<path d="M375 0H0V667H375V0Z" fill="white"/>
</mask>
<g mask="url(#mask31_176_13854)">
<path opacity="0.7" d="M204.3 145.4C205.128 145.4 205.8 144.728 205.8 143.9C205.8 143.072 205.128 142.4 204.3 142.4C203.472 142.4 202.8 143.072 202.8 143.9C202.8 144.728 203.472 145.4 204.3 145.4Z" fill="url(#paint16_radial_176_13854)"/>
</g>
<mask id="mask32_176_13854" style="mask-type:luminance" maskUnits="userSpaceOnUse" x="0" y="0" width="375" height="667">
<path d="M375 0H0V667H375V0Z" fill="white"/>
</mask>
<g mask="url(#mask32_176_13854)">
<path opacity="0.7" d="M204.3 144.8C204.797 144.8 205.2 144.397 205.2 143.9C205.2 143.403 204.797 143 204.3 143C203.803 143 203.4 143.403 203.4 143.9C203.4 144.397 203.803 144.8 204.3 144.8Z" fill="url(#paint17_radial_176_13854)"/>
</g>
<mask id="mask33_176_13854" style="mask-type:luminance" maskUnits="userSpaceOnUse" x="0" y="0" width="375" height="667">
<path d="M375 0H0V667H375V0Z" fill="white"/>
</mask>
<g mask="url(#mask33_176_13854)">
<path opacity="0.5" d="M273.7 163C274.805 163 275.7 162.105 275.7 161C275.7 159.895 274.805 159 273.7 159C272.595 159 271.7 159.895 271.7 161C271.7 162.105 272.595 163 273.7 163Z" fill="url(#paint18_radial_176_13854)"/>
</g>
<mask id="mask34_176_13854" style="mask-type:luminance" maskUnits="userSpaceOnUse" x="0" y="0" width="375" height="667">
<path d="M375 0H0V667H375V0Z" fill="white"/>
</mask>
<g mask="url(#mask34_176_13854)">
<path opacity="0.5" d="M273.7 162.2C274.363 162.2 274.9 161.663 274.9 161C274.9 160.337 274.363 159.8 273.7 159.8C273.037 159.8 272.5 160.337 272.5 161C272.5 161.663 273.037 162.2 273.7 162.2Z" fill="url(#paint19_radial_176_13854)"/>
</g>
<mask id="mask35_176_13854" style="mask-type:luminance" maskUnits="userSpaceOnUse" x="0" y="0" width="375" height="667">
<path d="M375 0H0V667H375V0Z" fill="white"/>
</mask>
<g mask="url(#mask35_176_13854)">
<path opacity="0.5" d="M303.5 152.5C306.924 152.5 309.7 149.724 309.7 146.3C309.7 142.876 306.924 140.1 303.5 140.1C300.076 140.1 297.3 142.876 297.3 146.3C297.3 149.724 300.076 152.5 303.5 152.5Z" fill="url(#paint20_radial_176_13854)"/>
</g>
<mask id="mask36_176_13854" style="mask-type:luminance" maskUnits="userSpaceOnUse" x="0" y="0" width="375" height="667">
<path d="M375 0H0V667H375V0Z" fill="white"/>
</mask>
<g mask="url(#mask36_176_13854)">
<path opacity="0.5" d="M303.4 150.1C305.499 150.1 307.2 148.399 307.2 146.3C307.2 144.201 305.499 142.5 303.4 142.5C301.301 142.5 299.6 144.201 299.6 146.3C299.6 148.399 301.301 150.1 303.4 150.1Z" fill="url(#paint21_radial_176_13854)"/>
</g>
</g>
<defs>
<radialGradient id="paint0_radial_176_13854" cx="0" cy="0" r="1" gradientUnits="userSpaceOnUse" gradientTransform="translate(222.336 74.7577) scale(315.508 315.508)">
<stop stop-color="#385159"/>
<stop offset="1" stop-color="#1D1D1F"/>
</radialGradient>
<linearGradient id="paint1_linear_176_13854" x1="240.777" y1="190.983" x2="343.691" y2="21.9638" gradientUnits="userSpaceOnUse">
<stop stop-color="#1D1D1F"/>
<stop offset="1" stop-color="#385159"/>
</linearGradient>
<linearGradient id="paint2_linear_176_13854" x1="276.914" y1="180.622" x2="306.272" y2="62.4352" gradientUnits="userSpaceOnUse">
<stop stop-color="#42296D"/>
<stop offset="1" stop-color="#C5E1F7"/>
</linearGradient>
<linearGradient id="paint3_linear_176_13854" x1="-41.5948" y1="53.0909" x2="55.0006" y2="64.4158" gradientUnits="userSpaceOnUse">
<stop stop-color="#4C63A9"/>
<stop offset="1" stop-color="#E5EFF7"/>
</linearGradient>
<linearGradient id="paint4_linear_176_13854" x1="-71.6537" y1="79.9267" x2="48.1633" y2="93.9742" gradientUnits="userSpaceOnUse">
<stop stop-color="#42296D"/>
<stop offset="1" stop-color="#C5E1F7"/>
</linearGradient>
<linearGradient id="paint5_linear_176_13854" x1="284.5" y1="54.5504" x2="284.5" y2="172.428" gradientUnits="userSpaceOnUse">
<stop stop-color="#1D1D1F"/>
<stop offset="0.3381" stop-color="#262F33"/>
<stop offset="1" stop-color="#385159"/>
</linearGradient>
<linearGradient id="paint6_linear_176_13854" x1="211.41" y1="161.172" x2="426.763" y2="75.4487" gradientUnits="userSpaceOnUse">
<stop stop-color="#1D1D1F"/>
<stop offset="0.3381" stop-color="#262F33"/>
<stop offset="1" stop-color="#385159"/>
</linearGradient>
<linearGradient id="paint7_linear_176_13854" x1="187.482" y1="83.4882" x2="187.482" y2="966.421" gradientUnits="userSpaceOnUse">
<stop stop-color="#1D1D1F"/>
<stop offset="1" stop-color="#1D1D1F"/>
</linearGradient>
<linearGradient id="paint8_linear_176_13854" x1="188.567" y1="547.415" x2="186.078" y2="259.574" gradientUnits="userSpaceOnUse">
<stop stop-color="#1D1D1F"/>
<stop offset="1" stop-color="#31394A"/>
</linearGradient>
<linearGradient id="paint9_linear_176_13854" x1="192.709" y1="650.882" x2="187.732" y2="-20.1936" gradientUnits="userSpaceOnUse">
<stop stop-color="#1D1D1F"/>
<stop offset="1" stop-color="#953A4E"/>
</linearGradient>
<linearGradient id="paint10_linear_176_13854" x1="150.23" y1="636.008" x2="150.23" y2="308.801" gradientUnits="userSpaceOnUse">
<stop stop-color="#1D1D1F"/>
<stop offset="1" stop-color="#AB4359"/>
</linearGradient>
<linearGradient id="paint11_linear_176_13854" x1="315.305" y1="677.321" x2="315.305" y2="283.172" gradientUnits="userSpaceOnUse">
<stop stop-color="#1D1D1F"/>
<stop offset="1" stop-color="#BF4A64"/>
</linearGradient>
<linearGradient id="paint12_linear_176_13854" x1="247.57" y1="84.2071" x2="247.57" y2="185.252" gradientUnits="userSpaceOnUse">
<stop stop-color="#FB624D"/>
<stop offset="1" stop-color="#1D1D4F"/>
</linearGradient>
<linearGradient id="paint13_linear_176_13854" x1="247.678" y1="72.6141" x2="247.678" y2="282.526" gradientUnits="userSpaceOnUse">
<stop stop-color="#FB624D"/>
<stop offset="1" stop-color="#1D1D4F" stop-opacity="0.7"/>
</linearGradient>
<linearGradient id="paint14_linear_176_13854" x1="211.146" y1="88.138" x2="304.874" y2="-36.8318" gradientUnits="userSpaceOnUse">
<stop stop-color="#FB624D"/>
<stop offset="1" stop-color="#1D1D4F"/>
</linearGradient>
<linearGradient id="paint15_linear_176_13854" x1="205.146" y1="83.138" x2="298.874" y2="-41.8318" gradientUnits="userSpaceOnUse">
<stop stop-color="#FB624D"/>
<stop offset="1" stop-color="#1D1D4F"/>
</linearGradient>
<radialGradient id="paint16_radial_176_13854" cx="0" cy="0" r="1" gradientUnits="userSpaceOnUse" gradientTransform="translate(204.349 143.857) scale(1.5018)">
<stop stop-color="#FB624D"/>
<stop offset="1" stop-color="#1D1D4F" stop-opacity="0.7"/>
</radialGradient>
<radialGradient id="paint17_radial_176_13854" cx="0" cy="0" r="1" gradientUnits="userSpaceOnUse" gradientTransform="translate(204.332 143.857) scale(0.911702)">
<stop stop-color="#FB624D"/>
<stop offset="1" stop-color="#1D1D4F" stop-opacity="0.7"/>
</radialGradient>
<radialGradient id="paint18_radial_176_13854" cx="0" cy="0" r="1" gradientUnits="userSpaceOnUse" gradientTransform="translate(273.707 160.974) scale(2.018)">
<stop stop-color="#FB624D"/>
<stop offset="1" stop-color="#1D1D4F"/>
</radialGradient>
<radialGradient id="paint19_radial_176_13854" cx="0" cy="0" r="1" gradientUnits="userSpaceOnUse" gradientTransform="translate(273.685 160.974) scale(1.2252)">
<stop stop-color="#FB624D"/>
<stop offset="1" stop-color="#1D1D4F"/>
</radialGradient>
<radialGradient id="paint20_radial_176_13854" cx="0" cy="0" r="1" gradientUnits="userSpaceOnUse" gradientTransform="translate(303.455 146.29) scale(6.18481 6.1848)">
<stop stop-color="#FB624D"/>
<stop offset="1" stop-color="#1D1D4F"/>
</radialGradient>
<radialGradient id="paint21_radial_176_13854" cx="0" cy="0" r="1" gradientUnits="userSpaceOnUse" gradientTransform="translate(303.387 146.291) scale(3.7548)">
<stop stop-color="#FB624D"/>
<stop offset="1" stop-color="#1D1D4F"/>
</radialGradient>
<clipPath id="clip0_176_13854">
<rect width="375" height="667" fill="white"/>
</clipPath>
</defs>
</svg>
