<svg width="342" height="213" viewBox="0 0 342 213" fill="none" xmlns="http://www.w3.org/2000/svg">
<path d="M322.2 31C322.2 31 325 50.1 327 52.1C329 54.1 307 47.1 307 47.1L322.2 31Z" fill="url(#paint0_radial_176_13813)"/>
<path d="M6.9 136.6C6.9 136.6 0 166.1 0 176.6C0 187.1 30.7 200.5 65.9 208.1C111.4 217.9 185.7 209.6 219.9 199.1C254.3 188.5 343.9 151.1 341.9 122.1C339.9 93.1 327.2 76.5 333.5 54.8C339.9 33.1 204.3 76.2 204.3 76.2L6.9 136.6Z" fill="url(#paint1_radial_176_13813)"/>
<path d="M50.4999 187.7C48.9999 187.6 58.5999 193.9 58.6999 198.8C58.8999 203.8 55.6999 204.9 55.6999 204.9C55.6999 204.9 63.9999 207 66.1999 207C68.3999 207 65.9999 179.1 69.9999 170.7C73.9999 162.3 58.8999 188.4 50.4999 187.7Z" fill="url(#paint2_radial_176_13813)"/>
<path d="M6.49985 143.3C6.49985 143.3 3.09985 161.2 8.19985 169.8C13.2999 178.4 11.4999 184.3 12.2999 186.6C13.0999 188.8 9.79985 186.6 9.79985 186.6C9.79985 186.6 15.6999 190.7 17.0999 190.9C18.4999 191.1 14.1999 186.1 14.5999 182.3C14.9999 178.5 17.6999 166.1 18.7999 165.4C19.8999 164.7 15.5999 165 16.2999 162C16.9999 159 18.3999 157.2 18.3999 157.2C18.3999 157.2 6.89985 144.5 6.89985 143.3H6.49985Z" fill="url(#paint3_radial_176_13813)"/>
<path d="M330.9 69.4C330.9 69.4 331.3 87.1 327.5 107.4C323.7 127.7 327.5 133.4 329.2 135.6C330.9 137.9 333.5 138.1 331.7 139.5C329.8 141 325.8 148.1 324.3 146.1C322.8 144.1 324.8 105 325.8 98.9C326.8 92.8 316.3 87.5 316.8 87.4C317.3 87.3 322.6 66.8 322.6 66.8L330.9 69.4Z" fill="url(#paint4_linear_176_13813)"/>
<path d="M257 0C260.3 0 263.5 0 266.8 0C269.9 1.5 273 1.7 276.5 1C282.7 -0.3 287.3 2.5 289.2 9.1C290.6 13.8 295.1 14 297.9 16.5C298.1 16.6 298.4 16.6 298.6 16.5C302.8 13.5 306.7 16 310.7 17.1C314.8 18.2 316.1 19.4 316.7 23.8C316.9 25.3 317.9 25.8 318.9 26.5C322.1 28.7 322.9 30.8 321.9 34.5C321.3 36.7 322.3 39.3 320 41.1C319.5 41.4 319.9 41.9 320.1 42.4C321.3 45.2 324.9 45 326.3 47.6C326.4 47.8 326.8 47.1 327.1 47C330.1 45.7 331.2 46.2 332.2 49.4C332.5 50.5 333.2 51.4 333.7 52.4C333.7 53.2 333.7 53.9 333.7 54.7C331.8 56.3 328.7 56.1 327.5 59.1C326.7 61 326.4 62.4 328.3 63.6C329.6 64.5 330.6 65.6 331 67.1C331.7 69.9 330 72.5 327.1 71.9C324.4 71.4 323.9 73 323.2 74.7C322.7 76 322.5 77.4 322.7 78.8C323.8 85.9 319.8 89.7 314 92.3C308.8 94.6 306.1 98.9 304.7 104.2C304.2 106.2 299.5 114.2 297.9 115.4C296.7 116.3 296 117.2 295.9 118.8C295.6 127 292.5 130.6 284.8 132.1C279.5 133.2 274.4 134.2 268.9 133.4C266.8 133.1 264.9 134.3 263.8 136C262.6 137.9 260.8 139 259.1 140.2C257.4 141.3 255.9 142.3 254.7 144.1C253.6 145.9 251.6 146.7 249.5 146.3C246.9 145.8 244.9 146.8 242.5 147.8C238.7 149.5 234.5 150.6 230.2 150.9C226.2 151.2 222.2 151.1 218.2 150.6C214.4 150.1 211.6 151.7 209.4 155C205.1 161.3 200 166.5 191.8 167.2C189.5 167.4 187.6 166.9 185.8 165.7C183.8 164.3 181.7 164.4 179.4 165.1C173.5 166.9 167.7 169.8 161.3 167.2C160.6 166.9 159.7 167 159.1 167.4C154 170.9 147.6 170.2 142.1 172.6C138.2 174.4 135 172.8 132.6 169.7C130.8 167.3 128.8 167.1 126.8 168.6C122.9 171.4 119.6 169.6 116.5 167.5C112.7 164.9 111.3 164.7 107.5 167.3C105 169 102.5 170.6 99.6 171.4C97 172.1 94.5 172.2 92 170.9C88.1 168.9 83.4 169.4 79.4 167.7C79.1 167.6 78.7 167.8 78.3 167.9C71.7 169.2 65.1 177 65.2 183.8C65.2 185.5 65 186.8 63.4 187.5C62.6 187.5 61.9 187.5 61.1 187.5C59.3 186.6 57.6 186.6 55.8 187.5C54 187.5 52.3 187.5 50.5 187.5C47.2 186.2 46.7 182.6 44.4 180.3C40.9 176.9 37.7 173 34.6 169.2C32.9 167.2 30.7 165.6 28 165.2C21.4 164.2 17.6 159.3 13.6 154.8C10.8 151.6 8.2 148.1 7 143.9C7 141.4 7 138.9 7 136.4C8.7 132.6 7.8 128.6 7.7 124.7C7.6 121.7 7.4 118.7 7.4 115.7C7.4 113 7.9 110.5 11.1 109.5C12.6 109 13.4 107.6 13.6 106C13.9 103.6 15.3 102.3 17.5 101.5C22.7 99.5 27.5 96.9 29.2 90.9C29.6 89.4 31.1 88.3 32.7 87.6C36.4 86.1 39.1 83.4 41.7 80.4C42.2 79.8 42.6 79.1 43.2 78.7C47 76.4 48.6 73.1 48.3 68.6C48.1 66.4 49.8 65.3 51.1 63.7C54.4 59.7 59.5 59.7 63.5 57.4C65.4 56.3 66.7 55.2 67.1 53C67.7 49.7 69.9 48 73.2 48.2C78.5 48.5 83.4 47.5 87.4 43.6C88.2 42.8 89.4 42.5 90.5 42.4C94.3 42.2 97.5 41.4 100 38.2C101.2 36.6 103.5 37.1 105.2 38.1C106.1 38.6 107 39.3 108 38.5C111.8 35.5 116.4 35.2 121 34.5C123.7 34 126.3 33.2 128.3 31.1C129.1 30.3 130.1 29.9 131.1 29.3C134.8 27.4 139.1 26.6 142.2 23.4C144 21.4 146.8 21.7 149.3 22.1C153.8 22.7 158 22.1 162.5 21.1C168.2 19.8 174 18.3 179.9 17.6C180.5 17.5 181.3 17.8 181.7 17.4C186.9 12.2 194.2 13.6 200.3 11.1C202.3 10.3 203.9 8.9 205.2 7.2C207.7 3.9 209.7 3.4 212.6 6C215.3 8.4 217.1 8.3 220.4 6.4C223.8 4.4 227.6 1.1 232.4 3.3C232.9 3.6 233.7 3.4 234.2 3.1C239.9 0.0999999 246.1 1.3 252.1 1.2C254 1.5 255.5 1.1 257 0Z" fill="#C4C658"/>
<path d="M247.5 147.4C248.7 148 252.5 152.1 253.1 155.6C253.8 159.1 256.2 172.5 257 174.3C257.8 176.1 263.2 180.5 262 181.8C260.8 183.1 249 188.4 250.5 186.2C251.9 184 253.7 180.2 252.6 174.6C251.5 169 242.7 151.8 240 151.6C237.3 151.4 241.8 148.5 244.2 148.5C246.6 148.5 247.5 147.4 247.5 147.4Z" fill="url(#paint5_linear_176_13813)"/>
<path d="M265 138.6C265 138.6 268.2 138 271.4 136.2C274.5 134.5 280.2 134.5 279.2 136.2C278.2 137.9 277.7 140.8 278.7 143.7C279.7 146.6 280.9 149.8 281.7 149.8C282.4 149.8 270.5 153.4 271 152.7C271.5 152 277.5 144.4 273.4 143C269.3 141.6 265.1 139.3 265.1 139.3V138.6H265Z" fill="url(#paint6_linear_176_13813)"/>
<path d="M298.3 119.6C296.6 125.3 295.5 142.7 295.5 151C295.5 159.4 298 160 298.8 161.6C299.6 163.2 289.8 169.6 289.8 168.1C289.8 166.6 292.5 149.1 292.5 145.8C292.5 142.5 289.6 136.1 289.8 134.9C290.1 133.7 293.7 132 294.3 129.2C294.9 126.4 295.8 120.7 296.5 119.1C297.2 117.6 299 118.1 298.9 118.4C298.8 118.7 298.3 119.6 298.3 119.6Z" fill="url(#paint7_linear_176_13813)"/>
<path d="M21.0999 173.1C21.2999 177.6 22.5999 190.3 21.0999 191.9C19.5999 193.5 30.1999 197.1 30.7999 197.1C31.2999 197.1 23.5999 176 23.4999 173.2C23.3999 170.4 27.7999 166.8 27.7999 166.8C27.7999 166.8 22.5999 166.8 21.2999 165.2C19.7999 163.4 21.0999 173.1 21.0999 173.1Z" fill="url(#paint8_linear_176_13813)"/>
<path d="M90.1 198.7C90.6 201 89.6 210.5 90.3 210.6C91 210.7 102.8 211.7 104.7 210.8C106.6 209.9 96.6 209.1 95.6 204C94.6 199 90.7 190.7 89.7 189.7C88.7 188.7 90.1 198.7 90.1 198.7Z" fill="url(#paint9_linear_176_13813)"/>
<path d="M123.3 96.0999C121.4 95.8999 76.1 98.7999 83.9 106.9C91.7 115 102.9 117.3 115.8 116.7C128.7 116.1 159.3 119.4 166.2 118.5C173.1 117.5 178.6 116 193.6 113.7C208.6 111.5 227.4 107.7 221.1 102.8C214.8 97.8999 184.7 92.9999 175.7 94.1999C166.8 95.4999 123.3 96.0999 123.3 96.0999Z" fill="url(#paint10_linear_176_13813)"/>
<path d="M107.1 100.9C118.5 94.8999 127.1 83.9999 131.9 72.6999C136.7 61.3999 138.3 55.0999 141.5 55.2999C144.7 55.4999 155.8 57.5999 161.9 55.7999C168 53.9999 168.4 54.1999 169.8 60.2999C171.2 66.3999 182.9 89.7999 190.4 95.8999C197.9 102 208.6 98.1999 206.5 101.5C204.5 104.9 164.7 113 155 110.1C145.3 107.2 139.9 108.7 132.8 108.7C125.7 108.7 90.1001 109.9 107.1 100.9Z" fill="url(#paint11_linear_176_13813)"/>
<path d="M142.5 58.9C141.7 59.4 138.5 60.7 139.8 62C141 63.3 141.6 61.8 145 61.5C148.4 61.2 154.9 63.4 157.9 63.5C160.9 63.6 163.2 61.3 164.7 61.2C166.2 61.1 168.7 58.9 167.3 58.4C165.9 57.9 153.9 57.9 151.5 58C149.1 58.1 145 57.3 142.5 58.9Z" fill="url(#paint12_linear_176_13813)"/>
<path d="M137.8 80.7C137 92 134.6 100.5 131.7 104C128.8 107.4 141.1 106.4 146.7 106.7C152.4 107 149.5 98.5 147.5 91.8C145.5 85.1 144.3 63.8 147 63.4C149.7 63 141 63.9 138.6 64.4C136.2 64.9 136.8 66.3 137.5 71.6C138.3 77 137.8 80.7 137.8 80.7Z" fill="url(#paint13_linear_176_13813)"/>
<path d="M169.4 66.8999C165.7 52.7999 176.3 98.6999 182.1 100.4C187.9 102.1 193.9 100.2 195 100.4C196.1 100.6 184.9 95.1999 181 88.3999C177.2 81.6999 170.2 69.7999 169.4 66.8999Z" fill="url(#paint14_linear_176_13813)"/>
<path d="M79.8997 123.6C74.4997 123.2 51.8997 126.3 63.5997 132.5C75.1997 138.8 84.8997 137.4 97.8997 135C110.9 132.6 118.5 140.3 125.4 139C132.3 137.8 142.4 128.2 122.1 125.1C101.8 122 99.1997 126.5 91.5997 126.4C83.9997 126.4 89.8997 124.3 79.8997 123.6Z" fill="url(#paint15_linear_176_13813)"/>
<path d="M194.6 77C189.9 79.1 191 85.9 205.8 86.1C220.6 86.3 221.9 83.4 229.6 83.8C237.3 84.2 251.4 80.1 243.7 76.5C236 72.9 223 75.3 214.4 75.4C205.9 75.4 200.2 74.5 194.6 77Z" fill="url(#paint16_linear_176_13813)"/>
<path d="M180.5 122.8C174.6 126.1 173.5 138.2 189.5 140.1C205.5 142 208 136.9 216.4 138.3C224.7 139.7 241.6 133.8 234.4 126.7C227.2 119.6 212.2 122.4 202.8 121.7C193.4 121.1 187.5 118.9 180.5 122.8Z" fill="url(#paint17_linear_176_13813)"/>
<path d="M220.5 56.2C229.8 53.4 234.1 42.2 246.2 47.3C258.3 52.4 263.4 56 269.4 56.2C275.4 56.4 277.9 51.8 282.6 54.8C287.3 57.8 282.1 59.3 282.1 59.3L220.4 59.4L220.5 56.2Z" fill="url(#paint18_linear_176_13813)"/>
<path d="M24.4999 119.8C24.1999 119.8 24.0999 119.4 24.3999 119.3C30.9999 117.7 37.1999 112.8 45.1999 110.7C54.6999 108.2 63.1999 113.2 67.9999 114.5C72.7999 115.8 82.7999 117.1 84.4999 118.6C86.1999 120.1 31.8999 119.8 31.1999 119.8H24.4999Z" fill="url(#paint19_linear_176_13813)"/>
<path d="M175.5 73.4C176.9 73.3 181.7 72.4 183.3 73.7C184.9 75 186.8 75.1 186.7 75.7C186.6 76.3 184.1 77.1 181.5 77.4C179 77.7 168.7 78.2 165.4 78.3C162 78.4 163.4 76.9 165.7 76.9C168 76.9 179 75 176.6 74.7C174.2 74.6 173.9 73.5 175.5 73.4Z" fill="#646610"/>
<path d="M131.1 72.2C128.9 72 121.2 70.4 118.6 72.8C116 75.2 113.1 75.5 113.2 76.5C113.3 77.5 117.4 79 121.4 79.7C125.4 80.3 141.7 81.3 147 81.4C152.3 81.5 150.2 78.9 146.5 78.9C142.8 78.9 125.4 75.3 129.2 74.9C133.2 74.5 133.6 72.5 131.1 72.2Z" fill="#646610"/>
<path d="M131.1 71.3999C128.9 71.1999 121.2 69.5999 118.6 71.9999C116 74.3999 113.1 74.6999 113.2 75.6999C113.4 76.6999 117.4 78.1999 121.4 78.8999C125.4 79.4999 141.7 80.4999 147 80.5999C152.3 80.6999 150.2 78.0999 146.5 78.0999C142.8 78.0999 125.4 74.4999 129.2 74.0999C133 73.6999 133.6 71.5999 131.1 71.3999Z" fill="#DDDEDC"/>
<path d="M175.5 72.6999C176.9 72.5999 181.7 71.6999 183.3 72.9999C184.9 74.2999 186.8 74.3999 186.7 74.9999C186.6 75.5999 184.1 76.3999 181.5 76.6999C179 76.9999 168.7 77.4999 165.4 77.5999C162 77.6999 163.4 76.1999 165.7 76.1999C168 76.1999 179 74.2999 176.6 73.9999C174.2 73.8999 173.9 72.7999 175.5 72.6999Z" fill="#EAEBE8"/>
<defs>
<radialGradient id="paint0_radial_176_13813" cx="0" cy="0" r="1" gradientUnits="userSpaceOnUse" gradientTransform="translate(305.033 53.9639) scale(103.522 103.522)">
<stop stop-color="#FB624D"/>
<stop offset="1" stop-color="#1D1D4F"/>
</radialGradient>
<radialGradient id="paint1_radial_176_13813" cx="0" cy="0" r="1" gradientUnits="userSpaceOnUse" gradientTransform="translate(221.053 231.533) scale(564.876 564.876)">
<stop offset="0.1019" stop-color="#FB624D"/>
<stop offset="1" stop-color="#1D1D4F"/>
</radialGradient>
<radialGradient id="paint2_radial_176_13813" cx="0" cy="0" r="1" gradientUnits="userSpaceOnUse" gradientTransform="translate(66.9503 215.626) scale(83.0835 83.0835)">
<stop offset="0.1019" stop-color="#FB624D"/>
<stop offset="1" stop-color="#1D1D4F"/>
</radialGradient>
<radialGradient id="paint3_radial_176_13813" cx="0" cy="0" r="1" gradientUnits="userSpaceOnUse" gradientTransform="translate(12.4295 176.054) scale(71.7297 71.7297)">
<stop offset="0.1019" stop-color="#FB624D"/>
<stop offset="1" stop-color="#1D1D4F"/>
</radialGradient>
<linearGradient id="paint4_linear_176_13813" x1="322.11" y1="127.495" x2="336.882" y2="39.7017" gradientUnits="userSpaceOnUse">
<stop offset="0.1019" stop-color="#FB624D"/>
<stop offset="1" stop-color="#1D1D4F"/>
</linearGradient>
<linearGradient id="paint5_linear_176_13813" x1="252.578" y1="201.617" x2="244.645" y2="56.9597" gradientUnits="userSpaceOnUse">
<stop offset="0.1019" stop-color="#FB624D"/>
<stop offset="1" stop-color="#1D1D4F"/>
</linearGradient>
<linearGradient id="paint6_linear_176_13813" x1="273.975" y1="140.373" x2="276.963" y2="121.121" gradientUnits="userSpaceOnUse">
<stop offset="0.1019" stop-color="#FB624D"/>
<stop offset="1" stop-color="#1D1D4F"/>
</linearGradient>
<linearGradient id="paint7_linear_176_13813" x1="296.541" y1="134.266" x2="304.702" y2="81.697" gradientUnits="userSpaceOnUse">
<stop offset="0.1019" stop-color="#FB624D"/>
<stop offset="1" stop-color="#1D1D4F"/>
</linearGradient>
<linearGradient id="paint8_linear_176_13813" x1="26.614" y1="175.479" x2="31.4746" y2="144.168" gradientUnits="userSpaceOnUse">
<stop offset="0.1019" stop-color="#FB624D"/>
<stop offset="1" stop-color="#1D1D4F"/>
</linearGradient>
<linearGradient id="paint9_linear_176_13813" x1="99.2141" y1="217.617" x2="80.7777" y2="141.928" gradientUnits="userSpaceOnUse">
<stop offset="0.1019" stop-color="#FB624D"/>
<stop offset="1" stop-color="#1D1D4F"/>
</linearGradient>
<linearGradient id="paint10_linear_176_13813" x1="153.064" y1="128.186" x2="151.948" y2="59.9775" gradientUnits="userSpaceOnUse">
<stop stop-color="#C4C658"/>
<stop offset="0.6549" stop-color="#ACBE40"/>
<stop offset="1" stop-color="#9FBA34"/>
</linearGradient>
<linearGradient id="paint11_linear_176_13813" x1="165.022" y1="40.6239" x2="152.27" y2="116.813" gradientUnits="userSpaceOnUse">
<stop stop-color="#C4C658"/>
<stop offset="1" stop-color="#9FBA34"/>
</linearGradient>
<linearGradient id="paint12_linear_176_13813" x1="153.527" y1="52.1113" x2="153.705" y2="85.7807" gradientUnits="userSpaceOnUse">
<stop stop-color="#2D79B2"/>
<stop offset="1" stop-color="#9FBA34"/>
</linearGradient>
<linearGradient id="paint13_linear_176_13813" x1="147.593" y1="67.6371" x2="134.705" y2="121.393" gradientUnits="userSpaceOnUse">
<stop stop-color="#C4C658"/>
<stop offset="1" stop-color="#9FBA34"/>
</linearGradient>
<linearGradient id="paint14_linear_176_13813" x1="184.582" y1="71.0316" x2="175.385" y2="109.39" gradientUnits="userSpaceOnUse">
<stop stop-color="#C4C658"/>
<stop offset="1" stop-color="#9FBA34"/>
</linearGradient>
<linearGradient id="paint15_linear_176_13813" x1="97.4828" y1="143.679" x2="96.6286" y2="102.553" gradientUnits="userSpaceOnUse">
<stop stop-color="#C4C658"/>
<stop offset="0.6549" stop-color="#ACBE40"/>
<stop offset="1" stop-color="#9FBA34"/>
</linearGradient>
<linearGradient id="paint16_linear_176_13813" x1="217.945" y1="92.7067" x2="221.168" y2="53.5434" gradientUnits="userSpaceOnUse">
<stop stop-color="#C4C658"/>
<stop offset="0.6549" stop-color="#ACBE40"/>
<stop offset="1" stop-color="#9FBA34"/>
</linearGradient>
<linearGradient id="paint17_linear_176_13813" x1="200.564" y1="152.974" x2="216.603" y2="83.572" gradientUnits="userSpaceOnUse">
<stop stop-color="#C4C658"/>
<stop offset="0.6549" stop-color="#ACBE40"/>
<stop offset="1" stop-color="#9FBA34"/>
</linearGradient>
<linearGradient id="paint18_linear_176_13813" x1="252.452" y1="68.9608" x2="252.452" y2="42.9246" gradientUnits="userSpaceOnUse">
<stop stop-color="#C4C658"/>
<stop offset="0.6549" stop-color="#ACBE40"/>
<stop offset="1" stop-color="#9FBA34"/>
</linearGradient>
<linearGradient id="paint19_linear_176_13813" x1="54.5194" y1="122.261" x2="54.0047" y2="97.4833" gradientUnits="userSpaceOnUse">
<stop stop-color="#C4C658"/>
<stop offset="0.6549" stop-color="#ACBE40"/>
<stop offset="1" stop-color="#9FBA34"/>
</linearGradient>
</defs>
</svg>
