<svg width="720" height="667" viewBox="0 0 720 667" fill="none" xmlns="http://www.w3.org/2000/svg">
<g clip-path="url(#clip0_161_6844)">
<mask id="mask0_161_6844" style="mask-type:luminance" maskUnits="userSpaceOnUse" x="0" y="0" width="720" height="667">
<path d="M0 667L720 667L720 0L2.99458e-08 -3.23253e-08L0 667Z" fill="white"/>
</mask>
<g mask="url(#mask0_161_6844)">
<path d="M-213.9 250.5H980.6V-6.5H-213.9V250.5Z" fill="url(#paint0_radial_161_6844)"/>
</g>
<mask id="mask1_161_6844" style="mask-type:luminance" maskUnits="userSpaceOnUse" x="0" y="0" width="720" height="667">
<path d="M0 667L720 667L720 0L2.99458e-08 -3.23253e-08L0 667Z" fill="white"/>
</mask>
<g mask="url(#mask1_161_6844)">
<path d="M99.7001 49.8C98.5001 63.7 223.1 41.9 265.7 49.1C308.3 56.3 308.2 56.8 349.6 77.8C391 98.8 435.5 105.4 480.4 100.3C525.3 95.2 595.8 76.4 608.5 84.6C621.2 92.8 594.8 119.5 594.8 119.5C594.8 119.5 453.1 121.7 391.6 123.5C330.1 125.3 171.3 148.5 161.3 141L-49.3999 120.3C-54.1999 113.9 -56.0999 89.7 -53.5999 58.2C-52.5999 43.8 -13.3999 -17 35.8001 -9.8C85.0001 -2.6 100.9 35.9 99.7001 49.8Z" fill="url(#paint1_linear_161_6844)"/>
</g>
<mask id="mask2_161_6844" style="mask-type:luminance" maskUnits="userSpaceOnUse" x="0" y="0" width="720" height="667">
<path d="M0 667L720 667L720 0L2.99458e-08 -3.23253e-08L0 667Z" fill="white"/>
</mask>
<g mask="url(#mask2_161_6844)">
<path d="M468.8 121.5C465.4 122.2 335.5 127.6 226.4 89.5C176.3 72 133.6 75.8 99.4 77.8C40.1 81.2 -3.50005 108 -3.50005 108L-11.3 149.5L325.7 157.3L468.8 121.5Z" fill="url(#paint2_linear_161_6844)"/>
</g>
<mask id="mask3_161_6844" style="mask-type:luminance" maskUnits="userSpaceOnUse" x="0" y="0" width="720" height="667">
<path d="M0 667L720 667L720 0L2.99458e-08 -3.23253e-08L0 667Z" fill="white"/>
</mask>
<g mask="url(#mask3_161_6844)">
<path d="M342.3 130.8C342 130.9 341.9 130.9 341.8 130.9C341 130.8 340.2 130.6 339.5 130.4C338 130 333.5 128.7 331.9 128.3C322.1 125.4 311.5 122.2 301.7 119.5C281.6 113.9 261.1 109.1 240.2 107.4C177.8 103.4 115.7 126 54.2 133C41.8 134 23 135.7 14 125.6L14.8 125C23.4 135 42.1 133.4 54.2 132.4C95.7 127.6 136.3 114.8 177.6 108.3C198.4 105.1 219.5 102.6 240.5 105.2C273.3 110.3 305.2 120.2 337.2 129.1C338.8 129.5 340.5 130 342 130.1C341.8 129.9 342.3 130.8 342.3 130.8Z" fill="#C49C90"/>
</g>
<mask id="mask4_161_6844" style="mask-type:luminance" maskUnits="userSpaceOnUse" x="0" y="0" width="720" height="667">
<path d="M0 667L720 667L720 0L2.99458e-08 -3.23253e-08L0 667Z" fill="white"/>
</mask>
<g mask="url(#mask4_161_6844)">
<path d="M724 2.49999C724 2.49999 682.8 -19.5 656 14.5C628.9 48.9 637.3 45.2 612 47.5C590 49.5 591.2 73.3 571 72.5C547 71.5 492.8 75.2 475 91.5C450 114.5 474.1 111.2 474.1 111.2L765 118.5L724 2.49999Z" fill="url(#paint3_linear_161_6844)"/>
</g>
<mask id="mask5_161_6844" style="mask-type:luminance" maskUnits="userSpaceOnUse" x="0" y="0" width="720" height="667">
<path d="M0 667L720 667L720 0L2.99458e-08 -3.23253e-08L0 667Z" fill="white"/>
</mask>
<g mask="url(#mask5_161_6844)">
<path d="M766.2 58.3C723 43.5 738 6.5 693 9.5C648 12.5 658.5 50.9 644.2 54.7C630 58.5 619 41.5 599 55.5C579 69.5 592.7 79.5 564.8 81.5C536.9 83.5 545.6 77.6 518.3 81.5C470.3 88.3 429.5 116.8 420.1 122C399.8 133.2 740.1 168.1 740.1 168.1L790.7 116.9L766.2 58.3Z" fill="url(#paint4_linear_161_6844)"/>
</g>
<mask id="mask6_161_6844" style="mask-type:luminance" maskUnits="userSpaceOnUse" x="0" y="0" width="720" height="667">
<path d="M0 667L720 667L720 0L2.99458e-08 -3.23253e-08L0 667Z" fill="white"/>
</mask>
<g mask="url(#mask6_161_6844)">
<g opacity="0.5">
<path d="M755 70C727.7 75.1 700.1 76.1 672.6 79.6C645.2 82.8 617.7 87.3 591.2 95.3C577.8 99.3 564.4 103.2 550.8 106.2C537.1 109.2 522.9 111.4 508.8 110.3C501.7 109.8 494.8 108.3 488.1 107.7C481.4 107 474.8 107.7 468.1 109.1C461.4 110.5 454.9 112.5 448.8 115.4C444.3 117.7 440 120.5 436.7 124.4C435.7 125.7 434.7 127.1 434.1 128.6L433.1 128.4C433.5 126.5 434.4 125 435.3 123.4C440.3 115.9 448.6 111.3 456.9 108.1C466.9 104.3 477.7 101.9 488.4 102.8C495.4 103.4 502.2 104.8 509.1 105.3C536.7 107.3 563.9 100 590.1 91.8C636.5 77 684.8 63.2 734 65.6C741.1 66.1 748.1 67 755 68.9C755 69 755 70 755 70Z" fill="#C49C90"/>
</g>
</g>
<mask id="mask7_161_6844" style="mask-type:luminance" maskUnits="userSpaceOnUse" x="0" y="0" width="720" height="667">
<path d="M0 667L720 667L720 0L2.99458e-08 -3.23253e-08L0 667Z" fill="white"/>
</mask>
<g mask="url(#mask7_161_6844)">
<path d="M767.4 36.9C766.5 35.6 764.2 35.4 762.8 35.1C757.5 34.2 752.1 34.3 746.7 34.3C710.7 35.5 675.2 44.6 642.2 58.7C615.4 69.7 592.1 87.9 564.7 97.5C551 102.5 536 105 521.5 102.3C503.5 98.9 497.5 96.8 479.6 103.5C466 108.2 452.6 113.8 440.8 122.1L440.5 121.7C451.9 112.7 465.4 106.7 479 101.6C485.9 99.1 493 96.6 500.4 96.7C507.9 96.7 515 98.7 522 99.8C536.2 102.4 550.6 100.1 564.1 95.3C577.7 90.6 590.6 84 603 76.8C633.9 58 667.9 43.7 703.5 36.6C721.3 33.1 739.6 30.8 757.7 32.9C760.9 33.4 764.2 33.8 767 35.4C767.4 35.7 767.8 36 768 36.6C767.8 36.7 767.4 36.9 767.4 36.9Z" fill="#C49C90"/>
</g>
<mask id="mask8_161_6844" style="mask-type:luminance" maskUnits="userSpaceOnUse" x="0" y="0" width="720" height="667">
<path d="M0 667L720 667L720 0L2.99458e-08 -3.23253e-08L0 667Z" fill="white"/>
</mask>
<g mask="url(#mask8_161_6844)">
<path d="M436.9 136.9C430 137 321.9 133.2 273.9 117.2C225.9 101.2 149.4 100.2 115.1 104.6C79.0999 109.1 -20.6001 123.7 -20.6001 123.7L51.0999 150.9C51.0999 150.9 397.7 161.9 423.8 155.9C449.9 149.9 528.4 143.9 528.4 143.9C528.4 143.9 502.2 135.9 436.9 136.9Z" fill="url(#paint5_linear_161_6844)"/>
</g>
<mask id="mask9_161_6844" style="mask-type:luminance" maskUnits="userSpaceOnUse" x="0" y="0" width="720" height="667">
<path d="M0 667L720 667L720 0L2.99458e-08 -3.23253e-08L0 667Z" fill="white"/>
</mask>
<g mask="url(#mask9_161_6844)">
<path d="M841.5 113.1C841.5 113.1 728 95 540.1 114.9C352.2 134.8 -89.4 121.7 -110.2 110.2C-131 98.7 -116.4 695.7 -116.4 695.7H869L841.5 113.1Z" fill="url(#paint6_linear_161_6844)"/>
</g>
<mask id="mask10_161_6844" style="mask-type:luminance" maskUnits="userSpaceOnUse" x="0" y="0" width="720" height="667">
<path d="M0 667L720 667L720 0L2.99458e-08 -3.23253e-08L0 667Z" fill="white"/>
</mask>
<g mask="url(#mask10_161_6844)">
<path opacity="0.5" d="M551.5 65C562.27 65 571 56.2696 571 45.5C571 34.7304 562.27 26 551.5 26C540.73 26 532 34.7304 532 45.5C532 56.2696 540.73 65 551.5 65Z" fill="url(#paint7_linear_161_6844)"/>
</g>
<mask id="mask11_161_6844" style="mask-type:luminance" maskUnits="userSpaceOnUse" x="0" y="0" width="720" height="667">
<path d="M0 667L720 667L720 0L2.99458e-08 -3.23253e-08L0 667Z" fill="white"/>
</mask>
<g mask="url(#mask11_161_6844)">
<path opacity="0.2" d="M557.5 60C568.27 60 577 51.2696 577 40.5C577 29.7304 568.27 21 557.5 21C546.73 21 538 29.7304 538 40.5C538 51.2696 546.73 60 557.5 60Z" fill="url(#paint8_linear_161_6844)"/>
</g>
<mask id="mask12_161_6844" style="mask-type:luminance" maskUnits="userSpaceOnUse" x="0" y="0" width="720" height="667">
<path d="M0 667L720 667L720 0L2.99458e-08 -3.23253e-08L0 667Z" fill="white"/>
</mask>
<g mask="url(#mask12_161_6844)">
<path d="M553.5 61C562.06 61 569 54.0604 569 45.5C569 36.9396 562.06 30 553.5 30C544.94 30 538 36.9396 538 45.5C538 54.0604 544.94 61 553.5 61Z" fill="#FB624D"/>
</g>
<mask id="mask13_161_6844" style="mask-type:luminance" maskUnits="userSpaceOnUse" x="0" y="0" width="720" height="667">
<path d="M0 667L720 667L720 0L2.99458e-08 -3.23253e-08L0 667Z" fill="white"/>
</mask>
<g mask="url(#mask13_161_6844)">
<path opacity="0.5" d="M439.5 63.5C441.985 63.5 444 61.4853 444 59C444 56.5147 441.985 54.5 439.5 54.5C437.015 54.5 435 56.5147 435 59C435 61.4853 437.015 63.5 439.5 63.5Z" fill="#FB624D"/>
</g>
<mask id="mask14_161_6844" style="mask-type:luminance" maskUnits="userSpaceOnUse" x="0" y="0" width="720" height="667">
<path d="M0 667L720 667L720 0L2.99458e-08 -3.23253e-08L0 667Z" fill="white"/>
</mask>
<g mask="url(#mask14_161_6844)">
<path d="M441.3 61.7C442.791 61.7 444 60.4912 444 59C444 57.5088 442.791 56.3 441.3 56.3C439.809 56.3 438.6 57.5088 438.6 59C438.6 60.4912 439.809 61.7 441.3 61.7Z" fill="#FB624D"/>
</g>
<mask id="mask15_161_6844" style="mask-type:luminance" maskUnits="userSpaceOnUse" x="0" y="0" width="720" height="667">
<path d="M0 667L720 667L720 0L2.99458e-08 -3.23253e-08L0 667Z" fill="white"/>
</mask>
<g mask="url(#mask15_161_6844)">
<path opacity="0.5" d="M427 53.5C428.105 53.5 429 52.6046 429 51.5C429 50.3954 428.105 49.5 427 49.5C425.895 49.5 425 50.3954 425 51.5C425 52.6046 425.895 53.5 427 53.5Z" fill="#FB977A"/>
</g>
<mask id="mask16_161_6844" style="mask-type:luminance" maskUnits="userSpaceOnUse" x="0" y="0" width="720" height="667">
<path d="M0 667L720 667L720 0L2.99458e-08 -3.23253e-08L0 667Z" fill="white"/>
</mask>
<g mask="url(#mask16_161_6844)">
<path d="M427.1 52.7C427.763 52.7 428.3 52.1627 428.3 51.5C428.3 50.8372 427.763 50.3 427.1 50.3C426.437 50.3 425.9 50.8372 425.9 51.5C425.9 52.1627 426.437 52.7 427.1 52.7Z" fill="#FB977A"/>
</g>
<mask id="mask17_161_6844" style="mask-type:luminance" maskUnits="userSpaceOnUse" x="0" y="0" width="720" height="667">
<path d="M0 667L720 667L720 0L2.99458e-08 -3.23253e-08L0 667Z" fill="white"/>
</mask>
<g mask="url(#mask17_161_6844)">
<path opacity="0.5" d="M368.3 23C371.172 23 373.5 20.6719 373.5 17.8C373.5 14.9281 371.172 12.6 368.3 12.6C365.428 12.6 363.1 14.9281 363.1 17.8C363.1 20.6719 365.428 23 368.3 23Z" fill="#FB624D"/>
</g>
<mask id="mask18_161_6844" style="mask-type:luminance" maskUnits="userSpaceOnUse" x="0" y="0" width="720" height="667">
<path d="M0 667L720 667L720 0L2.99458e-08 -3.23253e-08L0 667Z" fill="white"/>
</mask>
<g mask="url(#mask18_161_6844)">
<path d="M369.5 19.3C371.267 19.3 372.7 17.8673 372.7 16.1C372.7 14.3327 371.267 12.9 369.5 12.9C367.733 12.9 366.3 14.3327 366.3 16.1C366.3 17.8673 367.733 19.3 369.5 19.3Z" fill="#FB624D"/>
</g>
<mask id="mask19_161_6844" style="mask-type:luminance" maskUnits="userSpaceOnUse" x="0" y="0" width="720" height="667">
<path d="M0 667L720 667L720 0L2.99458e-08 -3.23253e-08L0 667Z" fill="white"/>
</mask>
<g mask="url(#mask19_161_6844)">
<path opacity="0.5" d="M325.8 28.6C327.125 28.6 328.2 27.5255 328.2 26.2C328.2 24.8745 327.125 23.8 325.8 23.8C324.474 23.8 323.4 24.8745 323.4 26.2C323.4 27.5255 324.474 28.6 325.8 28.6Z" fill="#FB977A"/>
</g>
<mask id="mask20_161_6844" style="mask-type:luminance" maskUnits="userSpaceOnUse" x="0" y="0" width="720" height="667">
<path d="M0 667L720 667L720 0L2.99458e-08 -3.23253e-08L0 667Z" fill="white"/>
</mask>
<g mask="url(#mask20_161_6844)">
<path d="M325.8 27.6C326.573 27.6 327.2 26.9732 327.2 26.2C327.2 25.4268 326.573 24.8 325.8 24.8C325.027 24.8 324.4 25.4268 324.4 26.2C324.4 26.9732 325.027 27.6 325.8 27.6Z" fill="#FB977A"/>
</g>
<mask id="mask21_161_6844" style="mask-type:luminance" maskUnits="userSpaceOnUse" x="0" y="0" width="720" height="667">
<path d="M0 667L720 667L720 0L2.99458e-08 -3.23253e-08L0 667Z" fill="white"/>
</mask>
<g mask="url(#mask21_161_6844)">
<path opacity="0.5" d="M507.9 32.5C509.281 32.5 510.4 31.3807 510.4 30C510.4 28.6193 509.281 27.5 507.9 27.5C506.519 27.5 505.4 28.6193 505.4 30C505.4 31.3807 506.519 32.5 507.9 32.5Z" fill="#FB624D"/>
</g>
<mask id="mask22_161_6844" style="mask-type:luminance" maskUnits="userSpaceOnUse" x="0" y="0" width="720" height="667">
<path d="M0 667L720 667L720 0L2.99458e-08 -3.23253e-08L0 667Z" fill="white"/>
</mask>
<g mask="url(#mask22_161_6844)">
<path opacity="0.5" d="M506.9 34.5C508.833 34.5 510.4 32.933 510.4 31C510.4 29.067 508.833 27.5 506.9 27.5C504.967 27.5 503.4 29.067 503.4 31C503.4 32.933 504.967 34.5 506.9 34.5Z" fill="#FB624D"/>
</g>
<mask id="mask23_161_6844" style="mask-type:luminance" maskUnits="userSpaceOnUse" x="0" y="0" width="720" height="667">
<path d="M0 667L720 667L720 0L2.99458e-08 -3.23253e-08L0 667Z" fill="white"/>
</mask>
<g mask="url(#mask23_161_6844)">
<path d="M507.3 32.3C508.128 32.3 508.8 31.6284 508.8 30.8C508.8 29.9716 508.128 29.3 507.3 29.3C506.472 29.3 505.8 29.9716 505.8 30.8C505.8 31.6284 506.472 32.3 507.3 32.3Z" fill="#FB624D"/>
</g>
<mask id="mask24_161_6844" style="mask-type:luminance" maskUnits="userSpaceOnUse" x="0" y="0" width="720" height="667">
<path d="M0 667L720 667L720 0L2.99458e-08 -3.23253e-08L0 667Z" fill="white"/>
</mask>
<g mask="url(#mask24_161_6844)">
<path opacity="0.5" d="M523.4 22.7C524.504 22.7 525.4 21.8046 525.4 20.7C525.4 19.5954 524.504 18.7 523.4 18.7C522.295 18.7 521.4 19.5954 521.4 20.7C521.4 21.8046 522.295 22.7 523.4 22.7Z" fill="#FB977A"/>
</g>
<mask id="mask25_161_6844" style="mask-type:luminance" maskUnits="userSpaceOnUse" x="0" y="0" width="720" height="667">
<path d="M0 667L720 667L720 0L2.99458e-08 -3.23253e-08L0 667Z" fill="white"/>
</mask>
<g mask="url(#mask25_161_6844)">
<path d="M523.5 21.9C524.163 21.9 524.7 21.3627 524.7 20.7C524.7 20.0373 524.163 19.5 523.5 19.5C522.837 19.5 522.3 20.0373 522.3 20.7C522.3 21.3627 522.837 21.9 523.5 21.9Z" fill="#FB977A"/>
</g>
<mask id="mask26_161_6844" style="mask-type:luminance" maskUnits="userSpaceOnUse" x="0" y="0" width="720" height="667">
<path d="M0 667L720 667L720 0L2.99458e-08 -3.23253e-08L0 667Z" fill="white"/>
</mask>
<g mask="url(#mask26_161_6844)">
<path opacity="0.5" d="M235.8 65.3C236.905 65.3 237.8 64.4046 237.8 63.3C237.8 62.1954 236.905 61.3 235.8 61.3C234.695 61.3 233.8 62.1954 233.8 63.3C233.8 64.4046 234.695 65.3 235.8 65.3Z" fill="#FB977A"/>
</g>
<mask id="mask27_161_6844" style="mask-type:luminance" maskUnits="userSpaceOnUse" x="0" y="0" width="720" height="667">
<path d="M0 667L720 667L720 0L2.99458e-08 -3.23253e-08L0 667Z" fill="white"/>
</mask>
<g mask="url(#mask27_161_6844)">
<path d="M235.8 64.5C236.463 64.5 237 63.9627 237 63.3C237 62.6373 236.463 62.1 235.8 62.1C235.137 62.1 234.6 62.6373 234.6 63.3C234.6 63.9627 235.137 64.5 235.8 64.5Z" fill="#FB977A"/>
</g>
<mask id="mask28_161_6844" style="mask-type:luminance" maskUnits="userSpaceOnUse" x="0" y="0" width="720" height="667">
<path d="M0 667L720 667L720 0L2.99458e-08 -3.23253e-08L0 667Z" fill="white"/>
</mask>
<g mask="url(#mask28_161_6844)">
<path opacity="0.5" d="M200.8 23.4C201.905 23.4 202.8 22.5046 202.8 21.4C202.8 20.2954 201.905 19.4 200.8 19.4C199.695 19.4 198.8 20.2954 198.8 21.4C198.8 22.5046 199.695 23.4 200.8 23.4Z" fill="#E3CCA8"/>
</g>
<mask id="mask29_161_6844" style="mask-type:luminance" maskUnits="userSpaceOnUse" x="0" y="0" width="720" height="667">
<path d="M0 667L720 667L720 0L2.99458e-08 -3.23253e-08L0 667Z" fill="white"/>
</mask>
<g mask="url(#mask29_161_6844)">
<path d="M200.8 22.6C201.463 22.6 202 22.0628 202 21.4C202 20.7373 201.463 20.2 200.8 20.2C200.137 20.2 199.6 20.7373 199.6 21.4C199.6 22.0628 200.137 22.6 200.8 22.6Z" fill="#E3CCA8"/>
</g>
<mask id="mask30_161_6844" style="mask-type:luminance" maskUnits="userSpaceOnUse" x="0" y="0" width="720" height="667">
<path d="M0 667L720 667L720 0L2.99458e-08 -3.23253e-08L0 667Z" fill="white"/>
</mask>
<g mask="url(#mask30_161_6844)">
<path opacity="0.5" d="M190.3 17.1C192.288 17.1 193.9 15.4882 193.9 13.5C193.9 11.5118 192.288 9.89999 190.3 9.89999C188.312 9.89999 186.7 11.5118 186.7 13.5C186.7 15.4882 188.312 17.1 190.3 17.1Z" fill="#E3CCA8"/>
</g>
<mask id="mask31_161_6844" style="mask-type:luminance" maskUnits="userSpaceOnUse" x="0" y="0" width="720" height="667">
<path d="M0 667L720 667L720 0L2.99458e-08 -3.23253e-08L0 667Z" fill="white"/>
</mask>
<g mask="url(#mask31_161_6844)">
<path d="M190.3 15.7C191.515 15.7 192.5 14.715 192.5 13.5C192.5 12.285 191.515 11.3 190.3 11.3C189.085 11.3 188.1 12.285 188.1 13.5C188.1 14.715 189.085 15.7 190.3 15.7Z" fill="#E3CCA8"/>
</g>
<mask id="mask32_161_6844" style="mask-type:luminance" maskUnits="userSpaceOnUse" x="0" y="0" width="720" height="667">
<path d="M0 667L720 667L720 0L2.99458e-08 -3.23253e-08L0 667Z" fill="white"/>
</mask>
<g mask="url(#mask32_161_6844)">
<path opacity="0.5" d="M576.5 57.7C577.328 57.7 578 57.0284 578 56.2C578 55.3716 577.328 54.7 576.5 54.7C575.672 54.7 575 55.3716 575 56.2C575 57.0284 575.672 57.7 576.5 57.7Z" fill="#FBC99D"/>
</g>
<mask id="mask33_161_6844" style="mask-type:luminance" maskUnits="userSpaceOnUse" x="0" y="0" width="720" height="667">
<path d="M0 667L720 667L720 0L2.99458e-08 -3.23253e-08L0 667Z" fill="white"/>
</mask>
<g mask="url(#mask33_161_6844)">
<path d="M576.5 57.1C576.997 57.1 577.4 56.697 577.4 56.2C577.4 55.7029 576.997 55.3 576.5 55.3C576.003 55.3 575.6 55.7029 575.6 56.2C575.6 56.697 576.003 57.1 576.5 57.1Z" fill="#FBC99D"/>
</g>
<mask id="mask34_161_6844" style="mask-type:luminance" maskUnits="userSpaceOnUse" x="0" y="0" width="720" height="667">
<path d="M0 667L720 667L720 0L2.99458e-08 -3.23253e-08L0 667Z" fill="white"/>
</mask>
<g mask="url(#mask34_161_6844)">
<path opacity="0.7" d="M515.7 145.4C516.528 145.4 517.2 144.728 517.2 143.9C517.2 143.072 516.528 142.4 515.7 142.4C514.872 142.4 514.2 143.072 514.2 143.9C514.2 144.728 514.872 145.4 515.7 145.4Z" fill="url(#paint9_radial_161_6844)"/>
</g>
<mask id="mask35_161_6844" style="mask-type:luminance" maskUnits="userSpaceOnUse" x="0" y="0" width="720" height="667">
<path d="M0 667L720 667L720 0L2.99458e-08 -3.23253e-08L0 667Z" fill="white"/>
</mask>
<g mask="url(#mask35_161_6844)">
<path opacity="0.7" d="M515.7 144.8C516.197 144.8 516.6 144.397 516.6 143.9C516.6 143.403 516.197 143 515.7 143C515.203 143 514.8 143.403 514.8 143.9C514.8 144.397 515.203 144.8 515.7 144.8Z" fill="url(#paint10_radial_161_6844)"/>
</g>
<mask id="mask36_161_6844" style="mask-type:luminance" maskUnits="userSpaceOnUse" x="0" y="0" width="720" height="667">
<path d="M0 667L720 667L720 0L2.99458e-08 -3.23253e-08L0 667Z" fill="white"/>
</mask>
<g mask="url(#mask36_161_6844)">
<path opacity="0.5" d="M446.3 163C447.405 163 448.3 162.105 448.3 161C448.3 159.895 447.405 159 446.3 159C445.195 159 444.3 159.895 444.3 161C444.3 162.105 445.195 163 446.3 163Z" fill="url(#paint11_radial_161_6844)"/>
</g>
<mask id="mask37_161_6844" style="mask-type:luminance" maskUnits="userSpaceOnUse" x="0" y="0" width="720" height="667">
<path d="M0 667L720 667L720 0L2.99458e-08 -3.23253e-08L0 667Z" fill="white"/>
</mask>
<g mask="url(#mask37_161_6844)">
<path opacity="0.5" d="M446.3 162.2C446.963 162.2 447.5 161.663 447.5 161C447.5 160.337 446.963 159.8 446.3 159.8C445.637 159.8 445.1 160.337 445.1 161C445.1 161.663 445.637 162.2 446.3 162.2Z" fill="url(#paint12_radial_161_6844)"/>
</g>
<mask id="mask38_161_6844" style="mask-type:luminance" maskUnits="userSpaceOnUse" x="0" y="0" width="720" height="667">
<path d="M0 667L720 667L720 0L2.99458e-08 -3.23253e-08L0 667Z" fill="white"/>
</mask>
<g mask="url(#mask38_161_6844)">
<path opacity="0.5" d="M416.5 152.5C419.924 152.5 422.7 149.724 422.7 146.3C422.7 142.876 419.924 140.1 416.5 140.1C413.076 140.1 410.3 142.876 410.3 146.3C410.3 149.724 413.076 152.5 416.5 152.5Z" fill="url(#paint13_radial_161_6844)"/>
</g>
<mask id="mask39_161_6844" style="mask-type:luminance" maskUnits="userSpaceOnUse" x="0" y="0" width="720" height="667">
<path d="M0 667L720 667L720 0L2.99458e-08 -3.23253e-08L0 667Z" fill="white"/>
</mask>
<g mask="url(#mask39_161_6844)">
<path opacity="0.5" d="M416.6 150.1C418.699 150.1 420.4 148.399 420.4 146.3C420.4 144.201 418.699 142.5 416.6 142.5C414.501 142.5 412.8 144.201 412.8 146.3C412.8 148.399 414.501 150.1 416.6 150.1Z" fill="url(#paint14_radial_161_6844)"/>
</g>
<mask id="mask40_161_6844" style="mask-type:luminance" maskUnits="userSpaceOnUse" x="0" y="0" width="720" height="667">
<path d="M0 667L720 667L720 0L2.99458e-08 -3.23253e-08L0 667Z" fill="white"/>
</mask>
<g mask="url(#mask40_161_6844)">
<path opacity="0.2" d="M882 280.9C869.1 280.9 769.4 260.2 625.2 262C520.2 263.3 280.7 287.4 183.8 280.7C86.9 274 -24.2 256.8 -32.1 234.6C-40 212.4 -32.1 764.7 -32.1 764.7H888.4L882 280.9Z" fill="url(#paint15_linear_161_6844)"/>
</g>
<mask id="mask41_161_6844" style="mask-type:luminance" maskUnits="userSpaceOnUse" x="0" y="0" width="720" height="667">
<path d="M0 667L720 667L720 0L2.99458e-08 -3.23253e-08L0 667Z" fill="white"/>
</mask>
<g mask="url(#mask41_161_6844)">
<path d="M896.6 420.2C896.6 420.2 685.1 390.9 469.7 434.8C254.3 478.7 -32 459.5 -32 459.5V807.8H887.9L896.6 420.2Z" fill="url(#paint16_linear_161_6844)"/>
</g>
<mask id="mask42_161_6844" style="mask-type:luminance" maskUnits="userSpaceOnUse" x="0" y="0" width="720" height="667">
<path d="M0 667L720 667L720 0L2.99458e-08 -3.23253e-08L0 667Z" fill="white"/>
</mask>
<g mask="url(#mask42_161_6844)">
<path opacity="0.2" d="M805.6 300.2C805.6 300.2 589 302.6 377.4 378.3C165.8 454 -124.9 477.5 -124.9 477.5L-81.5999 823.2L845 686.2L805.6 300.2Z" fill="url(#paint17_linear_161_6844)"/>
</g>
<mask id="mask43_161_6844" style="mask-type:luminance" maskUnits="userSpaceOnUse" x="0" y="0" width="720" height="667">
<path d="M0 667L720 667L720 0L2.99458e-08 -3.23253e-08L0 667Z" fill="white"/>
</mask>
<g mask="url(#mask43_161_6844)">
<path opacity="0.5" d="M500.9 126.2C500.8 125.2 499.8 124.6 498.8 124.8C492.5 126.1 467.8 129.5 454 129.5C439 129.5 443.2 132.4 451.1 135.5C459 138.5 463 135.5 460 140.5C457 145.5 456 142.5 457 153.5C458 164.5 454 679.1 454 679.1L496 681.1C496 681.1 492 153.5 491 149.5C490 145.5 503 145.5 500 139.5C497 133.5 483 134.5 487 132.5C491 130.5 498 130.5 500 128.5C500.8 127.7 501 126.9 500.9 126.2Z" fill="url(#paint18_linear_161_6844)"/>
</g>
<mask id="mask44_161_6844" style="mask-type:luminance" maskUnits="userSpaceOnUse" x="0" y="0" width="720" height="667">
<path d="M0 667L720 667L720 0L2.99458e-08 -3.23253e-08L0 667Z" fill="white"/>
</mask>
<g mask="url(#mask44_161_6844)">
<path opacity="0.5" d="M495.2 129.1C496.4 127.9 495.2 125.9 493.6 126.2C487.6 127.4 468.3 129.9 457.3 129.9C445 129.9 448.4 132.3 454.9 134.8C461.4 137.3 464.7 134.8 462.2 139C459.7 143.1 458.9 140.6 459.7 149.7C460.5 158.8 457.2 424 457.2 424L491.8 425.6C491.8 425.6 488.5 149.7 487.7 146.4C486.9 143.1 497.6 143.1 495.1 138.2C492.6 133.3 481.1 134.1 484.4 132.4C487.7 130.7 493.5 130.8 495.2 129.1Z" fill="url(#paint19_linear_161_6844)"/>
</g>
<mask id="mask45_161_6844" style="mask-type:luminance" maskUnits="userSpaceOnUse" x="0" y="0" width="720" height="667">
<path d="M0 667L720 667L720 0L2.99458e-08 -3.23253e-08L0 667Z" fill="white"/>
</mask>
<g mask="url(#mask45_161_6844)">
<path opacity="0.2" d="M414.3 156.4L-38.3001 605.5H-261.1L179.1 165.3C186.4 163.2 375.9 165.3 414.3 156.4Z" fill="url(#paint20_linear_161_6844)"/>
</g>
<mask id="mask46_161_6844" style="mask-type:luminance" maskUnits="userSpaceOnUse" x="0" y="0" width="720" height="667">
<path d="M0 667L720 667L720 0L2.99458e-08 -3.23253e-08L0 667Z" fill="white"/>
</mask>
<g mask="url(#mask46_161_6844)">
<path opacity="0.2" d="M416.2 205.5L-27.9 655.1H-133.2L313.9 207.9L416.2 205.5Z" fill="url(#paint21_linear_161_6844)"/>
</g>
<mask id="mask47_161_6844" style="mask-type:luminance" maskUnits="userSpaceOnUse" x="0" y="0" width="720" height="667">
<path d="M0 667L720 667L720 0L2.99458e-08 -3.23253e-08L0 667Z" fill="white"/>
</mask>
<g mask="url(#mask47_161_6844)">
<path opacity="0.2" d="M864.6 179.2L417.9 625.9H245.3L692.5 178.7C722.3 169.1 825.7 171.5 864.6 179.2Z" fill="url(#paint22_linear_161_6844)"/>
</g>
<path opacity="0.5" d="M319.4 388.7L317.4 371.3C317.2 369.7 314.9 369.7 314.7 371.3L312.2 388.6C312.1 389.2 311.6 389.7 311 389.8L293.6 391.8C292 392 292 394.3 293.6 394.5L310.9 397C311.5 397.1 312 397.6 312.1 398.2L314.1 415.6C314.3 417.2 316.6 417.2 316.8 415.6L319.3 398.3C319.4 397.7 319.9 397.2 320.5 397.1L337.9 395.1C339.5 394.9 339.5 392.6 337.9 392.4L320.6 389.9C319.9 389.8 319.4 389.3 319.4 388.7Z" fill="#FB624D"/>
<path opacity="0.2" d="M646.4 579.4L645.4 570.6C645.3 569.8 644.1 569.8 644 570.6L642.8 579.4C642.8 579.7 642.5 580 642.2 580L633.4 581C632.6 581.1 632.6 582.3 633.4 582.4L642.2 583.6C642.5 583.6 642.8 583.9 642.8 584.2L643.8 593C643.9 593.8 645.1 593.8 645.2 593L646.4 584.2C646.4 583.9 646.7 583.6 647 583.6L655.8 582.6C656.6 582.5 656.6 581.3 655.8 581.2L647 580C646.7 579.9 646.4 579.7 646.4 579.4Z" fill="#FB624D"/>
<path opacity="0.7" d="M605.1 200L603.6 186.9C603.5 185.7 601.7 185.7 601.5 186.9L599.6 200C599.5 200.5 599.2 200.8 598.7 200.9L585.6 202.4C584.4 202.5 584.4 204.3 585.6 204.5L598.7 206.4C599.2 206.5 599.5 206.8 599.6 207.3L601.1 220.4C601.2 221.6 603 221.6 603.2 220.4L605.1 207.3C605.2 206.8 605.5 206.5 606 206.4L619.1 204.9C620.3 204.8 620.3 203 619.1 202.8L606 200.9C605.5 200.8 605.1 200.5 605.1 200Z" fill="#FB624D"/>
<path opacity="0.3" d="M174.3 502.9L173.1 491.8C173 490.8 171.5 490.7 171.4 491.8L169.8 502.8C169.7 503.2 169.4 503.5 169 503.6L157.9 504.8C156.9 504.9 156.8 506.4 157.9 506.5L168.9 508.1C169.3 508.2 169.6 508.5 169.7 508.9L170.9 520C171 521 172.5 521.1 172.6 520L174.2 509C174.3 508.6 174.6 508.3 175 508.2L186 507C187 506.9 187.1 505.4 186 505.3L175 503.7C174.6 503.6 174.3 503.3 174.3 502.9Z" fill="#FB624D"/>
<path opacity="0.7" d="M694.5 482.7L693.7 475.4C693.6 474.7 692.6 474.7 692.5 475.4L691.5 482.7C691.5 483 691.3 483.2 691 483.2L683.7 484C683 484.1 683 485.1 683.7 485.2L691 486.2C691.3 486.2 691.5 486.4 691.5 486.7L692.3 494C692.4 494.7 693.4 494.7 693.5 494L694.5 486.7C694.5 486.4 694.7 486.2 695 486.2L702.3 485.4C703 485.3 703 484.3 702.3 484.2L695 483.2C694.7 483.1 694.5 482.9 694.5 482.7Z" fill="#FB624D"/>
<path opacity="0.2" d="M214.9 547.3L212.4 525.5C212.2 523.5 209.2 523.4 209 525.5L205.9 547.2C205.8 548 205.2 548.6 204.4 548.7L182.6 551.2C180.6 551.4 180.5 554.4 182.6 554.6L204.3 557.7C205.1 557.8 205.7 558.4 205.8 559.2L208.3 581C208.5 583 211.5 583.1 211.7 581L214.8 559.3C214.9 558.5 215.5 557.9 216.3 557.8L238.1 555.3C240.1 555.1 240.2 552.1 238.1 551.9L216.4 548.8C215.6 548.7 214.9 548.1 214.9 547.3Z" fill="#FB624D"/>
<path opacity="0.5" d="M504.4 164.1L503.9 159.4C503.9 159 503.2 159 503.2 159.4L502.5 164.1C502.5 164.3 502.3 164.4 502.2 164.4L497.5 164.9C497.1 164.9 497.1 165.6 497.5 165.6L502.2 166.3C502.4 166.3 502.5 166.5 502.5 166.6L503 171.3C503 171.7 503.7 171.7 503.7 171.3L504.4 166.6C504.4 166.4 504.6 166.3 504.7 166.3L509.4 165.8C509.8 165.8 509.8 165.1 509.4 165.1L504.7 164.4C504.6 164.4 504.4 164.2 504.4 164.1Z" fill="#FB624D"/>
<path opacity="0.5" d="M124.6 151.4L124.1 146.7C124.1 146.3 123.4 146.3 123.4 146.7L122.7 151.4C122.7 151.6 122.5 151.7 122.4 151.7L117.7 152.2C117.3 152.2 117.3 152.9 117.7 152.9L122.4 153.6C122.6 153.6 122.7 153.8 122.7 153.9L123.2 158.6C123.2 159 123.9 159 123.9 158.6L124.6 153.9C124.6 153.7 124.8 153.6 124.9 153.6L129.6 153.1C130 153.1 130 152.4 129.6 152.4L124.9 151.7C124.8 151.7 124.7 151.6 124.6 151.4Z" fill="#FB624D"/>
<path d="M0 0H720V667H0V0Z" fill="black" fill-opacity="0.5"/>
</g>
<defs>
<radialGradient id="paint0_radial_161_6844" cx="0" cy="0" r="1" gradientUnits="userSpaceOnUse" gradientTransform="translate(315.798 74.7577) rotate(180) scale(658.876 315.508)">
<stop stop-color="#385159"/>
<stop offset="1" stop-color="#1D1D1F"/>
</radialGradient>
<linearGradient id="paint1_linear_161_6844" x1="-54.8086" y1="66.1077" x2="611.846" y2="66.1077" gradientUnits="userSpaceOnUse">
<stop stop-color="#1D1D1F"/>
<stop offset="1" stop-color="#385159"/>
</linearGradient>
<linearGradient id="paint2_linear_161_6844" x1="248.928" y1="216.733" x2="216.676" y2="86.8995" gradientUnits="userSpaceOnUse">
<stop/>
<stop offset="1" stop-color="#76898A"/>
</linearGradient>
<linearGradient id="paint3_linear_161_6844" x1="761.595" y1="53.0909" x2="664.999" y2="64.4158" gradientUnits="userSpaceOnUse">
<stop stop-color="#28363E"/>
<stop offset="1" stop-color="#435B5C"/>
</linearGradient>
<linearGradient id="paint4_linear_161_6844" x1="419.249" y1="88.6923" x2="790.69" y2="88.6923" gradientUnits="userSpaceOnUse">
<stop stop-color="#1D1D1F"/>
<stop offset="1" stop-color="#385159"/>
</linearGradient>
<linearGradient id="paint5_linear_161_6844" x1="253.887" y1="100.243" x2="253.887" y2="183.06" gradientUnits="userSpaceOnUse">
<stop stop-color="#1D1D1F"/>
<stop offset="0.3381" stop-color="#262F33"/>
<stop offset="1" stop-color="#385159"/>
</linearGradient>
<linearGradient id="paint6_linear_161_6844" x1="373.86" y1="83.4882" x2="373.86" y2="966.421" gradientUnits="userSpaceOnUse">
<stop stop-color="#1D1D1F"/>
<stop offset="1" stop-color="#1D1D1F"/>
</linearGradient>
<linearGradient id="paint7_linear_161_6844" x1="583.891" y1="88.6759" x2="490.163" y2="-36.2939" gradientUnits="userSpaceOnUse">
<stop stop-color="#FB624D"/>
<stop offset="1" stop-color="#1D1D4F"/>
</linearGradient>
<linearGradient id="paint8_linear_161_6844" x1="589.891" y1="83.6759" x2="496.163" y2="-41.2939" gradientUnits="userSpaceOnUse">
<stop stop-color="#FB624D"/>
<stop offset="1" stop-color="#1D1D4F"/>
</linearGradient>
<radialGradient id="paint9_radial_161_6844" cx="0" cy="0" r="1" gradientUnits="userSpaceOnUse" gradientTransform="translate(515.651 143.857) rotate(180) scale(1.5018)">
<stop stop-color="#FB624D"/>
<stop offset="1" stop-color="#1D1D4F" stop-opacity="0.7"/>
</radialGradient>
<radialGradient id="paint10_radial_161_6844" cx="0" cy="0" r="1" gradientUnits="userSpaceOnUse" gradientTransform="translate(515.668 143.857) rotate(180) scale(0.911694 0.911702)">
<stop stop-color="#FB624D"/>
<stop offset="1" stop-color="#1D1D4F" stop-opacity="0.7"/>
</radialGradient>
<radialGradient id="paint11_radial_161_6844" cx="0" cy="0" r="1" gradientUnits="userSpaceOnUse" gradientTransform="translate(446.293 160.974) rotate(180) scale(2.018)">
<stop stop-color="#FB624D"/>
<stop offset="1" stop-color="#1D1D4F"/>
</radialGradient>
<radialGradient id="paint12_radial_161_6844" cx="0" cy="0" r="1" gradientUnits="userSpaceOnUse" gradientTransform="translate(446.315 160.974) rotate(180) scale(1.2252)">
<stop stop-color="#FB624D"/>
<stop offset="1" stop-color="#1D1D4F"/>
</radialGradient>
<radialGradient id="paint13_radial_161_6844" cx="0" cy="0" r="1" gradientUnits="userSpaceOnUse" gradientTransform="translate(416.545 146.291) rotate(180) scale(6.18481 6.1848)">
<stop stop-color="#FB624D"/>
<stop offset="1" stop-color="#1D1D4F"/>
</radialGradient>
<radialGradient id="paint14_radial_161_6844" cx="0" cy="0" r="1" gradientUnits="userSpaceOnUse" gradientTransform="translate(416.613 146.291) rotate(180) scale(3.7548)">
<stop stop-color="#FB624D"/>
<stop offset="1" stop-color="#1D1D4F"/>
</radialGradient>
<linearGradient id="paint15_linear_161_6844" x1="426.761" y1="507.448" x2="429.808" y2="155.072" gradientUnits="userSpaceOnUse">
<stop stop-color="#1D1D1F"/>
<stop offset="1" stop-color="#31394A"/>
</linearGradient>
<linearGradient id="paint16_linear_161_6844" x1="462.341" y1="820.202" x2="337.2" y2="-37.7662" gradientUnits="userSpaceOnUse">
<stop stop-color="#1D1D1F"/>
<stop offset="1" stop-color="#31394A"/>
</linearGradient>
<linearGradient id="paint17_linear_161_6844" x1="419.655" y1="758.337" x2="184.469" y2="-59.7021" gradientUnits="userSpaceOnUse">
<stop stop-color="#1D1D1F"/>
<stop offset="1" stop-color="#31394A"/>
</linearGradient>
<linearGradient id="paint18_linear_161_6844" x1="472.43" y1="-108.179" x2="472.43" y2="472.15" gradientUnits="userSpaceOnUse">
<stop stop-color="#FB624D"/>
<stop offset="1" stop-color="#1D1D1F"/>
</linearGradient>
<linearGradient id="paint19_linear_161_6844" x1="472.321" y1="-55.7634" x2="472.321" y2="657.379" gradientUnits="userSpaceOnUse">
<stop stop-color="#FB624D"/>
<stop offset="0.6288" stop-color="#1D1D1F"/>
</linearGradient>
<linearGradient id="paint20_linear_161_6844" x1="334.312" y1="122.395" x2="-132.017" y2="590.204" gradientUnits="userSpaceOnUse">
<stop stop-color="#FB624D"/>
<stop offset="1" stop-color="#1D1D1F"/>
</linearGradient>
<linearGradient id="paint21_linear_161_6844" x1="418.472" y1="114.11" x2="194.92" y2="369.297" gradientUnits="userSpaceOnUse">
<stop stop-color="#FB624D"/>
<stop offset="1" stop-color="#1D1D1F"/>
</linearGradient>
<linearGradient id="paint22_linear_161_6844" x1="836.077" y1="107.143" x2="480.502" y2="480.744" gradientUnits="userSpaceOnUse">
<stop stop-color="#1FAAFF"/>
<stop offset="1" stop-color="#1D1D1F"/>
</linearGradient>
<clipPath id="clip0_161_6844">
<rect width="720" height="667" fill="white"/>
</clipPath>
</defs>
</svg>
