<svg width="96" height="38" viewBox="0 0 96 38" fill="none" xmlns="http://www.w3.org/2000/svg">
<path d="M20.7488 2.12C20.6688 1.77333 20.6688 1.45333 20.7488 1.16C20.9621 1.02666 21.2154 0.919999 21.5088 0.84C21.8288 0.759999 22.0954 0.706666 22.3088 0.679999C22.6288 0.759998 23.0021 0.879998 23.4288 1.04C23.8554 1.17333 24.2821 1.36 24.7088 1.6C25.1621 1.81333 25.6021 2.05333 26.0288 2.32C26.4554 2.58667 26.8421 2.85333 27.1888 3.12C27.4821 3.54666 27.6554 4.05333 27.7088 4.64C27.6554 5.04 27.6021 5.50667 27.5488 6.04C27.5221 6.54667 27.5088 7 27.5088 7.4C27.5088 8.04 27.4954 8.85333 27.4688 9.84C27.4421 10.8267 27.4154 11.84 27.3888 12.88C27.3621 13.8933 27.3221 14.8667 27.2688 15.8C27.2421 16.7067 27.2021 17.4 27.1488 17.88C27.0954 18.2533 26.9488 18.6933 26.7088 19.2C26.4954 19.7067 26.2154 20.1733 25.8688 20.6C25.5221 21.0533 25.1354 21.44 24.7088 21.76C24.2821 22.0533 23.8954 22.2667 23.5488 22.4C23.5221 22.4267 23.4688 22.44 23.3888 22.44C24.2421 22.7867 25.0021 23.1733 25.6688 23.6C26.0154 24.1333 26.1621 24.7067 26.1088 25.32C25.7888 26.0133 25.4421 26.7067 25.0688 27.4C24.6954 28.0667 24.3088 28.7467 23.9088 29.44C24.8688 29.76 25.8154 30.16 26.7488 30.64C27.6821 31.12 28.4954 31.6533 29.1888 32.24C29.4021 32.6933 29.5754 33.1733 29.7088 33.68C29.8421 34.2133 29.9088 34.7467 29.9088 35.28C29.8288 35.6 29.6954 35.8533 29.5088 36.04C29.3221 36.2533 29.1221 36.4533 28.9088 36.64C28.4288 36.6933 27.9221 36.6933 27.3888 36.64C26.8821 36.6133 26.4021 36.52 25.9488 36.36C25.2821 35.6667 24.6554 34.9067 24.0688 34.08C23.5088 33.2533 23.0154 32.3867 22.5888 31.48C21.9754 32.3867 21.3621 33.24 20.7488 34.04C20.1621 34.84 19.5621 35.56 18.9488 36.2C18.4154 36.5467 17.8554 36.8267 17.2688 37.04C16.6821 37.28 16.1221 37.4267 15.5888 37.48C15.1354 37.2133 14.8288 36.88 14.6688 36.48C14.7754 36.1867 14.9088 35.84 15.0688 35.44C15.2554 35.04 15.4554 34.68 15.6688 34.36C16.7888 32.8133 17.7488 31.2 18.5488 29.52C19.3754 27.8133 20.0154 26.16 20.4688 24.56C20.3621 24.2933 20.2154 24.04 20.0288 23.8C19.8688 23.56 19.7088 23.3333 19.5488 23.12C19.4688 22.8267 19.4821 22.5067 19.5888 22.16C20.0421 21.9467 20.5621 21.8133 21.1488 21.76L21.5088 21.84C21.6421 20.8 21.7354 19.7067 21.7888 18.56C21.8421 17.3867 21.8688 16.2 21.8688 15V12.16C20.2954 12.2933 18.8821 12.5333 17.6288 12.88C16.4021 13.2 15.3221 13.56 14.3888 13.96C13.2954 12.8933 12.5621 11.52 12.1888 9.84L21.8288 9V3.96C21.6154 3.32 21.2554 2.70666 20.7488 2.12ZM8.10875 9.12C8.08208 9.68 8.05542 10.3333 8.02875 11.08C8.02875 11.8267 8.02875 12.5867 8.02875 13.36C8.02875 14.1333 8.02875 14.8933 8.02875 15.64C8.02875 16.3867 8.02875 17.0533 8.02875 17.64C8.90875 17.5067 9.89542 17.36 10.9888 17.2C12.1088 17.04 13.0688 16.8533 13.8688 16.64C14.5354 16.48 15.4154 16.2133 16.5088 15.84C17.6288 15.44 18.7888 14.9867 19.9888 14.48C19.3754 15.4933 18.6154 16.4933 17.7088 17.48C16.8288 18.44 15.8954 19.2133 14.9088 19.8C13.6288 20.3333 12.1754 20.8133 10.5488 21.24C8.92208 21.64 7.26875 21.9867 5.58875 22.28C4.84208 22.0667 4.16208 21.68 3.54875 21.12C2.93542 20.5333 2.49542 19.92 2.22875 19.28L1.98875 9.68C1.88208 9.38667 1.73542 9.08 1.54875 8.76C1.36208 8.44 1.16208 8.13333 0.94875 7.84C0.86875 7.49333 0.86875 7.17333 0.94875 6.88C1.16208 6.74667 1.40208 6.65333 1.66875 6.6C1.93542 6.54667 2.20208 6.50666 2.46875 6.48C3.26875 6.53333 4.08208 6.66667 4.90875 6.88C5.76208 7.09333 6.60208 7.36 7.42875 7.68C7.61542 7.89333 7.76208 8.12 7.86875 8.36C7.97542 8.6 8.05542 8.85333 8.10875 9.12ZM10.3488 27.12C10.0021 27.1467 9.60208 27.2 9.14875 27.28C8.72208 27.3333 8.28208 27.4 7.82875 27.48C7.37542 27.56 6.92208 27.6533 6.46875 27.76C6.01542 27.8667 5.61542 27.9733 5.26875 28.08C4.76208 27.6267 4.34875 27.0933 4.02875 26.48C3.70875 25.8667 3.44208 25.1867 3.22875 24.44C6.80208 24.28 9.84208 23.6933 12.3488 22.68C13.8688 23.2933 14.9621 24.3067 15.6288 25.72C15.5754 26.7333 15.5088 27.84 15.4288 29.04C15.3488 30.2133 15.2821 31.44 15.2288 32.72C15.0421 33.4667 14.8154 34.1867 14.5488 34.88C14.2821 35.6 13.9488 36.2533 13.5488 36.84C13.1754 37.0533 12.7221 37.2 12.1888 37.28C11.6821 37.36 11.2154 37.3733 10.7888 37.32C10.6021 36.7333 10.4821 36.12 10.4288 35.48C10.3754 34.84 10.3354 34.2133 10.3088 33.6L10.3488 27.12ZM43.3613 23.24C42.5879 23.0267 41.9213 22.6667 41.3613 22.16C40.8013 21.6533 40.4013 21.0667 40.1613 20.4L41.8413 14.64C41.5479 14.3733 41.2279 14.0133 40.8813 13.56C40.5346 13.1067 40.2413 12.64 40.0013 12.16C40.0013 11.9467 40.0146 11.72 40.0413 11.48C40.0679 11.24 40.1346 11.0133 40.2413 10.8C41.2546 10.0533 42.3346 9.34666 43.4813 8.68C44.6546 7.98666 45.8413 7.36 47.0413 6.8C48.2413 6.24 49.4279 5.74667 50.6013 5.32C51.8013 4.89333 52.9213 4.53333 53.9613 4.24C54.7079 4.61333 55.4279 5.08 56.1213 5.64C56.8146 6.17333 57.4013 6.70667 57.8813 7.24C58.0413 7.85333 58.0413 8.41333 57.8813 8.92C57.7479 9.13333 57.5746 9.36 57.3613 9.6C57.1479 9.81333 56.9079 10.0267 56.6413 10.24C56.4013 10.4267 56.1613 10.5867 55.9213 10.72C55.7079 10.8533 55.5346 10.9333 55.4013 10.96C53.9613 11.2 52.4146 11.5733 50.7613 12.08C49.1079 12.5867 47.5613 13.1467 46.1213 13.76C46.3079 13.8933 46.4546 14.0933 46.5613 14.36C46.6679 14.6267 46.6946 14.8933 46.6413 15.16L46.2813 18.08C47.4813 17.4667 48.8813 16.9067 50.4812 16.4C52.1079 15.8667 53.7079 15.4933 55.2812 15.28C55.8146 15.4667 56.3479 15.7467 56.8813 16.12C57.4146 16.4933 57.9079 16.88 58.3613 17.28C58.4679 17.7867 58.4679 18.2667 58.3613 18.72C58.2813 18.9067 58.1479 19.1067 57.9613 19.32C57.7746 19.5333 57.5746 19.7333 57.3613 19.92C57.1746 20.1067 56.9879 20.2667 56.8013 20.4C56.6146 20.5067 56.4546 20.56 56.3213 20.56C55.4146 20.64 54.3879 20.76 53.2413 20.92C52.1213 21.0533 50.9746 21.24 49.8013 21.48C48.6279 21.6933 47.4813 21.96 46.3613 22.28C45.2413 22.5733 44.2413 22.8933 43.3613 23.24ZM50.3213 29.32C47.0946 29.72 44.0813 30.3067 41.2813 31.08C38.5079 31.88 35.9746 32.7467 33.6813 33.68C32.9613 33.2267 32.3613 32.5867 31.8813 31.76C31.4013 30.96 31.0413 30.1333 30.8013 29.28C34.4546 28.32 38.0813 27.4667 41.6813 26.72C45.2813 25.9467 48.8679 25.3067 52.4413 24.8C53.8546 24.5867 55.3079 24.4133 56.8013 24.28C58.3213 24.12 59.8546 24.0133 61.4013 23.96C62.0679 24.1467 62.7479 24.48 63.4413 24.96C64.1346 25.4133 64.7079 25.84 65.1613 26.24C65.3213 26.8 65.3213 27.3333 65.1613 27.84C64.8413 28.2933 64.4279 28.7067 63.9213 29.08C63.4146 29.4533 63.0279 29.6133 62.7613 29.56C60.7613 29.1867 58.6546 29 56.4413 29C54.2546 28.9733 52.2146 29.08 50.3213 29.32ZM82.1556 23.36C82.529 23.2533 83.0623 23 83.7556 22.6C84.449 22.1733 85.0756 21.7467 85.6356 21.32C86.1956 20.8667 86.769 20.4 87.3556 19.92C87.969 19.4133 88.5156 18.92 88.9956 18.44C88.3556 20.44 87.609 22.12 86.7556 23.48C86.329 24.1733 85.8223 24.88 85.2356 25.6C84.649 26.2933 84.1423 26.7733 83.7156 27.04C83.0756 27.3867 82.3556 27.72 81.5556 28.04C80.7823 28.36 79.969 28.6667 79.1156 28.96C78.289 29.2267 77.4356 29.48 76.5556 29.72C75.7023 29.9333 74.8756 30.12 74.0756 30.28C73.3823 30.0667 72.729 29.6933 72.1156 29.16C71.529 28.6267 71.0623 28.0133 70.7156 27.32L70.6756 20.36C70.5956 20.0667 70.4756 19.7867 70.3156 19.52C70.1556 19.2267 69.9823 18.96 69.7956 18.72C69.7156 18.4 69.7156 18.08 69.7956 17.76C70.009 17.6533 70.2756 17.56 70.5956 17.48C70.9156 17.3733 71.1823 17.32 71.3956 17.32C72.249 17.32 73.1423 17.36 74.0756 17.44C74.8756 17.2 75.6756 16.9867 76.4756 16.8C77.3023 16.5867 78.1023 16.3867 78.8756 16.2C78.929 16.2 78.9823 16.1867 79.0356 16.16L79.3156 13C78.0356 13.3733 76.769 13.72 75.5156 14.04C74.2623 14.36 73.0356 14.6 71.8356 14.76C70.929 14.4667 70.1823 13.8933 69.5956 13.04C69.0356 12.1867 68.609 11.2533 68.3156 10.24C70.2356 9.54667 72.209 8.98667 74.2356 8.56C76.289 8.10667 78.3823 7.78667 80.5156 7.6C81.529 8.05333 82.4756 8.65333 83.3556 9.4C84.2623 10.1467 84.9956 10.9867 85.5556 11.92C85.6623 12.2933 85.7156 12.68 85.7156 13.08C85.7156 13.48 85.6623 13.84 85.5556 14.16C85.3156 14.56 85.0223 14.96 84.6756 15.36C84.329 15.76 83.9823 16.1467 83.6356 16.52C83.289 16.8667 82.9556 17.1733 82.6356 17.44C82.3156 17.7067 82.049 17.9067 81.8356 18.04C81.7823 18.28 81.729 18.52 81.6756 18.76C81.649 18.9733 81.609 19.1867 81.5556 19.4C81.4756 19.5333 81.3556 19.6667 81.1956 19.8C81.0623 19.9067 80.929 20.0133 80.7956 20.12C80.0756 20.3867 79.3156 20.64 78.5156 20.88C77.7156 21.0933 76.8756 21.28 75.9956 21.44L75.9556 24.96C76.969 24.7467 78.0356 24.5067 79.1556 24.24C80.3023 23.9467 81.3023 23.6533 82.1556 23.36ZM89.9556 3.96C89.7423 3.32 89.3823 2.70666 88.8756 2.12C88.7956 1.77333 88.7956 1.45333 88.8756 1.16C89.089 1.02666 89.3423 0.919999 89.6356 0.84C89.9556 0.759999 90.2223 0.706666 90.4356 0.679999C90.7556 0.759998 91.1156 0.879998 91.5156 1.04C91.9423 1.17333 92.369 1.36 92.7956 1.6C93.2223 1.81333 93.649 2.05333 94.0756 2.32C94.5023 2.58667 94.889 2.85333 95.2356 3.12C95.529 3.54666 95.7023 4.05333 95.7556 4.64C95.7023 5.04 95.649 5.50667 95.5956 6.04C95.569 6.54667 95.5556 7 95.5556 7.4L95.4356 20.72C95.4356 21.2533 95.4223 21.8267 95.3956 22.44C95.3956 23.0267 95.3823 23.6267 95.3556 24.24C95.329 24.8533 95.3023 25.4533 95.2756 26.04C95.249 26.6267 95.2223 27.16 95.1956 27.64C95.1956 27.9067 95.169 28.2533 95.1156 28.68C95.0623 29.08 94.9956 29.52 94.9156 30C94.8356 30.48 94.729 30.9733 94.5956 31.48C94.489 31.9867 94.369 32.4667 94.2356 32.92C93.9423 33.7467 93.609 34.48 93.2356 35.12C92.8623 35.7867 92.5156 36.24 92.1956 36.48C91.9023 36.6933 91.4756 36.8667 90.9156 37C90.3556 37.1333 89.809 37.2267 89.2756 37.28C89.3556 36.6667 89.449 35.96 89.5556 35.16C89.6623 34.3867 89.7423 33.6533 89.7956 32.96C89.849 32.2133 89.889 31.3333 89.9156 30.32C89.969 29.3067 89.9956 28.3333 89.9956 27.4L89.9556 3.96Z" fill="white"/>
</svg>
