<svg width="60" height="28" viewBox="0 0 60 28" fill="none" xmlns="http://www.w3.org/2000/svg">
<g clip-path="url(#clip0_164_10513)">
<path d="M6.79948 15.9L11.2995 17.8C11.3995 17.8 11.4995 17.8 11.4995 17.8L20.2995 13.1C20.4995 13 20.4995 12.8 20.2995 12.7C19.4995 12.3 17.6995 11.3 17.2995 11.6C16.7995 11.9 16.7995 11.9 16.0995 11.8C15.2995 11.7 14.5995 11.1 11.8995 12.5C9.69947 13.6 7.49947 15 6.69947 15.6C6.59947 15.7 6.59948 15.8 6.79948 15.9Z" fill="#9FBA34"/>
<path d="M20.5996 13.5L12.3995 18.1C12.1995 18.2 12.2995 18.4 12.4995 18.5L17.3995 19.9C17.4995 19.9 17.5996 19.9 17.5996 19.9C17.9996 19.6 19.1995 18.7 20.2995 18.3C21.6995 17.8 23.0996 17.4 23.5996 16.6C23.8996 16 24.1995 15.1 24.2995 14.8C24.2995 14.7 24.2996 14.6 24.0996 14.6L20.7995 13.7C20.6995 13.4 20.5996 13.4 20.5996 13.5Z" fill="#9FBA34"/>
<path d="M2.79961 12.4L6.1996 14.9C6.2996 15 6.39961 15 6.49961 14.9C7.39961 14.3 12.1996 11.1 14.4996 11.2C17.0996 11.3 16.7996 11.3 17.3996 10.9C17.9996 10.5 21.5996 7.9 20.8996 7.7C20.1996 7.5 15.5996 6.8 12.7996 7.7C9.89959 8.6 3.79961 11.6 3.29961 11.8C3.09961 11.9 2.89961 12 2.79961 12C2.69961 12.1 2.69961 12.3 2.79961 12.4Z" fill="#9FBA34"/>
<path d="M21.3996 8.4L18.2996 11C18.1996 11.1 18.1996 11.3 18.2996 11.3L19.8996 12.1C19.9996 12.1 20.0996 12.1 20.1996 12.1C20.5996 11.8 21.5996 11 22.8996 10.9C24.1996 10.8 25.2996 10.7 25.6996 10.7C25.7996 10.7 25.8996 10.7 25.8996 10.6L26.4996 9.5C26.5996 9.4 26.4996 9.2 26.2996 9.2L21.4996 8.4C21.5996 8.3 21.4996 8.3 21.3996 8.4Z" fill="#9FBA34"/>
<path d="M25.8996 11.2C25.8996 11.2 22.6996 11.2 21.6996 11.9C20.6996 12.6 20.8996 12.7 20.8996 12.7C20.8996 12.7 23.6996 13.9 24.2996 13.9C24.8996 13.9 25.8996 11.3 25.8996 11.3" fill="#9FBA34"/>
<path d="M19.0998 20.1C18.8998 20 18.9998 19.8 19.0998 19.7C20.2998 19.2 23.4998 18 23.9998 17.5C24.5998 16.9 26.7998 16.6 28.9998 17.2C31.1998 17.8 31.9998 17.8 33.0998 17.3C34.0998 16.8 36.5998 16.9 38.5998 16.7C39.7998 16.6 40.4998 17.1 40.7998 17.5C40.8998 17.7 40.7998 17.9 40.4998 17.8C40.0998 17.7 39.5999 17.7 39.1999 17.9C38.6999 18.1 38.4998 18.3 38.3998 18.5C38.3998 18.6 38.1998 18.6 38.0998 18.6L36.0998 18.3C35.9998 18.3 35.7998 18.4 35.7998 18.5C35.7998 18.6 35.8998 18.7 35.9998 18.7L42.1999 19.8C42.3999 19.8 42.4998 20.1 42.2998 20.2L41.9998 20.4C41.9998 20.4 41.8998 20.4 41.7998 20.4C41.3998 20.4 39.8998 20.2 39.7998 20.2C39.6998 20.2 38.8999 20.3 38.6999 20.4H38.5998L36.2998 19.9C36.1998 19.9 36.1998 19.9 36.0998 19.9C35.7998 20 35.0998 20.4 34.9998 20.3C34.8998 20.3 33.1998 20.1 32.4998 20.1C32.2998 20.1 32.1998 20 32.2998 19.8L32.4998 19.3C32.5998 19.2 32.3998 19 32.2998 19H32.0998C31.9998 19 31.8998 19 31.7998 19.1L31.2998 20.2C31.2998 20.3 31.1998 20.3 31.0998 20.3L28.7998 20.8C28.5998 20.8 28.3998 20.7 28.4998 20.5L29.2998 19C29.3998 18.9 29.2998 18.7 29.0998 18.7H28.9998C28.8998 18.7 28.7998 18.8 28.7998 18.8L27.9998 20.6C27.9998 20.7 27.8998 20.7 27.7998 20.7L26.2998 20.9C26.0998 20.9 25.9998 20.8 25.9998 20.7L26.1999 18.7C26.1999 18.6 26.0998 18.5 25.9998 18.5H25.8998C25.7998 18.5 25.6998 18.6 25.5998 18.7L25.4998 20.8C25.4998 20.9 25.3999 21 25.1999 21H20.8998H20.7998L19.0998 20.1Z" fill="#9FBA34"/>
<path d="M26.3996 11.7C26.2996 11.7 26.1996 11.7 26.0996 11.8C25.7996 12.3 24.9996 13.7 24.8996 14.1C24.7996 14.5 24.6996 15.3 24.5996 15.8C24.5996 15.9 24.6996 16 24.7996 16C25.2996 16 26.5996 16.1 27.7996 16.5C29.4996 16.9 31.1996 17.3 31.4996 16.9C31.7996 16.6 31.8996 14.1 31.5996 13.6C31.2996 13.1 31.6996 11.8 31.1996 11.8C30.6996 11.8 29.9996 11.5 29.2996 12.1C28.5996 12.7 29.2996 13.3 28.2996 13.5C27.2996 13.7 28.0996 11.9 27.9996 11.9C27.8996 11.8 26.7996 11.7 26.3996 11.7Z" fill="#9FBA34"/>
<path d="M28.3997 7.89999L26.4997 10.9C26.3997 11 26.4997 11.2 26.6997 11.2C27.2997 11.3 28.4997 11.5 28.4997 11.6C28.4997 11.8 28.7997 12.1 28.9997 11.9C29.2997 11.7 30.4997 11.5 31.2997 11.5C31.9997 11.5 32.1997 9.60001 32.2997 9.10001C32.2997 9.00001 32.2997 8.99999 32.1997 8.89999C31.7997 8.69999 30.5997 7.99999 29.8997 7.89999C29.2997 7.89999 28.9997 7.8 28.6997 7.7C28.5997 7.7 28.3997 7.79999 28.3997 7.89999Z" fill="#9FBA34"/>
<path d="M33.4995 8.60001C33.3995 8.60001 33.3995 8.6 33.2995 8.7C33.0995 8.9 32.3995 9.6 32.4995 10.3C32.5995 11.2 32.9995 11.7 32.8995 11.8C32.7995 11.9 34.7995 11.4 36.9995 11.6C39.0995 11.8 39.2995 12 39.6995 11.8C39.9995 11.7 40.2995 11.3 40.4995 11.1C40.5995 11 40.5995 10.9 40.3995 10.8C39.9995 10.6 38.9995 10.1 38.6995 9.7C38.1995 9.3 36.4995 8.6 35.1995 8.5C34.3995 8.5 33.6995 8.60001 33.4995 8.60001Z" fill="#9FBA34"/>
<path d="M42.7995 12C42.8995 11.9 42.7995 11.8 42.6995 11.7C42.2995 11.5 41.5995 11.2 41.3995 11.3C40.9995 11.4 40.7995 12.6 39.6995 12.8C38.6995 13.1 37.5995 13.2 36.1995 12.9C34.7995 12.6 33.6995 12.1 33.1995 12.3C32.6995 12.5 31.8995 13.3 33.9995 13.8C36.0995 14.3 38.5995 15.4 39.1995 15.3C39.7995 15.2 41.2995 14.3 41.5995 13.9C41.7995 13.7 42.4995 12.5 42.7995 12Z" fill="#9FBA34"/>
<path d="M32.7994 14.1C32.5994 14.1 32.4994 14.1 32.4994 14.3C32.4994 14.9 32.2994 16.5 32.2994 16.7C32.1994 17 33.9994 16 34.6994 16C35.2994 16 39.6994 16.3 40.5994 16.4C40.6994 16.4 40.7994 16.4 40.7994 16.3L40.8994 16.2C40.9994 16.1 40.8994 15.9 40.6994 15.9C39.7994 15.9 37.6994 15.7 36.5994 15.3C35.4994 14.8 33.5994 14.3 32.7994 14.1Z" fill="#9FBA34"/>
<path d="M18.8995 21.7C18.6995 21.5 18.9995 21.3 19.1995 21.4C19.5995 21.6 20.0995 21.8 20.5995 21.8C22.0995 21.9 27.0995 21.9 28.1995 21.7C29.3995 21.4 30.4995 21 32.1995 20.8C33.3995 20.7 33.9994 20.8 34.2994 20.9C34.3994 20.9 34.4995 21 34.4995 21.1C34.4995 21.5 34.4995 22.6 34.6995 23.5C34.7995 24.1 34.8995 24.4 34.8995 24.5C34.8995 24.6 34.7995 24.7 34.6995 24.7C33.5995 25 26.5995 26.8 25.8995 26.7C25.0995 26.5 24.1995 24.8 22.4995 24.1C20.7995 23.4 19.0995 21.8 18.8995 21.7C18.9995 21.8 18.9995 21.7 18.8995 21.7Z" fill="#9FBA34"/>
<path d="M36.2997 20.3L35.2997 21.2C35.1997 21.2 35.1997 21.3 35.1997 21.4L35.6997 23.9C35.6997 24 35.7997 24.1 35.9997 24.1L43.7997 23.3C43.8997 23.3 43.8997 23.3 43.9997 23.2L45.2997 21.8C45.3997 21.7 45.3997 21.5 45.1997 21.5L43.1997 20.7C43.0997 20.7 42.9997 20.7 42.9997 20.7L42.0997 21.2C41.9997 21.2 41.8997 21.2 41.7997 21.2L40.7997 20.7C40.6997 20.7 40.5997 20.7 40.5997 20.7L39.7997 21C39.6997 21 39.6997 21 39.5997 21L37.0997 20.3L36.6997 20.2C36.4997 20.3 36.3997 20.3 36.2997 20.3Z" fill="#9FBA34"/>
<path d="M43.9994 14.7C42.4994 15.5 41.5994 15.2 41.6994 16.4C41.7994 17.7 43.5994 19 44.4994 19.6C45.3994 20.2 46.4994 19.5 47.6994 19.2C48.8994 18.8 53.0994 17.3 54.3994 17.1C55.7994 16.9 56.4994 17.3 56.1994 16.7C55.7994 16.1 55.6994 15.3 53.8994 14.8C52.0994 14.3 49.9994 13.7 48.2994 13.9C46.5994 14.1 43.9994 14.8 43.9994 14.8" fill="#9FBA34"/>
<path d="M17.4996 11.6C18.0996 11.6 19.6996 12.4 20.2996 12.8C20.4996 12.9 20.4996 13.1 20.2996 13.2L11.4996 17.9H11.3996H11.2996L6.79959 16C6.59959 15.9 6.59959 15.7 6.79959 15.6C7.59959 15.1 9.79959 13.6 11.9996 12.5C13.3996 11.8 14.2996 11.6 14.8996 11.6C15.4996 11.6 15.7996 11.8 16.1996 11.8C16.4996 11.8 16.6996 11.9 16.8996 11.9C17.0996 11.9 17.1996 11.8 17.4996 11.7C17.3996 11.7 17.3996 11.6 17.4996 11.6ZM17.4996 11.3C17.2996 11.3 17.1996 11.3 17.0996 11.4C16.8996 11.5 16.7996 11.6 16.7996 11.6C16.6996 11.6 16.5996 11.6 16.4996 11.6C16.3996 11.6 16.2996 11.6 16.1996 11.6C16.0996 11.6 15.9996 11.6 15.8996 11.5C15.5996 11.4 15.2996 11.4 14.8996 11.4C14.0996 11.4 13.0996 11.7 11.7996 12.3C9.59957 13.4 7.39959 14.8 6.59959 15.4C6.39959 15.5 6.29958 15.7 6.39958 15.9C6.39958 16.1 6.59959 16.3 6.79959 16.3L11.2996 18.2C11.3996 18.2 11.4996 18.3 11.5996 18.3C11.6996 18.3 11.7996 18.3 11.9996 18.2L20.7996 13.5C20.9996 13.4 21.0996 13.2 21.0996 13C21.0996 12.8 20.9996 12.6 20.7996 12.5C19.0996 11.7 18.0996 11.3 17.4996 11.3Z" fill="#9B893B"/>
<path d="M20.6998 13.4L24.0998 14.4C24.1998 14.4 24.2998 14.5 24.2998 14.6C24.1998 15 23.9998 15.8 23.5998 16.4C23.0998 17.2 21.6998 17.6 20.2998 18.1C19.1998 18.5 17.8998 19.4 17.5998 19.7C17.5998 19.7 17.4998 19.8 17.3998 19.8H17.2998L12.3998 18.4C12.1998 18.3 12.1998 18.1 12.2998 18L20.4998 13.4C20.5998 13.5 20.6998 13.4 20.6998 13.4ZM20.6998 13.1C20.5998 13.1 20.3998 13.1 20.2998 13.2L12.0998 17.8C11.8998 17.9 11.7998 18.1 11.7998 18.3C11.7998 18.5 11.9998 18.7 12.2998 18.8L17.1998 20.2C17.2998 20.2 17.2998 20.2 17.3998 20.2C17.5998 20.2 17.6998 20.1 17.8998 20.1C18.1998 19.8 19.3998 19 20.4998 18.6C20.6998 18.5 20.8998 18.4 21.1998 18.4C22.3998 18 23.5998 17.6 23.9998 16.8C24.3998 16.2 24.5998 15.3 24.6998 14.9C24.7998 14.6 24.5998 14.3 24.2998 14.2L20.9998 13.3C20.8998 13.1 20.7998 13.1 20.6998 13.1Z" fill="#9B893B"/>
<path d="M16.4998 7.3C18.5998 7.3 20.4998 7.6 20.9998 7.7C21.6998 7.9 18.1998 10.5 17.4998 10.9C17.0998 11.1 17.0998 11.2 16.3998 11.2C15.9998 11.2 15.4998 11.2 14.5998 11.1H14.4998C12.0998 11.1 7.49981 14.1 6.59981 14.8C6.59981 14.8 6.4998 14.8 6.3998 14.8C6.2998 14.8 6.2998 14.8 6.1998 14.7L2.7998 12.2C2.6998 12.1 2.6998 11.9 2.7998 11.9C2.8998 11.8 3.0998 11.8 3.2998 11.7C3.7998 11.5 9.89979 8.50001 12.7998 7.60001C13.8998 7.40001 15.2998 7.3 16.4998 7.3ZM16.4998 7C14.9998 7 13.6998 7.2 12.6998 7.5C10.4998 8.2 6.2998 10.1 4.3998 11.1C3.8998 11.4 3.2998 11.6 3.1998 11.6C2.9998 11.7 2.79981 11.7 2.59981 11.8C2.39981 11.9 2.2998 12.1 2.2998 12.2C2.2998 12.4 2.3998 12.6 2.4998 12.7L5.8998 15.2C5.9998 15.3 6.1998 15.3 6.2998 15.3C6.4998 15.3 6.5998 15.3 6.6998 15.2C9.0998 13.5 12.5998 11.6 14.3998 11.6H14.4998H14.7998C15.5998 11.6 15.9998 11.7 16.3998 11.7C16.9998 11.7 17.1998 11.6 17.4998 11.4C17.5998 11.4 17.5998 11.3 17.6998 11.3C17.9998 11.1 18.9998 10.4 19.7998 9.8C21.3998 8.5 21.4998 8.09999 21.4998 7.89999C21.4998 7.69999 21.2998 7.6 21.0998 7.5C20.5998 7.3 18.5998 7 16.4998 7Z" fill="#9B893B"/>
<path d="M21.5998 8.3L26.4998 9.2C26.6998 9.2 26.6998 9.4 26.6998 9.5L26.0998 10.6C26.0998 10.7 25.9998 10.7 25.8998 10.7C25.4998 10.7 24.3998 10.7 23.0998 10.9C21.7998 11 20.7998 11.8 20.3998 12.1C20.3998 12.1 20.2998 12.2 20.1998 12.2H20.0998L18.4998 11.4C18.3998 11.3 18.2998 11.2 18.4998 11.1L21.5998 8.5C21.4998 8.3 21.4998 8.3 21.5998 8.3ZM21.5998 8C21.3998 8 21.2998 8.1 21.0998 8.2L17.9998 10.8C17.8998 10.9 17.7998 11.1 17.7998 11.3C17.7998 11.5 17.8998 11.6 18.0998 11.7L19.6998 12.5C19.7998 12.6 19.8998 12.6 19.9998 12.6C20.1998 12.6 20.3998 12.5 20.4998 12.4C20.7998 12.2 21.7998 11.4 22.9998 11.3C24.2998 11.2 25.2998 11.1 25.6998 11.1C25.9998 11.1 26.1998 11 26.2998 10.8L26.8998 9.7C26.9998 9.5 26.9998 9.4 26.8998 9.2C26.7998 9 26.5998 8.89999 26.3998 8.89999L21.5998 8.10001C21.6998 8.00001 21.5998 8 21.5998 8Z" fill="#9B893B"/>
<path d="M24.2997 14C23.6997 14 21.0997 12.9 20.7997 12.8C20.6997 12.8 20.6997 12.7 20.6997 12.7C20.6997 12.6 20.6997 12.4 21.5997 11.8C22.6997 11.1 25.7997 11 25.8997 11V11.3L26.0997 11.4C26.0997 11.4 25.7997 12.1 25.4997 12.7C24.8997 13.9 24.4997 14 24.2997 14ZM21.0997 12.6C22.1997 13.1 23.8997 13.7 24.2997 13.7C24.4997 13.7 25.1997 12.6 25.6997 11.4C24.8997 11.4 22.6997 11.5 21.8997 12.1C21.3997 12.3 21.1997 12.5 21.0997 12.6Z" fill="#9B893B"/>
<path d="M38.8996 16.6C39.8996 16.6 40.4996 17.1 40.7996 17.4C40.8996 17.5 40.7996 17.7 40.5996 17.7C40.4996 17.7 40.2996 17.7 40.0996 17.7C39.7996 17.7 39.4996 17.7 39.2996 17.9C38.7996 18.1 38.5996 18.3 38.4996 18.5C38.4996 18.6 38.3996 18.6 38.2996 18.6L36.2996 18.3C36.1996 18.3 36.0996 18.4 36.0996 18.5C36.0996 18.6 36.1996 18.7 36.2996 18.7L42.4996 19.8C42.6996 19.8 42.7996 20.1 42.5996 20.2L42.2996 20.4H42.1996C41.7996 20.4 40.2996 20.2 40.1996 20.2C40.0996 20.2 39.2996 20.3 39.0996 20.4C39.0996 20.4 39.0996 20.4 38.9996 20.4L36.6996 19.9C36.6996 19.9 36.6996 19.9 36.5996 19.9H36.4996C36.2996 20 35.5996 20.4 35.3996 20.4C35.2996 20.4 33.5996 20.2 32.8996 20.2C32.6996 20.2 32.5996 20.1 32.6996 19.9L32.8996 19.4C32.9996 19.3 32.7996 19.1 32.6996 19.1H32.4996C32.3996 19.1 32.2996 19.2 32.2996 19.2L31.7996 20.3C31.7996 20.4 31.6996 20.4 31.5996 20.4L29.2996 20.9C29.2996 20.9 29.2996 20.9 29.1996 20.9C28.9996 20.9 28.8996 20.7 28.9996 20.6L29.7996 19.1C29.8996 19 29.7996 18.8 29.5996 18.8H28.9996C28.8996 18.8 28.7996 18.9 28.7996 18.9L27.9996 20.7C27.9996 20.8 27.8996 20.8 27.7996 20.8L26.2996 21C26.1996 21 25.9996 20.9 26.0996 20.8L26.2996 18.8C26.2996 18.7 26.1996 18.6 26.0996 18.6H25.9996C25.8996 18.6 25.7996 18.7 25.6996 18.8L25.5996 20.9C25.5996 21 25.4996 21.1 25.2996 21.1H20.9996H20.8996L19.1996 20.1C18.9996 20 19.0996 19.8 19.1996 19.7C20.3996 19.2 23.5996 18 24.0996 17.5C24.4996 17.1 25.3996 16.9 26.5996 16.9C27.3996 16.9 28.1996 17 29.0996 17.2C30.1996 17.5 30.9996 17.7 31.5996 17.7C32.1996 17.7 32.5996 17.6 33.1996 17.3C34.1996 16.8 36.6996 16.9 38.6996 16.7C38.6996 16.6 38.7996 16.6 38.8996 16.6ZM38.8996 16.3C38.7996 16.3 38.6996 16.3 38.5996 16.3C37.9996 16.3 37.3996 16.4 36.7996 16.4C35.1996 16.5 33.6996 16.5 32.8996 17C32.3996 17.2 31.9996 17.3 31.5996 17.3C31.0996 17.3 30.2996 17.2 29.1996 16.9C28.3996 16.7 27.3996 16.5 26.5996 16.5C25.2996 16.5 24.1996 16.8 23.6996 17.2C23.4996 17.4 21.8996 18.2 18.9996 19.3C18.7996 19.4 18.5996 19.6 18.5996 19.8C18.5996 20 18.6996 20.2 18.8996 20.3L20.5996 21.3C20.6996 21.4 20.7996 21.4 20.9996 21.4H25.2996C25.4996 21.4 25.6996 21.3 25.7996 21.2C25.8996 21.3 26.0996 21.3 26.1996 21.3H26.2996L27.7996 21.1C27.9996 21.1 28.0996 21 28.1996 20.9C28.2996 21.1 28.4996 21.2 28.7996 21.2C28.8996 21.2 28.8996 21.2 28.9996 21.2L31.2996 20.7C31.4996 20.7 31.6996 20.5 31.7996 20.4L31.9996 20C31.9996 20.1 31.9996 20.1 32.0996 20.2C32.1996 20.3 32.3996 20.4 32.5996 20.5C34.1996 20.6 34.7996 20.7 34.9996 20.7C35.0996 20.7 35.0996 20.7 35.1996 20.7C35.2996 20.7 35.4996 20.7 36.4996 20.2L38.6996 20.6C38.7996 20.6 38.7996 20.6 38.8996 20.6H38.9996C39.5996 20.5 39.8996 20.5 39.9996 20.5C40.0996 20.5 40.8996 20.6 41.8996 20.7C41.8996 20.7 41.8996 20.7 41.9996 20.7C42.0996 20.7 42.2996 20.7 42.3996 20.6L42.6996 20.4C42.8996 20.3 42.9996 20 42.9996 19.8C42.9996 19.6 42.6996 19.4 42.4996 19.4L38.7996 18.8C38.8996 18.8 38.8996 18.7 38.8996 18.6C38.8996 18.5 39.0996 18.4 39.4996 18.2C39.6996 18.1 39.8996 18.1 40.0996 18.1C40.1996 18.1 40.3996 18.1 40.4996 18.1H40.5996C40.7996 18.1 41.0996 18 41.1996 17.8C41.2996 17.6 41.2996 17.4 41.1996 17.2C40.5996 16.6 39.7996 16.3 38.8996 16.3Z" fill="#9B893B"/>
<path d="M26.3998 11.7C26.8998 11.8 27.9998 11.9 28.0998 11.9C28.1998 11.9 27.4998 13.5 28.2998 13.5H28.3998C29.3998 13.3 28.6998 12.8 29.3998 12.1C29.7998 11.8 30.0998 11.7 30.4998 11.7C30.8998 11.7 31.0998 11.8 31.3998 11.8C31.8998 11.8 31.4998 13.1 31.7998 13.6C32.0998 14.1 31.9998 16.6 31.6998 16.9C31.5998 17 31.3998 17 31.1998 17C30.4998 17 29.2998 16.7 28.0998 16.4C26.7998 16.1 25.5998 16 25.0998 15.9C24.9998 15.9 24.8998 15.8 24.8998 15.7C24.9998 15.3 25.0998 14.4 25.1998 14C25.2998 13.6 26.0998 12.1 26.3998 11.7C26.2998 11.7 26.1998 11.7 26.3998 11.7ZM26.3998 11.3C26.0998 11.3 25.8998 11.4 25.7998 11.6C25.3998 12.3 24.6998 13.6 24.5998 14C24.4998 14.4 24.3998 15.2 24.2998 15.7C24.2998 15.9 24.2998 16 24.3998 16.1C24.4998 16.2 24.6998 16.3 24.8998 16.3C25.3998 16.3 26.5998 16.4 27.7998 16.8C28.7998 17.1 30.1998 17.4 31.0998 17.4C31.3998 17.4 31.7998 17.4 31.9998 17.1C32.1998 16.8 32.2998 15.8 32.2998 15.3C32.2998 14.8 32.2998 13.8 32.0998 13.4C31.9998 13.2 31.9998 12.9 31.9998 12.6C31.9998 12.2 31.9998 11.8 31.7998 11.6C31.6998 11.5 31.4998 11.4 31.3998 11.4C31.2998 11.4 31.1998 11.4 31.0998 11.4C30.8998 11.4 30.7998 11.4 30.4998 11.4C29.9998 11.4 29.4998 11.6 29.0998 11.9C28.5998 12.3 28.5998 12.7 28.5998 12.9C28.5998 13 28.5998 13.1 28.5998 13.1C28.5998 13.1 28.5998 13.1 28.3998 13.2C28.3998 13.1 28.3998 12.8 28.4998 12.3C28.5998 12 28.5998 11.8 28.4998 11.7C28.3998 11.6 28.2998 11.6 28.1998 11.6C27.9998 11.5 27.4998 11.4 26.3998 11.3Z" fill="#9B893B"/>
<path d="M28.5999 7.8C28.8999 7.9 29.2999 8 29.7999 8C30.5999 8 31.7999 8.7 32.0999 9C32.1999 9 32.1999 9.1 32.1999 9.2C32.0999 9.7 31.8999 11.5 31.1999 11.6C30.3999 11.7 29.0999 11.9 28.8999 12H28.7999C28.5999 12 28.3999 11.8 28.3999 11.6C28.3999 11.5 27.1999 11.3 26.5999 11.2C26.3999 11.2 26.2999 11 26.3999 10.9L28.2999 7.89999C28.3999 7.79999 28.4999 7.8 28.5999 7.8ZM28.5999 7.39999C28.3999 7.39999 28.0999 7.5 27.9999 7.7L26.0999 10.7C25.9999 10.9 25.9999 11.1 26.0999 11.2C26.1999 11.4 26.3999 11.5 26.5999 11.5C27.4999 11.6 27.8999 11.7 28.0999 11.8C28.1999 12 28.4999 12.3 28.7999 12.3C28.8999 12.3 29.0999 12.3 29.1999 12.2C29.3999 12.1 30.4999 11.9 31.2999 11.8C31.9999 11.8 32.1999 11 32.3999 10.5C32.5999 9.9 32.5999 9.30001 32.6999 9.10001C32.6999 8.90001 32.5999 8.70001 32.3999 8.60001C31.7999 8.20001 30.6999 7.60001 29.7999 7.60001C29.2999 7.60001 28.9999 7.49999 28.7999 7.39999C28.7999 7.39999 28.6999 7.39999 28.5999 7.39999Z" fill="#9B893B"/>
<path d="M34.2996 8.60001C34.5996 8.60001 34.8996 8.60001 35.3996 8.60001C36.5996 8.70001 38.3996 9.3 38.8996 9.8C39.1996 10.1 40.1996 10.6 40.5996 10.9C40.6996 11 40.7996 11.1 40.6996 11.2C40.4996 11.4 40.1996 11.7 39.8996 11.9C39.7996 12 39.6996 12 39.4996 12C39.1996 12 38.6996 11.8 37.0996 11.7C36.6996 11.7 36.1996 11.6 35.7996 11.6C34.2996 11.6 33.0996 11.8 32.9996 11.8C33.0996 11.7 32.6996 11.2 32.5996 10.3C32.4996 9.6 33.1996 8.9 33.3996 8.7C33.3996 8.7 33.4996 8.60001 33.5996 8.60001C33.5996 8.60001 33.8996 8.60001 34.2996 8.60001ZM34.2996 8.2C33.8996 8.2 33.5996 8.2 33.4996 8.2C33.2996 8.2 33.1996 8.29999 33.0996 8.39999C32.7996 8.69999 32.0996 9.5 32.1996 10.3C32.2996 10.8 32.4996 11.3 32.5996 11.5L32.6996 11.8C32.7996 12 32.8996 12.1 33.0996 12.1C33.1996 12.1 33.1996 12.1 33.3996 12.1C33.7996 12 34.7996 11.9 35.8996 11.9C36.2996 11.9 36.6996 11.9 37.0996 12C37.9996 12.1 38.4996 12.2 38.7996 12.2C39.0996 12.2 39.2996 12.3 39.4996 12.3C39.6996 12.3 39.8996 12.3 40.0996 12.2C40.3996 12.1 40.6996 11.8 40.9996 11.4C41.0996 11.3 41.1996 11.1 41.0996 11C41.0996 10.8 40.9996 10.7 40.7996 10.6C39.9996 10.2 39.3996 9.80001 39.1996 9.60001C38.5996 9.10001 36.6996 8.4 35.4996 8.3C34.9996 8.2 34.5996 8.2 34.2996 8.2Z" fill="#9B893B"/>
<path d="M41.4 11.3C41.7 11.3 42.3 11.5 42.6 11.7C42.7 11.8 42.8 11.9 42.7 12C42.4 12.5 41.7 13.7 41.4 14C41.1 14.4 39.7 15.3 39 15.4H38.9C38.1 15.4 35.7 14.4 33.8 13.9C31.7 13.4 32.6 12.6 33 12.4C33.1 12.4 33.2 12.3 33.3 12.3C33.8 12.3 34.8 12.7 36 13C36.6 13.1 37.1 13.2 37.6 13.2C38.3 13.2 39 13.1 39.6 12.9C40.6 12.6 40.9 11.5 41.3 11.4C41.4 11.3 41.4 11.3 41.4 11.3ZM41.4 11C41.3 11 41.2 11 41.2 11C40.9 11.1 40.7 11.3 40.5 11.6C40.3 11.9 40 12.4 39.5 12.5C39 12.6 38.4 12.8 37.6 12.8C37.1 12.8 36.7 12.7 36.1 12.6C35.6 12.5 35.1 12.4 34.7 12.2C34.1 12 33.7 11.9 33.3 11.9C33.1 11.9 32.9 11.9 32.8 12C32.4 12.2 32 12.6 32 13.1C32.1 13.6 32.6 13.9 33.6 14.2C34.5 14.4 35.5 14.7 36.3 15C37.5 15.4 38.3 15.7 38.8 15.7C38.9 15.7 38.9 15.7 39 15.7C39.8 15.6 41.3 14.6 41.6 14.2C41.9 13.9 42.5 12.8 42.9 12.2C43.1 11.9 42.9 11.6 42.6 11.4C42.2 11.1 41.8 11 41.4 11Z" fill="#9B893B"/>
<path d="M32.7999 14.1C33.5999 14.3 35.4999 14.9 36.6999 15.3C37.7999 15.7 39.8999 15.8 40.7999 15.9C40.9999 15.9 41.0999 16.1 40.9999 16.2L40.8999 16.3C40.8999 16.4 40.7999 16.4 40.6999 16.4C39.7999 16.3 35.3999 16 34.7999 16C34.1999 16 32.7999 16.8 32.4999 16.8C32.5999 16.6 32.6999 15 32.6999 14.4C32.4999 14.1 32.5999 14.1 32.7999 14.1ZM32.7999 13.7C32.3999 13.7 32.1999 13.9 32.0999 14.2C31.9999 15.8 31.8999 16.5 31.8999 16.6C31.8999 16.7 31.8999 16.8 31.9999 16.9C32.0999 17 32.1999 17 32.3999 17C32.5999 17 32.7999 16.9 33.3999 16.7C33.7999 16.5 34.4999 16.2 34.7999 16.2C35.2999 16.2 38.2999 16.4 40.6999 16.6C40.6999 16.6 40.6999 16.6 40.7999 16.6C40.9999 16.6 41.2999 16.5 41.3999 16.3L41.4999 16.2C41.5999 16 41.5999 15.8 41.4999 15.6C41.3999 15.4 41.1999 15.3 40.8999 15.3C40.0999 15.3 37.9999 15.1 36.9999 14.8C35.7999 14.4 33.8999 13.8 33.1999 13.6C32.8999 13.7 32.7999 13.7 32.7999 13.7Z" fill="#9B893B"/>
<path d="M33.2998 20.7C33.8998 20.7 34.1998 20.8 34.3998 20.8C34.4998 20.8 34.5998 20.9 34.5998 21C34.5998 21.4 34.5998 22.5 34.7998 23.4C34.8998 24 34.9998 24.3 34.9998 24.4C34.9998 24.5 34.8998 24.6 34.7998 24.6C33.7998 24.9 27.3998 26.6 26.0998 26.6C25.9998 26.6 25.9998 26.6 25.9998 26.6C25.1998 26.4 24.2998 24.7 22.5998 24C20.8998 23.3 19.2998 21.7 19.0998 21.7C19.0998 21.7 19.0998 21.7 18.9998 21.6C18.8998 21.4 18.9998 21.3 19.1998 21.3H19.2998C19.6998 21.5 20.1998 21.7 20.6998 21.7C21.2998 21.7 22.4998 21.8 23.7998 21.8C25.5998 21.8 27.5998 21.7 28.2998 21.6C29.4998 21.3 30.5998 20.9 32.2998 20.7C32.6998 20.7 32.9998 20.7 33.2998 20.7ZM33.2998 20.4C32.9998 20.4 32.6998 20.4 32.2998 20.4C30.9998 20.5 30.0998 20.8 29.2998 21C28.8998 21.1 28.5998 21.2 28.1998 21.3C27.6998 21.4 25.9998 21.5 23.7998 21.5C22.5998 21.5 21.3998 21.5 20.6998 21.4C20.2998 21.4 19.8998 21.3 19.4998 21.1C19.3998 21 19.2998 21 19.0998 21C18.8998 21 18.5998 21.1 18.4998 21.3C18.3998 21.5 18.3998 21.7 18.4998 21.9C18.4998 22 18.5998 22 18.6998 22.1C18.6998 22.1 18.7998 22.2 18.8998 22.3C19.4998 22.8 20.7998 23.9 22.1998 24.5C23.0998 24.9 23.7998 25.6 24.3998 26.1C24.8998 26.6 25.2998 27 25.7998 27.1C25.8998 27.1 25.9998 27.1 26.0998 27.1C27.2998 27.1 33.1998 25.6 34.8998 25.1C35.1998 25 35.3998 24.8 35.3998 24.6C35.3998 24.4 35.2998 24 35.1998 23.5C34.9998 22.6 34.9998 21.6 34.9998 21.2C34.9998 20.9 34.7998 20.7 34.4998 20.6C34.2998 20.4 33.8998 20.4 33.2998 20.4Z" fill="#9B893B"/>
<path d="M36.4998 20.3L36.8998 20.4L39.3998 21.1H39.4998H39.5998L40.3998 20.8H40.4998H40.5998L41.5998 21.3H41.6998H41.7998L42.6998 20.8H42.7998H42.8998L44.8998 21.6C44.9998 21.7 45.0998 21.8 44.9998 21.9L43.6998 23.3C43.6998 23.3 43.5998 23.4 43.4998 23.4L35.6998 24.2C35.5998 24.2 35.4998 24.1 35.4998 24L34.9998 21.5C34.9998 21.4 34.9998 21.4 35.0998 21.3L36.0998 20.4C36.3998 20.3 36.3998 20.3 36.4998 20.3ZM36.4998 19.9C36.2998 19.9 36.0998 20 35.9998 20.1L34.9998 21C34.8998 21.1 34.7998 21.3 34.7998 21.5L35.2998 24C35.3998 24.3 35.5998 24.5 35.9998 24.5H36.0998L43.8998 23.7C44.0998 23.7 44.1998 23.6 44.3998 23.5L45.6998 22.1C45.7998 22 45.8998 21.8 45.7998 21.6C45.6998 21.4 45.5998 21.3 45.3998 21.2L43.3998 20.4C43.2998 20.4 43.1998 20.4 43.0998 20.4C42.9998 20.4 42.8998 20.4 42.6998 20.5L41.8998 20.9L40.8998 20.5C40.7998 20.5 40.6998 20.4 40.5998 20.4C40.4998 20.4 40.3998 20.4 40.2998 20.5L39.4998 20.8L36.9998 20.1L36.5998 20C36.6998 19.9 36.5998 19.9 36.4998 19.9Z" fill="#9B893B"/>
<path d="M45.3996 20C45.0996 20 44.7996 19.9 44.4996 19.7C43.4996 19.1 41.6996 17.7 41.5996 16.4C41.4996 15.4 41.9996 15.2 42.7996 15C43.0996 14.9 43.4996 14.8 43.9996 14.5L44.1996 14.8C43.6996 15 43.2996 15.2 42.9996 15.3C42.2996 15.5 41.9996 15.6 42.0996 16.4C42.1996 17.6 43.9996 18.9 44.8996 19.4C45.4996 19.8 46.2996 19.5 47.1996 19.2C47.3996 19.1 47.6996 19 47.8996 19C48.1996 18.9 48.7996 18.7 49.3996 18.5C51.1996 17.9 53.5996 17 54.5996 16.9C55.0996 16.8 55.5996 16.8 55.8996 16.8C55.9996 16.8 56.1996 16.8 56.2996 16.8C56.2996 16.8 56.2996 16.7 56.1996 16.7C56.0996 16.6 56.0996 16.5 55.9996 16.4C55.6996 15.9 55.3996 15.3 53.9996 14.9C52.0996 14.3 50.0996 13.8 48.4996 14C46.7996 14.2 44.2996 14.9 44.2996 14.9L44.1996 14.6C44.2996 14.6 46.7996 13.9 48.4996 13.7C50.2996 13.5 52.3996 14.1 54.1996 14.6C55.7996 15.1 56.0996 15.8 56.3996 16.3C56.4996 16.4 56.4996 16.5 56.5996 16.6C56.6996 16.7 56.7996 16.9 56.6996 17.1C56.5996 17.3 56.2996 17.3 55.8996 17.3C55.5996 17.3 55.1996 17.3 54.6996 17.4C53.6996 17.5 51.1996 18.4 49.4996 19C48.8996 19.2 48.2996 19.4 47.9996 19.5C47.7996 19.6 47.4996 19.7 47.2996 19.7C46.4996 19.8 45.8996 20 45.3996 20Z" fill="#9B893B"/>
<path d="M23.7999 3.39999C23.7999 3.39999 23.3999 1.89999 22.3999 1.39999C20.3999 0.599994 20.3999 0.100006 20.3999 0.100006C20.3999 0.100006 20.5999 3.7 21.3999 4.7C22.1999 5.7 22.5999 5.60001 22.5999 5.60001L23.7999 3.39999Z" fill="#608B00"/>
<path d="M22.3997 3.39999C22.3997 3.39999 22.1997 2.8 20.2997 2.8C18.9997 2.8 18.4997 3.8 18.2997 4.3L18.1998 4.5C18.0998 4.7 17.9997 4.79999 17.7997 4.89999C17.6997 4.99999 17.5997 5.00001 17.4997 5.10001C17.0997 5.60001 16.9997 6.3 17.2997 6.8C17.3997 7.1 17.3997 7.40001 17.2997 7.60001C17.0997 8.00001 16.8997 8.6 16.9997 9C17.2997 9.9 17.9997 10.8 18.8997 10.6C18.9997 10.9 19.0998 11.1 19.1998 11.2C19.4998 11.7 20.8998 11.3 21.1998 11.5C21.4998 11.6 22.6997 11.2 23.2997 10.8C23.4997 10.7 23.6997 10.4 23.8997 10.1C23.9997 9.90001 24.1997 9.8 24.2997 9.7C25.4997 9.2 25.7998 8.20001 25.6998 7.60001C25.5998 6.90001 25.0997 5.9 24.7997 5.5C24.6997 5.4 24.6998 5.2 24.6998 5C24.6998 3.8 23.8997 2.99999 23.3997 2.89999C22.8997 2.79999 22.9997 2.80001 22.4997 3.10001L22.3997 3.39999Z" fill="url(#paint0_radial_164_10513)"/>
<path d="M21.0998 8.10001C21.0998 8.10001 20.1998 7.5 19.7998 7.3C19.4998 7.1 19.3998 5.9 19.8998 5.7C20.3998 5.5 20.8998 5.39999 21.1998 5.89999C21.4998 6.39999 21.9998 7 21.9998 7C22.3998 7.8 22.0998 8.20001 21.0998 8.10001Z" fill="#CFA740"/>
<path d="M46.9995 15.5C46.9995 15.5 48.3995 14.8 48.5995 13.7C48.9995 11.6 49.3995 11.5 49.3995 11.5C49.3995 11.5 45.8995 12.4 45.0995 13.4C44.2995 14.4 44.3995 14.7 44.3995 14.7L46.9995 15.5Z" fill="#608B00"/>
<path d="M46.6996 14.1C46.6996 14.1 47.2995 13.7 46.7995 12C46.4995 10.8 45.4995 10.4 44.8995 10.3L44.5996 10.2C44.3996 10.2 44.2996 10.1 44.1996 9.89999C44.0996 9.79999 43.9995 9.7 43.8995 9.7C43.2996 9.4 42.5996 9.5 42.1996 9.8C41.9996 10 41.6995 9.99999 41.3995 9.89999C40.9995 9.79999 40.3995 9.69999 39.8995 9.89999C39.0995 10.4 38.3996 11.3 38.6996 12.1C38.4996 12.3 38.2996 12.4 38.0996 12.5C37.6996 12.9 38.2996 14.2 38.1996 14.5C38.0996 14.8 38.7995 15.9 39.2995 16.4C39.4995 16.6 39.7996 16.8 40.0996 16.9C40.2996 17 40.4996 17.1 40.5996 17.2C41.2996 18.3 42.2996 18.3 42.9996 18.1C43.6996 17.9 44.4995 17.1 44.8995 16.8C44.9995 16.7 45.1995 16.6 45.2995 16.6C46.3995 16.4 47.0996 15.4 47.0996 14.9C47.0996 14.4 47.0996 14.5 46.6996 14V14.1Z" fill="url(#paint1_radial_164_10513)"/>
<path d="M41.7993 13.8C41.7993 13.8 42.1993 12.8 42.2993 12.4C42.3993 12 43.5993 11.7 43.8993 12.2C44.1993 12.6 44.3993 13.1 43.8993 13.5C43.3993 13.9 42.9993 14.5 42.9993 14.5C42.3993 15.1 41.9993 14.9 41.7993 13.8Z" fill="#CFA740"/>
</g>
<defs>
<radialGradient id="paint0_radial_164_10513" cx="0" cy="0" r="1" gradientUnits="userSpaceOnUse" gradientTransform="translate(27.8572 13.849) scale(28.4896 28.4896)">
<stop stop-color="#FB624D"/>
<stop offset="1" stop-color="#BA001A"/>
</radialGradient>
<radialGradient id="paint1_radial_164_10513" cx="0" cy="0" r="1" gradientUnits="userSpaceOnUse" gradientTransform="translate(30.1633 22.5414) scale(30.5851 30.5851)">
<stop stop-color="#FB624D"/>
<stop offset="1" stop-color="#BA001A"/>
</radialGradient>
<clipPath id="clip0_164_10513">
<rect width="60" height="28" fill="white"/>
</clipPath>
</defs>
</svg>
