<svg width="60" height="32" viewBox="0 0 60 32" fill="none" xmlns="http://www.w3.org/2000/svg">
<path d="M14.0002 15.9H11.7002V29.4H14.0002V15.9Z" fill="#1B0B0C"/>
<path d="M24.6999 15.9H22.3999V29.4H24.6999V15.9Z" fill="#1B0B0C"/>
<path d="M37.4001 15.9H35.1001V29.4H37.4001V15.9Z" fill="#1B0B0C"/>
<path d="M48.8 15.9H46.5V29.4H48.8V15.9Z" fill="#1B0B0C"/>
<path d="M20.1 8.89999C20.1 8.89999 8.59997 12.4 4.99997 11.9C1.39997 11.3 1.69997 14.3 1.69997 14.3L56.6 15L57.5 14.3C57.5 14.3 58.5 12.7 56.7 12C55 11.3 42.8 10.6 41.4 9.39999C39.9 8.19999 28.2 12 20.1 8.89999Z" fill="#4A4E57"/>
<path d="M48.9998 16.8H10.2998V18.8H48.9998V16.8Z" fill="#1F3123"/>
<path d="M50.4 15.4H9V17.4H50.4V15.4Z" fill="#202819"/>
<path d="M55.3998 15.8H3.9998L1.7998 13.5H57.5998L55.3998 15.8Z" fill="#324736"/>
<path d="M5.09981 12.4C4.29981 12.4 3.7998 12.4 3.6998 12.4C3.1998 12.4 2.7998 12 2.7998 11.5C2.7998 11 3.1998 10.6 3.6998 10.6C3.7998 10.6 13.5998 11 20.0998 8.1C20.5998 7.9 21.0998 8.1 21.2998 8.6C21.4998 9.1 21.2998 9.6 20.7998 9.8C15.4998 12.2 8.19981 12.4 5.09981 12.4Z" fill="#666462"/>
<path d="M55.3001 12.4C52.0001 12.4 44.1001 12.1 38.6001 9.69999C38.1001 9.49999 37.9001 9 38.1001 8.5C38.3001 8 38.8001 7.8 39.3001 8C45.8001 10.9 56.6001 10.6 56.7001 10.5C57.2001 10.5 57.6001 10.9 57.6001 11.4C57.6001 11.9 57.2001 12.3 56.7001 12.3C56.7001 12.4 56.2001 12.4 55.3001 12.4Z" fill="#666462"/>
<path d="M30.6 10.8C25.2 10.8 20.1 10.1 19.8 10.1C19.3 10 19 9.60001 19 9.10001C19.1 8.60001 19.5 8.30001 20 8.30001C20.1 8.30001 33 10 39.4 8.00001C39.9 7.90001 40.4 8.10001 40.5 8.60001C40.6 9.10001 40.4 9.6 39.9 9.7C37.3 10.5 33.9 10.8 30.6 10.8Z" fill="#AEABA6"/>
<path d="M30.6998 10.8C24.9998 10.8 19.5998 10.1 19.1998 10.1C18.8998 10.1 18.7998 9.80001 18.7998 9.60001C18.7998 9.30001 19.0998 9.2 19.2998 9.2C19.3998 9.2 33.1998 10.9 40.1998 8.9C40.4998 8.8 40.6998 9 40.7998 9.2C40.8998 9.5 40.6998 9.70001 40.4998 9.80001C37.6998 10.6 34.0998 10.8 30.6998 10.8Z" fill="#666462"/>
<path d="M55.2997 12.7C51.9997 12.7 44.0997 12.4 38.6997 9.99999C38.2997 9.79999 38.1997 9.4 38.2997 9.1C38.4997 8.7 38.8997 8.59999 39.1997 8.69999C45.6997 11.7 56.5997 11.3 56.6997 11.3C57.0997 11.3 57.3997 11.6 57.3997 12C57.3997 12.4 57.0997 12.7 56.6997 12.7C56.6997 12.7 56.1997 12.7 55.2997 12.7Z" fill="#AEABA6"/>
<path d="M12 29.8H11.5C11 29.8 10.5 29.4 10.5 28.8V16.3C10.5 15.8 10.9 15.3 11.5 15.3H12C12.5 15.3 13 15.7 13 16.3V28.8C13 29.4 12.5 29.8 12 29.8Z" fill="#571B1A"/>
<path d="M23.3999 29.8H22.8999C22.3999 29.8 21.8999 29.4 21.8999 28.8V16.3C21.8999 15.8 22.2999 15.3 22.8999 15.3H23.3999C23.8999 15.3 24.3999 15.7 24.3999 16.3V28.8C24.2999 29.4 23.8999 29.8 23.3999 29.8Z" fill="#571B1A"/>
<path d="M36.8999 29.8H36.3999C35.8999 29.8 35.3999 29.4 35.3999 28.8V16.3C35.3999 15.8 35.7999 15.3 36.3999 15.3H36.8999C37.3999 15.3 37.8999 15.7 37.8999 16.3V28.8C37.8999 29.4 37.4999 29.8 36.8999 29.8Z" fill="#571B1A"/>
<path d="M49 29.8H48.5C48 29.8 47.5 29.4 47.5 28.8V16.3C47.5 15.8 47.9 15.3 48.5 15.3H49C49.5 15.3 50 15.7 50 16.3V28.8C50 29.4 49.6 29.8 49 29.8Z" fill="#571B1A"/>
<path d="M53.6998 28.6H6.2998V30.2H53.6998V28.6Z" fill="#4A4E57"/>
<path d="M5.0002 15.8C5.44203 15.8 5.8002 15.3075 5.8002 14.7C5.8002 14.0925 5.44203 13.6 5.0002 13.6C4.55837 13.6 4.2002 14.0925 4.2002 14.7C4.2002 15.3075 4.55837 15.8 5.0002 15.8Z" fill="#571B1A"/>
<path d="M8.49991 15.8C9.10742 15.8 9.59991 15.3075 9.59991 14.7C9.59991 14.0925 9.10742 13.6 8.49991 13.6C7.8924 13.6 7.3999 14.0925 7.3999 14.7C7.3999 15.3075 7.8924 15.8 8.49991 15.8Z" fill="#571B1A"/>
<path d="M12.2001 15.8C12.8076 15.8 13.3001 15.3075 13.3001 14.7C13.3001 14.0925 12.8076 13.6 12.2001 13.6C11.5926 13.6 11.1001 14.0925 11.1001 14.7C11.1001 15.3075 11.5926 15.8 12.2001 15.8Z" fill="#571B1A"/>
<path d="M15.8998 15.8C16.5073 15.8 16.9998 15.3075 16.9998 14.7C16.9998 14.0925 16.5073 13.6 15.8998 13.6C15.2923 13.6 14.7998 14.0925 14.7998 14.7C14.7998 15.3075 15.2923 15.8 15.8998 15.8Z" fill="#571B1A"/>
<path d="M19.7001 15.8C20.3076 15.8 20.8001 15.3075 20.8001 14.7C20.8001 14.0925 20.3076 13.6 19.7001 13.6C19.0926 13.6 18.6001 14.0925 18.6001 14.7C18.6001 15.3075 19.0926 15.8 19.7001 15.8Z" fill="#571B1A"/>
<path d="M23.3998 15.8C24.0073 15.8 24.4998 15.3075 24.4998 14.7C24.4998 14.0925 24.0073 13.6 23.3998 13.6C22.7923 13.6 22.2998 14.0925 22.2998 14.7C22.2998 15.3075 22.7923 15.8 23.3998 15.8Z" fill="#571B1A"/>
<path d="M27.1 15.8C27.7075 15.8 28.2 15.3075 28.2 14.7C28.2 14.0925 27.7075 13.6 27.1 13.6C26.4925 13.6 26 14.0925 26 14.7C26 15.3075 26.4925 15.8 27.1 15.8Z" fill="#571B1A"/>
<path d="M30.8002 15.8C31.4077 15.8 31.9002 15.3075 31.9002 14.7C31.9002 14.0925 31.4077 13.6 30.8002 13.6C30.1927 13.6 29.7002 14.0925 29.7002 14.7C29.7002 15.3075 30.1927 15.8 30.8002 15.8Z" fill="#571B1A"/>
<path d="M34.6 15.8C35.2075 15.8 35.7 15.3075 35.7 14.7C35.7 14.0925 35.2075 13.6 34.6 13.6C33.9925 13.6 33.5 14.0925 33.5 14.7C33.5 15.3075 33.9925 15.8 34.6 15.8Z" fill="#571B1A"/>
<path d="M38.3002 15.8C38.9077 15.8 39.4002 15.3075 39.4002 14.7C39.4002 14.0925 38.9077 13.6 38.3002 13.6C37.6927 13.6 37.2002 14.0925 37.2002 14.7C37.2002 15.3075 37.6927 15.8 38.3002 15.8Z" fill="#571B1A"/>
<path d="M41.9999 15.8C42.6074 15.8 43.0999 15.3075 43.0999 14.7C43.0999 14.0925 42.6074 13.6 41.9999 13.6C41.3924 13.6 40.8999 14.0925 40.8999 14.7C40.8999 15.3075 41.3924 15.8 41.9999 15.8Z" fill="#571B1A"/>
<path d="M45.7001 15.8C46.3076 15.8 46.8001 15.3075 46.8001 14.7C46.8001 14.0925 46.3076 13.6 45.7001 13.6C45.0926 13.6 44.6001 14.0925 44.6001 14.7C44.6001 15.3075 45.0926 15.8 45.7001 15.8Z" fill="#571B1A"/>
<path d="M49.3998 15.8C50.0073 15.8 50.4998 15.3075 50.4998 14.7C50.4998 14.0925 50.0073 13.6 49.3998 13.6C48.7923 13.6 48.2998 14.0925 48.2998 14.7C48.2998 15.3075 48.7923 15.8 49.3998 15.8Z" fill="#571B1A"/>
<path d="M53.2001 15.8C53.8076 15.8 54.3001 15.3075 54.3001 14.7C54.3001 14.0925 53.8076 13.6 53.2001 13.6C52.5926 13.6 52.1001 14.0925 52.1001 14.7C52.1001 15.3075 52.5926 15.8 53.2001 15.8Z" fill="#571B1A"/>
<path d="M55.5998 15.8C56.0416 15.8 56.3998 15.3075 56.3998 14.7C56.3998 14.0925 56.0416 13.6 55.5998 13.6C55.158 13.6 54.7998 14.0925 54.7998 14.7C54.7998 15.3075 55.158 15.8 55.5998 15.8Z" fill="#571B1A"/>
<path d="M21.1 10.3C21.1 10.3 22.3 9.4 22.3 8.3C22.3 6.3 22.7 6.10001 22.7 6.10001C22.7 6.10001 19.5 7.6 19 8.7C18.5 9.8 18.6 10.1 18.6 10.1L21.1 10.3Z" fill="#608B00"/>
<path d="M19.6998 5.89999C19.6998 5.89999 19.9998 5.3 18.5998 4.1C17.6998 3.3 16.6998 3.6 16.1998 3.8L15.9998 3.89999C15.7998 3.99999 15.6998 3.99999 15.4998 3.89999C15.3998 3.89999 15.2998 3.89999 15.1998 3.89999C14.5998 3.99999 14.0998 4.39999 13.8998 4.99999C13.7998 5.29999 13.5998 5.49999 13.2998 5.49999C12.8998 5.59999 12.3998 5.9 12.1998 6.3C11.8998 7.2 11.6998 8.19999 12.3998 8.69999C12.2998 8.89999 12.1998 9.19999 12.1998 9.39999C12.0998 9.99999 13.2998 10.6 13.3998 10.9C13.4998 11.2 14.5998 11.6 15.2998 11.9C15.4998 12 15.8998 11.9 16.1998 11.8C16.3998 11.7 16.5998 11.7 16.7998 11.8C17.9998 12.3 18.7998 11.7 19.1998 11.3C19.5998 10.7 19.8998 9.69999 19.9998 9.19999C19.9998 8.99999 20.0998 8.9 20.1998 8.8C20.9998 8 20.9998 6.89999 20.6998 6.49999C20.3998 6.09999 20.4998 6.19999 19.8998 5.99999L19.6998 5.89999Z" fill="url(#paint0_radial_164_10786)"/>
<path d="M15.6 8.30001C15.6 8.30001 15.3 7.3 15.2 6.9C15.1 6.5 15.9 5.60001 16.4 5.80001C16.9 6.00001 17.3 6.20001 17.1 6.80001C16.9 7.40001 16.9 8.10001 16.9 8.10001C16.8 9.00001 16.3 9.00001 15.6 8.30001Z" fill="#CFA740"/>
<path d="M50.2996 5.60001C50.2996 5.60001 50.7996 4.89999 49.3996 2.89999C48.3996 1.49999 46.9996 1.6 46.2996 1.8H45.9996C45.7996 1.8 45.5996 1.8 45.3996 1.7C45.2996 1.6 45.0996 1.60001 44.9996 1.60001C44.0996 1.60001 43.3996 2.00001 42.9996 2.60001C42.7996 2.90001 42.4996 3.10001 42.0996 3.10001C41.4996 3.10001 40.6996 3.29999 40.2996 3.89999C39.5996 4.89999 39.0996 6.30001 39.8996 7.10001C39.6996 7.40001 39.4996 7.69999 39.3996 7.89999C39.0996 8.59999 40.4996 9.8 40.4996 10.2C40.4996 10.6 41.8996 11.5 42.7996 12C43.0996 12.2 43.4996 12.2 43.9996 12.2C44.2996 12.2 44.4996 12.2 44.6996 12.4C46.0996 13.4 47.3996 12.9 47.9996 12.4C48.6996 11.8 49.2996 10.5 49.5996 9.89999C49.6996 9.69999 49.7996 9.49999 49.9996 9.39999C51.2996 8.59999 51.5996 7.1 51.2996 6.5C50.9996 5.9 51.0996 6.00001 50.3996 5.60001H50.2996Z" fill="url(#paint1_radial_164_10786)"/>
<path d="M44.1997 7.7C44.1997 7.7 44.1997 6.3 44.1997 5.7C44.1997 5.2 45.4997 4.30001 46.0997 4.60001C46.6997 5.00001 47.1997 5.4 46.7997 6.2C46.3997 6.9 46.1997 7.9 46.1997 7.9C45.4997 8.9 44.8997 8.8 44.1997 7.7Z" fill="#CFA740"/>
<path d="M20.0996 11.1C20.0996 11.1 20.6996 11 21.3996 10.8C22.0996 10.6 23.3996 10.6 22.9996 11.1C22.5996 11.6 21.1996 12 20.8996 11.7C20.4996 11.5 20.0996 11.1 20.0996 11.1Z" fill="url(#paint2_radial_164_10786)"/>
<path d="M36.9994 10C36.9994 10 35.6994 10.2 34.1994 10.2C32.6994 10.2 30.0994 11.3 31.1994 12C32.3994 12.7 35.2994 12.5 35.8994 11.8C36.4994 11.2 36.9994 10 36.9994 10Z" fill="url(#paint3_radial_164_10786)"/>
<defs>
<radialGradient id="paint0_radial_164_10786" cx="0" cy="0" r="1" gradientUnits="userSpaceOnUse" gradientTransform="translate(21.3114 13.0911) rotate(5.91754) scale(28.8634 28.8634)">
<stop stop-color="#FB624D"/>
<stop offset="1" stop-color="#BA001A"/>
</radialGradient>
<radialGradient id="paint1_radial_164_10786" cx="0" cy="0" r="1" gradientUnits="userSpaceOnUse" gradientTransform="translate(55.2178 1.07461) scale(19.2388 19.2388)">
<stop stop-color="#FB624D"/>
<stop offset="1" stop-color="#BA001A"/>
</radialGradient>
<radialGradient id="paint2_radial_164_10786" cx="0" cy="0" r="1" gradientUnits="userSpaceOnUse" gradientTransform="translate(21.243 9.16291) scale(5.99929 5.99927)">
<stop stop-color="#FB624D"/>
<stop offset="1" stop-color="#BA001A"/>
</radialGradient>
<radialGradient id="paint3_radial_164_10786" cx="0" cy="0" r="1" gradientUnits="userSpaceOnUse" gradientTransform="translate(35.1255 12.2587) rotate(160.574) scale(14.1048 14.6695)">
<stop stop-color="#FB624D"/>
<stop offset="1" stop-color="#BA001A"/>
</radialGradient>
</defs>
</svg>
