<svg width="52" height="32" viewBox="0 0 52 32" fill="none" xmlns="http://www.w3.org/2000/svg">
<path d="M1.99964 22.9C1.09964 24.3 1.19965 26.6 6.29965 27.7C11.3996 28.7 12.5996 28.6 12.5996 28.6C12.5996 28.6 21.7996 28 23.3996 28.2C24.8996 28.3 33.4996 30.4 34.8996 30.3C36.2996 30.2 52.9996 24 50.3996 19.2C47.5996 14 31.5996 5.29998 24.8996 6.79998C20.8996 7.69998 17.9996 8.79999 16.2996 9.39999C14.2996 10.2 12.4996 11.9 8.79965 14C5.09965 16.1 1.99964 22.9 1.99964 22.9Z" fill="url(#paint0_radial_164_10680)"/>
<path d="M22.1997 20.7C22.1997 20.7 23.3997 21.1 24.4997 21.2C25.0997 21.3 23.5997 21.9 23.5997 23.2C23.6997 24.6 24.6997 26.2 24.9997 26.3C25.2997 26.4 23.5997 27.1 22.9997 27.6C22.3997 28.1 21.8997 28.3 20.9997 28.3C20.0997 28.3 19.1997 28.1 19.1997 28.1L22.1997 20.7Z" fill="#2D2A31"/>
<path d="M18.8998 13.7C18.8998 13.5 18.5998 12.8 19.0998 12.2C19.8998 11.4 19.6998 12.9 20.7998 12.3C21.8998 11.7 23.8998 12.8 24.1998 13.6C24.4998 14.4 22.7998 15.6 22.7998 15.6L18.8998 13.7Z" fill="#2D2A31"/>
<path d="M13.8998 22.2C13.8998 22.2 11.5998 24.5 10.8998 24.5C10.2998 24.5 11.9998 27.4 11.6998 28.1C11.3998 28.8 12.5998 28.5 12.5998 28.5C12.5998 28.5 14.4998 27.4 15.4998 27.4C16.4998 27.4 14.3998 23.6 14.3998 23.6L13.8998 22.2Z" fill="#2D2A31"/>
<path d="M18.5996 13.5L16.1997 15.7C16.0997 15.8 15.9996 16 15.8996 16.1L13.8996 20.9L11.9996 25.5C11.7996 25.9 11.8996 26.4 12.0996 26.7L13.2996 28.4C13.4996 28.7 13.7997 28.9 14.1997 28.9L17.4996 29.3C17.5996 29.3 17.7996 29.3 17.8996 29.3L19.9996 28.9C20.4996 28.8 20.8996 28.5 20.9996 28L21.6997 25.5V25.4C21.7997 25 22.0996 23.2 22.0996 23C22.0996 22.8 22.6996 21.3 22.9996 20.8C23.0996 20.7 23.0997 20.6 23.1997 20.5L24.1997 19.4C24.3997 19.1 24.5996 18.7 24.4996 18.4L23.9996 15.4V15.3L23.7996 14.4C23.6996 13.9 23.1997 13.5 22.6997 13.5L19.6997 13.3C19.1997 13.2 18.8996 13.3 18.5996 13.5Z" fill="#DBD7C1"/>
<path d="M39.2995 11.2C39.2995 11.2 41.4995 10.4 41.9995 8.79997C42.7995 5.79997 43.4995 5.59999 43.4995 5.59999C43.4995 5.59999 38.1995 6.49998 36.8995 7.89998C35.5995 9.29998 35.6995 9.79997 35.6995 9.79997L39.2995 11.2Z" fill="#608B00"/>
<path d="M38.9997 9.09999C38.9997 9.09999 39.8997 8.59998 39.4997 5.89998C39.1997 3.99998 37.6997 3.39999 36.8997 3.09999L36.4997 2.99998C36.2997 2.89998 36.0997 2.69998 35.8997 2.49998C35.7997 2.39998 35.6997 2.19998 35.4997 2.19998C34.5997 1.69998 33.6997 1.69998 32.8997 2.19998C32.4997 2.39998 32.0997 2.49999 31.6997 2.29999C31.0997 1.99999 30.1997 1.79998 29.4997 2.19998C28.2997 2.89998 27.0997 3.99997 27.3997 5.29997C26.9997 5.49997 26.6997 5.69998 26.4997 5.89998C25.7997 6.49998 26.5997 8.39997 26.3997 8.79997C26.1997 9.19997 27.0997 10.9 27.7997 11.8C27.9997 12.1 28.3997 12.4 28.8997 12.6C29.1997 12.7 29.3997 12.9 29.5997 13.2C30.5997 14.9 31.9997 15.1 32.9997 14.9C34.0997 14.7 35.2997 13.7 35.8997 13.2C36.0997 13 36.2997 12.9 36.5997 12.9C38.2997 12.7 39.3997 11.4 39.3997 10.7C39.3997 9.9 39.3997 10.1 38.9997 9.39998V9.09999Z" fill="url(#paint1_radial_164_10680)"/>
<path d="M31.6997 7.99998C31.6997 7.99998 32.3997 6.49998 32.6997 5.99998C32.9997 5.49998 34.7997 5.19997 35.0997 5.89997C35.4997 6.59997 35.6997 7.29996 34.9997 7.79996C34.2997 8.29996 33.4997 9.19999 33.4997 9.19999C32.4997 9.89999 31.8997 9.59998 31.6997 7.99998Z" fill="#CFA740"/>
<path d="M18.2996 10.3C18.2996 10.3 18.3996 9.69998 16.9996 8.89998C15.9996 8.29998 15.0997 8.79999 14.6997 9.09999L14.4996 9.2C14.3996 9.3 14.1996 9.29997 14.0996 9.29997C13.9996 9.29997 13.8996 9.29997 13.7996 9.29997C13.1996 9.49997 12.8996 9.99999 12.7996 10.5C12.7996 10.8 12.5996 11 12.3996 11.1C11.9996 11.3 11.5996 11.6 11.4996 12.1C11.3996 13 11.4997 14 12.1997 14.3C12.1997 14.5 12.0996 14.8 12.0996 14.9C12.0996 15.4 13.2996 15.8 13.4996 16.1C13.6996 16.4 14.7996 16.5 15.4996 16.6C15.6996 16.6 15.9996 16.5 16.2996 16.4C16.4996 16.3 16.6996 16.3 16.7996 16.3C17.9996 16.5 18.5996 15.8 18.8996 15.3C19.1996 14.7 19.1997 13.7 19.1997 13.2C19.1997 13 19.1996 12.9 19.2996 12.8C19.8996 11.9 19.5996 10.9 19.2996 10.6C18.9996 10.3 18.9996 10.3 18.4996 10.3H18.2996Z" fill="url(#paint2_radial_164_10680)"/>
<path d="M14.9998 13.4C14.9998 13.4 14.5998 12.5 14.3998 12.2C14.1998 11.9 14.7998 10.9 15.2998 11C15.7998 11.1 16.1998 11.2 16.1998 11.8C16.1998 12.4 16.2998 13 16.2998 13C16.1998 13.8 15.7998 13.9 14.9998 13.4Z" fill="#CFA740"/>
<path d="M25.3994 20.8C25.3994 20.8 25.5994 20.6 25.3994 19.9C25.1994 19.4 24.7994 19.3 24.5994 19.2H24.4994C24.3994 19.2 24.3994 19.1 24.2994 19.1L24.1994 19C23.8994 18.9 23.6994 18.9 23.4994 19.1C23.3994 19.2 23.2994 19.2 23.1994 19.2C22.9994 19.1 22.7994 19.1 22.5994 19.3C22.2994 19.5 21.9994 19.9 22.1994 20.2C22.0994 20.3 21.9994 20.3 21.9994 20.4C21.7994 20.6 22.0994 21.1 22.0994 21.2C22.0994 21.3 22.3994 21.8 22.5994 22C22.6994 22.1 22.7994 22.1 22.8994 22.2C22.9994 22.2 23.0994 22.3 23.0994 22.3C23.3994 22.7 23.8994 22.7 24.0994 22.6C24.3994 22.5 24.6994 22.2 24.8994 22C24.8994 21.9 24.9994 21.9 25.0994 21.9C25.5994 21.8 25.7994 21.4 25.7994 21.2C25.5994 21 25.5994 21 25.3994 20.8Z" fill="url(#paint3_radial_164_10680)"/>
<defs>
<radialGradient id="paint0_radial_164_10680" cx="0" cy="0" r="1" gradientUnits="userSpaceOnUse" gradientTransform="translate(31.9579 5.34818) scale(28.8067 28.8067)">
<stop stop-color="#C4C658"/>
<stop offset="1" stop-color="#9FBA34"/>
</radialGradient>
<radialGradient id="paint1_radial_164_10680" cx="0" cy="0" r="1" gradientUnits="userSpaceOnUse" gradientTransform="translate(21.554 14.9178) rotate(-10.3177) scale(17.7497 17.7497)">
<stop stop-color="#FB624D"/>
<stop offset="1" stop-color="#BA001A"/>
</radialGradient>
<radialGradient id="paint2_radial_164_10680" cx="0" cy="0" r="1" gradientUnits="userSpaceOnUse" gradientTransform="translate(17.4772 15.9653) scale(21.0322 21.0322)">
<stop stop-color="#FB624D"/>
<stop offset="1" stop-color="#BA001A"/>
</radialGradient>
<radialGradient id="paint3_radial_164_10680" cx="0" cy="0" r="1" gradientUnits="userSpaceOnUse" gradientTransform="translate(23.3187 22.4577) rotate(43.3429) scale(9.63871 9.63871)">
<stop stop-color="#FB624D"/>
<stop offset="1" stop-color="#BA001A"/>
</radialGradient>
</defs>
</svg>
