<svg width="60" height="28" viewBox="0 0 60 28" fill="none" xmlns="http://www.w3.org/2000/svg">
<g clip-path="url(#clip0_164_10870)">
<path d="M0.80032 22.7C1.20032 19.1 7.00031 9.5 12.7003 7.7C17.7003 6.1 23.3003 5 31.4003 8.2C45.3003 13.7 58.6003 23.2 57.5003 25.1C56.4003 27 32.9003 27 29.7003 27C26.6003 27 18.1003 26.7 4.20031 26.7C-0.699686 26.6 0.40032 25.6 0.80032 22.7Z" fill="url(#paint0_linear_164_10870)"/>
<path d="M5.1001 27H34.2001L26.4001 15L16.4001 14.3L7.90009 18.7L5.1001 27Z" fill="#2A2620"/>
<path d="M2.2002 27C2.2002 27 5.3002 11.9 18.2002 11.9C30.0002 11.9 34.6002 21.5 36.7002 27H30.0002C30.0002 27 29.9002 21.2 26.3002 18.7H20.8002L19.8002 16.1H16.6002L15.6002 18.7H9.90019C9.90019 18.7 6.90019 24.2 6.90019 27H2.2002Z" fill="#7C6E55"/>
<path d="M15.3001 7.80001C15.3001 7.80001 15.6001 7.10001 14.1001 5.60001C13.0001 4.60001 11.8001 4.9 11.2001 5.2L10.9001 5.30001C10.7001 5.40001 10.5001 5.40001 10.3001 5.30001C10.2001 5.30001 10.0001 5.20001 9.9001 5.30001C9.1001 5.40001 8.50011 5.9 8.30011 6.5C8.20011 6.8 7.90011 7.10001 7.60011 7.10001C7.10011 7.20001 6.4001 7.50001 6.2001 8.10001C5.8001 9.10001 5.6001 10.4 6.4001 11C6.3001 11.3 6.20011 11.6 6.10011 11.8C6.00011 12.5 7.4001 13.3 7.5001 13.6C7.6001 14 9.00011 14.5 9.80011 14.8C10.1001 14.9 10.5001 14.9 10.9001 14.8C11.1001 14.7 11.4001 14.7 11.6001 14.8C13.0001 15.4 14.0001 14.8 14.5001 14.2C15.0001 13.5 15.3001 12.3 15.5001 11.7C15.5001 11.5 15.6001 11.3 15.8001 11.2C16.8001 10.2 16.8001 8.9 16.5001 8.4C16.2001 7.9 16.2001 8.00001 15.6001 7.80001H15.3001Z" fill="url(#paint1_radial_164_10870)"/>
<path d="M11.1002 10.9C11.1002 10.9 10.6002 10.1 10.5002 9.69999C10.3002 9.39999 10.8002 8.39999 11.3002 8.49999C11.8002 8.59999 12.2002 8.69999 12.2002 9.19999C12.2002 9.69999 12.3002 10.4 12.3002 10.4C12.3002 11.2 11.9002 11.4 11.1002 10.9Z" fill="#CFA740"/>
<path d="M33.6003 20.9C33.6003 20.9 35.3003 21.5 36.3003 20.9C38.3003 19.6 38.7003 19.9 38.7003 19.9C38.7003 19.9 35.2003 17.7 33.9003 17.9C32.5003 18 32.3003 18.4 32.3003 18.4L33.6003 20.9Z" fill="#608B00"/>
<path d="M28.2 7.2C28.2 7.2 30.3 6 30.4 4.3C30.7 1.1 31.3 0.899994 31.3 0.899994C31.3 0.899994 26.1 2.79999 25.1 4.39999C24.1 5.99999 24.3 6.5 24.3 6.5L28.2 7.2Z" fill="url(#paint2_linear_164_10870)"/>
<path d="M24.3002 6.5C24.3002 6.5 22.7002 6.2 22.3002 5C21.6002 2.9 21.2002 2.8 21.2002 2.8C21.2002 2.8 25.0002 3.3 25.9002 4.3C26.8002 5.2 26.9002 6.89999 26.9002 6.89999L24.3002 6.5Z" fill="url(#paint3_linear_164_10870)"/>
<path d="M35.0003 16.6C35.0003 16.6 35.4003 16.2 34.8003 15C34.4003 14.1 33.6003 14 33.1003 14.1H32.9003C32.8003 14.1 32.6003 14 32.5003 14C32.4003 13.9 32.3003 13.9 32.3003 13.9C31.8003 13.8 31.3003 14 31.0003 14.3C30.8003 14.5 30.6003 14.5 30.4003 14.5C30.1003 14.5 29.6003 14.5 29.3003 14.8C28.8003 15.3 28.4003 16.1 28.8003 16.6C28.7003 16.7 28.5003 16.9 28.5003 17C28.3003 17.4 28.9003 18.2 28.9003 18.4C28.9003 18.6 29.6003 19.3 30.0003 19.7C30.1003 19.8 30.4003 19.9 30.7003 19.9C30.9003 19.9 31.0003 20 31.1003 20.1C31.8003 20.8 32.6003 20.7 33.0003 20.4C33.5003 20.1 34.0003 19.5 34.2003 19.1C34.3003 19 34.4003 18.9 34.5003 18.8C35.3003 18.4 35.6003 17.7 35.5003 17.3C35.4003 16.9 35.4003 17 35.0003 16.6Z" fill="url(#paint4_radial_164_10870)"/>
<path d="M31.8002 17.5C31.8002 17.5 31.7002 16.9 31.7002 16.7C31.7002 16.5 32.2002 16 32.5002 16.2C32.8002 16.3 33.0002 16.5 32.9002 16.8C32.8002 17.1 32.7002 17.5 32.7002 17.5C32.4002 18 32.2002 18 31.8002 17.5Z" fill="#CFA740"/>
</g>
<defs>
<linearGradient id="paint0_linear_164_10870" x1="28.2492" y1="13.2853" x2="28.9926" y2="25.3291" gradientUnits="userSpaceOnUse">
<stop stop-color="#C4C658"/>
<stop offset="1" stop-color="#9FBA34"/>
</linearGradient>
<radialGradient id="paint1_radial_164_10870" cx="0" cy="0" r="1" gradientUnits="userSpaceOnUse" gradientTransform="translate(17.9772 12.0665) scale(16.6332 16.6332)">
<stop stop-color="#FB624D"/>
<stop offset="1" stop-color="#BA001A"/>
</radialGradient>
<linearGradient id="paint2_linear_164_10870" x1="28.6606" y1="1.73824" x2="26.2634" y2="8.2714" gradientUnits="userSpaceOnUse">
<stop stop-color="#C4C658"/>
<stop offset="1" stop-color="#9FBA34"/>
</linearGradient>
<linearGradient id="paint3_linear_164_10870" x1="23.22" y1="3.29744" x2="26.347" y2="8.27166" gradientUnits="userSpaceOnUse">
<stop stop-color="#C4C658"/>
<stop offset="1" stop-color="#9FBA34"/>
</linearGradient>
<radialGradient id="paint4_radial_164_10870" cx="0" cy="0" r="1" gradientUnits="userSpaceOnUse" gradientTransform="translate(35.6978 19.802) rotate(21.1502) scale(10.7731 10.7731)">
<stop stop-color="#FB624D"/>
<stop offset="1" stop-color="#BA001A"/>
</radialGradient>
<clipPath id="clip0_164_10870">
<rect width="60" height="28" fill="white"/>
</clipPath>
</defs>
</svg>
