<svg width="64" height="92" viewBox="0 0 64 92" fill="none" xmlns="http://www.w3.org/2000/svg">
<g clip-path="url(#clip0_164_10406)">
<path d="M6.1999 22.9C5.8999 21.1 6.5999 19.2 7.9999 18C10.9999 15.4 15.9999 11.2 17.2999 11.7C18.8999 12.4 27.8999 17.4 30.1999 18.6C30.5999 18.8 30.8999 19 31.2999 19.1L38.1999 21.1L40.3999 21.6C41.3999 21.8 42.3999 21.8 43.2999 21.5L47.6999 20.2C48.8999 19.9 50.0999 19.9 51.1999 20.3L56.3999 22.3C57.8999 22.9 59.0999 24.1 59.5999 25.7L62.0999 33.2C62.6999 35.1 62.2999 37.2 60.8999 38.6L60.6999 38.8C59.6999 39.9 58.1999 40.6 56.6999 40.6H13.2999C10.2999 40.6 7.7999 38.2 7.7999 35.1C7.7999 34.8 7.7999 34.6 7.6999 34.3L6.1999 22.9Z" fill="#A5A9AA"/>
<mask id="mask0_164_10406" style="mask-type:luminance" maskUnits="userSpaceOnUse" x="6" y="11" width="57" height="30">
<path d="M6.1999 22.9C5.8999 21.1 6.5999 19.2 7.9999 18C10.9999 15.4 15.9999 11.2 17.2999 11.7C18.8999 12.4 27.8999 17.4 30.1999 18.6C30.5999 18.8 30.8999 19 31.2999 19.1L38.1999 21.1L40.3999 21.6C41.3999 21.8 42.3999 21.8 43.2999 21.5L47.6999 20.2C48.8999 19.9 50.0999 19.9 51.1999 20.3L56.3999 22.3C57.8999 22.9 59.0999 24.1 59.5999 25.7L62.0999 33.2C62.6999 35.1 62.2999 37.2 60.8999 38.6L60.6999 38.8C59.6999 39.9 58.1999 40.6 56.6999 40.6H13.2999C10.2999 40.6 7.7999 38.2 7.7999 35.1C7.7999 34.8 7.7999 34.6 7.6999 34.3L6.1999 22.9Z" fill="white"/>
</mask>
<g mask="url(#mask0_164_10406)">
<path opacity="0.7" d="M36.2999 45.7C44.8051 45.7 51.6999 40.9094 51.6999 35C51.6999 29.0906 44.8051 24.3 36.2999 24.3C27.7947 24.3 20.8999 29.0906 20.8999 35C20.8999 40.9094 27.7947 45.7 36.2999 45.7Z" fill="#8D9091"/>
</g>
<mask id="mask1_164_10406" style="mask-type:luminance" maskUnits="userSpaceOnUse" x="6" y="11" width="57" height="30">
<path d="M6.1999 22.9C5.8999 21.1 6.5999 19.2 7.9999 18C10.9999 15.4 15.9999 11.2 17.2999 11.7C18.8999 12.4 27.8999 17.4 30.1999 18.6C30.5999 18.8 30.8999 19 31.2999 19.1L38.1999 21.1L40.3999 21.6C41.3999 21.8 42.3999 21.8 43.2999 21.5L47.6999 20.2C48.8999 19.9 50.0999 19.9 51.1999 20.3L56.3999 22.3C57.8999 22.9 59.0999 24.1 59.5999 25.7L62.0999 33.2C62.6999 35.1 62.2999 37.2 60.8999 38.6L60.6999 38.8C59.6999 39.9 58.1999 40.6 56.6999 40.6H13.2999C10.2999 40.6 7.7999 38.2 7.7999 35.1C7.7999 34.8 7.7999 34.6 7.6999 34.3L6.1999 22.9Z" fill="white"/>
</mask>
<g mask="url(#mask1_164_10406)">
<path opacity="0.7" d="M36.2998 43C42.6511 43 47.7998 39.4183 47.7998 35C47.7998 30.5817 42.6511 27 36.2998 27C29.9485 27 24.7998 30.5817 24.7998 35C24.7998 39.4183 29.9485 43 36.2998 43Z" fill="#727475"/>
</g>
<path d="M18.3997 10.7C18.4997 10.7 18.4997 10.7 18.5997 10.7C21.4997 10.7 19.6997 8.89999 24.3997 12.5L28.9997 16.1C29.0997 16.2 29.1997 16.2 29.2997 16.3L34.7997 19.4C35.1997 19.6 35.5997 19.7 35.9997 19.7L42.0997 19.3L46.6997 19.1C46.7997 19.1 46.8997 19.1 46.9997 19.1L55.8997 19.8C56.3997 19.8 56.7997 20 57.1997 20.4L58.5997 21.7C58.6997 21.8 58.6997 21.8 58.7997 21.9C59.6997 23 59.2997 24.7 57.9997 25.3L57.4997 25.5C56.9997 25.7 56.2997 25.7 55.7997 25.5C54.0997 24.7 50.1997 23.1 49.9997 23.1C49.7997 23.1 44.5997 24.5 42.8997 24.9C42.4997 25 42.1997 25 41.7997 24.9L28.9997 21.6C28.7997 21.6 28.6997 21.5 28.4997 21.4L20.7997 17.3C20.7997 17.3 20.6997 17.3 20.6997 17.2C20.1997 17 15.5997 14.9 15.2997 14.8C15.1997 14.8 15.0997 14.4 14.9997 14.1C14.7997 13.4 15.0997 12.6 15.5997 12.1L16.2997 11.5C16.5997 11.2 17.0997 11 17.5997 10.9L18.3997 10.7Z" fill="#5B6D01"/>
<path d="M21.5999 46.5C25.8999 46.7 26.4999 49.3 30.0999 50.4C33.2999 51.4 39.3999 48.3 47.9999 45.6C51.3999 44.5 56.7999 45.7 60.4999 44.5C61.3999 44.5 62.3999 43.6 62.4999 42.7C62.5999 41.4 62.5999 41.4 60.0999 39.7C59.5999 39.3 55.9999 38 55.3999 37.8H55.2999C54.4999 37.6 47.6999 36.3 47.0999 36.3C46.6999 36.3 44.0999 36.7 42.3999 37C42.2999 32.7 42.8999 24.5 42.9999 22.3C43.1999 19.5 44.1999 18.4 42.2999 18.5C41.4999 18.5 40.7999 18.6 40.1999 18.6C39.0999 18.7 37.7999 18.1 37.2999 19C37.1999 19.2 37.0999 19.3 37.0999 19.4C36.9999 19.8 37.3999 30.1 37.5999 35.9L37.3999 35.8C36.8999 34.3 36.4999 32.6 36.4999 30.6C36.5999 25.9 36.4999 20.4 36.4999 19.5C36.4999 19.4 36.4999 19.3 36.4999 19.3C36.5999 19 36.7999 18.1 34.6999 17.7C33.6999 17.5 33.0999 17.5 32.5999 17.5C32.0999 17.5 31.8999 18 32.0999 18.4C32.4999 19.2 33.0999 20.8 33.1999 22.9C33.3999 26.2 33.1999 34.3 33.1999 34.8L33.0999 35.6L24.4999 36C24.3999 36 24.3999 36 24.2999 36C24.2999 36 19.5999 35.7 13.6999 38.3C7.7999 41.1 9.19991 45.8 21.5999 46.5Z" fill="#2D79B2"/>
<path d="M27.4997 89.1C28.1997 89.1 28.6997 88.5 28.5997 87.9C28.0997 81.2 28.7997 51.3 28.7997 48.1C28.7997 46.5 30.1997 44.9 31.6997 43.7C33.0997 42.5 32.8997 40.3 31.2997 39.4L30.3997 38.9C29.7997 38.6 29.1997 38.5 28.5997 38.7L23.8997 39.9C22.1997 40.3 21.3997 42.3 22.3997 43.8C23.3997 45.4 24.0997 47.4 24.0997 49.4V87.9C24.0997 88.5 24.5997 89 25.1997 89H27.4997V89.1Z" fill="url(#paint0_linear_164_10406)"/>
<path d="M10.5998 23.3C10.5998 23.3 6.7998 23.4 5.2998 25.6C2.3998 29.8 1.2998 29.6 1.2998 29.6C1.2998 29.6 9.89981 31 12.5998 29.6C15.1998 28.2 15.3998 27.3 15.3998 27.3L10.5998 23.3Z" fill="#608B00"/>
<path d="M18.9997 9.39999C18.9997 9.39999 18.4997 5.59999 16.0997 4.39999C11.5997 1.99999 11.6997 0.899994 11.6997 0.899994C11.6997 0.899994 11.2997 9.60001 12.9997 12.1C14.6997 14.6 15.5997 14.6 15.5997 14.6L18.9997 9.39999Z" fill="#608B00"/>
<path d="M30.7997 17.6C30.7997 17.6 31.8997 16.3 31.5997 15.2C30.9997 13 31.3997 12.7 31.3997 12.7C31.3997 12.7 28.4997 15.2 28.1997 16.5C27.8997 17.8 28.1997 18.1 28.1997 18.1L30.7997 17.6Z" fill="#5B6D01"/>
<path d="M29.3997 15.8C29.3997 15.8 29.6997 13.5 29.0997 12.5C28.0997 10.6 28.1997 10 28.1997 10C28.1997 10 27.0997 15.1 27.2997 16.7C27.4997 18.3 27.7997 18.5 27.7997 18.5L29.3997 15.8Z" fill="#5B6D01"/>
<path d="M15.5999 9.00001C15.5999 9.00001 15.1999 7.40002 10.7999 7.10002C7.69989 6.90002 6.19989 9.00003 5.49989 10.2L5.19989 10.7C4.99989 11.1 4.59989 11.3 4.29989 11.5C3.99989 11.6 3.79989 11.8 3.59989 12C2.49989 13.2 2.19989 14.8 2.59989 16.1C2.79989 16.8 2.69989 17.5 2.29989 18.1C1.59989 19 0.999892 20.3 1.29989 21.5C1.89989 23.7 3.29989 26 5.49989 25.9C5.69989 26.5 5.89989 27.1 6.09989 27.5C6.69989 28.8 10.0999 28.2 10.6999 28.7C11.2999 29.1 14.2999 28.3 15.9999 27.6C16.5999 27.4 17.1999 26.8 17.6999 26.1C17.9999 25.7 18.3999 25.4 18.8999 25.3C21.8999 24.4 22.7999 22.1 22.7999 20.6C22.7999 18.8 21.6999 16.5 21.0999 15.3C20.8999 14.9 20.7999 14.5 20.8999 14.1C21.1999 11.3 19.4999 9.2 18.3999 8.8C17.1999 8.5 17.3999 8.50001 16.0999 9.00001H15.5999Z" fill="url(#paint1_radial_164_10406)"/>
<path d="M10.2997 20.2C10.2997 20.2 8.89969 17.9 8.39969 17.1C7.89969 16.3 9.09968 13.6 10.3997 13.7C11.6997 13.8 12.8997 14 12.8997 15.5C12.8997 17 13.4997 18.7 13.4997 18.7C13.5997 20.8 12.5997 21.3 10.2997 20.2Z" fill="#CFAF5D"/>
<path d="M49.5998 16.1C49.5998 16.1 49.6998 13.8 48.4998 12.8C46.0998 10.8 46.2998 10.2 46.2998 10.2C46.2998 10.2 44.9998 15.3 45.7998 17C46.4998 18.7 46.9998 18.8 46.9998 18.8L49.5998 16.1Z" fill="#608B00"/>
<path d="M57.5996 21.8C57.5996 21.8 59.8996 21.7 60.7996 20.3C62.4996 17.7 63.0996 17.8 63.0996 17.8C63.0996 17.8 57.8996 17.1 56.2996 18.1C54.6996 19 54.5996 19.5 54.5996 19.5L57.5996 21.8Z" fill="#608B00"/>
<path d="M57.9999 19.8C57.9999 19.8 58.9999 19.6 59.3999 17C59.6999 15.2 58.4999 14.1 57.7999 13.7L57.4999 13.5C57.2999 13.4 57.1999 13.1 57.0999 12.9C56.9999 12.7 56.9999 12.6 56.8999 12.5C56.1999 11.8 55.2999 11.5 54.4999 11.7C54.0999 11.8 53.6999 11.7 53.2999 11.4C52.7999 11 51.9999 10.5 51.2999 10.7C49.8999 11 48.4999 11.7 48.4999 13C48.0999 13.1 47.7999 13.2 47.4999 13.3C46.6999 13.6 46.8999 15.7 46.5999 16C46.2999 16.4 46.6999 18.2 46.9999 19.2C47.0999 19.6 47.3999 19.9 47.7999 20.3C47.9999 20.5 48.1999 20.7 48.2999 21C48.6999 22.9 49.9999 23.5 50.9999 23.5C52.0999 23.6 53.4999 23 54.1999 22.7C54.3999 22.6 54.6999 22.6 54.8999 22.6C56.5999 22.9 57.8999 22 58.1999 21.3C58.3999 20.6 58.3999 20.7 58.1999 19.9L57.9999 19.8Z" fill="url(#paint2_radial_164_10406)"/>
<path d="M51.4997 16.1C51.4997 16.1 52.8997 15.4 53.3997 15.1C53.8997 14.8 55.4997 15.7 55.3997 16.4C55.2997 17.1 55.0997 17.9 54.1997 17.8C53.2997 17.7 52.1997 18 52.1997 18C50.9997 18 50.6997 17.4 51.4997 16.1Z" fill="#CFAF5D"/>
<path d="M41.4995 38.7C41.4995 38.7 44.4995 38.1 47.8995 37C51.1995 35.9 57.9995 36.2 55.9995 38.7C53.9995 41.2 47.0995 43.1 45.2995 42C43.4995 40.9 41.4995 38.7 41.4995 38.7Z" fill="url(#paint3_radial_164_10406)"/>
<path d="M37.2997 43.2C37.2997 43.2 35.9997 43.4 34.4997 43.4C32.9997 43.4 30.3997 44.5 31.4997 45.2C32.6997 45.9 35.5997 45.7 36.1997 45C36.7997 44.3 37.2997 43.2 37.2997 43.2Z" fill="url(#paint4_radial_164_10406)"/>
</g>
<defs>
<linearGradient id="paint0_linear_164_10406" x1="27.3329" y1="50.6541" x2="27.3329" y2="78.6997" gradientUnits="userSpaceOnUse">
<stop stop-color="#2D79B2"/>
<stop offset="1" stop-color="#FB624D"/>
</linearGradient>
<radialGradient id="paint1_radial_164_10406" cx="0" cy="0" r="1" gradientUnits="userSpaceOnUse" gradientTransform="translate(14.2894 14.9882) scale(18.4773 18.4773)">
<stop stop-color="#FB624D"/>
<stop offset="1" stop-color="#BA001A"/>
</radialGradient>
<radialGradient id="paint2_radial_164_10406" cx="0" cy="0" r="1" gradientUnits="userSpaceOnUse" gradientTransform="translate(51.5817 23.2621) scale(29.6105)">
<stop stop-color="#FB624D"/>
<stop offset="1" stop-color="#BA001A"/>
</radialGradient>
<radialGradient id="paint3_radial_164_10406" cx="0" cy="0" r="1" gradientUnits="userSpaceOnUse" gradientTransform="translate(47.4726 42.2227) scale(33.6234 34.9661)">
<stop stop-color="#FB624D"/>
<stop offset="1" stop-color="#BA001A"/>
</radialGradient>
<radialGradient id="paint4_radial_164_10406" cx="0" cy="0" r="1" gradientUnits="userSpaceOnUse" gradientTransform="translate(35.4462 45.438) rotate(160.574) scale(14.1048 14.6694)">
<stop stop-color="#FB624D"/>
<stop offset="1" stop-color="#BA001A"/>
</radialGradient>
<clipPath id="clip0_164_10406">
<rect width="64" height="92" fill="white"/>
</clipPath>
</defs>
</svg>
