<svg width="48" height="32" viewBox="0 0 48 32" fill="none" xmlns="http://www.w3.org/2000/svg">
<g clip-path="url(#clip0_164_10708)">
<path d="M20.8002 10.3C22.6002 10.6 24.9002 11.4 26.6002 12.1C27.1002 12.3 27.5002 12.5 27.9002 12.7C27.9002 12.7 28.3002 12.8 28.6002 12.9C29.0002 13.1 29.5002 13.5 29.9002 13.5C30.2002 13.7 30.2002 13.7 30.4002 13.9C31.0002 13.8 31.5002 14.5 32.0002 14.6C32.6002 15.4 33.0002 15.2 33.5002 15.4C33.6002 15.4 34.1002 15.9 34.4002 16C33.8002 16.4 32.3002 17.8 31.7002 18.4C31.7002 18.4 31.4002 18.6 31.2002 18.7C27.6002 21.7 24.1002 24.7 20.5002 27.7C20.4002 27.7 20.4002 27.7 20.4002 27.7C20.6002 27.1 20.8002 26.1 20.7002 25.4C20.8002 25.2 20.8002 25.2 20.8002 25C20.8002 24.2 20.8002 24.2 20.8002 23.3C20.5002 22.4 20.4002 21.5 20.2002 20.6C19.9002 19.9 19.3002 19.8 19.3002 18.7C18.2002 17.8 18.2002 17.3 16.7002 16.1C15.6002 15.3 15.0002 15.2 13.8002 14.4C12.6002 14.4 11.9002 14 11.8002 14C11.2002 13.9 10.2002 14 9.60019 14.3C9.30019 14.3 9.0002 14.3 8.7002 14.4C8.7002 14.3 8.9002 14.2 8.9002 14.1C9.6002 13.5 12.4002 11.9 13.1002 11.3C15.7002 9.69997 18.0002 9.99997 20.8002 10.3Z" fill="#FAF0E1"/>
<path d="M38.4002 12L37.9002 12.8C37.7002 13.1 37.3002 13.4 37.0002 13.7C36.5002 13.2 35.9002 13.4 35.5002 13.2C34.9002 12.8 35.3002 12.6 35.0002 12.4C34.9002 12.4 34.4002 11.8 34.0002 11.8C33.6002 11.4 33.6002 11.4 33.3002 11C32.4002 10.8 31.9002 10.2 31.5002 9.89997H31.4002C31.3002 9.79997 31.3002 9.79996 31.3002 9.79996C31.3002 9.79996 31.2002 9.79998 31.2002 9.69998C31.2002 9.69998 31.1002 9.69998 31.1002 9.59998C31.0002 9.59998 31.0002 9.49997 30.9002 9.49997C30.9002 9.49997 30.8002 9.49997 30.7002 9.39997C27.7002 7.59997 23.7002 6.69996 20.2002 6.79996C20.9002 6.19996 24.4002 3.99998 25.5002 3.19998C28.9002 1.09998 34.2002 1.69996 36.7002 4.79996C37.9002 6.29996 38.8002 8.69998 38.6002 10.6C38.7002 10.8 38.5002 11.9 38.4002 12Z" fill="#FAF0E1"/>
<path d="M44.5001 14.9C43.8001 14.9 36.1001 13.6 35.9001 12.5C35.8001 11.8 35.3001 12.6 35.1001 12.5C35.0001 12.5 34.5001 11.9 34.1001 11.9C33.7001 11.5 33.7001 11.5 33.4001 11.1C32.5001 10.9 32.0001 10.3 31.6001 9.99997H31.5001C31.4001 9.89997 31.4001 9.89997 31.4001 9.89997C31.4001 9.89997 31.3001 9.89996 31.3001 9.79996C31.3001 9.79996 31.2001 9.79999 31.2001 9.69999C31.1001 9.69999 31.1001 9.59998 31.0001 9.59998C31.0001 9.59998 30.9001 9.59997 30.8001 9.49997C27.8001 7.69997 23.8001 6.79997 20.3001 6.89997C20.3001 6.89997 20.3001 6.89997 20.3001 6.99997C20.2001 6.99997 20.1001 7.09997 20.0001 6.99997C19.9001 7.09997 19.9001 7.09998 19.8001 7.09998C19.6001 7.09998 19.5001 7.29997 19.3001 7.39997C19.3001 7.39997 19.2001 7.39997 19.2001 7.49997C19.2001 7.49997 19.1001 7.49998 19.1001 7.59998C19.1001 7.59998 19.0001 7.59999 19.0001 7.69999C18.9001 7.79999 18.8001 7.79997 18.7001 7.89997L18.6001 7.99997C18.6001 7.99997 18.5001 7.99998 18.5001 8.09998C18.5001 8.09998 18.4001 8.09999 18.4001 8.19999C18.3001 8.19999 18.3001 8.29996 18.2001 8.29996C18.2001 8.29996 18.1001 8.29997 18.1001 8.39997C18.1001 8.39997 18.0001 8.39997 18.0001 8.49997C18.0001 8.49997 17.9001 8.49998 17.9001 8.59998C17.8001 8.59998 17.8001 8.69999 17.7001 8.69999C17.7001 8.69999 17.6001 8.69996 17.6001 8.79996C17.5001 8.79996 17.5001 8.89997 17.4001 8.89997C17.2001 8.99997 17.0001 9.09996 16.9001 9.29996C16.8001 9.29996 16.8001 9.39997 16.7001 9.39997C16.1001 9.79997 14.4001 10.8 14.0001 11.1C13.9001 11.2 13.8001 11.4 13.6001 11.6C16.0001 9.79998 18.2001 10.2 21.0001 10.5C22.8001 10.8 25.1001 11.6 26.8001 12.3C27.3001 12.5 27.7001 12.7 28.1001 12.9C28.1001 12.9 28.5001 13 28.8001 13.1C29.2001 13.3 29.7001 13.7 30.1001 13.7C30.4001 13.9 30.4001 13.9 30.6001 14.1C31.2001 14 31.7001 14.7 32.2001 14.8C33.6001 16.6 41.3001 17.3 41.2001 16.7C41.2001 16.6 41.8001 17.2 42.1001 17.3C42.1001 17.3 42.2001 17.2 42.3001 17.2C42.6001 17.1 42.9001 17.3 43.3001 17.2C44.5001 17.1 45.2001 16.2 46.2001 15.8C45.4001 15.6 45.1001 14.9 44.5001 14.9Z" fill="#F5DBB5"/>
<path d="M9.10003 14.3C9.00003 14.4 8.90003 14.5 8.90003 14.6C8.40003 15 6.70003 15.9 6.40003 16.4C6.30003 16.6 6.10003 17.3 5.50003 17.9C5.40003 18.3 5.30003 18.7 5.10003 19.1C5.00003 20.2 4.70003 21.4 5.20003 22.5C4.90003 23.8 6.50003 26.1 6.50003 26.3C6.60003 26.8 5.60003 27.9 5.20003 28.2C5.20003 28.2 5.30003 28.2 5.30003 28.3C5.30003 28.3 5.30003 28.3 5.30003 28.4C5.30003 28.4 5.20003 28.4 5.20003 28.2C5.50003 27.9 6.50003 26.8 6.40003 26.4C4.90003 24.2 4.30003 20.2 5.40003 17.9C5.60003 17.5 6.00003 17 6.20003 16.5C7.10003 15.5 8.10003 14.9 9.10003 14.3Z" fill="#1D222F"/>
<path d="M20.3999 27.7C20.0999 28.5 19.3999 29.4 18.7999 30C16.4999 31.9 14.3999 31 11.7999 30.5C10.1999 29.7 8.59991 28.9 6.79991 28.4C6.39991 28.3 5.69991 28.2 5.49991 28.2C5.49991 28.2 5.39991 28.2 5.39991 28.1C5.79991 27.8 6.69991 26.7 6.69991 26.2C6.69991 26 5.09991 23.7 5.39991 22.4C4.89991 21.3 5.19991 20.1 5.29991 19C5.49991 18.6 5.59991 18.1999 5.69991 17.7999C6.29991 17.1999 6.4999 16.4999 6.5999 16.2999C6.8999 15.7999 8.4999 14.9 9.0999 14.5C9.3999 14.3 9.69991 14.4 9.99991 14.4C10.5999 14.2 11.5999 14 12.1999 14.1C12.2999 14.1 12.8999 14.5 14.1999 14.5C15.2999 15.3 15.9999 15.4 17.0999 16.2C18.5999 17.3 18.6999 17.8999 19.6999 18.7999C19.6999 19.8999 20.2999 20 20.5999 20.7C20.7999 21.6 20.9999 22.5 21.1999 23.4C21.1999 24.2 21.1999 24.2 21.1999 25.1C21.0999 25.3 21.0999 25.3 21.0999 25.5C20.7999 26.1 20.5999 27.1 20.3999 27.7Z" fill="#F5DBB5"/>
<path d="M11.3001 14.9C12.7001 14.8 14.1001 15.4 15.4001 16.1C18.2001 17.7 20.7001 21.3 20.3001 24.7C20.0001 26 20.3001 26.7 19.4001 28.1C18.6001 29.2 17.3001 30.0999 15.9001 30.2999C14.1001 30.5999 12.9001 30.2 11.4001 29.5C10.0001 28.9 8.40012 27.7 7.60012 26.4C7.40012 26.1 6.00012 23 5.90012 22.6C5.40012 21.2 5.60012 20 6.00012 18.6C6.30012 17.6 6.50012 17.1 7.30012 16.4C8.30012 15.5 9.80012 14.9 11.3001 14.9Z" fill="#1A1C2F"/>
<path d="M10.8999 15.2C13.0999 15 13.7999 15.6 15.5999 16.4C16.0999 16.8 16.5999 17.2 17.0999 17.6C17.8999 18.4 18.9999 20.2 19.5999 21.2C20.3999 23.5 19.9999 23.7 19.8999 25.7C19.8999 25.7 19.9999 26.3 19.8999 26.6C18.8999 29.2 16.2999 30.5 13.5999 30.1C11.7999 29.8 9.0999 28.2 7.9999 26.7C7.4999 26 5.9999 23.1 5.8999 22.4C5.8999 21.4 5.8999 21.4 5.8999 20.5C6.2999 19.5 6.1999 18.8 6.7999 17.8C7.4999 16.3 9.2999 15.3 10.8999 15.2Z" fill="#F5DBB5"/>
<path d="M11.5 16.9C12.7 17 14.2 17.4 15.2 18.1C16 18.8 17.4 20.9 17.8 21.8C17.9 22.1 18.3 23.4 18.3 23.6C18.4 24.3 17.9 26.1 17.5 26.7C17.2 27.3 16 28.1 17.2 27C18 25.3 18.4 24.5 17.9 22.6C17.6 21.3 15.9 18.7 14.8 17.9C13.5 17 11.3 16.7 9.80003 17.4C9.50003 17.6 8.50003 18.5 8.30003 18.8C7.70003 19.7 7.90003 20.8 7.70003 21.8C8.20003 24.1 9.10003 26 11.2 27.2C12.4 27.9 14.9 28.9 16.2 27.9C15.1 29.1 13 28.3 11.7 27.7C9.90004 26.9 8.70003 25.4 8.00003 23.6C7.60003 22.4 7.50003 21.4 7.60003 20.1C7.80003 18.8 8.50004 18.4 9.40004 17.5C10.5 17.1 10.5 17.1 11.5 16.9Z" fill="#1A1C2F"/>
<path d="M11.6 15.8C12.5 15.8 13.4 16.2 14.2 16.6C13.8 16.6 13.5 16.3 12.9 16.2C11.7 16 10.4 16 9.4 16.6C8.9 16.9 7.7 18.1 7.4 18.5C6.9 19.5 6.7 22.1 6.9 23.2C7.2 24 7.4 24.5 7.9 25.3C10.6 29.3 18 31.7 19.1 25.1C19.1 26.9 18.5 27.8 17 28.7C15.6 29.6 14.9 29.6 13.3 29.2C10.8 28.5 8.7 27.1 7.5 24.8C6.2 22.4 6.6 21.5 7.1 19C7.6 17.4 9 16.4 10.5 15.8C10.8 16 11.2 15.8 11.6 15.8Z" fill="#1A1C2F"/>
<path d="M14.6001 16.8C17.3001 18.5 19.5001 20.9 19.1001 24.3C19.0001 23.7 19.0001 23 18.9001 22.4C18.3001 19.7 16.6001 18.4 14.6001 16.8Z" fill="#1A1C2F"/>
<path d="M11.3998 17.9C14.1998 17.7 16.9998 21 17.2998 23.6C17.3998 24.8 16.8998 26.4 15.7998 27.1C14.6998 27.8 14.1998 27.7 13.0998 27.2C11.7998 26.6 10.3998 25.4 9.69981 24.2C9.09981 23.2 9.0998 22.5 8.7998 21.4C8.7998 20.5 8.89981 19.8 9.49981 19.1C9.89981 18.5 10.6998 17.9 11.3998 17.9Z" fill="#1A1C2F"/>
<path d="M11.2997 18C12.9997 17.8 14.8997 19.2 15.7997 20.6C16.1997 21.2 16.9997 22.9 17.0997 23.6C17.2997 25 16.4997 26.7 14.9997 27.2C12.9997 27.8 9.89974 25.1 9.19974 23.3C8.89974 22 8.49973 21 9.09973 19.7C9.39973 19 10.5997 18.1 11.2997 18Z" fill="#F5DBB5"/>
<path d="M7.8001 12.2C7.8001 12.2 5.1001 12.3 4.0001 13.8C1.9001 16.8 1.1001 16.7 1.1001 16.7C1.1001 16.7 7.3001 17.7 9.1001 16.7C11.0001 15.7 11.1001 15.1 11.1001 15.1L7.8001 12.2Z" fill="#608B00"/>
<path d="M18.8003 8.29996C18.8003 8.29996 18.8003 5.59996 17.3003 4.39996C14.4003 2.19996 14.5003 1.49997 14.5003 1.49997C14.5003 1.49997 13.3003 7.59997 14.3003 9.49997C15.3003 11.4 15.9003 11.6 15.9003 11.6L18.8003 8.29996Z" fill="#608B00"/>
<path d="M22.6002 5.89996C23.2002 5.89996 23.7002 5.49997 23.9002 4.99997C24.0002 4.69997 24.1002 4.49998 24.0002 4.19998C23.8002 2.59998 24.0002 2.39996 24.0002 2.39996C24.0002 2.39996 21.7002 3.89996 21.4002 4.79996C21.1002 5.69996 21.3002 5.89996 21.3002 5.89996H22.6002Z" fill="#608B00"/>
<path d="M22.2001 4.79996C22.3001 4.59996 22.4001 4.39998 22.5001 4.19998C22.6001 3.69998 22.7001 2.69998 22.5001 2.19998C21.9001 0.799982 22.1001 0.299957 22.1001 0.299957C22.1001 0.299957 20.9001 3.79997 21.0001 4.99997C21.0001 6.19997 21.2001 6.29996 21.2001 6.29996L22.2001 4.79996Z" fill="#608B00"/>
<path d="M12.6999 2.09996C12.6999 2.09996 12.3999 0.999945 9.29986 0.799945C7.09986 0.599945 5.99986 2.09996 5.49986 2.99996L5.29986 3.39995C5.09986 3.69995 4.89986 3.79995 4.59986 3.89995C4.39986 3.99995 4.19986 4.09997 4.09986 4.19997C3.29986 5.09997 3.09986 6.19996 3.39986 7.09996C3.49986 7.59996 3.49986 8.09996 3.19986 8.49996C2.69986 9.09996 2.29986 10.1 2.49986 10.9C2.89986 12.5 3.99986 14.1 5.49986 14C5.59986 14.5 5.79986 14.9 5.89986 15.1C6.29986 16 8.69986 15.6 9.19986 15.9C9.59986 16.2 11.6999 15.6 12.8999 15.1C13.2999 14.9 13.6999 14.5 14.0999 14.1C14.2999 13.8 14.5999 13.6 14.8999 13.5C17.0999 12.9 17.6999 11.2 17.6999 10.1C17.6999 8.79996 16.8999 7.09995 16.4999 6.29994C16.3999 5.99994 16.2999 5.69996 16.2999 5.49996C16.4999 3.49996 15.2999 1.99997 14.4999 1.69997C13.6999 1.49997 13.7999 1.49995 12.8999 1.89995L12.6999 2.09996Z" fill="url(#paint0_radial_164_10708)"/>
<path d="M9.00013 9.99997C9.00013 9.99997 8.00013 8.39996 7.60013 7.79996C7.20013 7.19996 8.10013 5.29996 9.00013 5.29996C9.90013 5.39996 10.8001 5.49998 10.8001 6.59998C10.8001 7.69998 11.2001 8.89996 11.2001 8.89996C11.3001 10.5 10.6001 10.8 9.00013 9.99997Z" fill="#CFAF5D"/>
<path d="M29.9999 7.19998C29.9999 7.19998 28.6999 7.39996 27.1999 7.39996C25.6999 7.39996 23.0999 8.49998 24.1999 9.19998C25.2999 9.89998 28.2999 9.69997 28.8999 8.99997C29.4999 8.29997 29.9999 7.19998 29.9999 7.19998Z" fill="url(#paint1_radial_164_10708)"/>
<path d="M38.7003 21.5C38.7003 21.5 36.6003 21.8 34.1003 21.9C31.6003 22 27.3003 23.7 29.2003 24.9C31.1003 26 36.1003 25.7 36.9003 24.6C37.7003 23.5 38.7003 21.5 38.7003 21.5Z" fill="url(#paint2_radial_164_10708)"/>
</g>
<defs>
<radialGradient id="paint0_radial_164_10708" cx="0" cy="0" r="1" gradientUnits="userSpaceOnUse" gradientTransform="translate(11.8018 6.29715) scale(13.1788 13.1788)">
<stop stop-color="#FB624D"/>
<stop offset="1" stop-color="#BA001A"/>
</radialGradient>
<radialGradient id="paint1_radial_164_10708" cx="0" cy="0" r="1" gradientUnits="userSpaceOnUse" gradientTransform="translate(28.1923 9.40767) rotate(160.574) scale(14.1048 14.6694)">
<stop stop-color="#FB624D"/>
<stop offset="1" stop-color="#BA001A"/>
</radialGradient>
<radialGradient id="paint2_radial_164_10708" cx="0" cy="0" r="1" gradientUnits="userSpaceOnUse" gradientTransform="translate(35.6574 25.156) rotate(160.574) scale(23.3641 24.2993)">
<stop stop-color="#FB624D"/>
<stop offset="1" stop-color="#BA001A"/>
</radialGradient>
<clipPath id="clip0_164_10708">
<rect width="48" height="32" fill="white"/>
</clipPath>
</defs>
</svg>
