<svg width="48" height="32" viewBox="0 0 48 32" fill="none" xmlns="http://www.w3.org/2000/svg">
<path d="M44.4995 31.5H15.8995C14.7995 31.5 13.9995 30.6 13.9995 29.6V14.4C13.9995 13.3 14.8995 12.5 15.8995 12.5H44.4995C45.5995 12.5 46.3995 13.4 46.3995 14.4V29.6C46.3995 30.7 45.5995 31.5 44.4995 31.5Z" fill="#625B53"/>
<path d="M28.9996 11.4C29.0996 11.1 28.8996 10.8 28.5996 10.6L19.3996 6.20001C19.2996 6.10001 19.0996 6.10002 18.8996 6.10002L17.0996 6.40001H16.9996L9.99961 9.00002C9.79961 9.10002 9.69962 9.20002 9.59962 9.30002C9.29962 9.90002 8.2996 11.5 8.2996 11.7C8.2996 11.9 4.29962 26.7 3.19962 30.5C3.09962 30.9 3.49961 31.3 3.89961 31.3H13.0996C13.4996 31.3 13.7996 31 13.7996 30.7L13.2996 12.7C13.2996 12.4 13.5996 12.1 13.9996 12.1L28.0996 11.8C28.5996 11.9 28.8996 11.7 28.9996 11.4Z" fill="#889DAA"/>
<path d="M29.9996 12.3C30.0996 12 29.8996 11.7 29.5996 11.5L20.3996 6.30002C20.2996 6.20002 20.0996 6.20001 19.8996 6.20001L18.0996 6.50002H17.9996L10.9996 9.10002C10.7996 9.20002 10.6996 9.30001 10.5996 9.40001C10.2996 10 9.2996 11.6 9.2996 11.8C9.2996 12 5.29962 26.8 4.19962 30.6C4.09962 31 4.49961 31.4 4.89961 31.4H14.0996C14.4996 31.4 14.7996 31.1 14.7996 30.8L14.2996 13.7C14.2996 13.4 14.5996 13.1 14.9996 13.1L29.0996 12.8C29.5996 12.8 29.8996 12.6 29.9996 12.3Z" fill="#DDDEDC"/>
<mask id="mask0_164_10616" style="mask-type:luminance" maskUnits="userSpaceOnUse" x="13" y="12" width="34" height="20">
<path d="M44.4995 31.5H15.8995C14.7995 31.5 13.9995 30.6 13.9995 29.6V14.4C13.9995 13.3 14.8995 12.5 15.8995 12.5H44.4995C45.5995 12.5 46.3995 13.4 46.3995 14.4V29.6C46.3995 30.7 45.5995 31.5 44.4995 31.5Z" fill="white"/>
</mask>
<g mask="url(#mask0_164_10616)">
<path d="M44.7994 12.4C44.7994 12.4 43.5994 18.9 41.6994 21.1C39.7994 23.2 39.3994 27.8 39.3994 27.8L46.4994 27V23C46.4994 23 43.9994 24.6 43.5994 25.3C43.5994 25.3 44.3994 22.9 46.4994 21.8L46.5994 18.9C46.5994 18.9 44.5994 20.4 43.3994 21.7C43.3994 21.7 45.4994 19.2 46.2994 17.9C47.0994 16.7 47.3994 15.1 47.3994 15.1V11.4L44.7994 12.4Z" fill="#6C7C62"/>
</g>
<path d="M44.4995 24.5H36.5995V24C36.5995 22.9 35.6995 22.1 34.6995 22.1H15.8995C14.7995 22.1 13.9995 23 13.9995 24V26.5V27.2V29.7C13.9995 30.8 14.8995 31.6 15.8995 31.6H44.4995C45.5995 31.6 46.3995 30.7 46.3995 29.7V26.5C46.3995 25.3 45.5995 24.5 44.4995 24.5Z" fill="#A7B6C1"/>
<path d="M38.5995 18.1C38.5995 18 38.6995 18 38.6995 17.9V17.8C38.6995 17.6 38.7995 17.5 38.8995 17.3C39.0995 16.9 38.5995 17.2 38.5995 17C38.2995 16.7 37.9995 17 37.7995 17.2C37.5995 17.3 37.3995 17.2 37.2995 17.3C37.2995 17.5 37.5995 17.2 37.5995 17.4C37.3995 17.6 37.1995 17.9 36.9995 18.1C37.0995 18.4 37.0995 18.4 37.3995 18C37.4995 18.1 37.3995 18.2 37.4995 18.2C37.4995 18.5 37.6995 18.5 37.8995 18.4C38.2995 18.2 38.2995 18.3 38.2995 18.7C38.2995 18.9 38.2995 19.1 38.4995 19.2C38.4995 19 38.4995 18.8 38.4995 18.6C38.4995 18.3 38.5995 18.2 38.8995 18.3C38.9995 18.3 39.0995 18.4 39.1995 18.2C39.0995 18 38.7995 18.2 38.5995 18.1Z" fill="#BDBCAD"/>
<path d="M31.7994 17.6C31.6994 17.6 31.6994 17.5 31.5994 17.5C31.4994 17.5 31.4994 17.4 31.4994 17.3C31.4994 17.2 31.6994 17.1 31.5994 17H31.4994C31.3994 17 31.3994 17.1 31.3994 17.2C31.2994 17.2 31.1994 17.2 31.1994 17C31.1994 16.9 31.0994 16.8 31.0994 16.9C30.9994 17.1 30.7994 17.2 30.7994 17.5C30.9994 17.7 30.6994 17.7 30.5994 17.8C30.4994 17.9 30.2994 17.8 30.2994 18.1C30.3994 18.2 30.1994 18.3 30.2994 18.4C30.2994 18.4 30.2994 18.5 30.3994 18.5C30.4994 18.6 30.5994 18.6 30.6994 18.7C30.6994 18.7 30.6994 18.8 30.7994 18.8C30.7994 18.9 30.7994 19 30.8994 19C31.0994 19 31.2994 18.8 31.4994 19C31.5994 19.1 31.6994 19 31.6994 18.8C31.7994 18.5 31.7994 18.3 31.7994 18C31.5994 17.7 31.3994 18 31.1994 17.9V17.8C31.3994 17.7 31.5994 17.7 31.8994 17.7C31.9994 17.7 31.9994 17.7 31.9994 17.6C31.8994 17.7 31.8994 17.6 31.7994 17.6Z" fill="#BDBCAD"/>
<path d="M34.3996 18.3C33.9996 18.3 34.0996 17.9 34.0996 17.7C33.9996 17.6 34.3996 17.5 34.1996 17.3C34.0996 17.2 34.0996 17.1 34.1996 17C34.1996 16.9 34.2996 16.8 34.0996 16.8C33.9996 16.8 33.8996 16.8 33.8996 17C33.8996 17.1 33.8996 17.2 33.7996 17.3C33.6996 17.3 33.5996 17.3 33.4996 17.3C33.4996 17.2 33.6996 17.1 33.6996 17C33.6996 16.9 33.5996 17 33.4996 17C33.1996 16.9 33.0996 17.1 33.0996 17.3C32.9996 17.4 32.9996 17.5 32.8996 17.7C32.8996 17.7 32.8996 17.7 32.7996 17.7C32.7996 17.9 32.5996 18 32.5996 18.2C32.9996 18 33.0996 18 33.0996 18.3C32.7996 18.4 32.5996 18.5 32.5996 18.8L32.6996 18.9H32.7996C32.8996 18.6 33.0996 18.6 33.3996 18.8C33.6996 19.1 33.9996 19.1 34.1996 18.8C34.0996 18.6 33.9996 18.4 33.7996 18.3C33.6996 18.3 33.5996 18.3 33.5996 18.3C33.5996 18.3 33.4996 18.3 33.4996 18.4C33.4996 18.5 33.4996 18.5 33.5996 18.6C33.5996 18.7 33.6996 18.7 33.6996 18.6C33.6996 18.5 33.7996 18.5 33.7996 18.5C33.7996 18.6 33.9996 18.7 33.7996 18.8C33.5996 18.9 33.2996 18.6 33.2996 18.4C33.3996 18.4 33.3996 18.3 33.4996 18.3C33.6996 18.1 33.8996 18.1 33.9996 18.3C34.0996 18.4 34.1996 18.4 34.3996 18.5C34.4996 18.5 34.4996 18.5 34.5996 18.5C34.3996 18.4 34.3996 18.3 34.3996 18.3Z" fill="#BDBCAD"/>
<path d="M36.4994 17.3C36.3994 17.2 36.2994 17.3 36.2994 17.4C36.1994 17.2 35.9994 17.4 35.8994 17.3C35.8994 17.2 36.0994 17.2 35.9994 17C35.8994 16.9 35.7995 16.9 35.6995 17C35.5995 17 35.3994 17 35.5994 17.2C35.6994 17.4 35.5994 17.4 35.4994 17.4C35.3994 17.4 35.2995 17.3 35.1995 17.5C35.0995 17.6 35.0994 17.8 35.0994 18C35.2994 18.1 35.0994 18.4 35.3994 18.4L35.4994 18.5C35.4994 18.7 35.1994 18.8 35.3994 19C35.2994 19 35.1995 19 35.1995 19C34.9995 19 35.0995 19.1 35.1995 19.2C35.3995 19.2 35.4994 19.2 35.5994 19.1C35.8994 19.1 36.1994 19.2 36.4994 19.2C36.5994 19.1 36.5994 19 36.3994 19C36.1994 19 35.9994 19 35.8994 19C35.8994 18.9 35.9994 18.9 35.9994 18.8C36.1994 18.8 36.2995 18.8 36.1995 18.6C36.0995 18.5 36.0994 18.4 36.0994 18.3C36.0994 18.3 36.0994 18.3 36.0994 18.2C36.0994 18.2 36.0994 18.2 36.0994 18.1C36.2994 18.1 36.3994 18 36.4994 17.9C36.5994 17.8 36.5994 17.7 36.3994 17.7C36.2994 17.7 36.1994 17.7 36.0994 17.8C35.9994 17.8 35.9994 17.8 35.8994 17.8C35.8994 17.6 36.1995 17.7 36.1995 17.5C36.2995 17.5 36.3994 17.5 36.3994 17.5C36.4994 17.5 36.5994 17.5 36.5994 17.4C36.5994 17.3 36.5994 17.3 36.4994 17.3Z" fill="#BDBCAD"/>
<path d="M26.5996 18.8C26.4996 18.8 26.4996 18.8 26.3996 18.7C26.1996 18.5 26.3996 18.2 26.3996 18C26.3996 17.8 26.3996 17.8 26.2996 17.8C26.1996 17.8 26.0996 17.9 25.9996 17.7C25.9996 17.6 26.1996 17.6 26.1996 17.5C26.0996 17.4 25.8996 17.4 25.8996 17.2C25.8996 17.1 25.8996 17.1 25.7996 17.1C25.7996 16.9 25.9996 16.9 26.0996 16.8C25.9996 16.6 25.9996 16.6 25.5996 16.7C25.4996 16.7 25.3996 16.5 25.1996 16.6C25.0996 16.7 25.1996 16.7 25.1996 16.8C25.1996 16.9 25.0996 17.1 25.0996 17.2C25.0996 17.3 24.9996 17.3 24.8996 17.3C24.7996 17.3 24.7996 17.2 24.7996 17.1C24.7996 17 24.7996 17 24.7996 16.9C24.7996 16.8 24.7996 16.8 24.6996 16.8C24.5996 16.8 24.5996 16.9 24.5996 16.9C24.5996 17.1 24.5996 17.2 24.4996 17.4C24.0996 17.2 24.1996 17.6 24.0996 17.7C24.0996 18.1 24.2996 17.8 24.3996 17.8C24.3996 18 23.9996 18.1 24.1996 18.3C24.2996 18.4 24.4996 18.6 24.5996 18.7C24.6996 18.6 24.5996 18.4 24.6996 18.3C24.6996 18.4 24.7996 18.5 24.7996 18.6C24.8996 18.7 24.9996 19 25.1996 19C25.3996 19 25.2996 18.7 25.3996 18.6C25.3996 18.6 25.3996 18.6 25.4996 18.6C25.5996 18.7 25.4996 18.9 25.6996 18.8C25.9996 18.7 25.9996 18.9 26.0996 19.1C26.1996 19.1 26.3996 19.4 26.4996 19.1V19C26.8996 18.7 26.8996 18.7 26.5996 18.8Z" fill="#BDBCAD"/>
<path d="M19.8995 15.7C19.9995 15.7 19.9996 15.5 20.0996 15.4C20.2996 15.4 20.2995 15.5 20.2995 15.6C20.2995 15.8 20.2995 15.9 20.4995 15.8C20.4995 15.7 20.5996 15.7 20.6996 15.7C20.6996 15.8 20.5995 15.9 20.7995 15.9C20.8995 15.9 20.9995 15.8 20.8995 15.7C20.8995 15.6 20.8995 15.4 20.8995 15.3C20.7995 15.1 20.8996 15.1 21.0996 15.1V15C20.6996 14.4 20.6995 14.4 20.2995 14.9C20.1995 15 20.1996 15 20.0996 15.1L19.9995 15.2C19.7995 15.4 19.6995 15.5 19.8995 15.7Z" fill="#BDBCAD"/>
<path d="M18.9996 18.6C18.5996 18.9 18.5996 18.5 18.4996 18.4C18.4996 18.3 18.5996 18.3 18.5996 18.2C18.6996 18.1 18.6996 18 18.5996 17.9C18.3996 17.8 18.3996 18 18.3996 18.1C18.3996 18 18.2996 18 18.2996 17.9C18.1996 17.6 18.4996 17.6 18.5996 17.4C18.7996 17.2 18.4996 17.2 18.3996 17.2C18.3996 17.2 18.3996 17.2 18.3996 17.1C18.4996 17 18.3996 17 18.3996 16.9C18.2996 16.9 18.1996 16.9 18.0996 16.9L17.9996 16.8L17.8996 16.7C17.6996 16.7 17.5996 16.8 17.6996 17C17.6996 17 17.6996 17 17.7996 17C17.7996 17 17.7996 17 17.6996 17C17.5996 17.2 17.4996 17.1 17.2996 17.2C17.1996 17.1 17.0996 17.1 16.9996 17.1C16.8996 17.3 16.4996 17.4 16.5996 17.7C16.4996 17.8 16.5996 17.8 16.5996 17.9C16.6996 17.9 16.7996 17.9 16.8996 17.9C16.8996 18 16.9996 18.1 16.9996 18.2C16.7996 18.3 16.4996 18.4 16.5996 18.7C16.6996 18.8 16.7996 18.8 16.8996 18.7C17.0996 18.5 17.2996 18.4 17.4996 18.7C17.5996 18.5 17.4996 18.4 17.4996 18.2H17.5996C17.5996 18.5 17.6996 18.5 17.6996 18.6C17.6996 18.6 17.6996 18.7 17.7996 18.7C17.8996 19 18.2996 18.9 18.4996 19C18.4996 19 18.4996 19.1 18.5996 19.1C18.4996 19.4 18.5996 19.5 18.9996 19.6C18.9996 19.5 19.0996 19.4 19.0996 19.3C19.0996 19.2 19.1996 19.1 19.1996 19C19.0996 18.8 19.0996 18.5 18.9996 18.6Z" fill="#BDBCAD"/>
<path d="M24.1997 15.3C23.9997 15.2 24.0996 15 23.9996 14.8C23.9996 14.7 23.9996 14.6 23.8996 14.6C23.7996 14.6 23.7997 14.7 23.6997 14.7C23.5997 14.8 23.5996 15 23.4996 15.1C23.2996 15.3 23.3996 15.4 23.5996 15.4C23.7996 15.4 23.7996 15.5 23.7996 15.6C23.7996 15.7 23.7996 15.8 23.7996 15.9H23.8996C23.9996 15.7 23.7996 15.4 23.9996 15.3C24.1996 15.4 24.1997 15.4 24.1997 15.3Z" fill="#BDBCAD"/>
<path d="M25.4998 15.9C25.5998 15.7 25.5998 15.5 25.4998 15.4C25.3998 15.3 25.3998 15.2 25.4998 15.1C25.5998 15 25.5998 14.9 25.3998 14.9C25.1998 14.9 25.0998 14.9 24.8998 15C24.9998 15.2 25.0998 15.1 25.2998 15.2C25.1998 15.3 25.0998 15.3 24.9998 15.4C24.8998 15.5 24.8998 15.6 25.0998 15.6C25.2998 15.6 25.2998 15.7 25.2998 15.8C25.2998 16 25.1998 16 24.9998 15.9C24.8998 15.8 24.7998 15.9 24.7998 16C25.0998 16 25.2998 16.1 25.4998 15.9Z" fill="#BDBCAD"/>
<path d="M22.3994 15.4C22.3994 15.4 22.3994 15.6 22.4994 15.5C22.5994 15.5 22.5994 15.4 22.5994 15.3C22.5994 15.2 22.6994 14.9 22.3994 15.1C22.2994 15.1 22.0994 15.2 21.9994 15.1C21.8994 14.9 21.7994 15 21.5994 15C21.4994 15.1 21.4994 15.1 21.5994 15.2C21.7994 15.3 21.6994 15.5 21.7994 15.6C21.8994 15.5 21.8994 15.3 21.9994 15.2C22.0994 15.4 22.2994 15.3 22.3994 15.4Z" fill="#BDBCAD"/>
<path d="M20.6997 17.7C20.5997 17.6 20.5997 17.5 20.3997 17.6C20.1997 17.5 19.9997 17.6 19.7997 17.9C19.7997 18 19.6997 18.1 19.6997 18.2C19.7997 18.3 19.7997 18.3 19.8997 18.4C20.1997 18.4 20.4997 18.3 20.7997 18.3C21.0997 18.3 21.0997 18.3 20.9997 18.1C20.9997 18 21.0997 18 21.0997 17.9C20.9997 17.8 20.8997 17.8 20.6997 17.7Z" fill="#BDBCAD"/>
<path d="M25.5994 16.2C25.3994 16.1 25.1994 16.1 24.8994 16.1C25.0994 16.2 25.2994 16.2 25.2994 16.4C25.2994 16.5 25.3994 16.5 25.4994 16.5C25.5994 16.5 25.5994 16.5 25.6994 16.4C25.6994 16.3 25.5994 16.3 25.5994 16.2Z" fill="#BDBCAD"/>
<path d="M29.4995 18.7C29.2995 18.7 29.2995 18.6 29.3995 18.5C29.4995 18.4 29.4995 18.3 29.3995 18.2C29.2995 18.1 29.1995 17.9 29.1995 17.7C29.2995 17.7 29.2995 17.6 29.3995 17.6C29.4995 17.6 29.5995 17.6 29.5995 17.4C29.5995 17.3 29.4995 17.3 29.3995 17.3C29.3995 17.3 29.2995 17.3 29.2995 17.4C29.2995 17.3 29.1995 17.2 29.2995 17C29.3995 16.7 29.2995 16.7 29.0995 16.7C29.0995 16.7 29.0995 16.8 28.9995 16.8C28.8995 16.8 28.7995 16.9 28.6995 17C28.6995 17 28.6995 17 28.5995 17H28.4995C28.4995 17.2 28.4995 17.4 28.4995 17.6H28.3995V17.5C28.3995 17.4 28.3995 17.3 28.1995 17.3C27.9995 17.3 28.0995 17.4 28.0995 17.5C28.0995 17.6 28.0995 17.7 28.0995 17.7C27.9995 17.7 28.0995 17.5 27.8995 17.5C27.7995 17.5 27.7995 17.7 27.7995 17.8V17.9C27.7995 18 27.7995 18.1 27.8995 18.2C27.9995 18.3 27.9995 18.3 27.8995 18.4C27.8995 18.4 27.7995 18.5 27.6995 18.5C27.5995 18.6 27.5995 18.7 27.7995 18.8C27.8995 18.8 27.9995 18.9 28.0995 19H28.1995C28.2995 19 28.2995 18.9 28.2995 18.9V18.8C28.4995 18.9 28.7995 18.9 29.0995 18.9C29.1995 18.8 29.2995 18.9 29.3995 18.9C29.4995 18.9 29.5995 18.9 29.5995 18.8C29.5995 18.7 29.4995 18.7 29.4995 18.7ZM28.6995 18.8C28.5995 18.8 28.4995 18.8 28.2995 18.8C28.3995 18.6 28.4995 18.5 28.5995 18.4C28.6995 18.3 28.7995 18.2 28.7995 18H28.8995C28.7995 18.1 28.7995 18.2 28.8995 18.4C29.0995 18.6 28.9995 18.8 28.6995 18.8Z" fill="#BDBCAD"/>
<path d="M23.2996 18.1C23.2996 18.1 23.2996 18 23.1996 18C23.1996 17.9 23.3996 17.7 23.1996 17.6L23.0996 17.7C23.0996 17.7 23.0996 17.7 22.9996 17.7C22.8996 17.7 22.7996 17.7 22.6996 17.6H22.7996C22.8996 17.6 22.9996 17.6 22.8996 17.4C22.7996 17.3 22.7996 17.3 22.7996 17.1C22.7996 17 22.9996 16.9 22.8996 16.8C22.6996 16.6 22.4996 16.9 22.2996 16.9C22.1996 16.9 22.1996 16.9 22.1996 17C22.1996 17.2 22.1996 17.3 22.1996 17.5C21.7996 17.8 21.6996 18.2 21.9996 18.6C22.1996 18.9 22.4996 19 22.7996 18.8C22.8996 18.7 23.1996 18.6 23.1996 18.6C23.3996 18.8 23.3996 18.6 23.3996 18.5C23.6996 18.4 23.6996 18.2 23.2996 18.1Z" fill="#BDBCAD"/>
<path d="M41.6995 12.8C41.6995 12.8 44.4995 11.8 44.9995 9.80002C46.0995 6.00002 46.8995 5.90001 46.8995 5.90001C46.8995 5.90001 40.2995 7.10002 38.6995 8.80002C37.0995 10.5 37.1995 11.2 37.1995 11.2L41.6995 12.8Z" fill="#608B00"/>
<path d="M41.3995 10.1C41.3995 10.1 42.4995 9.50002 41.9995 6.10002C41.5995 3.70002 39.7995 2.90002 38.6995 2.70002L38.1995 2.50002C37.8995 2.40002 37.6995 2.20001 37.4995 1.90001C37.3995 1.70001 37.1995 1.60002 36.9995 1.50002C35.8995 0.900018 34.6995 0.900018 33.7995 1.50002C33.2995 1.80002 32.7995 1.80002 32.2995 1.60002C31.4995 1.30002 30.3995 1.00002 29.5995 1.50002C27.9995 2.30002 26.5995 3.80001 26.9995 5.40001C26.5995 5.60001 26.1995 5.90002 25.8995 6.10002C25.0995 6.80002 25.9995 9.20002 25.7995 9.80002C25.5995 10.3 26.6995 12.4 27.4995 13.6C27.7995 14 28.2995 14.3 28.8995 14.6C29.1995 14.7 29.4995 15 29.6995 15.3C30.8995 17.4 32.7995 17.7 33.8995 17.4C35.1995 17.1 36.7995 15.9 37.5995 15.2C37.7995 15 38.0995 14.9 38.3995 14.8C40.5995 14.5 41.8995 12.9 41.8995 12C41.8995 11.1 41.8995 11.2 41.3995 10.3V10.1Z" fill="url(#paint0_radial_164_10616)"/>
<path d="M32.2993 8.80002C32.2993 8.80002 33.1993 6.90002 33.4993 6.30002C33.7993 5.70002 36.0993 5.30002 36.4993 6.10002C36.9993 7.00002 37.2993 7.90002 36.3993 8.50002C35.4993 9.10002 34.4993 10.2 34.4993 10.2C33.1993 11.2 32.4993 10.8 32.2993 8.80002Z" fill="#CFA740"/>
<path d="M8.69983 11.8C8.69983 11.8 7.89982 10 6.49982 9.60002C3.89982 9.00002 3.7998 8.40001 3.7998 8.40001C3.7998 8.40001 4.79982 12.9 5.99982 13.9C7.19982 14.9 7.69983 14.8 7.69983 14.8L8.69983 11.8Z" fill="#608B00"/>
<path d="M6.0997 23.6C6.0997 23.6 5.29969 25.4 3.89969 25.8C1.29969 26.4 1.19971 27 1.19971 27C1.19971 27 2.19969 22.5 3.39969 21.5C4.59969 20.5 5.0997 20.6 5.0997 20.6L6.0997 23.6Z" fill="#608B00"/>
<path d="M9.19969 16.2C9.19969 16.2 9.39969 15.5 7.69969 14.3C6.49969 13.5 5.39967 14 4.89967 14.3L4.59969 14.4C4.39969 14.5 4.19968 14.5 3.99968 14.5C3.89968 14.5 3.69969 14.5 3.59969 14.5C2.89969 14.7 2.39967 15.3 2.29967 15.9C2.19967 16.2 1.99969 16.5 1.69969 16.6C1.19969 16.8 0.699679 17.2 0.499679 17.7C0.199679 18.7 0.299691 20 1.19969 20.4C1.09969 20.7 1.09969 21 1.09969 21.2C1.09969 21.9 2.49969 22.4 2.69969 22.7C2.89969 23 4.19969 23.4 5.09969 23.5C5.39969 23.5 5.69969 23.5 6.09969 23.3C6.29969 23.2 6.49967 23.2 6.79967 23.2C8.19967 23.5 9.09967 22.8 9.39967 22.2C9.79967 21.5 9.89967 20.3 9.89967 19.7C9.89967 19.5 9.99969 19.3 10.0997 19.2C10.8997 18.1 10.6997 16.9 10.2997 16.5C9.89967 16.1 9.99967 16.2 9.29967 16.1L9.19969 16.2Z" fill="url(#paint1_radial_164_10616)"/>
<path d="M4.89988 19.7C4.89988 19.7 4.39988 18.6 4.29988 18.1C4.09988 17.7 4.89989 16.6 5.49989 16.7C6.09989 16.8 6.59989 17.1 6.49989 17.7C6.39989 18.4 6.49989 19.2 6.49989 19.2C6.29989 20.3 5.79988 20.4 4.89988 19.7Z" fill="#CFA740"/>
<defs>
<radialGradient id="paint0_radial_164_10616" cx="0" cy="0" r="1" gradientUnits="userSpaceOnUse" gradientTransform="translate(23.9212 16.7074) scale(14.3484 14.3484)">
<stop stop-color="#FB624D"/>
<stop offset="1" stop-color="#BA001A"/>
</radialGradient>
<radialGradient id="paint1_radial_164_10616" cx="0" cy="0" r="1" gradientUnits="userSpaceOnUse" gradientTransform="translate(12.6444 23.9403) scale(26.1807 26.1807)">
<stop stop-color="#FB624D"/>
<stop offset="1" stop-color="#BA001A"/>
</radialGradient>
</defs>
</svg>
