<svg width="48" height="60" viewBox="0 0 48 60" fill="none" xmlns="http://www.w3.org/2000/svg">
<g clip-path="url(#clip0_164_10378)">
<path d="M41.7003 45.4H18.3003L19.3003 42.3C19.6003 41.3 20.6003 40.6 21.6003 40.6H38.4003C39.4003 40.6 40.4003 41.3 40.7003 42.3L41.7003 45.4Z" fill="#4F4D41"/>
<path d="M20.7003 59.1H39.3003C40.6003 59.1 41.7003 58 41.7003 56.7V45.3H18.3003V56.7C18.3003 58.1 19.4003 59.1 20.7003 59.1Z" fill="#8C8068"/>
<path d="M35.3002 19.4C31.8002 17.2 28.2002 17.6 24.7002 19.4V43.4H35.3002V19.4Z" fill="#2A2620"/>
<path d="M43.0004 16.8C43.0004 16.4 42.7004 16 42.2004 16H38.1004V14.8H35.9004V16H24.1004V14.8H21.9004V16H17.7004C17.3004 16 16.9004 16.3 16.9004 16.8V17.2C16.9004 17.6 17.2004 18 17.7004 18H21.1004C21.5004 18 21.9004 18.3 21.9004 18.8V43.2C21.9004 43.6 22.2004 44 22.7004 44H23.3004C23.7004 44 24.1004 43.7 24.1004 43.2V18.8C24.1004 18.4 24.4004 18 24.9004 18H35.2004C35.6004 18 36.0004 18.3 36.0004 18.8V43.2C36.0004 43.6 36.3004 44 36.8004 44H37.4004C37.8004 44 38.2004 43.7 38.2004 43.2V18.8C38.2004 18.4 38.5004 18 39.0004 18H42.4004C42.8004 18 43.2004 17.7 43.2004 17.2V16.8H43.0004Z" fill="#494B48"/>
<path d="M17.5005 14.5L26.9005 11.9H34.5005L42.5005 14.9V16H17.5005V14.5Z" fill="#8C8068"/>
<path d="M17.1006 13.7C17.1006 13.3 17.5006 12.9 17.9006 12.9C20.1006 12.8 24.0006 12.4 25.4006 10.7L25.7006 10.3H35.3006L35.6006 10.8C35.7006 10.9 37.5006 13.8 41.6006 13.1C42.0006 13 42.4006 13.3 42.5006 13.7L42.6006 14.2C42.7006 14.7 42.4006 15.1 41.9006 15.2C41.3006 15.3 40.8006 15.3 40.3006 15.3C37.4006 15.3 35.4006 13.9 34.3006 12.6C34.1006 12.4 33.9006 12.3 33.7006 12.3H27.0006C26.8006 12.3 26.6006 12.4 26.5006 12.5C24.2006 14.5 19.9006 14.9 18.0006 14.9C17.5006 14.9 17.2006 14.5 17.2006 14.1L17.1006 13.7Z" fill="#494B48"/>
<path d="M14.7002 14.3C14.7002 14.3 12.0002 11.6 9.40019 11.9C4.30019 12.6 3.7002 11.7 3.7002 11.7C3.7002 11.7 8.50019 19 11.4002 20C14.2002 21 15.0002 20.5 15.0002 20.5L14.7002 14.3Z" fill="#608B00"/>
<path d="M30.7001 11.1C30.7001 11.1 33.1001 8.10004 32.4001 5.60004C31.1001 0.700037 32.0001 3.05176e-05 32.0001 3.05176e-05C32.0001 3.05176e-05 25.3001 5.60004 24.7001 8.60004C24.1001 11.5 24.6001 12.2 24.6001 12.2L30.7001 11.1Z" fill="#608B00"/>
<path d="M24.8 28.9C24.8 28.9 23.7 27.6 22.5 27.7C20.3 27.9 20 27.4 20 27.4C20 27.4 21.9 30.8 23.1 31.3C24.3 31.8 24.7 31.6 24.7 31.6L24.8 28.9Z" fill="#608B00"/>
<path d="M37 20.8C37 20.8 39.2 21.3 40.3 20.9C42.3 20.1 42.9 20.3 42.9 20.3C42.9 20.3 38 18.7 36.3 18.7C34.6 18.7 34.5 19 34.5 19L37 20.8Z" fill="#608B00"/>
<path d="M28.6003 8.30002C28.6003 8.30002 29.5003 6.90003 26.7003 3.50003C24.8003 1.10003 22.2003 1.40002 20.8003 1.80002L20.2003 1.90002C19.8003 2.00002 19.4003 1.90004 19.0003 1.70004C18.7003 1.60004 18.5003 1.50003 18.2003 1.50003C16.6003 1.50003 15.3003 2.40004 14.5003 3.60004C14.1003 4.20004 13.6003 4.60004 12.9003 4.70004C11.8003 4.80004 10.4003 5.20002 9.80027 6.30002C8.60027 8.30002 7.90027 10.9 9.40027 12.3C9.10027 12.9 8.80028 13.4 8.60028 13.8C8.10028 15.1 10.8003 17.2 10.9003 18C11.0003 18.8 13.6003 20.3 15.3003 21.1C15.8003 21.4 16.7003 21.4 17.5003 21.3C18.0003 21.2 18.5003 21.3 18.9003 21.6C21.6003 23.2 23.9003 22.3 25.0003 21.2C26.3003 20 27.3003 17.6 27.7003 16.4C27.8003 16 28.1003 15.7 28.4003 15.4C30.6003 13.7 31.1003 11 30.5003 10C29.9003 8.90003 30.0003 9.10003 28.8003 8.50003L28.6003 8.30002Z" fill="url(#paint0_radial_164_10378)"/>
<path d="M16.8003 12C16.8003 12 17.5003 9.40002 17.7003 8.50002C18.0003 7.60002 20.8003 6.60003 21.6003 7.60003C22.4003 8.60003 23.0003 9.60003 22.0003 10.7C20.9003 11.8 20.0003 13.3 20.0003 13.3C18.6003 14.8 17.5003 14.4 16.8003 12Z" fill="#CFAF5D"/>
<path d="M45.9 43.8C45.9 43.8 47.1 43.4 47.2 39.8C47.2 37.3 45.5 36.2 44.4 35.7L43.9 35.5C43.6 35.3 43.4 35.1 43.2 34.8C43.1 34.6 43 34.4 42.8 34.3C41.8 33.5 40.5 33.3 39.5 33.7C39 33.9 38.4 33.8 37.9 33.5C37.1 33 36.1 32.6 35.1 32.9C33.4 33.5 31.6 34.7 31.8 36.4C31.3 36.6 30.8 36.8 30.5 37C29.5 37.6 30.1 40.2 29.8 40.8C29.5 41.3 30.3 43.6 30.9 45C31.1 45.4 31.6 45.9 32.2 46.3C32.5 46.5 32.8 46.8 32.9 47.2C33.8 49.6 35.6 50.1 36.9 50.1C38.3 50 40.2 49 41 48.5C41.3 48.3 41.6 48.2 41.9 48.2C44.2 48.3 45.8 46.9 46 45.9C46.2 44.9 46.2 45.1 45.7 44.1L45.9 43.8Z" fill="url(#paint1_radial_164_10378)"/>
<path d="M36.7003 40.1C36.7003 40.1 38.4003 38.9 39.1003 38.4C39.7003 37.9 42.0003 38.8 41.9003 39.8C41.9003 40.8 41.7003 41.8 40.5003 41.9C39.3003 42 37.9003 42.5 37.9003 42.5C36.3003 42.7 35.9003 41.9 36.7003 40.1Z" fill="#CFAF5D"/>
</g>
<defs>
<radialGradient id="paint0_radial_164_10378" cx="0" cy="0" r="1" gradientUnits="userSpaceOnUse" gradientTransform="translate(23.346 11.3784) rotate(47.1964) scale(18.4776)">
<stop stop-color="#FB624D"/>
<stop offset="1" stop-color="#BA001A"/>
</radialGradient>
<radialGradient id="paint1_radial_164_10378" cx="0" cy="0" r="1" gradientUnits="userSpaceOnUse" gradientTransform="translate(38.2136 40.1913) scale(51.5181 51.5181)">
<stop stop-color="#FB624D"/>
<stop offset="1" stop-color="#BA001A"/>
</radialGradient>
<clipPath id="clip0_164_10378">
<rect width="48" height="60" fill="white"/>
</clipPath>
</defs>
</svg>
